<?xml version="1.0" standalone="no"?>
<!DOCTYPE svg PUBLIC "-//W3C//DTD SVG 1.1//EN" "http://www.w3.org/Graphics/SVG/1.1/DTD/svg11.dtd" >
<svg xmlns="http://www.w3.org/2000/svg" xmlns:xlink="http://www.w3.org/1999/xlink" version="1.1">
<metadata>
Created by FontForge 20161116 at Thu Dec  7 00:14:33 2006
 By Jimmy Warting
Copyright (c) JT Types Ltd, 2006. All rights reserved.
</metadata>
<defs>
<font id="BlissPro-Italic" horiz-adv-x="367" >
  <font-face 
    font-family="Bliss Pro"
    font-weight="400"
    font-style="italic"
    font-stretch="normal"
    units-per-em="1000"
    panose-1="2 0 5 6 5 0 0 9 0 4"
    ascent="800"
    descent="-200"
    x-height="473"
    cap-height="659"
    bbox="-214 -241 1123 953"
    underline-thickness="50"
    underline-position="-100"
    slope="-12"
    stemh="69"
    stemv="89"
    unicode-range="U+0020-FB02"
  />
<missing-glyph horiz-adv-x="550" 
d="M50 0v659h450v-659h-450zM101 48h348v563h-348v-563zM231 222c-20 20 -29 38 -29 60c0 76 130 98 130 172c0 29 -23 47 -55 47c-31 0 -58 -15 -85 -39l-27 35c29 30 70 51 117 51c65 0 106 -38 106 -91c0 -91 -132 -129 -132 -172c0 -16 9 -26 17 -35zM255 107
c-22 0 -38 17 -38 39c0 23 16 40 38 40c21 0 37 -17 37 -40c0 -22 -16 -39 -37 -39z" />
    <glyph glyph-name="fi" unicode="fi" horiz-adv-x="547" 
d="M-90 -170c128 123 161 260 205 572h-74l11 71h73l10 63c7 38 18 70 34 95c36 55 89 77 144 77c32 0 64 -6 92 -23l-28 -68c-16 8 -38 15 -60 15c-52 0 -82 -32 -94 -98l-10 -61h111l-27 -71h-95c-43 -287 -78 -493 -236 -630zM324 0l101 473h87l-102 -473h-86zM493 571
c-32 0 -52 21 -52 49c0 39 31 63 63 63s52 -21 52 -49c0 -38 -31 -63 -63 -63z" />
    <glyph glyph-name="fl" unicode="fl" horiz-adv-x="575" 
d="M-90 -170c128 123 161 260 205 572h-74l11 71h73l10 63c7 38 18 70 34 95c36 55 89 77 144 77c32 0 64 -6 92 -23l-28 -68c-16 8 -38 15 -60 15c-52 0 -82 -32 -94 -98l-10 -61h111l-27 -71h-95c-43 -287 -78 -493 -236 -630zM426 -6c-54 0 -91 28 -91 84c0 11 2 27 6 49
l124 581h87l-124 -580c-3 -13 -4 -23 -4 -31c0 -18 10 -26 29 -26c10 0 23 2 38 7v-72c-21 -8 -46 -12 -65 -12z" />
    <glyph glyph-name=".notdef" horiz-adv-x="550" 
d="M50 0v659h450v-659h-450zM101 48h348v563h-348v-563zM231 222c-20 20 -29 38 -29 60c0 76 130 98 130 172c0 29 -23 47 -55 47c-31 0 -58 -15 -85 -39l-27 35c29 30 70 51 117 51c65 0 106 -38 106 -91c0 -91 -132 -129 -132 -172c0 -16 9 -26 17 -35zM255 107
c-22 0 -38 17 -38 39c0 23 16 40 38 40c21 0 37 -17 37 -40c0 -22 -16 -39 -37 -39z" />
    <glyph glyph-name="space" unicode=" " horiz-adv-x="179" 
 />
    <glyph glyph-name="breve" unicode="&#x2d8;" 
d="M184 543c-77 0 -120 49 -113 127h62c-1 -41 15 -68 57 -68c43 0 69 29 81 68h65c-17 -80 -75 -127 -152 -127z" />
    <glyph glyph-name="dotaccent" unicode="&#x2d9;" 
d="M191 571c-32 0 -52 21 -52 49c0 39 31 63 63 63s52 -21 52 -49c0 -38 -31 -63 -63 -63z" />
    <glyph glyph-name="ring" unicode="&#x2da;" 
d="M186 523c-58 0 -97 32 -97 84c0 66 52 107 117 107c58 0 98 -32 98 -83c0 -67 -53 -108 -118 -108zM190 567c32 0 53 27 53 61c0 26 -16 42 -41 42c-31 0 -53 -27 -53 -61c0 -26 16 -42 41 -42z" />
    <glyph glyph-name="hungarumlaut" unicode="&#x2dd;" 
d="M66 531l76 147h100l-108 -147h-68zM232 531l77 147h100l-109 -147h-68z" />
    <glyph glyph-name="ogonek" unicode="&#x2db;" 
d="M163 -213c-60 0 -85 32 -85 71c0 77 72 124 132 155l79 -13c-68 -31 -136 -74 -136 -125c0 -20 12 -32 34 -32c11 0 24 3 38 8l7 -53c-24 -7 -48 -11 -69 -11z" />
    <glyph glyph-name="caron" unicode="&#x2c7;" 
d="M147 532l-81 147h71l52 -95l77 95h75l-119 -147h-75z" />
    <glyph glyph-name="dotlessi" unicode="&#x131;" horiz-adv-x="223" 
d="M1 0l101 473h86l-101 -473h-86z" />
    <glyph glyph-name="fraction" unicode="&#x2044;" horiz-adv-x="136" 
d="M-214 0l491 659h77l-490 -659h-78z" />
    <glyph glyph-name="Lslash" unicode="&#x141;" horiz-adv-x="436" 
d="M14 0l51 238l-63 -34l18 85l63 34l71 336h88l-60 -285l162 85l-19 -84l-161 -85l-46 -215h240l-17 -75h-327z" />
    <glyph glyph-name="lslash" unicode="&#x142;" horiz-adv-x="270" 
d="M121 -6c-54 0 -91 28 -91 84c0 11 2 27 6 49l31 149l-60 -31l19 86l60 31l74 346h87l-63 -295l69 36l-18 -86l-70 -37l-42 -198c-3 -13 -4 -23 -4 -31c0 -18 10 -26 29 -26c10 0 23 2 38 7v-72c-21 -8 -46 -12 -65 -12z" />
    <glyph glyph-name="Zcaron" unicode="&#x17d;" horiz-adv-x="526" 
d="M-28 0l416 584h-283l-8 75h441l-413 -584h319l-17 -75h-455zM273 697l-81 147h71l52 -95l77 95h75l-119 -147h-75z" />
    <glyph glyph-name="zcaron" unicode="&#x17e;" horiz-adv-x="387" 
d="M-35 0l272 402h-187l-9 71h339l-274 -403h214l-14 -70h-341zM184 532l-81 147h71l52 -95l77 95h75l-119 -147h-75z" />
    <glyph glyph-name="exclam" unicode="!" horiz-adv-x="279" 
d="M78 -8c-29 0 -48 23 -48 50c0 35 25 61 58 61c29 0 49 -24 49 -51c0 -34 -26 -60 -59 -60zM83 181c6 124 17 182 69 426l11 52h88l-11 -52c-52 -243 -63 -302 -110 -426h-47z" />
    <glyph glyph-name="quotedbl" unicode="&#x22;" horiz-adv-x="443" 
d="M188 483l-61 12l47 220l83 -17zM356 483l-60 12l47 220l82 -17z" />
    <glyph glyph-name="numbersign" unicode="#" horiz-adv-x="679" 
d="M84 0l55 175h-124l7 71h140l54 170h-125l7 71h140l54 171h85l-54 -171h131l54 171h85l-54 -171h123l-7 -71h-139l-53 -170h124l-7 -71h-140l-55 -175h-85l55 175h-131l-55 -175h-85zM247 246h131l54 170h-131z" />
    <glyph glyph-name="dollar" unicode="$" horiz-adv-x="529" 
d="M141 -82l21 100c-52 5 -91 22 -119 39l31 68c30 -19 75 -36 122 -36c62 0 130 23 130 105c0 131 -201 124 -201 286c0 93 70 158 169 168l19 93h70l-20 -94c40 -5 73 -15 101 -29l-16 -72c-34 18 -79 31 -124 31c-55 0 -109 -25 -109 -86c0 -117 201 -109 201 -287
c0 -112 -81 -175 -184 -186l-21 -100h-70z" />
    <glyph glyph-name="percent" unicode="%" horiz-adv-x="874" 
d="M151 0l490 659h78l-490 -659h-78zM222 316c-81 0 -127 51 -127 134c0 120 68 215 178 215c81 0 126 -52 126 -135c0 -119 -68 -214 -177 -214zM228 374c64 0 99 83 99 154c0 54 -21 79 -60 79c-64 0 -99 -83 -99 -155c0 -54 21 -78 60 -78zM594 -10
c-81 0 -127 51 -127 134c0 120 68 215 178 215c81 0 126 -52 126 -134c0 -120 -68 -215 -177 -215zM600 48c63 0 99 83 99 154c0 54 -21 79 -61 79c-63 0 -98 -83 -98 -155c0 -53 21 -78 60 -78z" />
    <glyph glyph-name="ampersand" unicode="&#x26;" horiz-adv-x="776" 
d="M253 -10c-130 0 -222 70 -222 182c0 111 76 184 205 208v2c-55 26 -83 71 -83 124c0 97 88 159 204 159c71 0 133 -18 173 -41l-25 -70c-46 25 -95 38 -145 38c-62 0 -118 -25 -118 -87c0 -54 40 -91 107 -110l-14 -64c-137 0 -215 -60 -215 -144c0 -74 49 -124 142 -124
c121 0 243 76 284 254h-83l15 71h278l-29 -71h-98c-51 -234 -221 -327 -376 -327z" />
    <glyph glyph-name="quotesingle" unicode="'" horiz-adv-x="274" 
d="M188 483l-61 12l47 220l83 -17z" />
    <glyph glyph-name="parenleft" unicode="(" horiz-adv-x="332" 
d="M159 -233c-70 98 -96 226 -96 366c0 203 74 454 263 638l50 -52c-141 -148 -224 -364 -224 -587c0 -155 27 -239 72 -325z" />
    <glyph glyph-name="parenright" unicode=")" horiz-adv-x="332" 
d="M3 -233l-50 52c141 148 224 364 224 587c0 155 -27 239 -72 325l65 40c70 -98 96 -226 96 -366c0 -203 -74 -454 -263 -638z" />
    <glyph glyph-name="asterisk" unicode="*" horiz-adv-x="487" 
d="M234 337l-62 27c20 49 59 101 80 141c-44 -9 -104 -32 -158 -36l-7 66c53 7 116 0 160 2c-28 33 -77 74 -108 119l53 39c33 -41 59 -102 82 -139c15 42 26 106 49 154l61 -26c-19 -50 -59 -102 -80 -141c44 9 105 31 159 35l7 -67c-53 -7 -117 1 -161 0
c29 -34 78 -75 108 -119l-55 -40c-32 43 -57 102 -81 140c-13 -42 -24 -106 -47 -155z" />
    <glyph glyph-name="plus" unicode="+" horiz-adv-x="531" 
d="M212 0v215h-195v74h195v210h82v-210h196v-74h-196v-215h-82z" />
    <glyph glyph-name="comma" unicode="," horiz-adv-x="235" 
d="M-11 -133l-41 33c63 69 79 130 80 206h87c0 -93 -32 -172 -126 -239z" />
    <glyph glyph-name="hyphen" unicode="-" horiz-adv-x="342" 
d="M18 210l16 76h250l-16 -76h-250z" />
    <glyph glyph-name="period" unicode="." horiz-adv-x="235" 
d="M58 -8c-29 0 -48 23 -48 50c0 35 25 61 58 61c29 0 48 -24 48 -51c0 -34 -25 -60 -58 -60z" />
    <glyph glyph-name="slash" unicode="/" horiz-adv-x="391" 
d="M-15 -32l329 728h92l-329 -728h-92z" />
    <glyph glyph-name="zero" unicode="0" horiz-adv-x="537" 
d="M213 -10c-117 0 -178 79 -178 224c0 213 101 451 287 451c118 0 179 -79 179 -225c0 -212 -101 -450 -288 -450zM218 66c107 0 190 186 190 384c0 92 -28 139 -91 139c-106 0 -189 -187 -189 -385c0 -91 28 -138 90 -138z" />
    <glyph glyph-name="one" unicode="1" horiz-adv-x="413" 
d="M134 0l119 560c-40 -23 -116 -50 -168 -62v74c55 14 149 56 202 92h75l-142 -664h-86z" />
    <glyph glyph-name="two" unicode="2" horiz-adv-x="520" 
d="M7 0c49 346 376 341 376 504c0 59 -41 85 -103 85c-55 0 -113 -19 -159 -41l-17 71c47 22 117 46 190 46c108 0 181 -57 181 -154c0 -201 -296 -217 -351 -436h305l-16 -75h-406z" />
    <glyph glyph-name="three" unicode="3" horiz-adv-x="523" 
d="M-4 29l37 70c35 -20 86 -33 138 -33c74 0 173 31 173 133c0 75 -58 98 -157 98h-77l10 72h43c35 0 68 2 99 11c62 17 110 57 110 123c0 61 -47 86 -108 86c-57 0 -110 -17 -151 -35l-16 69c44 20 108 42 182 42c117 0 186 -59 186 -153c0 -88 -57 -144 -141 -172v-2
c60 -13 113 -50 113 -134c0 -122 -105 -214 -266 -214c-75 0 -133 16 -175 39z" />
    <glyph glyph-name="four" unicode="4" horiz-adv-x="575" 
d="M275 0l36 171h-263l-9 67l391 426h73l-89 -420h99l-16 -73h-99l-36 -171h-87zM328 244l28 128c12 54 24 102 38 154l-256 -283c28 0 57 1 89 1h101z" />
    <glyph glyph-name="five" unicode="5" horiz-adv-x="519" 
d="M1 29l37 70c35 -21 80 -33 132 -33c84 0 175 45 175 148c0 90 -83 110 -168 110h-83l69 335h347l-26 -75h-249l-39 -188h29c147 0 213 -77 213 -173c0 -138 -109 -233 -271 -233c-72 0 -132 18 -166 39z" />
    <glyph glyph-name="six" unicode="6" horiz-adv-x="562" 
d="M264 -10c-118 0 -202 71 -202 236c0 248 149 439 367 439c26 0 63 -5 96 -16l-27 -69c-22 8 -46 11 -71 11c-148 0 -246 -123 -275 -268h2c33 49 97 82 162 82c108 0 177 -70 177 -184c0 -133 -104 -231 -229 -231zM265 64c73 0 135 60 135 151c0 65 -34 116 -107 116
c-74 0 -137 -58 -137 -149c0 -66 37 -118 109 -118z" />
    <glyph glyph-name="seven" unicode="7" horiz-adv-x="473" 
d="M63 0c63 250 181 437 307 584h-295l-8 75h422v-36c-142 -166 -275 -382 -333 -623h-93z" />
    <glyph glyph-name="eight" unicode="8" horiz-adv-x="564" 
d="M253 -10c-128 0 -214 64 -214 169c0 97 70 154 155 182v2c-44 26 -87 69 -87 141c0 102 88 181 222 181c123 0 200 -64 200 -157c0 -87 -73 -144 -145 -171v-2c67 -26 113 -74 113 -150c0 -125 -118 -195 -244 -195zM256 61c81 0 148 43 148 120c0 63 -57 98 -142 123
c-76 -24 -130 -73 -130 -139c0 -75 65 -104 124 -104zM303 370c74 22 133 61 133 131c0 62 -49 93 -112 93s-124 -37 -124 -108c0 -51 39 -96 103 -116z" />
    <glyph glyph-name="nine" unicode="9" horiz-adv-x="570" 
d="M50 15l25 70c26 -13 67 -21 97 -21c133 0 206 80 236 227h-2c-43 -31 -100 -49 -155 -49c-96 0 -178 60 -178 184c0 146 100 239 224 239s213 -83 213 -246c0 -275 -131 -429 -333 -429c-52 0 -95 10 -127 25zM275 315c56 0 102 24 141 52c3 17 5 39 5 59
c0 103 -46 165 -125 165c-76 0 -130 -71 -130 -160c0 -67 36 -116 109 -116z" />
    <glyph glyph-name="colon" unicode=":" horiz-adv-x="235" 
d="M58 -8c-29 0 -48 23 -48 50c0 35 25 61 58 61c29 0 48 -24 48 -51c0 -34 -25 -60 -58 -60zM126 334c-29 0 -48 23 -48 50c0 35 25 60 58 60c29 0 48 -23 48 -50c0 -35 -25 -60 -58 -60z" />
    <glyph glyph-name="semicolon" unicode=";" horiz-adv-x="235" 
d="M-11 -133l-41 33c63 69 79 130 80 206h87c0 -93 -32 -172 -126 -239zM114 334c-28 0 -48 23 -48 50c0 35 25 60 58 60c29 0 49 -23 49 -50c0 -35 -26 -60 -59 -60z" />
    <glyph glyph-name="less" unicode="&#x3c;" horiz-adv-x="598" 
d="M69 223v74l421 184v-76l-341 -144v-2l341 -144v-76z" />
    <glyph glyph-name="equal" unicode="=" horiz-adv-x="531" 
d="M26 126v74h473v-74h-473zM26 305v74h473v-74h-473z" />
    <glyph glyph-name="greater" unicode="&#x3e;" horiz-adv-x="598" 
d="M101 39v76l341 144v2l-341 144v76l421 -184v-74z" />
    <glyph glyph-name="question" unicode="?" horiz-adv-x="451" 
d="M138 -8c-29 0 -48 23 -48 50c0 35 25 61 58 61c29 0 48 -24 48 -51c0 -34 -25 -60 -58 -60zM131 181c7 195 216 228 216 340c0 46 -31 69 -79 69c-46 0 -91 -18 -133 -49l-32 63c62 45 121 61 180 61c83 0 153 -46 153 -131c0 -36 -11 -67 -29 -92
c-58 -84 -188 -131 -219 -261h-57z" />
    <glyph glyph-name="at" unicode="@" horiz-adv-x="771" 
d="M336 -140c-178 0 -308 129 -308 330c0 234 167 380 363 380c193 0 335 -124 335 -316c0 -150 -73 -225 -168 -225c-52 0 -90 30 -98 84h-2c-18 -38 -69 -82 -137 -82c-60 0 -127 39 -127 156c0 132 89 223 206 223c51 0 100 -15 141 -40l-21 -161c-3 -19 -5 -36 -5 -52
c0 -40 12 -68 50 -68c57 0 95 62 95 161c0 137 -88 262 -271 262c-161 0 -294 -119 -294 -317c0 -180 110 -277 249 -277c42 0 92 8 127 24l18 -55c-51 -20 -106 -27 -153 -27zM337 92c46 0 102 35 117 161l10 79c-20 14 -44 19 -65 19c-72 0 -129 -65 -129 -162
c0 -66 26 -97 67 -97z" />
    <glyph glyph-name="A" unicode="A" horiz-adv-x="580" 
d="M-44 0l350 661h70l120 -661h-92l-30 173h-232l-88 -173h-98zM182 246h180l-30 195c-4 27 -8 54 -13 87h-2c-14 -32 -25 -59 -41 -92z" />
    <glyph glyph-name="B" unicode="B" horiz-adv-x="542" 
d="M10 0l140 659h148c132 0 181 -73 181 -150c0 -79 -43 -134 -112 -164v-2c50 -12 101 -56 101 -128c0 -110 -91 -215 -284 -215h-174zM177 373h82c92 0 131 70 131 125c0 47 -27 87 -101 87h-67zM114 73h87c113 0 177 57 177 135c0 59 -44 92 -112 92h-105z" />
    <glyph glyph-name="C" unicode="C" horiz-adv-x="591" 
d="M321 -10c-166 0 -276 101 -276 273c0 233 163 402 382 402c65 0 121 -15 164 -35l-18 -76c-40 20 -92 35 -145 35c-175 0 -290 -145 -290 -317c0 -121 67 -206 190 -206c57 0 108 13 163 41l17 -73c-54 -28 -125 -44 -187 -44z" />
    <glyph glyph-name="D" unicode="D" horiz-adv-x="638" 
d="M10 0l140 659h116c73 0 135 -10 186 -33c88 -39 143 -115 143 -238c0 -161 -80 -293 -224 -353c-56 -23 -122 -35 -201 -35h-160zM114 75h65c62 0 115 10 158 30c107 48 165 155 165 288c0 80 -31 136 -98 167c-35 16 -79 24 -141 24h-41z" />
    <glyph glyph-name="E" unicode="E" horiz-adv-x="468" 
d="M10 0l140 659h319l-30 -75h-217l-44 -210h213l-16 -75h-214l-47 -224h243l-16 -75h-331z" />
    <glyph glyph-name="F" unicode="F" horiz-adv-x="451" 
d="M10 0l140 659h319l-29 -75h-218l-44 -210h212l-16 -75h-213l-63 -299h-88z" />
    <glyph glyph-name="G" unicode="G" horiz-adv-x="662" 
d="M325 -10c-163 0 -280 97 -280 276c0 210 148 399 389 399c70 0 138 -16 190 -40l-18 -76c-42 23 -105 41 -166 41c-184 0 -302 -143 -302 -314c0 -146 85 -210 194 -210c48 0 95 8 126 24l49 224h87l-59 -276c-45 -26 -126 -48 -210 -48z" />
    <glyph glyph-name="H" unicode="H" horiz-adv-x="666" 
d="M10 0l140 659h88l-61 -286h330l61 286h88l-140 -659h-88l63 297h-330l-63 -297h-88z" />
    <glyph glyph-name="I" unicode="I" horiz-adv-x="248" 
d="M10 0l140 659h88l-140 -659h-88z" />
    <glyph glyph-name="J" unicode="J" horiz-adv-x="289" 
d="M-143 -166l27 71c19 -9 41 -12 63 -12c39 0 64 13 82 45c10 20 19 46 25 78l137 643h88l-139 -652c-10 -49 -22 -86 -39 -115c-30 -48 -78 -75 -154 -75c-36 0 -67 7 -90 17z" />
    <glyph glyph-name="K" unicode="K" horiz-adv-x="547" 
d="M10 0l140 659h88l-64 -303h3l287 303h107l-328 -343l220 -316h-106l-196 288h-2l-61 -288h-88z" />
    <glyph glyph-name="L" unicode="L" horiz-adv-x="433" 
d="M10 0l140 659h88l-124 -584h240l-17 -75h-327z" />
    <glyph glyph-name="M" unicode="M" horiz-adv-x="786" 
d="M10 0l140 659h84l102 -280c17 -49 34 -93 44 -125h2c20 29 47 68 73 102l228 303h93l-140 -659h-88l73 342c13 62 25 115 39 166h-3c-20 -29 -51 -72 -80 -108l-191 -253h-48l-92 248c-14 39 -28 76 -39 113h-2c-9 -45 -24 -117 -35 -168l-72 -340h-88z" />
    <glyph glyph-name="N" unicode="N" horiz-adv-x="701" 
d="M10 0l140 659h83l217 -425c15 -29 31 -63 44 -93h2c6 35 14 73 19 101l88 417h89l-141 -659h-73l-224 439c-15 30 -32 62 -44 92h-2c-5 -36 -12 -70 -17 -95l-93 -436h-88z" />
    <glyph glyph-name="O" unicode="O" horiz-adv-x="718" 
d="M312 -10c-161 0 -267 97 -267 276c0 208 140 399 361 399c160 0 267 -96 267 -275c0 -208 -140 -400 -361 -400zM318 66c165 0 261 167 261 323c0 126 -61 200 -178 200c-166 0 -263 -166 -263 -322c0 -125 61 -201 180 -201z" />
    <glyph glyph-name="P" unicode="P" horiz-adv-x="512" 
d="M10 0l140 659h101c46 0 79 -5 108 -16c74 -26 119 -87 119 -169c0 -103 -61 -188 -168 -219c-33 -10 -73 -17 -125 -17h-37l-50 -238h-88zM164 311h34c35 0 63 5 85 14c69 22 105 77 105 147c0 45 -20 85 -69 103c-18 7 -41 11 -70 11h-27z" />
    <glyph glyph-name="Q" unicode="Q" horiz-adv-x="718" 
d="M45 266c0 208 140 399 361 399c160 0 267 -96 267 -275c0 -194 -123 -378 -322 -394c-11 -1 -24 -1 -35 0v-2c40 -22 94 -81 182 -81c34 0 67 7 90 14l18 -69c-41 -14 -83 -20 -122 -20c-117 0 -208 71 -269 139c-34 38 -91 70 -126 126c-30 47 -44 102 -44 163zM318 66
c165 0 261 167 261 323c0 126 -61 200 -178 200c-166 0 -263 -166 -263 -322c0 -125 61 -201 180 -201z" />
    <glyph glyph-name="R" unicode="R" horiz-adv-x="536" 
d="M10 0l140 659h130c149 0 208 -80 208 -166c0 -114 -72 -176 -178 -198v-2c11 -18 25 -46 44 -87l93 -206h-96l-71 167c-21 46 -38 83 -53 108h-71l-58 -275h-88zM172 348h56c103 0 170 47 170 137c0 56 -33 101 -124 101h-52z" />
    <glyph glyph-name="S" unicode="S" horiz-adv-x="471" 
d="M-4 34l36 70c31 -20 76 -38 131 -38c65 0 135 27 135 111c0 140 -212 138 -212 307c0 105 81 181 208 181c60 0 111 -14 149 -33l-16 -76c-38 21 -85 34 -132 34c-65 0 -117 -34 -117 -94c0 -123 212 -128 212 -309c0 -135 -105 -197 -227 -197c-73 0 -129 21 -167 44z
" />
    <glyph glyph-name="T" unicode="T" horiz-adv-x="492" 
d="M131 0l124 584h-194l16 75h479l-32 -75h-181l-124 -584h-88z" />
    <glyph glyph-name="U" unicode="U" horiz-adv-x="651" 
d="M276 -10c-140 0 -219 74 -219 192c0 27 5 56 12 91l82 386h88l-83 -388c-6 -28 -10 -55 -10 -78c0 -86 52 -128 134 -128c60 0 101 18 129 47c30 31 46 74 56 120l91 427h88l-92 -436c-16 -74 -42 -129 -81 -166c-50 -47 -113 -67 -195 -67z" />
    <glyph glyph-name="V" unicode="V" horiz-adv-x="575" 
d="M209 -4l-137 663h95l73 -390c9 -51 16 -86 23 -137h2c18 41 36 78 62 125l212 402h99l-363 -663h-66z" />
    <glyph glyph-name="W" unicode="W" horiz-adv-x="836" 
d="M163 -4l-91 663h96l44 -378c6 -51 10 -92 15 -151h2c19 50 37 90 61 138l137 280l-15 111h88l46 -379c7 -52 11 -94 16 -150h2c17 51 35 93 57 140l180 389h97l-324 -663h-72l-39 290c-8 52 -13 90 -17 135h-2c-20 -48 -38 -86 -64 -138l-144 -287h-73z" />
    <glyph glyph-name="X" unicode="X" horiz-adv-x="583" 
d="M-43 0l279 338l-150 321h95l117 -254l208 254h106l-275 -333l153 -326h-94l-121 258l-213 -258h-105z" />
    <glyph glyph-name="Y" unicode="Y" horiz-adv-x="514" 
d="M162 0l54 255l-145 404h92l107 -318h2l205 318h99l-272 -407l-54 -252h-88z" />
    <glyph glyph-name="Z" unicode="Z" horiz-adv-x="526" 
d="M-28 0l416 584h-283l-8 75h441l-413 -584h319l-17 -75h-455z" />
    <glyph glyph-name="bracketleft" unicode="[" horiz-adv-x="328" 
d="M-13 -233l214 1005h181l-15 -68h-97l-184 -870h96l-14 -67h-181z" />
    <glyph glyph-name="backslash" unicode="\" horiz-adv-x="429" 
d="M266 -32l-196 728h86l196 -728h-86z" />
    <glyph glyph-name="bracketright" unicode="]" horiz-adv-x="328" 
d="M-93 -233l15 67h97l184 870h-96l14 68h181l-214 -1005h-181z" />
    <glyph glyph-name="asciicircum" unicode="^" horiz-adv-x="566" 
d="M87 287l158 372h76l158 -372h-76l-119 292h-2l-119 -292h-76z" />
    <glyph glyph-name="underscore" unicode="_" horiz-adv-x="438" 
d="M-89 -120l12 54h446l-12 -54h-446z" />
    <glyph glyph-name="grave" unicode="`" 
d="M159 531l-81 147h100l49 -147h-68z" />
    <glyph glyph-name="a" unicode="a" horiz-adv-x="469" 
d="M127 -10c-77 0 -126 52 -126 125c0 55 21 97 56 126c45 37 113 52 191 52l66 1c4 15 6 33 6 49c0 45 -24 72 -87 72c-46 0 -96 -15 -140 -36l-12 67c51 24 111 39 166 39c78 0 160 -30 160 -137c0 -36 -9 -77 -17 -114l-10 -42c-11 -50 -17 -89 -17 -122
c0 -22 3 -42 8 -60l-75 -16c-6 19 -13 52 -14 81c-37 -48 -93 -85 -155 -85zM150 62c60 0 130 55 146 134l7 33h-37c-70 0 -118 -9 -147 -32c-21 -17 -32 -41 -32 -70c0 -43 22 -65 63 -65z" />
    <glyph glyph-name="b" unicode="b" horiz-adv-x="505" 
d="M4 11l149 697h87l-47 -219c-6 -30 -14 -59 -24 -91h2c35 50 91 87 150 87c77 0 137 -57 137 -162c0 -193 -136 -333 -321 -333c-40 0 -101 9 -133 21zM104 71c18 -5 39 -7 53 -7c120 0 212 104 212 250c0 46 -20 96 -76 96c-27 0 -62 -15 -91 -46
c-28 -30 -53 -76 -68 -145z" />
    <glyph glyph-name="c" unicode="c" horiz-adv-x="438" 
d="M221 -10c-124 0 -200 79 -200 199c0 165 113 296 274 296c45 0 88 -10 119 -24l-16 -73c-31 15 -64 24 -102 24c-101 0 -186 -90 -186 -214c0 -81 40 -135 121 -135c48 0 89 17 120 35l23 -63c-37 -26 -100 -45 -153 -45z" />
    <glyph glyph-name="d" unicode="d" horiz-adv-x="500" 
d="M231 -10c-123 0 -210 77 -210 208c0 178 126 287 273 287c36 0 73 -6 98 -15l51 238h87l-147 -686c-39 -17 -102 -32 -152 -32zM238 64c24 0 51 5 71 14l67 319c-20 7 -49 14 -76 14c-104 0 -190 -81 -190 -208c0 -82 44 -139 128 -139z" />
    <glyph glyph-name="e" unicode="e" horiz-adv-x="469" 
d="M218 -10c-117 0 -197 75 -197 202c0 166 105 293 248 293c106 0 159 -65 159 -155c0 -34 -9 -76 -21 -110l-298 -4c-1 -8 -1 -17 -1 -24c0 -83 48 -130 118 -130c48 0 90 16 129 36l24 -64c-46 -28 -108 -44 -161 -44zM120 281l214 3c5 17 8 35 8 49c0 40 -19 82 -81 82
c-68 0 -125 -61 -141 -134z" />
    <glyph glyph-name="f" unicode="f" horiz-adv-x="311" 
d="M-90 -170c128 123 161 260 205 572h-74l11 71h73l10 63c7 38 18 70 34 95c36 55 89 77 144 77c32 0 64 -6 92 -23l-28 -68c-16 8 -38 15 -60 15c-52 0 -82 -32 -94 -98l-10 -61h111l-27 -71h-95c-43 -287 -78 -493 -236 -630z" />
    <glyph glyph-name="g" unicode="g" horiz-adv-x="505" 
d="M-21 -201l31 73c40 -23 78 -33 118 -33c94 0 137 51 160 156l17 75h-2c-47 -59 -103 -79 -148 -79c-77 0 -134 51 -134 161c0 169 96 333 298 333c60 0 119 -14 154 -27l-101 -473c-27 -130 -83 -222 -247 -222c-45 0 -99 11 -146 36zM181 64c46 0 130 40 164 203l29 135
c-12 4 -37 9 -67 9c-124 0 -197 -120 -197 -244c0 -56 19 -103 71 -103z" />
    <glyph glyph-name="h" unicode="h" horiz-adv-x="501" 
d="M0 0l151 708h87l-52 -239c-6 -33 -15 -64 -24 -90h2c38 60 104 106 174 106c63 0 109 -35 109 -116c0 -19 -2 -45 -12 -92l-59 -277h-87l59 274c7 35 10 62 10 73c0 43 -22 60 -53 60c-36 0 -85 -24 -124 -77c-23 -32 -39 -69 -52 -129l-43 -201h-86z" />
    <glyph glyph-name="i" unicode="i" horiz-adv-x="223" 
d="M0 0l101 473h87l-102 -473h-86zM169 571c-32 0 -52 21 -52 49c0 39 31 63 63 63s52 -21 52 -49c0 -38 -31 -63 -63 -63z" />
    <glyph glyph-name="j" unicode="j" horiz-adv-x="237" 
d="M-160 -223l26 72c14 -6 29 -9 47 -9c52 0 74 31 88 98l114 535h87l-123 -572c-23 -108 -92 -138 -163 -138c-26 0 -55 5 -76 14zM183 571c-32 0 -51 21 -51 49c0 39 31 63 63 63s51 -21 51 -49c0 -38 -30 -63 -63 -63z" />
    <glyph glyph-name="k" unicode="k" horiz-adv-x="445" 
d="M0 0l151 708h87l-88 -411h2l198 176h108l-240 -211l166 -262h-100l-145 235h-2l-51 -235h-86z" />
    <glyph glyph-name="l" unicode="l" horiz-adv-x="264" 
d="M115 -6c-54 0 -91 28 -91 84c0 11 2 27 6 49l124 581h87l-124 -580c-3 -13 -4 -23 -4 -31c0 -18 10 -26 29 -26c10 0 23 2 38 7v-72c-21 -8 -46 -12 -65 -12z" />
    <glyph glyph-name="m" unicode="m" horiz-adv-x="770" 
d="M0 0l101 473h70l-12 -94h2c40 59 102 106 170 106c62 0 104 -34 103 -111h2c40 60 105 111 176 111c61 0 106 -34 106 -108c1 -24 -4 -55 -12 -96l-60 -281h-86l60 284c6 27 9 54 9 66c0 41 -21 57 -51 57c-34 0 -75 -22 -114 -73c-24 -32 -41 -69 -54 -131l-44 -203h-86
l60 284c6 27 9 54 9 66c0 41 -21 57 -51 57c-34 0 -75 -22 -114 -74c-24 -31 -41 -69 -54 -130l-44 -203h-86z" />
    <glyph glyph-name="n" unicode="n" horiz-adv-x="501" 
d="M0 0l101 473h70l-12 -94h2c40 59 107 106 177 106c63 0 109 -35 109 -116c0 -19 -2 -45 -12 -92l-59 -277h-87l59 274c7 35 10 62 10 73c0 43 -22 60 -53 60c-35 0 -83 -22 -121 -73c-24 -31 -41 -69 -55 -133l-43 -201h-86z" />
    <glyph glyph-name="o" unicode="o" horiz-adv-x="509" 
d="M206 -10c-124 0 -185 82 -185 186c0 182 117 309 257 309c123 0 184 -82 184 -186c0 -182 -116 -309 -256 -309zM209 63c99 0 164 112 164 231c0 73 -30 118 -98 118c-99 0 -165 -112 -165 -231c0 -73 31 -118 99 -118z" />
    <glyph glyph-name="p" unicode="p" horiz-adv-x="506" 
d="M-51 -237l150 700c43 13 94 22 141 22c149 0 219 -87 219 -199c0 -186 -132 -296 -276 -296c-38 0 -66 5 -96 14l-51 -241h-87zM104 77c23 -10 54 -13 73 -13c117 0 193 96 193 215c0 88 -51 132 -134 132c-24 0 -47 -4 -63 -8z" />
    <glyph glyph-name="q" unicode="q" horiz-adv-x="507" 
d="M240 -237l45 215c8 34 15 65 22 92h-2c-49 -59 -105 -80 -150 -80c-77 0 -134 52 -134 162c0 171 99 333 303 333c55 0 114 -14 151 -27l-149 -695h-86zM182 64c45 0 131 40 165 203l29 135c-14 4 -39 9 -69 9c-124 0 -197 -120 -197 -245c0 -56 19 -102 72 -102z" />
    <glyph glyph-name="r" unicode="r" horiz-adv-x="328" 
d="M0 0l101 473h70l-12 -94h2c31 65 79 106 134 106c23 0 41 -6 58 -17l-37 -76c-12 7 -27 11 -41 11c-55 0 -116 -62 -148 -210l-40 -193h-87z" />
    <glyph glyph-name="s" unicode="s" horiz-adv-x="360" 
d="M-26 28l29 66c30 -18 70 -32 111 -32c47 0 91 21 91 66c0 83 -154 90 -154 220c0 75 53 137 161 137c34 0 78 -5 119 -21l-14 -71c-26 10 -66 21 -101 21c-42 0 -77 -18 -77 -62c0 -84 154 -90 154 -222c0 -89 -76 -140 -175 -140c-57 0 -105 14 -144 38z" />
    <glyph glyph-name="t" unicode="t" horiz-adv-x="341" 
d="M157 -10c-77 0 -109 39 -109 95c0 16 2 35 7 58l55 259h-78l15 71h79l23 107l92 26l-29 -133h129l-28 -71h-116l-57 -268c-3 -12 -4 -21 -4 -31c0 -26 13 -40 42 -40c30 0 60 14 80 25l22 -64c-38 -22 -83 -34 -123 -34z" />
    <glyph glyph-name="u" unicode="u" horiz-adv-x="502" 
d="M144 -10c-63 0 -115 35 -115 119c0 20 3 48 12 93l57 271h87l-59 -279c-6 -27 -9 -52 -9 -66c0 -44 23 -62 54 -62c77 0 140 76 160 168l51 239h86l-60 -281c-9 -49 -15 -88 -15 -120c0 -23 3 -43 7 -62l-74 -16c-6 19 -14 56 -12 92h-2c-39 -55 -104 -96 -168 -96z" />
    <glyph glyph-name="v" unicode="v" horiz-adv-x="441" 
d="M133 -3l-95 476h85l39 -228c6 -35 16 -94 21 -133h2c18 37 44 90 63 128l120 233h92l-260 -476h-67z" />
    <glyph glyph-name="w" unicode="w" horiz-adv-x="674" 
d="M111 -3l-72 476h82l32 -227c7 -48 11 -81 15 -129h2c14 34 29 68 50 112l118 244h62l28 -222c7 -56 10 -91 14 -134h2c10 26 31 73 49 114l110 242h91l-236 -476h-68l-28 229c-6 48 -10 80 -14 119h-2c-14 -34 -32 -72 -57 -122l-112 -226h-66z" />
    <glyph glyph-name="x" unicode="x" horiz-adv-x="448" 
d="M-50 0l211 242l-125 231h89l93 -173l147 173h95l-205 -237l129 -236h-91l-95 180l-154 -180h-94z" />
    <glyph glyph-name="y" unicode="y" horiz-adv-x="452" 
d="M-125 -219l31 68c19 -9 37 -13 58 -13c59 0 114 33 178 163l-107 474h87l50 -241c11 -51 18 -89 27 -135h2c17 40 32 73 56 123l123 253h91l-249 -489c-84 -166 -154 -221 -265 -221c-31 0 -63 7 -82 18z" />
    <glyph glyph-name="z" unicode="z" horiz-adv-x="387" 
d="M-35 0l272 402h-187l-9 71h339l-274 -403h214l-14 -70h-341z" />
    <glyph glyph-name="braceleft" unicode="{" horiz-adv-x="346" 
d="M182 -225c-101 15 -142 57 -142 127c0 17 3 36 8 61l41 196c2 11 3 23 3 30c0 34 -19 49 -54 51l14 66c29 1 51 9 65 27c9 11 14 26 17 42l47 227c9 43 22 77 45 103c32 37 82 59 157 64v-77c-42 -6 -72 -18 -93 -43c-14 -16 -21 -38 -27 -69l-41 -198
c-7 -32 -15 -54 -25 -70c-18 -25 -42 -35 -69 -42v-2c26 -5 51 -24 51 -67c0 -18 -3 -37 -7 -58l-36 -172c-4 -16 -6 -33 -6 -46c0 -42 22 -64 77 -74z" />
    <glyph glyph-name="bar" unicode="|" horiz-adv-x="289" 
d="M103 -237v1017h84v-1017h-84z" />
    <glyph glyph-name="braceright" unicode="}" horiz-adv-x="346" 
d="M-63 -225v78c42 6 72 18 93 43c14 16 21 38 28 69l40 198c7 32 15 54 26 69c17 25 41 36 68 43v2c-26 5 -50 24 -50 69c0 14 2 35 6 56l37 172c3 16 5 33 5 46c0 42 -22 64 -76 73l25 76c101 -14 141 -56 141 -127c0 -17 -3 -35 -8 -60l-41 -197c-2 -10 -3 -22 -3 -29
c0 -34 19 -49 54 -51l-14 -66c-29 -1 -51 -10 -65 -28c-9 -11 -14 -25 -17 -41l-47 -227c-9 -43 -22 -77 -45 -103c-32 -37 -82 -59 -157 -65z" />
    <glyph glyph-name="asciitilde" unicode="~" horiz-adv-x="531" 
d="M66 207l-46 54c46 46 89 67 136 67c72 0 149 -60 210 -60c34 0 55 14 88 43l45 -54c-45 -46 -88 -66 -136 -66c-69 0 -151 59 -209 59c-35 0 -56 -13 -88 -43z" />
    <glyph glyph-name="Euro" unicode="&#x20ac;" horiz-adv-x="529" 
d="M20 213l8 61h64v6c0 34 3 68 10 100h-67l9 61h74c48 137 156 224 289 224c52 0 98 -11 135 -35l-15 -77c-40 25 -75 35 -115 35c-94 0 -161 -60 -197 -147h242l-21 -61h-241c-7 -29 -10 -59 -10 -92v-14h234l-21 -61h-208c14 -108 67 -146 139 -146c42 0 78 9 125 38
l18 -71c-46 -30 -99 -44 -154 -44c-129 0 -206 77 -223 223h-75z" />
    <glyph glyph-name="quotesinglbase" unicode="&#x201a;" horiz-adv-x="220" 
d="M-26 -126c26 48 36 93 36 136c0 28 -4 55 -10 84l82 23c7 -27 11 -54 11 -82c0 -63 -20 -120 -71 -181z" />
    <glyph glyph-name="florin" unicode="&#x192;" horiz-adv-x="524" 
d="M-87 -143l31 71c18 -12 46 -20 76 -20c52 0 91 27 113 122l64 284h-100l10 70h105l33 144c26 118 88 180 195 180c39 0 80 -10 110 -27l-31 -71c-18 12 -46 20 -76 20c-51 0 -91 -27 -113 -122l-28 -124h127l-25 -70h-118l-68 -304c-26 -118 -87 -180 -194 -180
c-40 0 -81 10 -111 27z" />
    <glyph glyph-name="quotedblbase" unicode="&#x201e;" horiz-adv-x="401" 
d="M203 -146l-49 20c27 48 37 93 37 136c0 28 -4 55 -10 84l82 23c7 -27 11 -54 11 -82c0 -63 -20 -120 -71 -181zM22 -146l-48 20c26 48 36 93 36 136c0 28 -4 55 -10 84l82 23c7 -27 11 -54 11 -82c0 -63 -20 -120 -71 -181z" />
    <glyph glyph-name="ellipsis" unicode="&#x2026;" horiz-adv-x="892" 
d="M93 -8c-29 0 -48 23 -48 50c0 35 25 61 58 61c29 0 49 -24 49 -51c0 -34 -26 -60 -59 -60zM384 -8c-28 0 -48 23 -48 50c0 35 25 61 58 61c29 0 49 -24 49 -51c0 -34 -26 -60 -59 -60zM677 -8c-29 0 -49 23 -49 50c0 35 26 61 58 61c29 0 49 -24 49 -51
c0 -34 -26 -60 -58 -60z" />
    <glyph glyph-name="dagger" unicode="&#x2020;" horiz-adv-x="487" 
d="M119 -47l29 138c37 181 63 264 74 314c-39 0 -113 -11 -157 -11l18 88c44 -1 112 -13 151 -15c10 44 15 112 25 161h87c-10 -48 -35 -116 -44 -161c41 2 114 14 157 14l-18 -88c-44 1 -112 11 -151 12c-11 -51 -20 -124 -54 -287l-34 -165h-83z" />
    <glyph glyph-name="daggerdbl" unicode="&#x2021;" horiz-adv-x="487" 
d="M118 -47c9 48 33 116 43 160c-41 -2 -114 -13 -157 -13l18 88c44 -1 111 -11 151 -12c6 26 9 62 21 120c12 51 23 84 28 109c-39 0 -113 -11 -157 -11l18 88c44 -1 112 -13 151 -15c10 44 15 112 24 161h88c-10 -48 -35 -116 -44 -161c40 2 113 14 157 14l-18 -88
c-44 1 -112 11 -151 12c-6 -26 -10 -60 -20 -114c-11 -56 -24 -90 -29 -115c38 0 112 11 156 11l-18 -88c-44 1 -112 12 -151 14c-10 -43 -15 -112 -23 -160h-87z" />
    <glyph glyph-name="circumflex" unicode="&#x2c6;" 
d="M46 531l119 147h74l82 -147h-71l-52 94l-77 -94h-75z" />
    <glyph glyph-name="perthousand" unicode="&#x2030;" horiz-adv-x="1208" 
d="M151 0l490 659h78l-490 -659h-78zM222 316c-81 0 -127 51 -127 134c0 120 68 215 178 215c81 0 126 -52 126 -135c0 -119 -68 -214 -177 -214zM228 374c64 0 99 83 99 154c0 54 -21 79 -60 79c-64 0 -99 -83 -99 -155c0 -54 21 -78 60 -78zM594 -10
c-81 0 -127 51 -127 134c0 120 68 215 178 215c81 0 126 -52 126 -134c0 -120 -68 -215 -177 -215zM600 48c63 0 99 83 99 154c0 54 -21 79 -61 79c-63 0 -98 -83 -98 -155c0 -53 21 -78 60 -78zM945 -10c-81 0 -126 51 -126 134c0 120 68 215 177 215
c81 0 127 -52 127 -134c0 -120 -68 -215 -178 -215zM952 48c63 0 98 83 98 154c0 54 -21 79 -60 79c-63 0 -99 -83 -99 -155c0 -53 21 -78 61 -78z" />
    <glyph glyph-name="Scaron" unicode="&#x160;" horiz-adv-x="471" 
d="M-4 34l36 70c31 -20 76 -38 131 -38c65 0 135 27 135 111c0 140 -212 138 -212 307c0 105 81 181 208 181c60 0 111 -14 149 -33l-16 -76c-38 21 -85 34 -132 34c-65 0 -117 -34 -117 -94c0 -123 212 -128 212 -309c0 -135 -105 -197 -227 -197c-73 0 -129 21 -167 44z
M257 697l-81 147h71l52 -95l77 95h75l-119 -147h-75z" />
    <glyph glyph-name="guilsinglleft" unicode="&#x2039;" horiz-adv-x="319" 
d="M268 401l-154 -165l101 -165l-62 -38l-134 210l197 206z" />
    <glyph glyph-name="OE" unicode="&#x152;" horiz-adv-x="852" 
d="M45 267c0 213 139 398 392 398c52 0 119 -6 181 -6h235l-29 -75h-218l-44 -210h213l-16 -75h-213l-47 -224h243l-17 -75h-235c-56 0 -118 -9 -172 -9c-168 0 -273 101 -273 276zM138 270c0 -125 61 -204 192 -204c23 0 58 3 80 6l108 512c-19 3 -61 6 -90 6
c-194 0 -290 -159 -290 -320z" />
    <glyph glyph-name="quoteleft" unicode="&#x2018;" horiz-adv-x="215" 
d="M119 448c-8 27 -11 54 -11 82c0 63 19 120 71 181l48 -20c-27 -48 -37 -93 -37 -136c0 -28 4 -55 11 -84z" />
    <glyph glyph-name="quoteright" unicode="&#x2019;" horiz-adv-x="220" 
d="M92 468c26 48 36 93 36 136c0 28 -4 55 -10 84l82 23c7 -27 11 -54 11 -82c0 -63 -20 -120 -71 -181z" />
    <glyph glyph-name="quotedblleft" unicode="&#x201c;" horiz-adv-x="395" 
d="M119 448c-8 27 -11 54 -11 82c0 63 19 120 71 181l48 -20c-27 -48 -37 -93 -37 -136c0 -28 4 -55 11 -84zM300 448c-8 27 -11 54 -11 82c0 63 19 120 71 181l48 -20c-27 -48 -37 -93 -37 -136c0 -28 4 -55 11 -84z" />
    <glyph glyph-name="quotedblright" unicode="&#x201d;" horiz-adv-x="401" 
d="M321 448l-49 20c27 48 37 93 37 136c0 28 -4 55 -10 84l82 23c7 -27 11 -54 11 -82c0 -63 -20 -120 -71 -181zM140 448l-48 20c26 48 36 93 36 136c0 28 -4 55 -10 84l82 23c7 -27 11 -54 11 -82c0 -63 -20 -120 -71 -181z" />
    <glyph glyph-name="bullet" unicode="&#x2022;" horiz-adv-x="310" 
d="M150 207c-61 0 -107 50 -107 111c0 62 46 111 107 111c62 0 108 -49 108 -111c0 -61 -46 -111 -108 -111z" />
    <glyph glyph-name="endash" unicode="&#x2013;" horiz-adv-x="450" 
d="M0 219v68h450v-68h-450z" />
    <glyph glyph-name="emdash" unicode="&#x2014;" horiz-adv-x="800" 
d="M0 219v68h800v-68h-800z" />
    <glyph glyph-name="tilde" unicode="&#x2dc;" 
d="M33 552c6 74 45 106 89 106c55 0 86 -47 121 -47c20 0 30 15 34 41h62c-6 -74 -45 -106 -88 -106c-55 0 -87 47 -122 47c-20 0 -29 -16 -33 -41h-63z" />
    <glyph glyph-name="trademark" unicode="&#x2122;" horiz-adv-x="841" 
d="M184 264v336h-110v59h301l-15 -59h-105v-336h-71zM410 264v395h62l95 -140c19 -28 33 -52 42 -70h3c9 18 22 40 41 69l94 141h65v-395h-70v208c0 36 0 58 3 80h-2c-9 -17 -23 -41 -36 -60l-79 -117h-35l-79 117c-12 19 -26 43 -35 60h-2c2 -22 3 -44 3 -80v-208h-70z" />
    <glyph glyph-name="scaron" unicode="&#x161;" horiz-adv-x="360" 
d="M-26 28l29 66c30 -18 70 -32 111 -32c47 0 91 21 91 66c0 83 -154 90 -154 220c0 75 53 137 161 137c34 0 78 -5 119 -21l-14 -71c-26 10 -66 21 -101 21c-42 0 -77 -18 -77 -62c0 -84 154 -90 154 -222c0 -89 -76 -140 -175 -140c-57 0 -105 14 -144 38zM185 532
l-81 147h71l52 -95l77 95h75l-119 -147h-75z" />
    <glyph glyph-name="guilsinglright" unicode="&#x203a;" horiz-adv-x="319" 
d="M10 81l154 165l-101 165l62 38l134 -210l-197 -206z" />
    <glyph glyph-name="oe" unicode="&#x153;" horiz-adv-x="814" 
d="M202 -10c-120 0 -181 82 -181 186c0 182 116 309 253 309c83 0 132 -41 155 -101h2c39 63 108 101 185 101c104 0 156 -65 156 -155c0 -34 -8 -76 -21 -110l-298 -4c0 -7 -1 -17 -1 -25c0 -82 49 -129 119 -129c47 0 90 16 128 36l25 -64c-47 -28 -109 -44 -162 -44
c-80 0 -143 40 -167 111h-2c-44 -69 -116 -111 -191 -111zM209 63c99 0 164 112 164 231c0 73 -30 118 -98 118c-99 0 -165 -112 -165 -231c0 -73 31 -118 99 -118zM465 281l214 3c5 17 7 35 7 49c0 40 -18 82 -82 82c-67 0 -124 -61 -139 -134z" />
    <glyph glyph-name="Ydieresis" unicode="&#x178;" horiz-adv-x="514" 
d="M163 0l54 255l-145 404h92l107 -318h2l205 318h99l-272 -407l-54 -252h-88zM242 704c-26 0 -43 17 -43 42c0 33 24 56 53 56c26 0 42 -16 42 -41c0 -33 -23 -57 -52 -57zM422 704c-26 0 -42 17 -42 42c0 33 23 56 52 56c26 0 42 -16 42 -41c0 -33 -23 -57 -52 -57z" />
    <glyph glyph-name="exclamdown" unicode="&#xa1;" horiz-adv-x="279" 
d="M-11 -182l11 52c52 243 63 301 110 425h46c-5 -124 -17 -181 -68 -425l-11 -52h-88zM152 373c-29 0 -49 23 -49 51c0 34 26 60 59 60c28 0 48 -24 48 -51c0 -34 -25 -60 -58 -60z" />
    <glyph glyph-name="cent" unicode="&#xa2;" horiz-adv-x="524" 
d="M183 0l24 111c-72 22 -121 85 -121 179c0 148 94 252 212 270l22 99h69l-20 -97c34 -2 66 -10 88 -21l-15 -69c-28 13 -58 22 -97 22c-101 0 -172 -87 -172 -199c0 -74 40 -123 114 -123c43 0 80 14 111 32l18 -64c-39 -24 -93 -38 -141 -38l-22 -102h-70z" />
    <glyph glyph-name="sterling" unicode="&#xa3;" horiz-adv-x="529" 
d="M27 0l9 60c90 34 113 172 124 240h-75l11 73h74l12 79c7 51 18 84 34 112c41 74 111 101 181 101c40 0 79 -9 112 -24l-30 -69c-22 11 -46 18 -77 18c-41 0 -86 -18 -112 -70c-9 -18 -16 -40 -21 -77l-10 -70h178l-24 -73h-164c-15 -95 -39 -191 -99 -231v-2
c33 4 63 6 108 6h173l-11 -73h-393z" />
    <glyph glyph-name="currency" unicode="&#xa4;" horiz-adv-x="524" 
d="M69 78l-54 54l66 65c-26 37 -43 82 -43 131s16 93 42 130l-66 65l54 54l66 -66c36 27 82 43 130 43c49 0 95 -16 132 -43l64 65l53 -54l-64 -64c26 -37 41 -81 41 -130s-16 -94 -43 -131l66 -64l-54 -55l-65 66c-36 -26 -81 -42 -130 -42c-47 0 -92 15 -129 42zM264 169
c87 0 154 72 154 159c0 88 -67 159 -154 159c-86 0 -154 -71 -154 -159c0 -87 68 -159 154 -159z" />
    <glyph glyph-name="yen" unicode="&#xa5;" horiz-adv-x="529" 
d="M152 0l25 120h-156l12 61h158l17 81h-161l13 61h131l-100 336h90l82 -309h2l189 309h96l-218 -336h132l-13 -61h-158l-17 -81h161l-13 -61h-161l-26 -120h-85z" />
    <glyph glyph-name="brokenbar" unicode="&#xa6;" horiz-adv-x="289" 
d="M103 -237v358h84v-358h-84zM103 423v357h84v-357h-84z" />
    <glyph glyph-name="section" unicode="&#xa7;" horiz-adv-x="546" 
d="M183 -165c-82 0 -133 22 -171 47l37 68c32 -21 79 -42 135 -42c67 0 133 27 133 102c0 132 -257 115 -257 298c0 66 43 122 102 153c-22 23 -36 52 -36 92c0 109 91 170 204 170c61 0 110 -14 147 -33l-16 -74c-37 21 -81 34 -129 34c-63 0 -117 -31 -117 -91
c0 -130 261 -104 261 -300c0 -70 -43 -123 -99 -156c18 -22 29 -52 29 -89c0 -126 -111 -179 -223 -179zM143 321c0 -90 117 -114 195 -176c30 23 55 57 55 101c0 91 -109 117 -189 173c-34 -21 -61 -53 -61 -98z" />
    <glyph glyph-name="dieresis" unicode="&#xa8;" 
d="M95 555c-26 0 -42 17 -42 42c0 33 23 57 52 57c26 0 42 -17 42 -42c0 -33 -23 -57 -52 -57zM275 555c-26 0 -42 17 -42 42c0 33 23 57 52 57c26 0 43 -17 43 -42c0 -33 -24 -57 -53 -57z" />
    <glyph glyph-name="copyright" unicode="&#xa9;" horiz-adv-x="777" 
d="M386 -10c-193 0 -332 147 -332 337s139 337 332 337c192 0 331 -147 331 -337s-139 -337 -331 -337zM386 39c158 0 274 122 274 288s-116 287 -274 287s-275 -121 -275 -287s117 -288 275 -288zM392 127c-114 0 -181 85 -181 195c0 111 70 205 189 205
c38 0 73 -11 95 -23v-55c-26 15 -57 25 -94 25c-79 0 -130 -61 -130 -147c0 -94 49 -149 125 -149c41 0 69 12 92 26l19 -45c-32 -19 -73 -32 -115 -32z" />
    <glyph glyph-name="ordfeminine" unicode="&#xaa;" horiz-adv-x="330" 
d="M-27 137l12 58h296l-13 -58h-295zM117 263c-54 0 -89 36 -89 91c0 92 78 126 174 126h42c2 9 4 18 4 28c0 29 -18 44 -57 44c-32 0 -66 -10 -99 -24l-12 55c33 16 78 28 121 28c67 0 116 -30 116 -99c0 -26 -6 -54 -11 -76l-8 -31c-9 -34 -12 -61 -12 -83
c0 -15 2 -29 6 -44l-59 -13c-4 12 -8 31 -9 49h-2c-27 -29 -64 -51 -105 -51zM136 322c38 0 83 37 94 88l4 16h-28c-85 0 -109 -30 -109 -63c0 -25 12 -41 39 -41z" />
    <glyph glyph-name="guillemotleft" unicode="&#xab;" horiz-adv-x="538" 
d="M268 401l-154 -165l101 -165l-62 -38l-134 210l197 206zM488 401l-155 -165l101 -165l-61 -38l-135 210l197 206z" />
    <glyph glyph-name="logicalnot" unicode="&#xac;" horiz-adv-x="531" 
d="M16 238v74h473v-289h-83v215h-390z" />
    <glyph glyph-name="minus" unicode="&#x2212;" horiz-adv-x="531" 
d="M17 215v74h473v-74h-473z" />
    <glyph glyph-name="registered" unicode="&#xae;" horiz-adv-x="578" 
d="M313 180c-139 0 -238 105 -238 242s99 243 238 243c137 0 239 -106 239 -243s-102 -242 -239 -242zM313 220c114 0 194 89 194 202c0 114 -80 202 -194 202s-194 -88 -194 -202c0 -113 80 -202 194 -202zM276 297h-41v260h69c20 0 35 -3 46 -7c31 -10 46 -36 46 -64
c0 -38 -25 -61 -62 -69v-1c18 -13 43 -57 78 -119h-48c-36 65 -57 104 -72 109h-16v-109zM276 439h18c31 0 57 11 57 44c0 17 -8 30 -21 35c-10 4 -21 5 -36 5h-18v-84z" />
    <glyph glyph-name="macron" unicode="&#xaf;" 
d="M55 572l14 69h260l-15 -69h-259z" />
    <glyph glyph-name="degree" unicode="&#xb0;" horiz-adv-x="383" 
d="M223 353c-89 0 -154 65 -154 153s66 153 155 153c88 0 154 -65 154 -153s-66 -153 -155 -153zM224 412c49 0 88 39 88 94c0 54 -39 93 -88 93c-50 0 -89 -39 -89 -93c0 -55 39 -94 89 -94z" />
    <glyph glyph-name="plusminus" unicode="&#xb1;" horiz-adv-x="531" 
d="M20 0v74h473v-74h-473zM215 128v152h-195v74h195v152h82v-152h196v-74h-196v-152h-82z" />
    <glyph glyph-name="twosuperior" unicode="&#xb2;" horiz-adv-x="335" 
d="M53 404c28 201 229 202 229 287c0 24 -18 41 -54 41c-34 0 -70 -13 -101 -29l-19 57c40 20 85 34 131 34c77 0 118 -41 118 -96c0 -121 -176 -139 -204 -231h176l-10 -63h-266z" />
    <glyph glyph-name="threesuperior" unicode="&#xb3;" horiz-adv-x="343" 
d="M61 419l24 56c28 -12 58 -18 89 -18c55 0 90 22 90 63c0 35 -30 51 -85 51h-50l9 56h40c66 2 101 27 101 64c0 26 -17 42 -57 42c-31 0 -61 -8 -89 -20l-18 55c32 14 74 26 122 26c77 0 118 -39 118 -91c0 -53 -38 -87 -83 -101v-2c38 -7 68 -34 68 -79
c0 -74 -60 -124 -167 -124c-41 0 -83 8 -112 22z" />
    <glyph glyph-name="acute" unicode="&#xb4;" 
d="M134 531l76 147h100l-109 -147h-67z" />
    <glyph glyph-name="mu" unicode="&#xb5;" horiz-adv-x="539" 
d="M-50 -237l153 710h86l-58 -274c-7 -29 -9 -53 -9 -64c0 -50 29 -69 64 -69c63 0 130 52 153 165l53 242h86l-70 -328c-6 -30 -6 -40 -6 -45c0 -19 9 -28 30 -28c9 0 22 2 32 6v-74c-16 -6 -37 -10 -56 -10c-44 0 -74 22 -77 69c0 6 0 17 1 23h-2
c-41 -63 -97 -96 -155 -96c-32 0 -65 12 -82 44h-2c-6 -45 -14 -88 -22 -126l-32 -145h-87z" />
    <glyph glyph-name="paragraph" unicode="&#xb6;" horiz-adv-x="592" 
d="M142 -160l79 375c-97 3 -158 75 -158 176c0 156 126 268 305 268h200l-172 -819h-75l159 756h-104l-159 -756h-75z" />
    <glyph glyph-name="periodcentered" unicode="&#xb7;" horiz-adv-x="235" 
d="M95 198c-29 0 -48 23 -48 50c0 35 25 61 58 61c29 0 48 -24 48 -51c0 -34 -25 -60 -58 -60z" />
    <glyph glyph-name="cedilla" unicode="&#xb8;" 
d="M81 -198l21 45c13 -7 32 -10 47 -10c34 0 60 13 60 41c0 27 -33 34 -78 32l43 90h66l-25 -53c44 -3 71 -27 71 -65c0 -63 -58 -94 -131 -94c-27 0 -51 4 -74 14z" />
    <glyph glyph-name="onesuperior" unicode="&#xb9;" horiz-adv-x="307" 
d="M150 404l65 308c-35 -18 -79 -31 -117 -39v63c45 10 110 38 144 57h63l-83 -389h-72z" />
    <glyph glyph-name="ordmasculine" unicode="&#xba;" horiz-adv-x="357" 
d="M-16 137l13 58h307l-12 -58h-308zM170 263c-83 0 -130 55 -130 129c0 127 82 219 182 219c83 0 130 -55 130 -131c0 -125 -82 -217 -182 -217zM173 324c68 0 109 77 109 151c0 44 -17 75 -63 75c-67 0 -109 -77 -109 -150c0 -45 17 -76 63 -76z" />
    <glyph glyph-name="guillemotright" unicode="&#xbb;" horiz-adv-x="538" 
d="M229 81l155 165l-102 165l62 38l134 -210l-196 -206zM10 81l154 165l-101 165l62 38l134 -210l-197 -206z" />
    <glyph glyph-name="onequarter" unicode="&#xbc;" horiz-adv-x="886" 
d="M138 0l491 659h77l-490 -659h-78zM155 270l65 308c-35 -18 -79 -31 -117 -39v63c45 10 110 38 144 57h63l-83 -389h-72zM612 0l17 86h-162l-11 50l238 253h72l-53 -247h54l-11 -56h-55l-18 -86h-71zM642 142l8 38c8 32 15 66 27 110l-139 -149z" />
    <glyph glyph-name="onehalf" unicode="&#xbd;" horiz-adv-x="886" 
d="M107 0l491 659h77l-490 -659h-78zM139 270l65 308c-35 -18 -79 -31 -117 -39v63c45 10 110 38 144 57h63l-83 -389h-72zM491 0c28 201 229 202 229 287c0 24 -18 41 -54 41c-34 0 -70 -13 -101 -29l-19 57c40 20 85 34 131 34c77 0 118 -41 118 -96
c0 -121 -176 -139 -204 -231h176l-10 -63h-266z" />
    <glyph glyph-name="threequarters" unicode="&#xbe;" horiz-adv-x="886" 
d="M178 0l491 659h77l-490 -659h-78zM650 0l17 86h-162l-11 50l238 253h72l-53 -247h54l-11 -56h-55l-18 -86h-71zM680 142l8 38c8 32 15 66 27 110l-139 -149zM58 285l24 56c28 -12 58 -18 89 -18c55 0 90 22 90 63c0 35 -30 51 -85 51h-50l9 56h40c66 2 101 27 101 64
c0 26 -17 42 -57 42c-31 0 -61 -8 -89 -20l-18 55c32 14 74 26 122 26c77 0 118 -39 118 -91c0 -53 -38 -87 -83 -101v-2c38 -7 68 -34 68 -79c0 -74 -60 -124 -167 -124c-41 0 -83 8 -112 22z" />
    <glyph glyph-name="questiondown" unicode="&#xbf;" horiz-adv-x="451" 
d="M149 -188c-83 0 -153 46 -153 130c0 37 12 67 29 92c59 84 188 131 219 261h57c-7 -195 -216 -227 -216 -340c0 -46 32 -68 79 -68c46 0 91 18 134 48l31 -62c-62 -46 -121 -61 -180 -61zM284 374c-29 0 -48 23 -48 50c0 35 25 60 58 60c29 0 48 -23 48 -50
c0 -35 -25 -60 -58 -60z" />
    <glyph glyph-name="Agrave" unicode="&#xc0;" horiz-adv-x="580" 
d="M-44 0l350 661h70l120 -661h-92l-30 173h-232l-88 -173h-98zM182 246h180l-30 195c-4 27 -8 54 -13 87h-2c-14 -32 -25 -59 -41 -92zM317 696l-81 147h100l49 -147h-68z" />
    <glyph glyph-name="Aacute" unicode="&#xc1;" horiz-adv-x="580" 
d="M-44 0l350 661h70l120 -661h-92l-30 173h-232l-88 -173h-98zM182 246h180l-30 195c-4 27 -8 54 -13 87h-2c-14 -32 -25 -59 -41 -92zM304 696l76 147h100l-109 -147h-67z" />
    <glyph glyph-name="Acircumflex" unicode="&#xc2;" horiz-adv-x="580" 
d="M-44 0l350 661h70l120 -661h-92l-30 173h-232l-88 -173h-98zM182 246h180l-30 195c-4 27 -8 54 -13 87h-2c-14 -32 -25 -59 -41 -92zM206 696l119 147h74l82 -147h-71l-52 94l-77 -94h-75z" />
    <glyph glyph-name="Atilde" unicode="&#xc3;" horiz-adv-x="580" 
d="M-44 0l350 661h70l120 -661h-92l-30 173h-232l-88 -173h-98zM182 246h180l-30 195c-4 27 -8 54 -13 87h-2c-14 -32 -25 -59 -41 -92zM199 724c6 74 45 106 89 106c55 0 86 -47 121 -47c20 0 30 15 34 41h62c-6 -74 -45 -106 -88 -106c-55 0 -87 47 -122 47
c-20 0 -29 -15 -33 -41h-63z" />
    <glyph glyph-name="Adieresis" unicode="&#xc4;" horiz-adv-x="580" 
d="M-44 0l350 661h70l120 -661h-92l-30 173h-232l-88 -173h-98zM182 246h180l-30 195c-4 27 -8 54 -13 87h-2c-14 -32 -25 -59 -41 -92zM256 704c-26 0 -43 17 -43 42c0 33 24 56 53 56c26 0 42 -16 42 -41c0 -33 -23 -57 -52 -57zM436 704c-26 0 -42 17 -42 42
c0 33 23 56 52 56c26 0 42 -16 42 -41c0 -33 -23 -57 -52 -57z" />
    <glyph glyph-name="Aring" unicode="&#xc5;" horiz-adv-x="580" 
d="M-44 0l346 656c-35 10 -58 38 -58 77c0 66 52 108 118 108c57 0 97 -32 97 -84c0 -54 -36 -91 -82 -102l119 -655h-92l-30 173h-232l-88 -173h-98zM182 246h180l-30 195c-4 27 -8 54 -13 87h-2c-14 -32 -25 -59 -41 -92zM345 694c32 0 53 27 53 61c0 25 -15 42 -40 42
c-32 0 -53 -27 -53 -61c0 -26 16 -42 40 -42z" />
    <glyph glyph-name="AE" unicode="&#xc6;" horiz-adv-x="780" 
d="M-66 0l470 659h340l-22 -75h-215l-29 -210h212l-11 -75h-211l-30 -224h242l-11 -75h-328l23 173h-207l-122 -173h-101zM210 246h164l42 296h-2c-25 -37 -63 -96 -84 -124z" />
    <glyph glyph-name="Ccedilla" unicode="&#xc7;" horiz-adv-x="591" 
d="M167 -198l21 45c12 -7 31 -10 47 -10c33 0 59 13 59 41c0 27 -33 34 -78 32l40 86c-127 23 -211 117 -211 267c0 233 163 402 382 402c65 0 121 -15 164 -35l-18 -76c-40 20 -92 35 -145 35c-175 0 -290 -145 -290 -317c0 -121 67 -206 190 -206c57 0 108 13 163 41
l17 -73c-54 -28 -125 -43 -188 -44l-20 -43c44 -3 71 -27 71 -65c0 -63 -58 -94 -131 -94c-26 0 -51 4 -73 14z" />
    <glyph glyph-name="Egrave" unicode="&#xc8;" horiz-adv-x="468" 
d="M10 0l140 659h319l-30 -75h-217l-44 -210h213l-16 -75h-214l-47 -224h243l-16 -75h-331zM290 696l-81 147h100l49 -147h-68z" />
    <glyph glyph-name="Eacute" unicode="&#xc9;" horiz-adv-x="468" 
d="M10 0l140 659h319l-30 -75h-217l-44 -210h213l-16 -75h-214l-47 -224h243l-16 -75h-331zM265 696l76 147h100l-109 -147h-67z" />
    <glyph glyph-name="Ecircumflex" unicode="&#xca;" horiz-adv-x="468" 
d="M10 0l140 659h319l-30 -75h-217l-44 -210h213l-16 -75h-214l-47 -224h243l-16 -75h-331zM173 696l119 147h74l82 -147h-71l-52 94l-77 -94h-75z" />
    <glyph glyph-name="Edieresis" unicode="&#xcb;" horiz-adv-x="468" 
d="M10 0l140 659h319l-30 -75h-217l-44 -210h213l-16 -75h-214l-47 -224h243l-16 -75h-331zM226 704c-26 0 -43 17 -43 42c0 33 24 56 53 56c26 0 42 -16 42 -41c0 -33 -23 -57 -52 -57zM406 704c-26 0 -42 17 -42 42c0 33 23 56 52 56c26 0 42 -16 42 -41
c0 -33 -23 -57 -52 -57z" />
    <glyph glyph-name="Igrave" unicode="&#xcc;" horiz-adv-x="248" 
d="M10 0l140 659h88l-140 -659h-88zM181 696l-81 147h100l49 -147h-68z" />
    <glyph glyph-name="Iacute" unicode="&#xcd;" horiz-adv-x="248" 
d="M10 0l140 659h88l-140 -659h-88zM161 696l76 147h100l-109 -147h-67z" />
    <glyph glyph-name="Icircumflex" unicode="&#xce;" horiz-adv-x="248" 
d="M10 0l140 659h88l-140 -659h-88zM63 696l119 147h74l82 -147h-71l-52 94l-77 -94h-75z" />
    <glyph glyph-name="Idieresis" unicode="&#xcf;" horiz-adv-x="248" 
d="M10 0l140 659h88l-140 -659h-88zM114 704c-26 0 -43 17 -43 42c0 33 24 56 53 56c26 0 42 -16 42 -41c0 -33 -23 -57 -52 -57zM294 704c-26 0 -42 17 -42 42c0 33 23 56 52 56c26 0 42 -16 42 -41c0 -33 -23 -57 -52 -57z" />
    <glyph glyph-name="Eth" unicode="&#xd0;" horiz-adv-x="638" 
d="M10 0l62 295h-78l16 73h78l62 291h116c73 0 135 -10 186 -33c88 -39 143 -114 143 -241c0 -153 -80 -290 -224 -350c-56 -23 -122 -35 -201 -35h-160zM114 75h65c62 0 115 10 158 30c107 48 165 154 165 286c0 80 -31 138 -98 169c-35 16 -79 24 -141 24h-41l-46 -216
h159l-16 -73h-159z" />
    <glyph glyph-name="Ntilde" unicode="&#xd1;" horiz-adv-x="703" 
d="M10 0l140 659h83l217 -425c15 -29 31 -63 44 -93h2c6 35 14 73 19 101l88 417h89l-141 -659h-73l-224 439c-15 30 -32 62 -44 92h-2c-5 -36 -12 -70 -17 -95l-93 -436h-88zM283 724c6 74 45 106 89 106c55 0 86 -47 121 -47c20 0 30 15 34 41h62
c-6 -74 -45 -106 -88 -106c-55 0 -87 47 -122 47c-20 0 -29 -15 -33 -41h-63z" />
    <glyph glyph-name="Ograve" unicode="&#xd2;" horiz-adv-x="718" 
d="M312 -10c-161 0 -267 97 -267 276c0 208 140 399 361 399c160 0 267 -96 267 -275c0 -208 -140 -400 -361 -400zM318 66c165 0 261 167 261 323c0 126 -61 200 -178 200c-166 0 -263 -166 -263 -322c0 -125 61 -201 180 -201zM399 696l-81 147h100l49 -147h-68z" />
    <glyph glyph-name="Oacute" unicode="&#xd3;" horiz-adv-x="718" 
d="M312 -10c-161 0 -267 97 -267 276c0 208 140 399 361 399c160 0 267 -96 267 -275c0 -208 -140 -400 -361 -400zM318 66c165 0 261 167 261 323c0 126 -61 200 -178 200c-166 0 -263 -166 -263 -322c0 -125 61 -201 180 -201zM379 696l76 147h100l-109 -147h-67z" />
    <glyph glyph-name="Ocircumflex" unicode="&#xd4;" horiz-adv-x="718" 
d="M312 -10c-161 0 -267 97 -267 276c0 208 140 399 361 399c160 0 267 -96 267 -275c0 -208 -140 -400 -361 -400zM318 66c165 0 261 167 261 323c0 126 -61 200 -178 200c-166 0 -263 -166 -263 -322c0 -125 61 -201 180 -201zM287 696l119 147h74l82 -147h-71l-52 94
l-77 -94h-75z" />
    <glyph glyph-name="Otilde" unicode="&#xd5;" horiz-adv-x="718" 
d="M312 -10c-161 0 -267 97 -267 276c0 208 140 399 361 399c160 0 267 -96 267 -275c0 -208 -140 -400 -361 -400zM318 66c165 0 261 167 261 323c0 126 -61 200 -178 200c-166 0 -263 -166 -263 -322c0 -125 61 -201 180 -201zM280 724c6 74 45 106 89 106
c55 0 86 -47 121 -47c20 0 30 15 34 41h62c-6 -74 -45 -106 -88 -106c-55 0 -87 47 -122 47c-20 0 -29 -15 -33 -41h-63z" />
    <glyph glyph-name="Odieresis" unicode="&#xd6;" horiz-adv-x="718" 
d="M312 -10c-161 0 -267 97 -267 276c0 208 140 399 361 399c160 0 267 -96 267 -275c0 -208 -140 -400 -361 -400zM318 66c165 0 261 167 261 323c0 126 -61 200 -178 200c-166 0 -263 -166 -263 -322c0 -125 61 -201 180 -201zM337 704c-26 0 -43 17 -43 42
c0 33 24 56 53 56c26 0 42 -16 42 -41c0 -33 -23 -57 -52 -57zM517 704c-26 0 -42 17 -42 42c0 33 23 56 52 56c26 0 42 -16 42 -41c0 -33 -23 -57 -52 -57z" />
    <glyph glyph-name="multiply" unicode="&#xd7;" horiz-adv-x="554" 
d="M96 13l-54 55l183 183l-183 183l54 55l183 -183l183 183l54 -55l-182 -183l182 -183l-54 -54l-183 183z" />
    <glyph glyph-name="Oslash" unicode="&#xd8;" horiz-adv-x="718" 
d="M314 -10c-66 0 -122 17 -165 51l-58 -66l-54 46l59 67c-33 45 -51 106 -51 181c0 206 137 396 358 396c65 0 121 -16 164 -49l58 65l54 -45l-59 -67c34 -46 53 -107 53 -182c0 -206 -137 -397 -359 -397zM321 66c157 0 258 151 258 323c0 42 -7 78 -22 107l-353 -392
c28 -24 67 -38 117 -38zM138 267c0 -41 7 -77 21 -106l353 391c-28 24 -66 37 -114 37c-158 0 -260 -150 -260 -322z" />
    <glyph glyph-name="Ugrave" unicode="&#xd9;" horiz-adv-x="651" 
d="M276 -10c-140 0 -219 74 -219 192c0 27 5 56 12 91l82 386h88l-83 -388c-6 -28 -10 -55 -10 -78c0 -86 52 -128 134 -128c60 0 101 18 129 47c30 31 46 74 56 120l91 427h88l-92 -436c-16 -74 -42 -129 -81 -166c-50 -47 -113 -67 -195 -67zM374 696l-81 147h100l49 -147
h-68z" />
    <glyph glyph-name="Uacute" unicode="&#xda;" horiz-adv-x="651" 
d="M276 -10c-140 0 -219 74 -219 192c0 27 5 56 12 91l82 386h88l-83 -388c-6 -28 -10 -55 -10 -78c0 -86 52 -128 134 -128c60 0 101 18 129 47c30 31 46 74 56 120l91 427h88l-92 -436c-16 -74 -42 -129 -81 -166c-50 -47 -113 -67 -195 -67zM362 696l76 147h100
l-109 -147h-67z" />
    <glyph glyph-name="Ucircumflex" unicode="&#xdb;" horiz-adv-x="651" 
d="M276 -10c-140 0 -219 74 -219 192c0 27 5 56 12 91l82 386h88l-83 -388c-6 -28 -10 -55 -10 -78c0 -86 52 -128 134 -128c60 0 101 18 129 47c30 31 46 74 56 120l91 427h88l-92 -436c-16 -74 -42 -129 -81 -166c-50 -47 -113 -67 -195 -67zM266 696l119 147h74l82 -147
h-71l-52 94l-77 -94h-75z" />
    <glyph glyph-name="Udieresis" unicode="&#xdc;" horiz-adv-x="651" 
d="M276 -10c-140 0 -219 74 -219 192c0 27 5 56 12 91l82 386h88l-83 -388c-6 -28 -10 -55 -10 -78c0 -86 52 -128 134 -128c60 0 101 18 129 47c30 31 46 74 56 120l91 427h88l-92 -436c-16 -74 -42 -129 -81 -166c-50 -47 -113 -67 -195 -67zM319 704c-26 0 -43 17 -43 42
c0 33 24 56 53 56c26 0 42 -16 42 -41c0 -33 -23 -57 -52 -57zM499 704c-26 0 -42 17 -42 42c0 33 23 56 52 56c26 0 42 -16 42 -41c0 -33 -23 -57 -52 -57z" />
    <glyph glyph-name="Yacute" unicode="&#xdd;" horiz-adv-x="514" 
d="M163 0l54 255l-145 404h92l107 -318h2l205 318h99l-272 -407l-54 -252h-88zM285 696l76 147h100l-109 -147h-67z" />
    <glyph glyph-name="Thorn" unicode="&#xde;" horiz-adv-x="510" 
d="M10 0l140 659h88l-23 -111h13c46 0 78 -6 107 -16c75 -27 119 -87 119 -170c0 -103 -60 -187 -168 -219c-33 -10 -73 -16 -125 -16h-36l-27 -127h-88zM141 200h33c35 0 64 4 86 13c68 22 104 78 104 147c0 46 -19 86 -68 104c-19 7 -41 11 -71 11h-26z" />
    <glyph glyph-name="germandbls" unicode="&#xdf;" horiz-adv-x="575" 
d="M-16 -141l140 656c11 51 28 88 50 116c44 56 109 77 171 77c105 0 187 -54 187 -168c0 -22 -4 -48 -9 -74c-93 -4 -151 -39 -151 -99c0 -87 126 -109 126 -232c0 -93 -76 -145 -172 -145c-55 0 -103 14 -141 38l29 66c30 -17 66 -32 108 -32c46 0 88 22 88 72
c0 85 -125 111 -125 226c0 84 60 142 159 153c2 6 2 17 2 25c0 66 -43 94 -99 94c-68 0 -119 -39 -139 -132l-136 -641h-88z" />
    <glyph glyph-name="agrave" unicode="&#xe0;" horiz-adv-x="469" 
d="M127 -10c-77 0 -126 52 -126 125c0 55 21 97 56 126c45 37 113 52 191 52l66 1c4 15 6 33 6 49c0 45 -24 72 -87 72c-46 0 -96 -15 -140 -36l-12 67c51 24 111 39 166 39c78 0 160 -30 160 -137c0 -36 -9 -77 -17 -114l-10 -42c-11 -50 -17 -89 -17 -122
c0 -22 3 -42 8 -60l-75 -16c-6 19 -13 52 -14 81c-37 -48 -93 -85 -155 -85zM150 62c60 0 130 55 146 134l7 33h-37c-70 0 -118 -9 -147 -32c-21 -17 -32 -41 -32 -70c0 -43 22 -65 63 -65zM243 531l-81 147h100l49 -147h-68z" />
    <glyph glyph-name="aacute" unicode="&#xe1;" horiz-adv-x="469" 
d="M127 -10c-77 0 -126 52 -126 125c0 55 21 97 56 126c45 37 113 52 191 52l66 1c4 15 6 33 6 49c0 45 -24 72 -87 72c-46 0 -96 -15 -140 -36l-12 67c51 24 111 39 166 39c78 0 160 -30 160 -137c0 -36 -9 -77 -17 -114l-10 -42c-11 -50 -17 -89 -17 -122
c0 -22 3 -42 8 -60l-75 -16c-6 19 -13 52 -14 81c-37 -48 -93 -85 -155 -85zM150 62c60 0 130 55 146 134l7 33h-37c-70 0 -118 -9 -147 -32c-21 -17 -32 -41 -32 -70c0 -43 22 -65 63 -65zM218 531l76 147h100l-109 -147h-67z" />
    <glyph glyph-name="acircumflex" unicode="&#xe2;" horiz-adv-x="469" 
d="M127 -10c-77 0 -126 52 -126 125c0 55 21 97 56 126c45 37 113 52 191 52l66 1c4 15 6 33 6 49c0 45 -24 72 -87 72c-46 0 -96 -15 -140 -36l-12 67c51 24 111 39 166 39c78 0 160 -30 160 -137c0 -36 -9 -77 -17 -114l-10 -42c-11 -50 -17 -89 -17 -122
c0 -22 3 -42 8 -60l-75 -16c-6 19 -13 52 -14 81c-37 -48 -93 -85 -155 -85zM150 62c60 0 130 55 146 134l7 33h-37c-70 0 -118 -9 -147 -32c-21 -17 -32 -41 -32 -70c0 -43 22 -65 63 -65zM123 531l119 147h74l82 -147h-71l-52 94l-77 -94h-75z" />
    <glyph glyph-name="atilde" unicode="&#xe3;" horiz-adv-x="469" 
d="M127 -10c-77 0 -126 52 -126 125c0 55 21 97 56 126c45 37 113 52 191 52l66 1c4 15 6 33 6 49c0 45 -24 72 -87 72c-46 0 -96 -15 -140 -36l-12 67c51 24 111 39 166 39c78 0 160 -30 160 -137c0 -36 -9 -77 -17 -114l-10 -42c-11 -50 -17 -89 -17 -122
c0 -22 3 -42 8 -60l-75 -16c-6 19 -13 52 -14 81c-37 -48 -93 -85 -155 -85zM150 62c60 0 130 55 146 134l7 33h-37c-70 0 -118 -9 -147 -32c-21 -17 -32 -41 -32 -70c0 -43 22 -65 63 -65zM117 552c6 74 45 106 89 106c55 0 86 -47 121 -47c20 0 30 15 34 41h62
c-6 -74 -45 -106 -88 -106c-55 0 -87 47 -122 47c-20 0 -29 -16 -33 -41h-63z" />
    <glyph glyph-name="adieresis" unicode="&#xe4;" horiz-adv-x="469" 
d="M127 -10c-77 0 -126 52 -126 125c0 55 21 97 56 126c45 37 113 52 191 52l66 1c4 15 6 33 6 49c0 45 -24 72 -87 72c-46 0 -96 -15 -140 -36l-12 67c51 24 111 39 166 39c78 0 160 -30 160 -137c0 -36 -9 -77 -17 -114l-10 -42c-11 -50 -17 -89 -17 -122
c0 -22 3 -42 8 -60l-75 -16c-6 19 -13 52 -14 81c-37 -48 -93 -85 -155 -85zM150 62c60 0 130 55 146 134l7 33h-37c-70 0 -118 -9 -147 -32c-21 -17 -32 -41 -32 -70c0 -43 22 -65 63 -65zM179 555c-26 0 -42 17 -42 42c0 33 23 57 52 57c26 0 42 -17 42 -42
c0 -33 -23 -57 -52 -57zM359 555c-26 0 -42 17 -42 42c0 33 23 57 52 57c26 0 43 -17 43 -42c0 -33 -24 -57 -53 -57z" />
    <glyph glyph-name="aring" unicode="&#xe5;" horiz-adv-x="469" 
d="M127 -10c-77 0 -126 52 -126 125c0 55 21 97 56 126c45 37 113 52 191 52l66 1c4 15 6 33 6 49c0 45 -24 72 -87 72c-46 0 -96 -15 -140 -36l-12 67c51 24 111 39 166 39c78 0 160 -30 160 -137c0 -36 -9 -77 -17 -114l-10 -42c-11 -50 -17 -89 -17 -122
c0 -22 3 -42 8 -60l-75 -16c-6 19 -13 52 -14 81c-37 -48 -93 -85 -155 -85zM150 62c60 0 130 55 146 134l7 33h-37c-70 0 -118 -9 -147 -32c-21 -17 -32 -41 -32 -70c0 -43 22 -65 63 -65zM270 523c-58 0 -97 32 -97 84c0 66 52 107 117 107c58 0 98 -32 98 -83
c0 -67 -53 -108 -118 -108zM274 567c32 0 53 27 53 61c0 26 -16 42 -41 42c-31 0 -53 -27 -53 -61c0 -26 16 -42 41 -42z" />
    <glyph glyph-name="ae" unicode="&#xe6;" horiz-adv-x="749" 
d="M134 -10c-80 0 -133 52 -133 129c0 112 97 165 248 166l63 1c5 21 7 38 7 55c0 49 -24 74 -87 74c-47 0 -95 -15 -139 -36l-12 67c51 24 111 39 162 39c62 0 121 -21 140 -80h2c39 50 97 80 163 80c106 0 158 -65 158 -155c0 -36 -9 -80 -20 -105l-298 -4
c-1 -9 -2 -18 -2 -27c0 -84 49 -132 119 -132c47 0 90 16 128 36l25 -64c-46 -28 -106 -44 -159 -44c-85 0 -147 42 -169 116h-2c-45 -76 -119 -116 -194 -116zM150 62c61 0 130 48 148 138l4 20h-49c-103 -2 -166 -30 -166 -93c0 -41 22 -65 63 -65zM399 287l214 2
c5 13 8 31 8 44c0 40 -19 82 -83 82c-66 0 -123 -59 -139 -128z" />
    <glyph glyph-name="ccedilla" unicode="&#xe7;" horiz-adv-x="438" 
d="M72 -198l21 45c13 -7 32 -10 47 -10c33 0 60 13 60 41c0 27 -34 34 -78 32l40 87c-86 20 -141 92 -141 192c0 166 114 296 274 296c45 0 88 -10 119 -24l-16 -73c-31 15 -64 24 -102 24c-101 0 -186 -89 -186 -214c0 -81 40 -135 121 -135c48 0 89 17 120 35l23 -63
c-36 -25 -97 -43 -148 -45l-20 -43c44 -3 71 -27 71 -65c0 -63 -58 -94 -131 -94c-27 0 -51 4 -74 14z" />
    <glyph glyph-name="egrave" unicode="&#xe8;" horiz-adv-x="469" 
d="M218 -10c-117 0 -197 75 -197 202c0 166 105 293 248 293c106 0 159 -65 159 -155c0 -34 -9 -76 -21 -110l-298 -4c-1 -8 -1 -17 -1 -24c0 -83 48 -130 118 -130c48 0 90 16 129 36l24 -64c-46 -28 -108 -44 -161 -44zM120 281l214 3c5 17 8 35 8 49c0 40 -19 82 -81 82
c-68 0 -125 -61 -141 -134zM252 531l-81 147h100l49 -147h-68z" />
    <glyph glyph-name="eacute" unicode="&#xe9;" horiz-adv-x="469" 
d="M218 -10c-117 0 -197 75 -197 202c0 166 105 293 248 293c106 0 159 -65 159 -155c0 -34 -9 -76 -21 -110l-298 -4c-1 -8 -1 -17 -1 -24c0 -83 48 -130 118 -130c48 0 90 16 129 36l24 -64c-46 -28 -108 -44 -161 -44zM120 281l214 3c5 17 8 35 8 49c0 40 -19 82 -81 82
c-68 0 -125 -61 -141 -134zM239 531l76 147h100l-109 -147h-67z" />
    <glyph glyph-name="ecircumflex" unicode="&#xea;" horiz-adv-x="469" 
d="M218 -10c-117 0 -197 75 -197 202c0 166 105 293 248 293c106 0 159 -65 159 -155c0 -34 -9 -76 -21 -110l-298 -4c-1 -8 -1 -17 -1 -24c0 -83 48 -130 118 -130c48 0 90 16 129 36l24 -64c-46 -28 -108 -44 -161 -44zM120 281l214 3c5 17 8 35 8 49c0 40 -19 82 -81 82
c-68 0 -125 -61 -141 -134zM141 531l119 147h74l82 -147h-71l-52 94l-77 -94h-75z" />
    <glyph glyph-name="edieresis" unicode="&#xeb;" horiz-adv-x="469" 
d="M218 -10c-117 0 -197 75 -197 202c0 166 105 293 248 293c106 0 159 -65 159 -155c0 -34 -9 -76 -21 -110l-298 -4c-1 -8 -1 -17 -1 -24c0 -83 48 -130 118 -130c48 0 90 16 129 36l24 -64c-46 -28 -108 -44 -161 -44zM120 281l214 3c5 17 8 35 8 49c0 40 -19 82 -81 82
c-68 0 -125 -61 -141 -134zM191 555c-26 0 -42 17 -42 42c0 33 23 57 52 57c26 0 42 -17 42 -42c0 -33 -23 -57 -52 -57zM371 555c-26 0 -42 17 -42 42c0 33 23 57 52 57c26 0 43 -17 43 -42c0 -33 -24 -57 -53 -57z" />
    <glyph glyph-name="igrave" unicode="&#xec;" horiz-adv-x="223" 
d="M135 531l-81 147h100l49 -147h-68zM1 0l101 473h86l-101 -473h-86z" />
    <glyph glyph-name="iacute" unicode="&#xed;" horiz-adv-x="223" 
d="M110 531l76 147h100l-109 -147h-67zM1 0l101 473h86l-101 -473h-86z" />
    <glyph glyph-name="icircumflex" unicode="&#xee;" horiz-adv-x="223" 
d="M1 0l101 473h86l-101 -473h-86zM17 531l119 147h74l82 -147h-71l-52 94l-77 -94h-75z" />
    <glyph glyph-name="idieresis" unicode="&#xef;" horiz-adv-x="223" 
d="M69 555c-26 0 -42 17 -42 42c0 33 23 57 52 57c26 0 42 -17 42 -42c0 -33 -23 -57 -52 -57zM249 555c-26 0 -42 17 -42 42c0 33 23 57 52 57c26 0 43 -17 43 -42c0 -33 -24 -57 -53 -57zM1 0l101 473h86l-101 -473h-86z" />
    <glyph glyph-name="eth" unicode="&#xf0;" horiz-adv-x="514" 
d="M202 -10c-121 0 -181 86 -181 193c0 177 117 298 243 298c60 0 104 -28 129 -64h2c-6 66 -35 127 -95 168l-123 -60l-22 44l89 42c-37 15 -81 24 -133 26l16 71c87 -4 154 -24 204 -54l110 54l22 -44l-89 -43c69 -64 93 -155 93 -246c0 -252 -117 -385 -265 -385zM211 63
c96 0 160 103 162 221c2 82 -39 124 -100 124c-98 0 -163 -103 -163 -222c0 -77 31 -123 101 -123z" />
    <glyph glyph-name="ntilde" unicode="&#xf1;" horiz-adv-x="499" 
d="M0 0l101 473h70l-12 -94h2c40 59 107 106 177 106c63 0 109 -35 109 -116c0 -19 -2 -45 -12 -92l-59 -277h-87l59 274c7 35 10 62 10 73c0 43 -22 60 -53 60c-35 0 -83 -22 -121 -73c-24 -31 -41 -69 -55 -133l-43 -201h-86zM148 552c6 74 45 106 89 106
c55 0 86 -47 121 -47c20 0 30 15 34 41h62c-6 -74 -45 -106 -88 -106c-55 0 -87 47 -122 47c-20 0 -29 -16 -33 -41h-63z" />
    <glyph glyph-name="ograve" unicode="&#xf2;" horiz-adv-x="509" 
d="M205 -10c-124 0 -185 82 -185 186c0 182 117 309 257 309c123 0 184 -82 184 -186c0 -182 -116 -309 -256 -309zM208 63c99 0 164 112 164 231c0 73 -30 118 -98 118c-99 0 -165 -112 -165 -231c0 -73 31 -118 99 -118zM268 531l-81 147h100l49 -147h-68z" />
    <glyph glyph-name="oacute" unicode="&#xf3;" horiz-adv-x="509" 
d="M205 -10c-124 0 -185 82 -185 186c0 182 117 309 257 309c123 0 184 -82 184 -186c0 -182 -116 -309 -256 -309zM208 63c99 0 164 112 164 231c0 73 -30 118 -98 118c-99 0 -165 -112 -165 -231c0 -73 31 -118 99 -118zM253 531l76 147h100l-109 -147h-67z" />
    <glyph glyph-name="ocircumflex" unicode="&#xf4;" horiz-adv-x="509" 
d="M205 -10c-124 0 -185 82 -185 186c0 182 117 309 257 309c123 0 184 -82 184 -186c0 -182 -116 -309 -256 -309zM208 63c99 0 164 112 164 231c0 73 -30 118 -98 118c-99 0 -165 -112 -165 -231c0 -73 31 -118 99 -118zM163 531l119 147h74l82 -147h-71l-52 94l-77 -94
h-75z" />
    <glyph glyph-name="otilde" unicode="&#xf5;" horiz-adv-x="509" 
d="M205 -10c-124 0 -185 82 -185 186c0 182 117 309 257 309c123 0 184 -82 184 -186c0 -182 -116 -309 -256 -309zM208 63c99 0 164 112 164 231c0 73 -30 118 -98 118c-99 0 -165 -112 -165 -231c0 -73 31 -118 99 -118zM152 552c6 74 45 106 89 106c55 0 86 -47 121 -47
c20 0 30 15 34 41h62c-6 -74 -45 -106 -88 -106c-55 0 -87 47 -122 47c-20 0 -29 -16 -33 -41h-63z" />
    <glyph glyph-name="odieresis" unicode="&#xf6;" horiz-adv-x="509" 
d="M205 -10c-124 0 -185 82 -185 186c0 182 117 309 257 309c123 0 184 -82 184 -186c0 -182 -116 -309 -256 -309zM208 63c99 0 164 112 164 231c0 73 -30 118 -98 118c-99 0 -165 -112 -165 -231c0 -73 31 -118 99 -118zM212 555c-26 0 -42 17 -42 42c0 33 23 57 52 57
c26 0 42 -17 42 -42c0 -33 -23 -57 -52 -57zM392 555c-26 0 -42 17 -42 42c0 33 23 57 52 57c26 0 43 -17 43 -42c0 -33 -24 -57 -53 -57z" />
    <glyph glyph-name="divide" unicode="&#xf7;" horiz-adv-x="531" 
d="M254 29c-28 0 -50 23 -50 52s22 52 50 52s50 -23 50 -52s-22 -52 -50 -52zM17 215v74h472v-74h-472zM254 370c-28 0 -50 24 -50 52c0 29 22 52 50 52s50 -23 50 -52c0 -28 -22 -52 -50 -52z" />
    <glyph glyph-name="oslash" unicode="&#xf8;" horiz-adv-x="509" 
d="M56 -23l-40 35l40 47c-23 31 -35 72 -35 117c0 182 117 309 257 309c45 0 82 -11 111 -32l37 45l40 -35l-39 -47c23 -31 35 -73 35 -117c0 -182 -116 -309 -256 -309c-47 0 -84 12 -113 32zM209 62c99 0 166 113 166 232c0 19 -3 38 -8 52l-222 -263
c15 -14 36 -21 64 -21zM109 181c0 -19 2 -36 6 -52l223 264c-16 13 -37 20 -63 20c-99 0 -166 -113 -166 -232z" />
    <glyph glyph-name="ugrave" unicode="&#xf9;" horiz-adv-x="502" 
d="M144 -10c-63 0 -115 35 -115 119c0 20 3 48 12 93l57 271h87l-59 -279c-6 -27 -9 -52 -9 -66c0 -44 23 -62 54 -62c77 0 140 76 160 168l51 239h86l-60 -281c-9 -49 -15 -88 -15 -120c0 -23 3 -43 7 -62l-74 -16c-6 19 -14 56 -12 92h-2c-39 -55 -104 -96 -168 -96z
M267 531l-81 147h100l49 -147h-68z" />
    <glyph glyph-name="uacute" unicode="&#xfa;" horiz-adv-x="502" 
d="M144 -10c-63 0 -115 35 -115 119c0 20 3 48 12 93l57 271h87l-59 -279c-6 -27 -9 -52 -9 -66c0 -44 23 -62 54 -62c77 0 140 76 160 168l51 239h86l-60 -281c-9 -49 -15 -88 -15 -120c0 -23 3 -43 7 -62l-74 -16c-6 19 -14 56 -12 92h-2c-39 -55 -104 -96 -168 -96z
M249 531l76 147h100l-109 -147h-67z" />
    <glyph glyph-name="ucircumflex" unicode="&#xfb;" horiz-adv-x="502" 
d="M144 -10c-63 0 -115 35 -115 119c0 20 3 48 12 93l57 271h87l-59 -279c-6 -27 -9 -52 -9 -66c0 -44 23 -62 54 -62c77 0 140 76 160 168l51 239h86l-60 -281c-9 -49 -15 -88 -15 -120c0 -23 3 -43 7 -62l-74 -16c-6 19 -14 56 -12 92h-2c-39 -55 -104 -96 -168 -96z
M155 531l119 147h74l82 -147h-71l-52 94l-77 -94h-75z" />
    <glyph glyph-name="udieresis" unicode="&#xfc;" horiz-adv-x="502" 
d="M144 -10c-63 0 -115 35 -115 119c0 20 3 48 12 93l57 271h87l-59 -279c-6 -27 -9 -52 -9 -66c0 -44 23 -62 54 -62c77 0 140 76 160 168l51 239h86l-60 -281c-9 -49 -15 -88 -15 -120c0 -23 3 -43 7 -62l-74 -16c-6 19 -14 56 -12 92h-2c-39 -55 -104 -96 -168 -96z
M206 555c-26 0 -42 17 -42 42c0 33 23 57 52 57c26 0 42 -17 42 -42c0 -33 -23 -57 -52 -57zM386 555c-26 0 -42 17 -42 42c0 33 23 57 52 57c26 0 43 -17 43 -42c0 -33 -24 -57 -53 -57z" />
    <glyph glyph-name="yacute" unicode="&#xfd;" horiz-adv-x="452" 
d="M-125 -219l31 68c19 -9 37 -13 58 -13c59 0 114 33 178 163l-107 474h87l50 -241c11 -51 18 -89 27 -135h2c17 40 32 73 56 123l123 253h91l-249 -489c-84 -166 -154 -221 -265 -221c-31 0 -63 7 -82 18zM217 531l76 147h100l-109 -147h-67z" />
    <glyph glyph-name="thorn" unicode="&#xfe;" horiz-adv-x="506" 
d="M-51 -237l202 945h87l-49 -228c14 3 36 5 51 5c149 0 219 -87 219 -203c0 -192 -139 -292 -276 -292c-38 0 -66 5 -96 14l-51 -241h-87zM104 77c23 -10 54 -13 73 -13c112 0 193 86 193 211c0 92 -51 136 -134 136c-24 0 -47 -4 -63 -8z" />
    <glyph glyph-name="ydieresis" unicode="&#xff;" horiz-adv-x="452" 
d="M-125 -219l31 68c19 -9 37 -13 58 -13c59 0 114 33 178 163l-107 474h87l50 -241c11 -51 18 -89 27 -135h2c17 40 32 73 56 123l123 253h91l-249 -489c-84 -166 -154 -221 -265 -221c-31 0 -63 7 -82 18zM172 555c-26 0 -42 17 -42 42c0 33 23 57 52 57
c26 0 42 -17 42 -42c0 -33 -23 -57 -52 -57zM352 555c-26 0 -42 17 -42 42c0 33 23 57 52 57c26 0 43 -17 43 -42c0 -33 -24 -57 -53 -57z" />
    <glyph glyph-name="parenleftsuperior" unicode="&#x207d;" horiz-adv-x="236" 
d="M149 356c-37 44 -58 115 -58 179c0 112 52 217 154 301l39 -44c-73 -68 -122 -148 -122 -254c0 -50 13 -111 37 -148z" />
    <glyph glyph-name="parenrightsuperior" unicode="&#x207e;" horiz-adv-x="236" 
d="M76 356l-39 43c73 69 122 149 122 254c0 51 -13 112 -37 148l50 35c37 -45 58 -115 58 -179c0 -112 -52 -217 -154 -301z" />
    <glyph glyph-name="parenleftinferior" unicode="&#x208d;" horiz-adv-x="236" 
d="M43 -228c-37 44 -58 115 -58 179c0 112 52 217 154 301l39 -44c-73 -68 -122 -148 -122 -254c0 -50 13 -111 37 -148z" />
    <glyph glyph-name="parenrightinferior" unicode="&#x208e;" horiz-adv-x="236" 
d="M-30 -228l-39 43c73 69 122 149 122 254c0 51 -13 112 -37 148l50 35c37 -45 58 -115 58 -179c0 -112 -52 -217 -154 -301z" />
    <glyph glyph-name="oneeighth" unicode="&#x215b;" horiz-adv-x="886" 
d="M118 0l491 659h77l-490 -659h-78zM129 270l65 308c-35 -18 -79 -31 -117 -39v63c45 10 110 38 144 57h63l-83 -389h-72zM638 -8c-79 0 -133 36 -133 101c0 54 37 89 84 106v1c-27 18 -46 43 -46 80c0 68 60 109 138 109c80 0 127 -39 127 -98c0 -47 -29 -78 -75 -95v-1
c37 -15 59 -45 59 -86c0 -76 -69 -117 -154 -117zM642 52c34 0 76 16 76 59c0 32 -31 48 -69 59c-39 -11 -69 -34 -69 -66c0 -37 29 -52 62 -52zM668 222c35 10 65 29 65 64c0 29 -23 44 -54 44c-32 0 -61 -17 -61 -51c0 -28 22 -48 50 -57z" />
    <glyph glyph-name="threeeighths" unicode="&#x215c;" horiz-adv-x="886" 
d="M150 0l491 659h77l-490 -659h-78zM652 -8c-79 0 -133 36 -133 101c0 54 37 89 84 106v1c-27 18 -46 43 -46 80c0 68 60 109 138 109c80 0 127 -39 127 -98c0 -47 -29 -78 -75 -95v-1c37 -15 59 -45 59 -86c0 -76 -69 -117 -154 -117zM656 52c34 0 76 16 76 59
c0 32 -31 48 -69 59c-39 -11 -69 -34 -69 -66c0 -37 29 -52 62 -52zM682 222c35 10 65 29 65 64c0 29 -23 44 -54 44c-32 0 -61 -17 -61 -51c0 -28 22 -48 50 -57zM47 285l24 56c28 -12 58 -18 89 -18c55 0 90 22 90 63c0 35 -30 51 -85 51h-50l9 56h40c66 2 101 27 101 64
c0 26 -17 42 -57 42c-31 0 -61 -8 -89 -20l-18 55c32 14 74 26 122 26c77 0 118 -39 118 -91c0 -53 -38 -87 -83 -101v-2c38 -7 68 -34 68 -79c0 -74 -60 -124 -167 -124c-41 0 -83 8 -112 22z" />
    <glyph glyph-name="fiveeighths" unicode="&#x215d;" horiz-adv-x="886" 
d="M151 0l491 659h77l-490 -659h-78zM42 284l23 57c26 -11 55 -18 88 -18c52 0 94 21 94 69c0 21 -9 38 -31 48c-13 5 -30 8 -54 8h-64l42 204h225l-17 -62h-149l-19 -88h10c30 0 50 -3 66 -9c41 -17 66 -50 66 -95c0 -86 -68 -135 -171 -135c-38 0 -77 7 -109 21zM658 -8
c-79 0 -133 36 -133 101c0 54 37 89 84 106v1c-27 18 -46 43 -46 80c0 68 60 109 138 109c80 0 127 -39 127 -98c0 -47 -29 -78 -75 -95v-1c37 -15 59 -45 59 -86c0 -76 -69 -117 -154 -117zM662 52c34 0 76 16 76 59c0 32 -31 48 -69 59c-39 -11 -69 -34 -69 -66
c0 -37 29 -52 62 -52zM688 222c35 10 65 29 65 64c0 29 -23 44 -54 44c-32 0 -61 -17 -61 -51c0 -28 22 -48 50 -57z" />
    <glyph glyph-name="seveneighths" unicode="&#x215e;" horiz-adv-x="886" 
d="M120 0l491 659h77l-490 -659h-78zM638 -8c-79 0 -133 36 -133 101c0 54 37 89 84 106v1c-27 18 -46 43 -46 80c0 68 60 109 138 109c80 0 127 -39 127 -98c0 -47 -29 -78 -75 -95v-1c37 -15 59 -45 59 -86c0 -76 -69 -117 -154 -117zM642 52c34 0 76 16 76 59
c0 32 -31 48 -69 59c-39 -11 -69 -34 -69 -66c0 -37 29 -52 62 -52zM668 222c35 10 65 29 65 64c0 29 -23 44 -54 44c-32 0 -61 -17 -61 -51c0 -28 22 -48 50 -57zM122 270c38 145 112 249 176 320h-166l-9 62h268v-38c-85 -95 -153 -204 -189 -344h-80z" />
    <glyph glyph-name="onethird" unicode="&#x2153;" horiz-adv-x="886" 
d="M121 0l491 659h77l-490 -659h-78zM132 270l65 308c-35 -18 -79 -31 -117 -39v63c45 10 110 38 144 57h63l-83 -389h-72zM514 14l24 56c28 -12 58 -18 89 -18c55 0 90 22 90 63c0 35 -30 51 -85 51h-50l9 56h40c66 2 101 27 101 64c0 26 -17 42 -57 42
c-31 0 -61 -8 -89 -20l-18 55c32 14 74 26 122 26c77 0 118 -39 118 -91c0 -53 -38 -87 -83 -101v-2c38 -7 68 -34 68 -79c0 -74 -60 -124 -167 -124c-41 0 -83 8 -112 22z" />
    <glyph glyph-name="twothirds" unicode="&#x2154;" horiz-adv-x="886" 
d="M173 0l491 659h77l-490 -659h-78zM38 270c28 201 229 202 229 287c0 24 -18 41 -54 41c-34 0 -70 -13 -101 -29l-19 57c40 20 85 34 131 34c77 0 118 -41 118 -96c0 -121 -176 -139 -204 -231h176l-10 -63h-266zM556 14l24 56c28 -12 58 -18 89 -18c55 0 90 22 90 63
c0 35 -30 51 -85 51h-50l9 56h40c66 2 101 27 101 64c0 26 -17 42 -57 42c-31 0 -61 -8 -89 -20l-18 55c32 14 74 26 122 26c77 0 118 -39 118 -91c0 -53 -38 -87 -83 -101v-2c38 -7 68 -34 68 -79c0 -74 -60 -124 -167 -124c-41 0 -83 8 -112 22z" />
    <glyph glyph-name="zerosuperior" unicode="&#x2070;" horiz-adv-x="374" 
d="M212 397c-82 0 -123 61 -123 149c0 140 68 248 172 248c83 0 123 -61 123 -149c0 -140 -68 -248 -172 -248zM215 457c57 0 95 101 95 188c0 52 -11 89 -52 89c-56 0 -94 -101 -94 -188c0 -52 11 -89 51 -89z" />
    <glyph glyph-name="foursuperior" unicode="&#x2074;" horiz-adv-x="374" 
d="M231 404l17 86h-162l-11 50l238 253h72l-53 -247h54l-11 -56h-55l-18 -86h-71zM261 546l8 38c8 32 15 66 27 110l-139 -149z" />
    <glyph glyph-name="fivesuperior" unicode="&#x2075;" horiz-adv-x="342" 
d="M54 418l23 57c26 -11 55 -18 88 -18c52 0 94 21 94 69c0 21 -9 38 -31 48c-13 5 -30 8 -54 8h-64l42 204h225l-17 -62h-149l-19 -88h10c30 0 50 -3 66 -9c41 -17 66 -50 66 -95c0 -86 -68 -135 -171 -135c-38 0 -77 7 -109 21z" />
    <glyph glyph-name="sixsuperior" unicode="&#x2076;" horiz-adv-x="357" 
d="M215 397c-74 0 -131 46 -131 143c0 141 90 254 216 254c30 0 59 -6 80 -16l-21 -57c-18 8 -36 13 -60 13c-67 0 -114 -56 -132 -114h2c17 14 43 26 77 26c63 0 111 -42 111 -110c0 -82 -59 -139 -142 -139zM216 456c40 0 68 29 68 71c0 33 -19 59 -56 59
c-40 0 -69 -25 -69 -67c0 -33 18 -63 57 -63z" />
    <glyph glyph-name="sevensuperior" unicode="&#x2077;" horiz-adv-x="306" 
d="M88 404c38 145 112 249 176 320h-166l-9 62h268v-38c-85 -95 -153 -204 -189 -344h-80z" />
    <glyph glyph-name="eightsuperior" unicode="&#x2078;" horiz-adv-x="374" 
d="M218 397c-79 0 -133 36 -133 101c0 54 37 89 84 106v1c-27 18 -46 43 -46 80c0 68 60 109 138 109c80 0 127 -39 127 -98c0 -47 -29 -78 -75 -95v-1c37 -15 59 -45 59 -86c0 -76 -69 -117 -154 -117zM222 457c34 0 76 16 76 59c0 32 -31 48 -69 59
c-39 -11 -69 -34 -69 -66c0 -37 29 -52 62 -52zM248 627c35 10 65 29 65 64c0 29 -23 44 -54 44c-32 0 -61 -17 -61 -51c0 -28 22 -48 50 -57z" />
    <glyph glyph-name="ninesuperior" unicode="&#x2079;" horiz-adv-x="359" 
d="M70 412l21 58c15 -8 38 -13 61 -13c67 0 111 37 130 106l-2 1c-21 -15 -51 -23 -78 -23c-62 0 -112 38 -112 112c0 88 61 141 139 141c84 0 137 -55 137 -149c0 -151 -80 -248 -212 -248c-31 0 -63 6 -84 15zM219 600c29 0 50 12 69 26c2 9 2 19 2 28c0 55 -29 81 -62 81
c-37 0 -65 -29 -65 -75c0 -38 20 -60 56 -60z" />
    <glyph glyph-name="zeroinferior" unicode="&#x2080;" horiz-adv-x="374" 
d="M103 -187c-82 0 -123 61 -123 149c0 140 68 248 172 248c83 0 123 -61 123 -149c0 -140 -68 -248 -172 -248zM106 -127c57 0 95 101 95 188c0 52 -11 89 -52 89c-56 0 -94 -101 -94 -188c0 -52 11 -89 51 -89z" />
    <glyph glyph-name="oneinferior" unicode="&#x2081;" horiz-adv-x="307" 
d="M46 -180l65 308c-35 -18 -79 -31 -117 -39v63c45 10 110 38 144 57h63l-83 -389h-72z" />
    <glyph glyph-name="twoinferior" unicode="&#x2082;" horiz-adv-x="335" 
d="M-50 -180c28 201 229 202 229 287c0 24 -18 41 -54 41c-34 0 -70 -13 -101 -29l-19 57c40 20 85 34 131 34c77 0 118 -41 118 -96c0 -121 -176 -139 -204 -231h176l-10 -63h-266z" />
    <glyph glyph-name="threeinferior" unicode="&#x2083;" horiz-adv-x="343" 
d="M-49 -165l24 56c28 -12 58 -18 89 -18c55 0 90 22 90 63c0 35 -30 51 -85 51h-50l9 56h40c66 2 101 27 101 64c0 26 -17 42 -57 42c-31 0 -61 -8 -89 -20l-18 55c32 14 74 26 122 26c77 0 118 -39 118 -91c0 -53 -38 -87 -83 -101v-2c38 -7 68 -34 68 -79
c0 -74 -60 -124 -167 -124c-41 0 -83 8 -112 22z" />
    <glyph glyph-name="fourinferior" unicode="&#x2084;" horiz-adv-x="374" 
d="M122 -180l17 86h-162l-11 50l238 253h72l-53 -247h54l-11 -56h-55l-18 -86h-71zM152 -38l8 38c8 32 15 66 27 110l-139 -149z" />
    <glyph glyph-name="fiveinferior" unicode="&#x2085;" horiz-adv-x="342" 
d="M-54 -166l23 57c26 -11 55 -18 88 -18c52 0 94 21 94 69c0 21 -9 38 -31 48c-13 5 -30 8 -54 8h-64l42 204h225l-17 -62h-149l-19 -88h10c30 0 50 -3 66 -9c41 -17 66 -50 66 -95c0 -86 -68 -135 -171 -135c-38 0 -77 7 -109 21z" />
    <glyph glyph-name="sixinferior" unicode="&#x2086;" horiz-adv-x="357" 
d="M104 -187c-74 0 -131 46 -131 143c0 141 90 254 216 254c30 0 59 -6 80 -16l-21 -57c-18 8 -36 13 -60 13c-67 0 -114 -56 -132 -114h2c17 14 43 26 77 26c63 0 111 -42 111 -110c0 -82 -59 -139 -142 -139zM105 -128c40 0 68 29 68 71c0 33 -19 59 -56 59
c-40 0 -69 -25 -69 -67c0 -33 18 -63 57 -63z" />
    <glyph glyph-name="seveninferior" unicode="&#x2087;" horiz-adv-x="306" 
d="M-20 -180c38 145 112 249 176 320h-166l-9 62h268v-38c-85 -95 -153 -204 -189 -344h-80z" />
    <glyph glyph-name="eightinferior" unicode="&#x2088;" horiz-adv-x="374" 
d="M109 -187c-79 0 -133 36 -133 101c0 54 37 89 84 106v1c-27 18 -46 43 -46 80c0 68 60 109 138 109c80 0 127 -39 127 -98c0 -47 -29 -78 -75 -95v-1c37 -15 59 -45 59 -86c0 -76 -69 -117 -154 -117zM113 -127c34 0 76 16 76 59c0 32 -31 48 -69 59
c-39 -11 -69 -34 -69 -66c0 -37 29 -52 62 -52zM139 43c35 10 65 29 65 64c0 29 -23 44 -54 44c-32 0 -61 -17 -61 -51c0 -28 22 -48 50 -57z" />
    <glyph glyph-name="nineinferior" unicode="&#x2089;" horiz-adv-x="359" 
d="M-39 -172l21 58c15 -8 38 -13 61 -13c67 0 111 37 130 106l-2 1c-21 -15 -51 -23 -78 -23c-62 0 -112 38 -112 112c0 88 61 141 139 141c84 0 137 -55 137 -149c0 -151 -80 -248 -212 -248c-31 0 -63 6 -84 15zM110 16c29 0 50 12 69 26c2 9 2 19 2 28
c0 55 -29 81 -62 81c-37 0 -65 -29 -65 -75c0 -38 20 -60 56 -60z" />
    <glyph glyph-name="Lacute" unicode="&#x139;" horiz-adv-x="433" 
d="M10 0l140 659h88l-124 -584h240l-17 -75h-327zM169 696l76 147h100l-109 -147h-67z" />
    <glyph glyph-name="Kcommaaccent" unicode="&#x136;" horiz-adv-x="547" 
d="M10 0l140 659h88l-64 -303h3l287 303h107l-328 -343l220 -316h-106l-196 288h-2l-61 -288h-88zM104 -237l-20 58c61 15 87 41 87 79c0 15 -5 31 -12 48h80c7 -14 12 -36 12 -55c0 -64 -46 -112 -147 -130z" />
    <glyph glyph-name="Jcircumflex" unicode="&#x134;" horiz-adv-x="289" 
d="M-143 -166l27 71c19 -9 41 -12 63 -12c39 0 64 13 82 45c10 20 19 46 25 78l137 643h88l-139 -652c-10 -49 -22 -86 -39 -115c-30 -48 -78 -75 -154 -75c-36 0 -67 7 -90 17zM98 696l119 147h74l82 -147h-71l-52 94l-77 -94h-75z" />
    <glyph glyph-name="IJ" unicode="&#x132;" horiz-adv-x="533" 
d="M10 0l140 659h88l-140 -659h-88zM101 -166l27 71c19 -9 41 -12 63 -12c39 0 64 13 82 45c10 20 19 46 25 78l137 643h88l-139 -652c-10 -49 -22 -86 -39 -115c-30 -48 -78 -75 -154 -75c-36 0 -67 7 -90 17z" />
    <glyph glyph-name="Iogonek" unicode="&#x12e;" horiz-adv-x="248" 
d="M12 9l138 650h88l-140 -659c-50 -35 -98 -83 -98 -125c0 -20 11 -32 34 -32c11 0 23 3 38 8l6 -53c-24 -7 -47 -11 -69 -11c-60 0 -84 32 -84 73c0 60 46 111 87 149z" />
    <glyph glyph-name="Idotaccent" unicode="&#x130;" horiz-adv-x="248" 
d="M10 0l140 659h88l-140 -659h-88zM209 714c-32 0 -51 21 -51 49c0 39 31 63 63 63s51 -20 51 -48c0 -39 -30 -64 -63 -64z" />
    <glyph glyph-name="Ibreve" unicode="&#x12c;" horiz-adv-x="248" 
d="M10 0l140 659h88l-140 -659h-88zM205 700c-77 0 -120 49 -114 128h62c-1 -42 16 -69 58 -69c43 0 68 29 81 69h64c-17 -81 -74 -128 -151 -128z" />
    <glyph glyph-name="Imacron" horiz-adv-x="248" 
d="M10 0l140 659h88l-140 -659h-88zM72 713l14 69h260l-15 -69h-259z" />
    <glyph glyph-name="Itilde" unicode="&#x128;" horiz-adv-x="248" 
d="M10 0l140 659h88l-140 -659h-88zM57 724c6 74 45 106 89 106c55 0 86 -47 121 -47c20 0 30 15 34 41h62c-6 -74 -45 -106 -88 -106c-55 0 -87 47 -122 47c-20 0 -29 -15 -33 -41h-63z" />
    <glyph glyph-name="Hbar" unicode="&#x126;" horiz-adv-x="666" 
d="M10 0l102 478h-71l15 69h70l24 112h88l-24 -112h330l24 112h88l-24 -112h73l-15 -69h-72l-102 -478h-88l63 297h-330l-63 -297h-88zM177 373h330l23 105h-330z" />
    <glyph glyph-name="Hcircumflex" unicode="&#x124;" horiz-adv-x="666" 
d="M10 0l140 659h88l-61 -286h330l61 286h88l-140 -659h-88l63 297h-330l-63 -297h-88zM273 696l119 147h74l82 -147h-71l-52 94l-77 -94h-75z" />
    <glyph glyph-name="Gcommaaccent" unicode="&#x122;" horiz-adv-x="662" 
d="M325 -10c-163 0 -280 97 -280 276c0 210 148 399 389 399c70 0 138 -16 190 -40l-18 -76c-42 23 -105 41 -166 41c-184 0 -302 -143 -302 -314c0 -146 85 -210 194 -210c48 0 95 8 126 24l49 224h87l-59 -276c-45 -26 -126 -48 -210 -48zM204 -237l-20 58
c61 15 87 41 87 79c0 15 -5 31 -12 48h80c7 -14 12 -36 12 -55c0 -64 -46 -112 -147 -130z" />
    <glyph glyph-name="Gdotaccent" unicode="&#x120;" horiz-adv-x="662" 
d="M325 -10c-163 0 -280 97 -280 276c0 210 148 399 389 399c70 0 138 -16 190 -40l-18 -76c-42 23 -105 41 -166 41c-184 0 -302 -143 -302 -314c0 -146 85 -210 194 -210c48 0 95 8 126 24l49 224h87l-59 -276c-45 -26 -126 -48 -210 -48zM417 714c-32 0 -51 21 -51 49
c0 39 31 63 63 63s51 -20 51 -48c0 -39 -30 -64 -63 -64z" />
    <glyph glyph-name="Gbreve" unicode="&#x11e;" horiz-adv-x="662" 
d="M325 -10c-163 0 -280 97 -280 276c0 210 148 399 389 399c70 0 138 -16 190 -40l-18 -76c-42 23 -105 41 -166 41c-184 0 -302 -143 -302 -314c0 -146 85 -210 194 -210c48 0 95 8 126 24l49 224h87l-59 -276c-45 -26 -126 -48 -210 -48zM415 700c-77 0 -120 49 -114 128
h62c-1 -42 16 -69 58 -69c43 0 68 29 81 69h64c-17 -81 -74 -128 -151 -128z" />
    <glyph glyph-name="Gcircumflex" unicode="&#x11c;" horiz-adv-x="662" 
d="M325 -10c-163 0 -280 97 -280 276c0 210 148 399 389 399c70 0 138 -16 190 -40l-18 -76c-42 23 -105 41 -166 41c-184 0 -302 -143 -302 -314c0 -146 85 -210 194 -210c48 0 95 8 126 24l49 224h87l-59 -276c-45 -26 -126 -48 -210 -48zM278 696l119 147h74l82 -147h-71
l-52 94l-77 -94h-75z" />
    <glyph glyph-name="Eogonek" unicode="&#x118;" horiz-adv-x="468" 
d="M10 0l140 659h319l-30 -75h-217l-44 -210h213l-16 -75h-214l-47 -224h243l-16 -75h-17c-67 -31 -136 -74 -136 -125c0 -20 12 -32 34 -32c11 0 24 3 39 8l6 -53c-24 -7 -47 -11 -69 -11c-60 0 -85 32 -85 71c0 67 57 112 110 142h-213z" />
    <glyph glyph-name="Edotaccent" unicode="&#x116;" horiz-adv-x="468" 
d="M10 0l140 659h319l-30 -75h-217l-44 -210h213l-16 -75h-214l-47 -224h243l-16 -75h-331zM316 714c-32 0 -51 21 -51 49c0 39 31 63 63 63s51 -20 51 -48c0 -39 -30 -64 -63 -64z" />
    <glyph glyph-name="Ebreve" unicode="&#x114;" horiz-adv-x="468" 
d="M10 0l140 659h319l-30 -75h-217l-44 -210h213l-16 -75h-214l-47 -224h243l-16 -75h-331zM314 700c-77 0 -120 49 -114 128h62c-1 -42 16 -69 58 -69c43 0 68 29 81 69h64c-17 -81 -74 -128 -151 -128z" />
    <glyph glyph-name="Emacron" unicode="&#x112;" horiz-adv-x="468" 
d="M10 0l140 659h319l-30 -75h-217l-44 -210h213l-16 -75h-214l-47 -224h243l-16 -75h-331zM185 713l14 69h260l-15 -69h-259z" />
    <glyph glyph-name="Ecaron" unicode="&#x11a;" horiz-adv-x="472" 
d="M10 0l140 659h319l-30 -75h-217l-44 -210h213l-16 -75h-214l-47 -224h243l-16 -75h-331zM274 697l-81 147h71l52 -95l77 95h75l-119 -147h-75z" />
    <glyph glyph-name="Dcroat" unicode="&#x110;" horiz-adv-x="638" 
d="M10 0l62 295h-78l16 73h78l62 291h116c73 0 135 -10 186 -33c88 -39 143 -114 143 -241c0 -153 -80 -290 -224 -350c-56 -23 -122 -35 -201 -35h-160zM114 75h65c62 0 115 10 158 30c107 48 165 154 165 286c0 80 -31 138 -98 169c-35 16 -79 24 -141 24h-41l-46 -216
h159l-16 -73h-159z" />
    <glyph glyph-name="Dcaron" unicode="&#x10e;" horiz-adv-x="638" 
d="M10 0l140 659h116c73 0 135 -10 186 -33c88 -39 143 -115 143 -238c0 -161 -80 -293 -224 -353c-56 -23 -122 -35 -201 -35h-160zM114 75h65c62 0 115 10 158 30c107 48 165 155 165 288c0 80 -31 136 -98 167c-35 16 -79 24 -141 24h-41zM306 697l-81 147h71l52 -95
l77 95h75l-119 -147h-75z" />
    <glyph glyph-name="Cdotaccent" unicode="&#x10a;" horiz-adv-x="591" 
d="M321 -10c-166 0 -276 101 -276 273c0 233 163 402 382 402c65 0 121 -15 164 -35l-18 -76c-40 20 -92 35 -145 35c-175 0 -290 -145 -290 -317c0 -121 67 -206 190 -206c57 0 108 13 163 41l17 -73c-54 -28 -125 -44 -187 -44zM401 714c-32 0 -51 21 -51 49
c0 39 31 63 63 63s51 -20 51 -48c0 -39 -30 -64 -63 -64z" />
    <glyph glyph-name="Ccaron" unicode="&#x10c;" horiz-adv-x="591" 
d="M321 -10c-166 0 -276 101 -276 273c0 233 163 402 382 402c65 0 121 -15 164 -35l-18 -76c-40 20 -92 35 -145 35c-175 0 -290 -145 -290 -317c0 -121 67 -206 190 -206c57 0 108 13 163 41l17 -73c-54 -28 -125 -44 -187 -44zM363 697l-81 147h71l52 -95l77 95h75
l-119 -147h-75z" />
    <glyph glyph-name="Ccircumflex" unicode="&#x108;" horiz-adv-x="591" 
d="M321 -10c-166 0 -276 101 -276 273c0 233 163 402 382 402c65 0 121 -15 164 -35l-18 -76c-40 20 -92 35 -145 35c-175 0 -290 -145 -290 -317c0 -121 67 -206 190 -206c57 0 108 13 163 41l17 -73c-54 -28 -125 -44 -187 -44zM262 696l119 147h74l82 -147h-71l-52 94
l-77 -94h-75z" />
    <glyph glyph-name="Cacute" unicode="&#x106;" horiz-adv-x="591" 
d="M321 -10c-166 0 -276 101 -276 273c0 233 163 402 382 402c65 0 121 -15 164 -35l-18 -76c-40 20 -92 35 -145 35c-175 0 -290 -145 -290 -317c0 -121 67 -206 190 -206c57 0 108 13 163 41l17 -73c-54 -28 -125 -44 -187 -44zM350 696l76 147h100l-109 -147h-67z" />
    <glyph glyph-name="AEacute" unicode="&#x1fc;" horiz-adv-x="780" 
d="M-66 0l470 659h340l-22 -75h-215l-29 -210h212l-11 -75h-211l-30 -224h242l-11 -75h-328l23 173h-207l-122 -173h-101zM210 246h164l42 296h-2c-25 -37 -63 -96 -84 -124zM482 696l76 147h100l-109 -147h-67z" />
    <glyph glyph-name="Aogonek" unicode="&#x104;" horiz-adv-x="580" 
d="M-44 0l350 662h70l120 -662c-67 -24 -140 -74 -140 -125c0 -20 11 -32 34 -32c11 0 23 3 38 8l6 -53c-20 -7 -47 -11 -69 -11c-60 0 -84 32 -84 71c0 74 67 123 122 150l-29 165h-232l-88 -173h-98zM182 246h180l-30 195c-4 27 -8 54 -13 87h-2c-14 -32 -25 -59 -41 -92z
" />
    <glyph glyph-name="Aringacute" unicode="&#x1fa;" horiz-adv-x="580" 
d="M-44 0l346 656c-35 10 -58 38 -58 77c0 63 47 103 107 107l57 113h100l-93 -124c27 -13 44 -38 44 -72c0 -54 -36 -91 -82 -102l119 -655h-92l-30 173h-232l-88 -173h-98zM182 246h180l-30 195c-4 27 -8 54 -13 87h-2c-14 -32 -25 -59 -41 -92zM345 694c32 0 53 27 53 61
c0 25 -15 42 -40 42c-32 0 -53 -27 -53 -61c0 -26 16 -42 40 -42z" />
    <glyph glyph-name="Abreve" unicode="&#x102;" horiz-adv-x="580" 
d="M-44 0l350 661h70l120 -661h-92l-30 173h-232l-88 -173h-98zM182 246h180l-30 195c-4 27 -8 54 -13 87h-2c-14 -32 -25 -59 -41 -92zM347 700c-77 0 -120 49 -114 128h62c-1 -42 16 -69 58 -69c43 0 68 29 81 69h64c-17 -81 -74 -128 -151 -128z" />
    <glyph glyph-name="Amacron" unicode="&#x100;" horiz-adv-x="580" 
d="M-44 0l350 661h70l120 -661h-92l-30 173h-232l-88 -173h-98zM182 246h180l-30 195c-4 27 -8 54 -13 87h-2c-14 -32 -25 -59 -41 -92zM214 713l14 69h260l-15 -69h-259z" />
    <glyph glyph-name="wcircumflex" unicode="&#x175;" horiz-adv-x="674" 
d="M111 -3l-72 476h82l32 -227c7 -48 11 -81 15 -129h2c14 34 29 68 50 112l118 244h62l28 -222c7 -56 10 -91 14 -134h2c10 26 31 73 49 114l110 242h91l-236 -476h-68l-28 229c-6 48 -10 80 -14 119h-2c-14 -34 -32 -72 -57 -122l-112 -226h-66zM239 531l119 147h74
l82 -147h-71l-52 94l-77 -94h-75z" />
    <glyph glyph-name="wacute" unicode="&#x1e83;" horiz-adv-x="674" 
d="M111 -3l-72 476h82l32 -227c7 -48 11 -81 15 -129h2c14 34 29 68 50 112l118 244h62l28 -222c7 -56 10 -91 14 -134h2c10 26 31 73 49 114l110 242h91l-236 -476h-68l-28 229c-6 48 -10 80 -14 119h-2c-14 -34 -32 -72 -57 -122l-112 -226h-66zM332 531l76 147h100
l-109 -147h-67z" />
    <glyph glyph-name="wgrave" unicode="&#x1e81;" horiz-adv-x="674" 
d="M111 -3l-72 476h82l32 -227c7 -48 11 -81 15 -129h2c14 34 29 68 50 112l118 244h62l28 -222c7 -56 10 -91 14 -134h2c10 26 31 73 49 114l110 242h91l-236 -476h-68l-28 229c-6 48 -10 80 -14 119h-2c-14 -34 -32 -72 -57 -122l-112 -226h-66zM357 531l-81 147h100
l49 -147h-68z" />
    <glyph glyph-name="uogonek" unicode="&#x173;" horiz-adv-x="502" 
d="M271 -213c-60 0 -85 32 -85 71c0 76 78 129 134 158c-4 20 -8 44 -7 70h-2c-39 -55 -103 -96 -167 -96c-63 0 -115 35 -115 119c0 20 3 48 12 93l57 271h87l-59 -279c-6 -27 -9 -52 -9 -66c0 -44 23 -62 54 -62c77 0 140 76 160 168l51 239h86l-60 -281
c-9 -49 -15 -88 -15 -121c0 -22 3 -46 7 -65c-69 -31 -139 -80 -139 -131c0 -20 12 -32 34 -32c11 0 24 3 39 8l6 -53c-21 -7 -47 -11 -69 -11z" />
    <glyph glyph-name="uhungarumlaut" unicode="&#x171;" horiz-adv-x="502" 
d="M144 -10c-63 0 -115 35 -115 119c0 20 3 48 12 93l57 271h87l-59 -279c-6 -27 -9 -52 -9 -66c0 -44 23 -62 54 -62c77 0 140 76 160 168l51 239h86l-60 -281c-9 -49 -15 -88 -15 -120c0 -23 3 -43 7 -62l-74 -16c-6 19 -14 56 -12 92h-2c-39 -55 -104 -96 -168 -96z
M173 531l76 147h100l-108 -147h-68zM339 531l77 147h100l-109 -147h-68z" />
    <glyph glyph-name="uring" unicode="&#x16f;" horiz-adv-x="502" 
d="M144 -10c-63 0 -115 35 -115 119c0 20 3 48 12 93l57 271h87l-59 -279c-6 -27 -9 -52 -9 -66c0 -44 23 -62 54 -62c77 0 140 76 160 168l51 239h86l-60 -281c-9 -49 -15 -88 -15 -120c0 -23 3 -43 7 -62l-74 -16c-6 19 -14 56 -12 92h-2c-39 -55 -104 -96 -168 -96z
M291 523c-58 0 -97 32 -97 84c0 66 52 107 117 107c58 0 98 -32 98 -83c0 -67 -53 -108 -118 -108zM295 567c32 0 53 27 53 61c0 26 -16 42 -41 42c-31 0 -53 -27 -53 -61c0 -26 16 -42 41 -42z" />
    <glyph glyph-name="ubreve" unicode="&#x16d;" horiz-adv-x="502" 
d="M144 -10c-63 0 -115 35 -115 119c0 20 3 48 12 93l57 271h87l-59 -279c-6 -27 -9 -52 -9 -66c0 -44 23 -62 54 -62c77 0 140 76 160 168l51 239h86l-60 -281c-9 -49 -15 -88 -15 -120c0 -23 3 -43 7 -62l-74 -16c-6 19 -14 56 -12 92h-2c-39 -55 -104 -96 -168 -96z
M294 543c-77 0 -120 49 -113 127h62c-1 -41 15 -68 57 -68c43 0 69 29 81 68h65c-17 -80 -75 -127 -152 -127z" />
    <glyph glyph-name="umacron" unicode="&#x16b;" horiz-adv-x="502" 
d="M144 -10c-63 0 -115 35 -115 119c0 20 3 48 12 93l57 271h87l-59 -279c-6 -27 -9 -52 -9 -66c0 -44 23 -62 54 -62c77 0 140 76 160 168l51 239h86l-60 -281c-9 -49 -15 -88 -15 -120c0 -23 3 -43 7 -62l-74 -16c-6 19 -14 56 -12 92h-2c-39 -55 -104 -96 -168 -96z
M170 572l14 69h260l-15 -69h-259z" />
    <glyph glyph-name="utilde" unicode="&#x169;" horiz-adv-x="502" 
d="M144 -10c-63 0 -115 35 -115 119c0 20 3 48 12 93l57 271h87l-59 -279c-6 -27 -9 -52 -9 -66c0 -44 23 -62 54 -62c77 0 140 76 160 168l51 239h86l-60 -281c-9 -49 -15 -88 -15 -120c0 -23 3 -43 7 -62l-74 -16c-6 19 -14 56 -12 92h-2c-39 -55 -104 -96 -168 -96z
M154 552c6 74 45 106 89 106c55 0 86 -47 121 -47c20 0 30 15 34 41h62c-6 -74 -45 -106 -88 -106c-55 0 -87 47 -122 47c-20 0 -29 -16 -33 -41h-63z" />
    <glyph glyph-name="tbar" unicode="&#x167;" horiz-adv-x="341" 
d="M157 -10c-77 0 -109 39 -109 95c0 15 2 35 6 53l18 88h-75l15 69h75l23 107h-78l15 71h79l23 109l92 21l-29 -130h129l-28 -71h-116l-23 -107h95l-16 -69h-93l-19 -89c-4 -15 -5 -24 -5 -34c0 -26 13 -40 42 -40c30 0 60 14 80 25l22 -64c-38 -22 -83 -34 -123 -34z" />
    <glyph glyph-name="tcommaaccent" unicode="&#x163;" horiz-adv-x="341" 
d="M157 -10c-77 0 -109 39 -109 95c0 16 2 35 7 58l55 259h-78l15 71h79l23 107l92 26l-29 -133h129l-28 -71h-116l-57 -268c-3 -12 -4 -21 -4 -31c0 -26 13 -40 42 -40c30 0 60 14 80 25l22 -64c-38 -22 -83 -34 -123 -34zM14 -237l-20 58c61 15 87 41 87 79
c0 15 -5 31 -12 48h80c7 -14 12 -36 12 -55c0 -64 -46 -112 -147 -130z" />
    <glyph glyph-name="wdieresis" unicode="&#x1e85;" horiz-adv-x="674" 
d="M111 -3l-72 476h82l32 -227c7 -48 11 -81 15 -129h2c14 34 29 68 50 112l118 244h62l28 -222c7 -56 10 -91 14 -134h2c10 26 31 73 49 114l110 242h91l-236 -476h-68l-28 229c-6 48 -10 80 -14 119h-2c-14 -34 -32 -72 -57 -122l-112 -226h-66zM293 555
c-26 0 -42 17 -42 42c0 33 23 57 52 57c26 0 42 -17 42 -42c0 -33 -23 -57 -52 -57zM473 555c-26 0 -42 17 -42 42c0 33 23 57 52 57c26 0 43 -17 43 -42c0 -33 -24 -57 -53 -57z" />
    <glyph glyph-name="ygrave" unicode="&#x1ef3;" horiz-adv-x="452" 
d="M-125 -219l31 68c19 -9 37 -13 58 -13c59 0 114 33 178 163l-107 474h87l50 -241c11 -51 18 -89 27 -135h2c17 40 32 73 56 123l123 253h91l-249 -489c-84 -166 -154 -221 -265 -221c-31 0 -63 7 -82 18zM231 531l-81 147h100l49 -147h-68z" />
    <glyph glyph-name="ycircumflex" unicode="&#x177;" horiz-adv-x="452" 
d="M-125 -219l31 68c19 -9 37 -13 58 -13c59 0 114 33 178 163l-107 474h87l50 -241c11 -51 18 -89 27 -135h2c17 40 32 73 56 123l123 253h91l-249 -489c-84 -166 -154 -221 -265 -221c-31 0 -63 7 -82 18zM123 531l119 147h74l82 -147h-71l-52 94l-77 -94h-75z" />
    <glyph glyph-name="zacute" unicode="&#x17a;" horiz-adv-x="387" 
d="M-35 0l272 402h-187l-9 71h339l-274 -403h214l-14 -70h-341zM172 531l76 147h100l-109 -147h-67z" />
    <glyph glyph-name="zdotaccent" unicode="&#x17c;" horiz-adv-x="387" 
d="M-35 0l272 402h-187l-9 71h339l-274 -403h214l-14 -70h-341zM231 571c-32 0 -52 21 -52 49c0 39 31 63 63 63s52 -21 52 -49c0 -38 -31 -63 -63 -63z" />
    <glyph glyph-name="eng" unicode="&#x14b;" horiz-adv-x="501" 
d="M0 0l101 473h70l-12 -94h2c40 59 107 106 177 106c63 0 109 -35 109 -116c0 -19 -2 -45 -12 -92l-71 -334c-24 -108 -93 -138 -163 -138c-27 0 -56 5 -77 14l26 72c15 -6 30 -9 47 -9c52 0 74 31 88 98l63 294c7 35 10 62 10 73c0 43 -22 60 -53 60
c-36 0 -85 -23 -123 -75c-23 -31 -39 -69 -53 -131l-43 -201h-86z" />
    <glyph glyph-name="tcaron" unicode="&#x165;" horiz-adv-x="341" 
d="M157 -10c-77 0 -109 39 -109 95c0 16 2 35 7 58l55 259h-78l15 71h79l23 107l92 26l-29 -133h129l-28 -71h-116l-57 -268c-3 -12 -4 -21 -4 -31c0 -26 13 -40 42 -40c30 0 60 14 80 25l22 -64c-38 -22 -83 -34 -123 -34zM274 513l61 195h88l-82 -195h-67z" />
    <glyph glyph-name="scommaaccent" unicode="&#x219;" horiz-adv-x="360" 
d="M-26 28l29 66c30 -18 70 -32 111 -32c47 0 91 21 91 66c0 83 -154 90 -154 220c0 75 53 137 161 137c34 0 78 -5 119 -21l-14 -71c-26 10 -66 21 -101 21c-42 0 -77 -18 -77 -62c0 -84 154 -90 154 -222c0 -89 -76 -140 -175 -140c-57 0 -105 14 -144 38zM4 -237l-20 58
c61 15 87 41 87 79c0 15 -5 31 -12 48h80c7 -14 12 -36 12 -55c0 -64 -46 -112 -147 -130z" />
    <glyph glyph-name="scedilla" unicode="&#x15f;" horiz-adv-x="360" 
d="M-17 -198l21 45c13 -7 32 -10 47 -10c33 0 59 13 59 41c0 27 -33 34 -77 32l39 84c-38 5 -71 17 -98 34l29 66c30 -18 70 -32 111 -32c47 0 91 21 91 66c0 81 -154 90 -154 220c0 75 53 137 161 137c34 0 78 -5 119 -21l-14 -71c-26 10 -66 21 -101 21
c-42 0 -77 -18 -77 -62c0 -82 154 -90 154 -222c0 -84 -67 -133 -156 -139l-20 -44c44 -3 70 -27 70 -65c0 -63 -57 -94 -130 -94c-27 0 -51 4 -74 14z" />
    <glyph glyph-name="scircumflex" unicode="&#x15d;" horiz-adv-x="360" 
d="M-26 28l29 66c30 -18 70 -32 111 -32c47 0 91 21 91 66c0 83 -154 90 -154 220c0 75 53 137 161 137c34 0 78 -5 119 -21l-14 -71c-26 10 -66 21 -101 21c-42 0 -77 -18 -77 -62c0 -84 154 -90 154 -222c0 -89 -76 -140 -175 -140c-57 0 -105 14 -144 38zM85 531l119 147
h74l82 -147h-71l-52 94l-77 -94h-75z" />
    <glyph glyph-name="sacute" unicode="&#x15b;" horiz-adv-x="360" 
d="M-26 28l29 66c30 -18 70 -32 111 -32c47 0 91 21 91 66c0 83 -154 90 -154 220c0 75 53 137 161 137c34 0 78 -5 119 -21l-14 -71c-26 10 -66 21 -101 21c-42 0 -77 -18 -77 -62c0 -84 154 -90 154 -222c0 -89 -76 -140 -175 -140c-57 0 -105 14 -144 38zM180 531l76 147
h100l-109 -147h-67z" />
    <glyph glyph-name="oslashacute" unicode="&#x1ff;" horiz-adv-x="509" 
d="M254 531l76 147h100l-109 -147h-67zM56 -23l-40 35l40 47c-23 31 -35 72 -35 117c0 182 117 309 257 309c45 0 82 -11 111 -32l37 45l40 -35l-39 -47c23 -31 35 -73 35 -117c0 -182 -116 -309 -256 -309c-47 0 -84 12 -113 32zM209 62c99 0 166 113 166 232
c0 19 -3 38 -8 52l-222 -263c15 -14 36 -21 64 -21zM109 181c0 -19 2 -36 6 -52l223 264c-16 13 -37 20 -63 20c-99 0 -166 -113 -166 -232z" />
    <glyph glyph-name="racute" unicode="&#x155;" horiz-adv-x="328" 
d="M0 0l101 473h70l-12 -94h2c31 65 79 106 134 106c23 0 41 -6 58 -17l-37 -76c-12 7 -27 11 -41 11c-55 0 -116 -62 -148 -210l-40 -193h-87zM188 531l76 147h100l-109 -147h-67z" />
    <glyph glyph-name="rcaron" unicode="&#x159;" horiz-adv-x="328" 
d="M0 0l101 473h70l-12 -94h2c31 65 79 106 134 106c23 0 41 -6 58 -17l-37 -76c-12 7 -27 11 -41 11c-55 0 -116 -62 -148 -210l-40 -193h-87zM188 532l-81 147h71l52 -95l77 95h75l-119 -147h-75z" />
    <glyph glyph-name="rcommaaccent" unicode="&#x157;" horiz-adv-x="328" 
d="M0 0l101 473h70l-12 -94h2c31 65 79 106 134 106c23 0 41 -6 58 -17l-37 -76c-12 7 -27 11 -41 11c-55 0 -116 -62 -148 -210l-40 -193h-87zM-54 -237l-20 58c61 15 87 41 87 79c0 15 -5 31 -12 48h80c7 -14 12 -36 12 -55c0 -64 -46 -112 -147 -130z" />
    <glyph glyph-name="ohungarumlaut" unicode="&#x151;" horiz-adv-x="509" 
d="M205 -10c-124 0 -185 82 -185 186c0 182 117 309 257 309c123 0 184 -82 184 -186c0 -182 -116 -309 -256 -309zM208 63c99 0 164 112 164 231c0 73 -30 118 -98 118c-99 0 -165 -112 -165 -231c0 -73 31 -118 99 -118zM179 531l76 147h100l-108 -147h-68zM345 531
l77 147h100l-109 -147h-68z" />
    <glyph glyph-name="obreve" unicode="&#x14f;" horiz-adv-x="509" 
d="M205 -10c-124 0 -185 82 -185 186c0 182 117 309 257 309c123 0 184 -82 184 -186c0 -182 -116 -309 -256 -309zM208 63c99 0 164 112 164 231c0 73 -30 118 -98 118c-99 0 -165 -112 -165 -231c0 -73 31 -118 99 -118zM296 543c-77 0 -120 49 -113 127h62
c-1 -41 15 -68 57 -68c43 0 69 29 81 68h65c-17 -80 -75 -127 -152 -127z" />
    <glyph glyph-name="omacron" unicode="&#x14d;" horiz-adv-x="509" 
d="M205 -10c-124 0 -185 82 -185 186c0 182 117 309 257 309c123 0 184 -82 184 -186c0 -182 -116 -309 -256 -309zM208 63c99 0 164 112 164 231c0 73 -30 118 -98 118c-99 0 -165 -112 -165 -231c0 -73 31 -118 99 -118zM171 572l14 69h260l-15 -69h-259z" />
    <glyph glyph-name="Lcaron" unicode="&#x13d;" horiz-adv-x="433" 
d="M10 0l140 659h88l-124 -584h240l-17 -75h-327zM303 513l61 195h88l-82 -195h-67z" />
    <glyph glyph-name="Obreve" unicode="&#x14e;" horiz-adv-x="718" 
d="M312 -10c-161 0 -267 97 -267 276c0 208 140 399 361 399c160 0 267 -96 267 -275c0 -208 -140 -400 -361 -400zM318 66c165 0 261 167 261 323c0 126 -61 200 -178 200c-166 0 -263 -166 -263 -322c0 -125 61 -201 180 -201zM422 700c-77 0 -120 49 -114 128h62
c-1 -42 16 -69 58 -69c43 0 68 29 81 69h64c-17 -81 -74 -128 -151 -128z" />
    <glyph glyph-name="Lcommaaccent" unicode="&#x13b;" horiz-adv-x="433" 
d="M10 0l140 659h88l-124 -584h240l-17 -75h-327zM57 -237l-20 58c61 15 87 41 87 79c0 15 -5 31 -12 48h80c7 -14 12 -36 12 -55c0 -64 -46 -112 -147 -130z" />
    <glyph glyph-name="Ohungarumlaut" unicode="&#x150;" horiz-adv-x="718" 
d="M312 -10c-161 0 -267 97 -267 276c0 208 140 399 361 399c160 0 267 -96 267 -275c0 -208 -140 -400 -361 -400zM318 66c165 0 261 167 261 323c0 126 -61 200 -178 200c-166 0 -263 -166 -263 -322c0 -125 61 -201 180 -201zM304 696l76 147h100l-108 -147h-68zM470 696
l77 147h100l-109 -147h-68z" />
    <glyph glyph-name="Oslashacute" unicode="&#x1fe;" horiz-adv-x="718" 
d="M314 -10c-66 0 -122 17 -165 51l-58 -66l-54 46l59 67c-33 45 -51 106 -51 181c0 206 137 396 358 396c65 0 121 -16 164 -49l58 65l54 -45l-59 -67c34 -46 53 -107 53 -182c0 -206 -137 -397 -359 -397zM321 66c157 0 258 151 258 323c0 42 -7 78 -22 107l-353 -392
c28 -24 67 -38 117 -38zM138 267c0 -41 7 -77 21 -106l353 391c-28 24 -66 37 -114 37c-158 0 -260 -150 -260 -322zM379 696l76 147h100l-109 -147h-67z" />
    <glyph glyph-name="Racute" unicode="&#x154;" horiz-adv-x="536" 
d="M10 0l140 659h130c149 0 208 -80 208 -166c0 -114 -72 -176 -178 -198v-2c11 -18 25 -46 44 -87l93 -206h-96l-71 167c-21 46 -38 83 -53 108h-71l-58 -275h-88zM172 348h56c103 0 170 47 170 137c0 56 -33 101 -124 101h-52zM259 696l76 147h100l-109 -147h-67z" />
    <glyph glyph-name="Rcaron" unicode="&#x158;" horiz-adv-x="536" 
d="M10 0l140 659h130c149 0 208 -80 208 -166c0 -114 -72 -176 -178 -198v-2c11 -18 25 -46 44 -87l93 -206h-96l-71 167c-21 46 -38 83 -53 108h-71l-58 -275h-88zM172 348h56c103 0 170 47 170 137c0 56 -33 101 -124 101h-52zM270 697l-81 147h71l52 -95l77 95h75
l-119 -147h-75z" />
    <glyph glyph-name="Rcommaaccent" unicode="&#x156;" horiz-adv-x="536" 
d="M10 0l140 659h130c149 0 208 -80 208 -166c0 -114 -72 -176 -178 -198v-2c11 -18 25 -46 44 -87l93 -206h-96l-71 167c-21 46 -38 83 -53 108h-71l-58 -275h-88zM172 348h56c103 0 170 47 170 137c0 56 -33 101 -124 101h-52zM104 -237l-20 58c61 15 87 41 87 79
c0 15 -5 31 -12 48h80c7 -14 12 -36 12 -55c0 -64 -46 -112 -147 -130z" />
    <glyph glyph-name="Sacute" unicode="&#x15a;" horiz-adv-x="471" 
d="M-4 34l36 70c31 -20 76 -38 131 -38c65 0 135 27 135 111c0 140 -212 138 -212 307c0 105 81 181 208 181c60 0 111 -14 149 -33l-16 -76c-38 21 -85 34 -132 34c-65 0 -117 -34 -117 -94c0 -123 212 -128 212 -309c0 -135 -105 -197 -227 -197c-73 0 -129 21 -167 44z
M257 696l76 147h100l-109 -147h-67z" />
    <glyph glyph-name="Scircumflex" unicode="&#x15c;" horiz-adv-x="471" 
d="M-4 34l36 70c31 -20 76 -38 131 -38c65 0 135 27 135 111c0 140 -212 138 -212 307c0 105 81 181 208 181c60 0 111 -14 149 -33l-16 -76c-38 21 -85 34 -132 34c-65 0 -117 -34 -117 -94c0 -123 212 -128 212 -309c0 -135 -105 -197 -227 -197c-73 0 -129 21 -167 44z
M160 696l119 147h74l82 -147h-71l-52 94l-77 -94h-75z" />
    <glyph glyph-name="Scedilla" unicode="&#x15e;" horiz-adv-x="471" 
d="M38 -198l20 45c13 -7 32 -10 47 -10c34 0 60 13 60 41c0 27 -33 34 -78 32l39 82c-55 6 -99 23 -130 42l36 70c31 -20 76 -38 131 -38c65 0 135 27 135 111c0 140 -212 138 -212 307c0 105 81 181 208 181c60 0 111 -14 149 -33l-16 -76c-38 21 -85 34 -132 34
c-65 0 -117 -34 -117 -94c0 -123 212 -128 212 -309c0 -125 -89 -187 -198 -195l-21 -45c44 -3 71 -27 71 -65c0 -63 -58 -94 -131 -94c-26 0 -51 4 -73 14z" />
    <glyph glyph-name="Scommaaccent" unicode="&#x218;" horiz-adv-x="471" 
d="M-4 34l36 70c31 -20 76 -38 131 -38c65 0 135 27 135 111c0 140 -212 138 -212 307c0 105 81 181 208 181c60 0 111 -14 149 -33l-16 -76c-38 21 -85 34 -132 34c-65 0 -117 -34 -117 -94c0 -123 212 -128 212 -309c0 -135 -105 -197 -227 -197c-73 0 -129 21 -167 44z
M54 -237l-20 58c61 15 87 41 87 79c0 15 -5 31 -12 48h80c7 -14 12 -36 12 -55c0 -64 -46 -112 -147 -130z" />
    <glyph glyph-name="Tcaron" unicode="&#x164;" horiz-adv-x="492" 
d="M131 0l124 584h-194l16 75h479l-32 -75h-181l-124 -584h-88zM289 697l-81 147h71l52 -95l77 95h75l-119 -147h-75z" />
    <glyph glyph-name="Ldot" unicode="&#x13f;" horiz-adv-x="433" 
d="M10 0l140 659h88l-124 -584h240l-17 -75h-327zM332 285c-29 0 -48 23 -48 50c0 35 25 61 58 61c29 0 48 -24 48 -51c0 -34 -25 -60 -58 -60z" />
    <glyph glyph-name="Nacute" unicode="&#x143;" horiz-adv-x="703" 
d="M10 0l140 659h83l217 -425c15 -29 31 -63 44 -93h2c6 35 14 73 19 101l88 417h89l-141 -659h-73l-224 439c-15 30 -32 62 -44 92h-2c-5 -36 -12 -70 -17 -95l-93 -436h-88zM382 696l76 147h100l-109 -147h-67z" />
    <glyph glyph-name="Tcommaaccent" unicode="&#x162;" horiz-adv-x="492" 
d="M131 0l124 584h-194l16 75h479l-32 -75h-181l-124 -584h-88zM70 -237l-20 58c61 15 87 41 87 79c0 15 -5 31 -12 48h80c7 -14 12 -36 12 -55c0 -64 -46 -112 -147 -130z" />
    <glyph glyph-name="Tbar" unicode="&#x166;" horiz-adv-x="492" 
d="M131 0l59 284h-116l16 73h116l49 227h-194l16 75h479l-32 -75h-181l-49 -227h119l-16 -73h-119l-59 -284h-88z" />
    <glyph glyph-name="Utilde" unicode="&#x168;" horiz-adv-x="651" 
d="M276 -10c-140 0 -219 74 -219 192c0 27 5 56 12 91l82 386h88l-83 -388c-6 -28 -10 -55 -10 -78c0 -86 52 -128 134 -128c60 0 101 18 129 47c30 31 46 74 56 120l91 427h88l-92 -436c-16 -74 -42 -129 -81 -166c-50 -47 -113 -67 -195 -67zM262 724c6 74 45 106 89 106
c55 0 86 -47 121 -47c20 0 30 15 34 41h62c-6 -74 -45 -106 -88 -106c-55 0 -87 47 -122 47c-20 0 -29 -15 -33 -41h-63z" />
    <glyph glyph-name="Umacron" unicode="&#x16a;" horiz-adv-x="651" 
d="M276 -10c-140 0 -219 74 -219 192c0 27 5 56 12 91l82 386h88l-83 -388c-6 -28 -10 -55 -10 -78c0 -86 52 -128 134 -128c60 0 101 18 129 47c30 31 46 74 56 120l91 427h88l-92 -436c-16 -74 -42 -129 -81 -166c-50 -47 -113 -67 -195 -67zM277 713l14 69h260l-15 -69
h-259z" />
    <glyph glyph-name="Ubreve" unicode="&#x16c;" horiz-adv-x="651" 
d="M276 -10c-140 0 -219 74 -219 192c0 27 5 56 12 91l82 386h88l-83 -388c-6 -28 -10 -55 -10 -78c0 -86 52 -128 134 -128c60 0 101 18 129 47c30 31 46 74 56 120l91 427h88l-92 -436c-16 -74 -42 -129 -81 -166c-50 -47 -113 -67 -195 -67zM404 700
c-77 0 -120 49 -114 128h62c-1 -42 16 -69 58 -69c43 0 68 29 81 69h64c-17 -81 -74 -128 -151 -128z" />
    <glyph glyph-name="Uring" unicode="&#x16e;" horiz-adv-x="651" 
d="M276 -10c-140 0 -219 74 -219 192c0 27 5 56 12 91l82 386h88l-83 -388c-6 -28 -10 -55 -10 -78c0 -86 52 -128 134 -128c60 0 101 18 129 47c30 31 46 74 56 120l91 427h88l-92 -436c-16 -74 -42 -129 -81 -166c-50 -47 -113 -67 -195 -67zM397 653c-58 0 -98 32 -98 84
c0 66 52 107 118 107c57 0 97 -32 97 -83c0 -67 -52 -108 -117 -108zM400 697c32 0 53 27 53 61c0 26 -15 42 -40 42c-32 0 -53 -27 -53 -61c0 -25 16 -42 40 -42z" />
    <glyph glyph-name="Uhungarumlaut" unicode="&#x170;" horiz-adv-x="651" 
d="M276 -10c-140 0 -219 74 -219 192c0 27 5 56 12 91l82 386h88l-83 -388c-6 -28 -10 -55 -10 -78c0 -86 52 -128 134 -128c60 0 101 18 129 47c30 31 46 74 56 120l91 427h88l-92 -436c-16 -74 -42 -129 -81 -166c-50 -47 -113 -67 -195 -67zM282 696l76 147h100
l-108 -147h-68zM448 696l77 147h100l-109 -147h-68z" />
    <glyph glyph-name="Uogonek" unicode="&#x172;" horiz-adv-x="651" 
d="M239 -213c-60 0 -85 32 -85 71c0 61 45 102 94 132v2c-116 7 -191 75 -191 190c0 27 5 56 12 91l82 386h88l-83 -388c-6 -28 -10 -54 -10 -78c0 -86 51 -128 134 -128c114 0 164 66 185 167l91 427h88l-92 -436c-27 -127 -84 -190 -170 -218c-73 -24 -153 -78 -153 -130
c0 -20 12 -32 34 -32c11 0 24 3 39 8l6 -53c-24 -7 -47 -11 -69 -11z" />
    <glyph glyph-name="Wgrave" unicode="&#x1e80;" horiz-adv-x="836" 
d="M163 -4l-91 663h96l44 -378c6 -51 10 -92 15 -151h2c19 50 37 90 61 138l137 280l-15 111h88l46 -379c7 -52 11 -94 16 -150h2c17 51 35 93 57 140l180 389h97l-324 -663h-72l-39 290c-8 52 -13 90 -17 135h-2c-20 -48 -38 -86 -64 -138l-144 -287h-73zM451 696l-81 147
h100l49 -147h-68z" />
    <glyph glyph-name="Wacute" unicode="&#x1e82;" horiz-adv-x="836" 
d="M163 -4l-91 663h96l44 -378c6 -51 10 -92 15 -151h2c19 50 37 90 61 138l137 280l-15 111h88l46 -379c7 -52 11 -94 16 -150h2c17 51 35 93 57 140l180 389h97l-324 -663h-72l-39 290c-8 52 -13 90 -17 135h-2c-20 -48 -38 -86 -64 -138l-144 -287h-73zM442 696l76 147
h100l-109 -147h-67z" />
    <glyph glyph-name="Wcircumflex" unicode="&#x174;" horiz-adv-x="836" 
d="M163 -4l-91 663h96l44 -378c6 -51 10 -92 15 -151h2c19 50 37 90 61 138l137 280l-15 111h88l46 -379c7 -52 11 -94 16 -150h2c17 51 35 93 57 140l180 389h97l-324 -663h-72l-39 290c-8 52 -13 90 -17 135h-2c-20 -48 -38 -86 -64 -138l-144 -287h-73zM354 696l119 147
h74l82 -147h-71l-52 94l-77 -94h-75z" />
    <glyph glyph-name="Wdieresis" unicode="&#x1e84;" horiz-adv-x="836" 
d="M163 -4l-91 663h96l44 -378c6 -51 10 -92 15 -151h2c19 50 37 90 61 138l137 280l-15 111h88l46 -379c7 -52 11 -94 16 -150h2c17 51 35 93 57 140l180 389h97l-324 -663h-72l-39 290c-8 52 -13 90 -17 135h-2c-20 -48 -38 -86 -64 -138l-144 -287h-73zM400 704
c-26 0 -43 17 -43 42c0 33 24 56 53 56c26 0 42 -16 42 -41c0 -33 -23 -57 -52 -57zM580 704c-26 0 -42 17 -42 42c0 33 23 56 52 56c26 0 42 -16 42 -41c0 -33 -23 -57 -52 -57z" />
    <glyph glyph-name="Ncaron" unicode="&#x147;" horiz-adv-x="703" 
d="M10 0l140 659h83l217 -425c15 -29 31 -63 44 -93h2c6 35 14 73 19 101l88 417h89l-141 -659h-73l-224 439c-15 30 -32 62 -44 92h-2c-5 -36 -12 -70 -17 -95l-93 -436h-88zM393 697l-81 147h71l52 -95l77 95h75l-119 -147h-75z" />
    <glyph glyph-name="Ygrave" unicode="&#x1ef2;" horiz-adv-x="514" 
d="M163 0l54 255l-145 404h92l107 -318h2l205 318h99l-272 -407l-54 -252h-88zM294 696l-81 147h100l49 -147h-68z" />
    <glyph glyph-name="Ycircumflex" unicode="&#x176;" horiz-adv-x="514" 
d="M163 0l54 255l-145 404h92l107 -318h2l205 318h99l-272 -407l-54 -252h-88zM185 696l119 147h74l82 -147h-71l-52 94l-77 -94h-75z" />
    <glyph glyph-name="Ncommaaccent" unicode="&#x145;" horiz-adv-x="703" 
d="M10 0l140 659h83l217 -425c15 -29 31 -63 44 -93h2c6 35 14 73 19 101l88 417h89l-141 -659h-73l-224 439c-15 30 -32 62 -44 92h-2c-5 -36 -12 -70 -17 -95l-93 -436h-88zM186 -237l-20 58c61 15 87 41 87 79c0 15 -5 31 -12 48h80c7 -14 12 -36 12 -55
c0 -64 -46 -112 -147 -130z" />
    <glyph glyph-name="Zacute" unicode="&#x179;" horiz-adv-x="526" 
d="M-28 0l416 584h-283l-8 75h441l-413 -584h319l-17 -75h-455zM268 696l76 147h100l-109 -147h-67z" />
    <glyph glyph-name="Zdotaccent" unicode="&#x17b;" horiz-adv-x="526" 
d="M-28 0l416 584h-283l-8 75h441l-413 -584h319l-17 -75h-455zM311 714c-32 0 -51 21 -51 49c0 39 31 63 63 63s51 -20 51 -48c0 -39 -30 -64 -63 -64z" />
    <glyph glyph-name="Eng" unicode="&#x14a;" horiz-adv-x="701" 
d="M10 0l140 659h83l217 -424c15 -30 31 -64 44 -94h2c6 36 14 73 19 101l88 417h89l-154 -719c-22 -99 -85 -138 -168 -138c-32 0 -60 7 -80 15l25 72c15 -8 33 -11 52 -11c51 0 74 25 92 104l8 39l-213 417c-15 29 -32 62 -44 91h-2c-5 -36 -12 -70 -18 -94l-92 -435h-88z
" />
    <glyph glyph-name="amacron" unicode="&#x101;" horiz-adv-x="469" 
d="M127 -10c-77 0 -126 52 -126 125c0 55 21 97 56 126c45 37 113 52 191 52l66 1c4 15 6 33 6 49c0 45 -24 72 -87 72c-46 0 -96 -15 -140 -36l-12 67c51 24 111 39 166 39c78 0 160 -30 160 -137c0 -36 -9 -77 -17 -114l-10 -42c-11 -50 -17 -89 -17 -122
c0 -22 3 -42 8 -60l-75 -16c-6 19 -13 52 -14 81c-37 -48 -93 -85 -155 -85zM150 62c60 0 130 55 146 134l7 33h-37c-70 0 -118 -9 -147 -32c-21 -17 -32 -41 -32 -70c0 -43 22 -65 63 -65zM139 572l14 69h260l-15 -69h-259z" />
    <glyph glyph-name="abreve" unicode="&#x103;" horiz-adv-x="469" 
d="M127 -10c-77 0 -126 52 -126 125c0 55 21 97 56 126c45 37 113 52 191 52l66 1c4 15 6 33 6 49c0 45 -24 72 -87 72c-46 0 -96 -15 -140 -36l-12 67c51 24 111 39 166 39c78 0 160 -30 160 -137c0 -36 -9 -77 -17 -114l-10 -42c-11 -50 -17 -89 -17 -122
c0 -22 3 -42 8 -60l-75 -16c-6 19 -13 52 -14 81c-37 -48 -93 -85 -155 -85zM150 62c60 0 130 55 146 134l7 33h-37c-70 0 -118 -9 -147 -32c-21 -17 -32 -41 -32 -70c0 -43 22 -65 63 -65zM265 543c-77 0 -120 49 -113 127h62c-1 -41 15 -68 57 -68c43 0 69 29 81 68h65
c-17 -80 -75 -127 -152 -127z" />
    <glyph glyph-name="aringacute" unicode="&#x1fb;" horiz-adv-x="469" 
d="M268 516c-58 0 -97 33 -97 84c0 61 45 102 103 107l70 136h100l-108 -144c31 -13 50 -40 50 -75c0 -66 -53 -108 -118 -108zM272 560c32 0 53 27 53 61c0 26 -16 43 -41 43c-31 0 -53 -27 -53 -61c0 -26 16 -43 41 -43zM127 -10c-77 0 -126 52 -126 125
c0 55 21 97 56 126c45 37 113 52 191 52l66 1c4 15 6 33 6 49c0 45 -24 72 -87 72c-46 0 -96 -15 -140 -36l-12 67c51 24 111 39 166 39c78 0 160 -30 160 -137c0 -36 -9 -77 -17 -114l-10 -42c-11 -50 -17 -89 -17 -122c0 -22 3 -42 8 -60l-75 -16c-6 19 -13 52 -14 81
c-37 -48 -93 -85 -155 -85zM150 62c60 0 130 55 146 134l7 33h-37c-70 0 -118 -9 -147 -32c-21 -17 -32 -41 -32 -70c0 -43 22 -65 63 -65z" />
    <glyph glyph-name="aogonek" unicode="&#x105;" horiz-adv-x="469" 
d="M127 -10c-77 0 -126 52 -126 125c0 55 21 97 56 126c45 37 113 52 191 52l66 1c4 15 6 32 6 49c0 45 -24 72 -87 72c-46 0 -96 -15 -140 -36l-12 67c51 24 111 39 166 39c78 0 160 -30 160 -137c0 -36 -9 -77 -17 -114l-10 -42c-11 -51 -17 -91 -17 -125
c0 -22 3 -44 8 -62c-65 -29 -137 -79 -137 -130c0 -20 12 -32 34 -32c11 0 24 3 38 8l7 -53c-21 -7 -48 -11 -69 -11c-60 0 -85 32 -85 71c0 76 77 127 132 155c-4 18 -8 42 -9 62c-37 -48 -93 -85 -155 -85zM150 62c60 0 130 55 146 134l7 33h-37c-70 0 -118 -9 -147 -32
c-21 -17 -32 -41 -32 -70c0 -43 22 -65 63 -65z" />
    <glyph glyph-name="aeacute" unicode="&#x1fd;" horiz-adv-x="749" 
d="M134 -10c-80 0 -133 52 -133 129c0 112 97 165 248 166l63 1c5 21 7 38 7 55c0 49 -24 74 -87 74c-47 0 -95 -15 -139 -36l-12 67c51 24 111 39 162 39c62 0 121 -21 140 -80h2c39 50 97 80 163 80c106 0 158 -65 158 -155c0 -36 -9 -80 -20 -105l-298 -4
c-1 -9 -2 -18 -2 -27c0 -84 49 -132 119 -132c47 0 90 16 128 36l25 -64c-46 -28 -106 -44 -159 -44c-85 0 -147 42 -169 116h-2c-45 -76 -119 -116 -194 -116zM150 62c61 0 130 48 148 138l4 20h-49c-103 -2 -166 -30 -166 -93c0 -41 22 -65 63 -65zM399 287l214 2
c5 13 8 31 8 44c0 40 -19 82 -83 82c-66 0 -123 -59 -139 -128zM369 531l76 147h100l-109 -147h-67z" />
    <glyph glyph-name="cacute" unicode="&#x107;" horiz-adv-x="438" 
d="M221 -10c-124 0 -200 79 -200 199c0 165 113 296 274 296c45 0 88 -10 119 -24l-16 -73c-31 15 -64 24 -102 24c-101 0 -186 -90 -186 -214c0 -81 40 -135 121 -135c48 0 89 17 120 35l23 -63c-37 -26 -100 -45 -153 -45zM238 531l76 147h100l-109 -147h-67z" />
    <glyph glyph-name="ccircumflex" unicode="&#x109;" horiz-adv-x="438" 
d="M221 -10c-124 0 -200 79 -200 199c0 165 113 296 274 296c45 0 88 -10 119 -24l-16 -73c-31 15 -64 24 -102 24c-101 0 -186 -90 -186 -214c0 -81 40 -135 121 -135c48 0 89 17 120 35l23 -63c-37 -26 -100 -45 -153 -45zM144 531l119 147h74l82 -147h-71l-52 94l-77 -94
h-75z" />
    <glyph glyph-name="Omacron" unicode="&#x14c;" horiz-adv-x="718" 
d="M312 -10c-161 0 -267 97 -267 276c0 208 140 399 361 399c160 0 267 -96 267 -275c0 -208 -140 -400 -361 -400zM318 66c165 0 261 167 261 323c0 126 -61 200 -178 200c-166 0 -263 -166 -263 -322c0 -125 61 -201 180 -201zM292 713l14 69h260l-15 -69h-259z" />
    <glyph glyph-name="ccaron" unicode="&#x10d;" horiz-adv-x="438" 
d="M221 -10c-124 0 -200 79 -200 199c0 165 113 296 274 296c45 0 88 -10 119 -24l-16 -73c-31 15 -64 24 -102 24c-101 0 -186 -90 -186 -214c0 -81 40 -135 121 -135c48 0 89 17 120 35l23 -63c-37 -26 -100 -45 -153 -45zM245 532l-81 147h71l52 -95l77 95h75l-119 -147
h-75z" />
    <glyph glyph-name="cdotaccent" unicode="&#x10b;" horiz-adv-x="438" 
d="M221 -10c-124 0 -200 79 -200 199c0 165 113 296 274 296c45 0 88 -10 119 -24l-16 -73c-31 15 -64 24 -102 24c-101 0 -186 -90 -186 -214c0 -81 40 -135 121 -135c48 0 89 17 120 35l23 -63c-37 -26 -100 -45 -153 -45zM292 571c-32 0 -52 21 -52 49c0 39 31 63 63 63
s52 -21 52 -49c0 -38 -31 -63 -63 -63z" />
    <glyph glyph-name="dcaron" unicode="&#x10f;" horiz-adv-x="500" 
d="M231 -10c-123 0 -210 77 -210 208c0 178 126 287 273 287c36 0 73 -6 98 -15l51 238h87l-147 -686c-39 -17 -102 -32 -152 -32zM238 64c24 0 51 5 71 14l67 319c-20 7 -49 14 -76 14c-104 0 -190 -81 -190 -208c0 -82 44 -139 128 -139zM545 513l61 195h88l-82 -195h-67z
" />
    <glyph glyph-name="dcroat" unicode="&#x111;" horiz-adv-x="500" 
d="M231 -10c-123 0 -210 77 -210 208c0 178 126 287 273 287c36 0 73 -6 98 -15l19 90h-137l15 69h137l17 79h87l-17 -79h60l-15 -69h-60l-115 -538c-39 -17 -102 -32 -152 -32zM238 64c24 0 51 5 71 14l67 319c-20 7 -49 14 -76 14c-104 0 -190 -81 -190 -208
c0 -82 44 -139 128 -139z" />
    <glyph glyph-name="ecaron" unicode="&#x11b;" horiz-adv-x="469" 
d="M218 -10c-117 0 -197 75 -197 202c0 166 105 293 248 293c106 0 159 -65 159 -155c0 -34 -9 -76 -21 -110l-298 -4c-1 -8 -1 -17 -1 -24c0 -83 48 -130 118 -130c48 0 90 16 129 36l24 -64c-46 -28 -108 -44 -161 -44zM120 281l214 3c5 17 8 35 8 49c0 40 -19 82 -81 82
c-68 0 -125 -61 -141 -134zM242 532l-81 147h71l52 -95l77 95h75l-119 -147h-75z" />
    <glyph glyph-name="emacron" unicode="&#x113;" horiz-adv-x="469" 
d="M218 -10c-117 0 -197 75 -197 202c0 166 105 293 248 293c106 0 159 -65 159 -155c0 -34 -9 -76 -21 -110l-298 -4c-1 -8 -1 -17 -1 -24c0 -83 48 -130 118 -130c48 0 90 16 129 36l24 -64c-46 -28 -108 -44 -161 -44zM120 281l214 3c5 17 8 35 8 49c0 40 -19 82 -81 82
c-68 0 -125 -61 -141 -134zM157 572l14 69h260l-15 -69h-259z" />
    <glyph glyph-name="ebreve" unicode="&#x115;" horiz-adv-x="469" 
d="M218 -10c-117 0 -197 75 -197 202c0 166 105 293 248 293c106 0 159 -65 159 -155c0 -34 -9 -76 -21 -110l-298 -4c-1 -8 -1 -17 -1 -24c0 -83 48 -130 118 -130c48 0 90 16 129 36l24 -64c-46 -28 -108 -44 -161 -44zM120 281l214 3c5 17 8 35 8 49c0 40 -19 82 -81 82
c-68 0 -125 -61 -141 -134zM278 543c-77 0 -120 49 -113 127h62c-1 -41 15 -68 57 -68c43 0 69 29 81 68h65c-17 -80 -75 -127 -152 -127z" />
    <glyph glyph-name="edotaccent" unicode="&#x117;" horiz-adv-x="469" 
d="M218 -10c-117 0 -197 75 -197 202c0 166 105 293 248 293c106 0 159 -65 159 -155c0 -34 -9 -76 -21 -110l-298 -4c-1 -8 -1 -17 -1 -24c0 -83 48 -130 118 -130c48 0 90 16 129 36l24 -64c-46 -28 -108 -44 -161 -44zM120 281l214 3c5 17 8 35 8 49c0 40 -19 82 -81 82
c-68 0 -125 -61 -141 -134zM287 571c-32 0 -52 21 -52 49c0 39 31 63 63 63s52 -21 52 -49c0 -38 -31 -63 -63 -63z" />
    <glyph glyph-name="eogonek" unicode="&#x119;" horiz-adv-x="469" 
d="M226 -213c-60 0 -84 32 -84 71c0 55 36 96 86 132v2c-126 -6 -207 72 -207 199c0 167 105 294 248 294c106 0 159 -65 159 -155c0 -34 -9 -76 -21 -110l-298 -4c-1 -6 -1 -18 -1 -25c0 -82 48 -129 118 -129c47 0 90 16 129 36l24 -63c-70 -36 -162 -106 -162 -160
c0 -20 11 -32 34 -32c11 0 23 3 38 8l6 -53c-20 -7 -47 -11 -69 -11zM120 281l214 3c5 17 8 35 8 49c0 40 -19 82 -81 82c-68 0 -125 -61 -141 -134z" />
    <glyph glyph-name="gcircumflex" unicode="&#x11d;" horiz-adv-x="491" 
d="M-21 -201l31 73c40 -23 78 -33 118 -33c94 0 137 51 160 156l17 75h-2c-47 -59 -103 -79 -148 -79c-77 0 -134 51 -134 161c0 169 96 333 298 333c60 0 119 -14 154 -27l-101 -473c-27 -130 -83 -222 -247 -222c-45 0 -99 11 -146 36zM181 64c46 0 130 40 164 203l29 135
c-12 4 -37 9 -67 9c-124 0 -197 -120 -197 -244c0 -56 19 -103 71 -103zM175 531l119 147h74l82 -147h-71l-52 94l-77 -94h-75z" />
    <glyph glyph-name="gbreve" unicode="&#x11f;" horiz-adv-x="491" 
d="M-21 -201l31 73c40 -23 78 -33 118 -33c94 0 137 51 160 156l17 75h-2c-47 -59 -103 -79 -148 -79c-77 0 -134 51 -134 161c0 169 96 333 298 333c60 0 119 -14 154 -27l-101 -473c-27 -130 -83 -222 -247 -222c-45 0 -99 11 -146 36zM181 64c46 0 130 40 164 203l29 135
c-12 4 -37 9 -67 9c-124 0 -197 -120 -197 -244c0 -56 19 -103 71 -103zM316 543c-77 0 -120 49 -113 127h62c-1 -41 15 -68 57 -68c43 0 69 29 81 68h65c-17 -80 -75 -127 -152 -127z" />
    <glyph glyph-name="gdotaccent" unicode="&#x121;" horiz-adv-x="491" 
d="M-21 -201l31 73c40 -23 78 -33 118 -33c94 0 137 51 160 156l17 75h-2c-47 -59 -103 -79 -148 -79c-77 0 -134 51 -134 161c0 169 96 333 298 333c60 0 119 -14 154 -27l-101 -473c-27 -130 -83 -222 -247 -222c-45 0 -99 11 -146 36zM181 64c46 0 130 40 164 203l29 135
c-12 4 -37 9 -67 9c-124 0 -197 -120 -197 -244c0 -56 19 -103 71 -103zM317 571c-32 0 -52 21 -52 49c0 39 31 63 63 63s52 -21 52 -49c0 -38 -31 -63 -63 -63z" />
    <glyph glyph-name="gcommaaccent" unicode="&#x123;" horiz-adv-x="491" 
d="M264 531c-8 14 -13 32 -13 49c0 70 44 118 151 136l18 -57c-63 -16 -88 -42 -88 -80c0 -15 4 -31 11 -48h-79zM-21 -201l31 73c40 -23 78 -33 118 -33c94 0 137 51 160 156l17 75h-2c-47 -59 -103 -79 -148 -79c-77 0 -134 52 -134 167c0 163 96 327 298 327
c60 0 119 -14 154 -27l-101 -473c-27 -130 -83 -222 -247 -222c-45 0 -99 11 -146 36zM181 64c46 0 130 40 164 203l29 135c-12 4 -37 9 -67 9c-124 0 -197 -119 -197 -237c0 -62 19 -110 71 -110z" />
    <glyph glyph-name="hcircumflex" unicode="&#x125;" horiz-adv-x="501" 
d="M0 0l151 708h87l-52 -239c-6 -33 -15 -64 -24 -90h2c38 60 104 106 174 106c63 0 109 -35 109 -116c0 -19 -2 -45 -12 -92l-59 -277h-87l59 274c7 35 10 62 10 73c0 43 -22 60 -53 60c-36 0 -85 -24 -124 -77c-23 -32 -39 -69 -52 -129l-43 -201h-86zM58 726l119 147h74
l82 -147h-71l-52 94l-77 -94h-75z" />
    <glyph glyph-name="hbar" unicode="&#x127;" horiz-adv-x="501" 
d="M0 0l118 555h-62l16 69h61l18 84h87l-18 -84h120l-16 -69h-120l-18 -86c-6 -33 -15 -64 -24 -90h2c38 60 104 106 174 106c63 0 109 -35 109 -116c0 -19 -2 -45 -12 -92l-59 -277h-87l59 274c7 35 10 62 10 73c0 43 -22 60 -53 60c-35 0 -83 -23 -121 -73
c-24 -32 -41 -70 -55 -135l-43 -199h-86z" />
    <glyph glyph-name="itilde" unicode="&#x129;" horiz-adv-x="223" 
d="M10 552c6 74 45 106 89 106c55 0 86 -47 121 -47c20 0 30 15 34 41h62c-6 -74 -45 -106 -88 -106c-55 0 -87 47 -122 47c-20 0 -29 -16 -33 -41h-63zM1 0l101 473h86l-101 -473h-86z" />
    <glyph glyph-name="imacron" unicode="&#x12b;" horiz-adv-x="223" 
d="M31 572l14 69h260l-15 -69h-259zM1 0l101 473h86l-101 -473h-86z" />
    <glyph glyph-name="ibreve" horiz-adv-x="223" 
d="M158 543c-77 0 -120 49 -113 127h62c-1 -41 15 -68 57 -68c43 0 69 29 81 68h65c-17 -80 -75 -127 -152 -127zM1 0l101 473h86l-101 -473h-86z" />
    <glyph glyph-name="iogonek" unicode="&#x12f;" horiz-adv-x="223" 
d="M-1 -213c-60 0 -84 32 -84 73c0 60 46 111 87 149l99 464h87l-102 -473c-49 -36 -96 -83 -96 -125c0 -20 11 -32 34 -32c11 0 24 3 38 8l7 -53c-25 -7 -48 -11 -70 -11zM169 571c-32 0 -52 21 -52 49c0 39 31 63 63 63c33 0 52 -23 52 -50c0 -37 -30 -62 -63 -62z" />
    <glyph glyph-name="ij" unicode="&#x133;" horiz-adv-x="437" 
d="M0 0l101 473h87l-102 -473h-86zM169 571c-32 0 -52 21 -52 49c0 39 31 63 63 63s52 -21 52 -49c0 -38 -31 -63 -63 -63zM50 -223l26 72c14 -6 29 -9 47 -9c52 0 74 31 88 98l114 535h87l-123 -572c-23 -108 -92 -138 -163 -138c-26 0 -55 5 -76 14zM393 571
c-32 0 -51 21 -51 49c0 39 31 63 63 63s51 -21 51 -49c0 -38 -30 -63 -63 -63z" />
    <glyph glyph-name="jcircumflex" unicode="&#x135;" horiz-adv-x="237" 
d="M-160 -223l24 68c15 -7 30 -10 48 -10c51 0 74 33 88 100l115 538h87l-123 -572c-23 -108 -92 -138 -163 -138c-27 0 -55 5 -76 14zM24 531l119 147h75l81 -147h-71l-52 94l-77 -94h-75z" />
    <glyph glyph-name="kcommaaccent" unicode="&#x137;" horiz-adv-x="445" 
d="M0 0l151 708h87l-88 -411h2l198 176h108l-240 -211l166 -262h-100l-145 235h-2l-51 -235h-86zM73 -237l-20 58c61 15 87 41 87 79c0 15 -5 31 -12 48h80c7 -14 12 -36 12 -55c0 -64 -46 -112 -147 -130z" />
    <glyph glyph-name="lacute" unicode="&#x13a;" horiz-adv-x="264" 
d="M162 732l65 127h95l-93 -127h-67zM115 -6c-54 0 -91 28 -91 84c0 11 2 27 6 49l124 581h87l-124 -580c-3 -13 -4 -23 -4 -31c0 -18 10 -26 29 -26c10 0 23 2 38 7v-72c-21 -8 -46 -12 -65 -12z" />
    <glyph glyph-name="lcaron" unicode="&#x13e;" horiz-adv-x="264" 
d="M115 -6c-54 0 -91 28 -91 84c0 11 2 27 6 49l124 581h87l-124 -580c-3 -13 -4 -23 -4 -31c0 -18 10 -26 29 -26c10 0 23 2 38 7v-72c-21 -8 -46 -12 -65 -12zM255 513l61 195h88l-82 -195h-67z" />
    <glyph glyph-name="lcommaaccent" unicode="&#x13c;" horiz-adv-x="264" 
d="M115 -6c-54 0 -91 28 -91 84c0 11 2 27 6 49l124 581h87l-124 -580c-3 -13 -4 -23 -4 -31c0 -18 10 -26 29 -26c10 0 23 2 38 7v-72c-21 -8 -46 -12 -65 -12zM-28 -237l-20 58c61 15 87 41 87 79c0 15 -5 31 -12 48h80c7 -14 12 -36 12 -55c0 -64 -46 -112 -147 -130z
" />
    <glyph glyph-name="ldot" unicode="&#x140;" horiz-adv-x="297" 
d="M115 -6c-54 0 -91 28 -91 84c0 11 2 27 6 49l124 581h87l-124 -580c-3 -13 -4 -23 -4 -31c0 -18 10 -26 29 -26c10 0 23 2 38 7v-72c-21 -8 -46 -12 -65 -12zM259 285c-29 0 -48 23 -48 50c0 35 25 61 58 61c29 0 48 -24 48 -51c0 -34 -25 -60 -58 -60z" />
    <glyph glyph-name="nacute" unicode="&#x144;" horiz-adv-x="499" 
d="M0 0l101 473h70l-12 -94h2c40 59 107 106 177 106c63 0 109 -35 109 -116c0 -19 -2 -45 -12 -92l-59 -277h-87l59 274c7 35 10 62 10 73c0 43 -22 60 -53 60c-35 0 -83 -22 -121 -73c-24 -31 -41 -69 -55 -133l-43 -201h-86zM250 531l76 147h100l-109 -147h-67z" />
    <glyph glyph-name="ncaron" unicode="&#x148;" horiz-adv-x="499" 
d="M0 0l101 473h70l-12 -94h2c40 59 107 106 177 106c63 0 109 -35 109 -116c0 -19 -2 -45 -12 -92l-59 -277h-87l59 274c7 35 10 62 10 73c0 43 -22 60 -53 60c-35 0 -83 -22 -121 -73c-24 -31 -41 -69 -55 -133l-43 -201h-86zM250 532l-81 147h71l52 -95l77 95h75
l-119 -147h-75z" />
    <glyph glyph-name="ncommaaccent" unicode="&#x146;" horiz-adv-x="499" 
d="M0 0l101 473h70l-12 -94h2c40 59 107 106 177 106c63 0 109 -35 109 -116c0 -19 -2 -45 -12 -92l-59 -277h-87l59 274c7 35 10 62 10 73c0 43 -22 60 -53 60c-35 0 -83 -22 -121 -73c-24 -31 -41 -69 -55 -133l-43 -201h-86zM77 -237l-20 58c61 15 87 41 87 79
c0 15 -5 31 -12 48h80c7 -14 12 -36 12 -55c0 -64 -46 -112 -147 -130z" />
    <glyph glyph-name="zero.numr" horiz-adv-x="374" 
d="M187 263c-82 0 -123 61 -123 149c0 140 68 248 172 248c83 0 123 -61 123 -149c0 -140 -68 -248 -172 -248zM190 323c57 0 95 101 95 188c0 52 -11 89 -52 89c-56 0 -94 -101 -94 -188c0 -52 11 -89 51 -89z" />
    <glyph glyph-name="Adieresis.small" horiz-adv-x="513" 
d="M-44 0l301 534h66l115 -534h-88l-23 122h-214l-66 -122h-91zM152 191h162l-23 119c-6 33 -12 67 -17 104h-2c-12 -28 -33 -65 -51 -98zM205 583c-26 0 -42 17 -42 42c0 33 23 57 52 57c26 0 42 -17 42 -42c0 -33 -23 -57 -52 -57zM385 583c-26 0 -42 17 -42 42
c0 33 23 57 52 57c26 0 43 -17 43 -42c0 -33 -24 -57 -53 -57z" />
    <glyph glyph-name="Atilde.small" horiz-adv-x="513" 
d="M150 587c6 74 45 106 89 106c55 0 86 -47 121 -47c20 0 30 15 34 41h62c-6 -74 -45 -106 -88 -106c-55 0 -87 47 -122 47c-20 0 -29 -16 -33 -41h-63zM-44 0l301 534h66l115 -534h-88l-23 122h-214l-66 -122h-91zM152 191h162l-23 119c-6 33 -12 67 -17 104h-2
c-12 -28 -33 -65 -51 -98z" />
    <glyph glyph-name="Acircumflex.small" horiz-adv-x="513" 
d="M-44 0l301 534h66l115 -534h-88l-23 122h-214l-66 -122h-91zM152 191h162l-23 119c-6 33 -12 67 -17 104h-2c-12 -28 -33 -65 -51 -98zM156 566l119 147h74l82 -147h-71l-52 94l-77 -94h-75z" />
    <glyph glyph-name="Aacute.small" horiz-adv-x="513" 
d="M258 566l76 147h100l-109 -147h-67zM-44 0l301 534h66l115 -534h-88l-23 122h-214l-66 -122h-91zM152 191h162l-23 119c-6 33 -12 67 -17 104h-2c-12 -28 -33 -65 -51 -98z" />
    <glyph glyph-name="Agrave.small" horiz-adv-x="513" 
d="M259 566l-81 147h100l49 -147h-68zM-44 0l301 534h66l115 -534h-88l-23 122h-214l-66 -122h-91zM152 191h162l-23 119c-6 33 -12 67 -17 104h-2c-12 -28 -33 -65 -51 -98z" />
    <glyph glyph-name="Z.small" horiz-adv-x="465" 
d="M-20 0l333 458h-235l-11 72h394l-333 -458h264l-15 -72h-397z" />
    <glyph glyph-name="Y.small" horiz-adv-x="454" 
d="M125 0l45 211l-110 319h84l78 -246h2l170 246h92l-230 -323l-45 -207h-86z" />
    <glyph glyph-name="X.small" horiz-adv-x="525" 
d="M-40 0l248 276l-139 254h90l108 -200l177 200h99l-238 -266l146 -264h-90l-115 212l-187 -212h-99z" />
    <glyph glyph-name="W.small" horiz-adv-x="744" 
d="M150 -2l-94 532h85l46 -277c6 -37 13 -89 16 -129h2c18 39 43 90 59 120l95 183l-18 103h79l51 -277c7 -43 14 -93 18 -130h2c18 40 42 91 61 130l135 277h89l-272 -532h-64l-42 227c-6 34 -11 63 -15 92h-2c-13 -28 -30 -60 -46 -91l-120 -228h-65z" />
    <glyph glyph-name="V.small" horiz-adv-x="499" 
d="M164 -2l-108 532h85l52 -289c7 -36 14 -83 20 -125h2c15 34 40 82 63 121l167 293h89l-307 -532h-63z" />
    <glyph glyph-name="U.small" horiz-adv-x="583" 
d="M239 -11c-98 0 -194 44 -194 157c0 24 3 50 11 88l63 296h87l-68 -318c-5 -26 -7 -40 -7 -54c0 -64 44 -97 112 -97c55 0 98 20 124 60c14 20 25 46 35 93l67 316h87l-69 -323c-12 -54 -27 -99 -49 -129c-42 -60 -109 -89 -199 -89z" />
    <glyph glyph-name="T.small" horiz-adv-x="440" 
d="M114 0l97 458h-168l17 72h422l-29 -72h-155l-97 -458h-87z" />
    <glyph glyph-name="S.small" horiz-adv-x="435" 
d="M-3 30l29 67c41 -23 87 -36 131 -36c80 0 108 42 108 83c0 104 -197 94 -197 248c0 90 73 148 175 148c49 0 95 -8 143 -29l-17 -69c-38 19 -82 28 -121 28c-54 0 -91 -27 -91 -74c0 -100 197 -97 197 -246c0 -91 -64 -160 -197 -160c-55 0 -110 13 -160 40z" />
    <glyph glyph-name="R.small" horiz-adv-x="484" 
d="M14 0l113 530h123c107 0 181 -48 181 -139c0 -78 -56 -144 -147 -165v-2c17 -18 37 -52 59 -97l60 -127h-91l-53 114c-20 44 -41 78 -53 91h-62l-44 -205h-86zM159 274h52c78 0 133 41 133 109c0 45 -32 78 -97 78h-49z" />
    <glyph glyph-name="Q.small" horiz-adv-x="610" 
d="M391 -134c-98 0 -159 55 -215 114c-50 52 -138 90 -138 228c0 185 129 332 301 332c128 0 220 -85 220 -218c0 -176 -118 -317 -275 -328h-21v-1c39 -23 67 -57 136 -57c24 0 48 5 62 9l16 -66c-25 -8 -58 -13 -86 -13zM265 62c113 0 205 114 205 256
c0 87 -47 150 -138 150c-113 0 -205 -114 -205 -256c0 -87 47 -150 138 -150z" />
    <glyph glyph-name="P.small" horiz-adv-x="458" 
d="M14 0l113 530h115c124 0 182 -67 182 -153c0 -112 -80 -193 -237 -193h-48l-39 -184h-86zM154 254h46c86 0 138 44 138 124c0 44 -29 83 -97 83h-43z" />
    <glyph glyph-name="O.small" horiz-adv-x="610" 
d="M258 -10c-128 0 -220 85 -220 218c0 185 129 332 301 332c128 0 220 -85 220 -218c0 -185 -129 -332 -301 -332zM265 62c113 0 205 114 205 256c0 87 -47 150 -138 150c-113 0 -205 -114 -205 -256c0 -87 47 -150 138 -150z" />
    <glyph glyph-name="N.small" horiz-adv-x="615" 
d="M14 0l113 530h77l153 -289c20 -38 42 -82 54 -109h2c5 32 15 82 24 123l58 275h87l-113 -530h-72l-155 293c-21 37 -44 84 -55 113h-3c-5 -36 -17 -91 -24 -123l-60 -283h-86z" />
    <glyph glyph-name="M.small" horiz-adv-x="697" 
d="M14 0l113 530h79l73 -191c15 -41 33 -89 44 -124h2c22 30 56 74 89 115l163 200h87l-113 -530h-87l52 244c7 34 22 101 34 148h-2c-22 -30 -52 -69 -76 -99l-141 -177h-44l-61 159c-16 42 -33 87 -42 117h-2c-5 -30 -14 -73 -24 -122l-58 -270h-86z" />
    <glyph glyph-name="L.small" horiz-adv-x="383" 
d="M14 0l113 530h86l-97 -458h202l-17 -72h-287z" />
    <glyph glyph-name="K.small" horiz-adv-x="484" 
d="M14 0l113 530h86l-52 -246h2l234 246h98l-265 -278l186 -252h-97l-167 230h-3l-49 -230h-86z" />
    <glyph glyph-name="J.small" horiz-adv-x="266" 
d="M-118 -122l24 67c17 -7 32 -9 49 -9c53 0 73 36 84 88l108 506h86l-111 -523c-18 -86 -61 -144 -160 -144c-28 0 -57 5 -80 15z" />
    <glyph glyph-name="I.small" horiz-adv-x="246" 
d="M14 0l113 530h86l-113 -530h-86z" />
    <glyph glyph-name="H.small" horiz-adv-x="595" 
d="M14 0l113 530h86l-48 -225h262l49 225h86l-113 -530h-87l50 233h-262l-50 -233h-86z" />
    <glyph glyph-name="G.small" horiz-adv-x="562" 
d="M275 -10c-149 0 -237 92 -237 230c0 177 129 320 304 320c62 0 118 -14 161 -33l-19 -70c-36 19 -79 31 -133 31c-116 0 -224 -93 -224 -245c0 -100 54 -162 154 -162c29 0 60 7 82 16l37 175h87l-49 -228c-52 -22 -115 -34 -163 -34z" />
    <glyph glyph-name="F.small" horiz-adv-x="410" 
d="M14 0l113 530h287l-28 -72h-188l-35 -164h186l-15 -69h-186l-48 -225h-86z" />
    <glyph glyph-name="E.small" horiz-adv-x="441" 
d="M14 0l113 530h287l-27 -69h-189l-33 -158h186l-16 -70h-185l-34 -164h211l-15 -69h-298z" />
    <glyph glyph-name="D.small" horiz-adv-x="558" 
d="M14 0l113 530h122c153 0 258 -80 258 -223c0 -172 -122 -307 -337 -307h-156zM116 72h66c142 0 237 96 237 236c0 93 -65 150 -174 150h-48z" />
    <glyph glyph-name="C.small" horiz-adv-x="503" 
d="M267 -10c-139 0 -229 88 -229 225c0 179 124 325 302 325c55 0 101 -12 138 -30l-19 -69c-31 15 -69 27 -115 27c-113 0 -217 -93 -217 -248c0 -102 56 -158 148 -158c46 0 93 13 134 35l18 -68c-50 -26 -108 -39 -160 -39z" />
    <glyph glyph-name="B.small" horiz-adv-x="483" 
d="M14 0l113 530h143c90 0 155 -41 155 -123c0 -59 -37 -107 -95 -132v-2c47 -12 82 -49 82 -102c0 -90 -78 -171 -230 -171h-168zM115 66h74c82 0 135 42 135 101c0 46 -36 70 -89 70h-84zM164 300h66c60 0 108 40 108 99c0 37 -22 65 -80 65h-59z" />
    <glyph glyph-name="A.small" horiz-adv-x="513" 
d="M-44 0l301 534h66l115 -534h-88l-23 122h-214l-66 -122h-91zM152 191h162l-23 119c-6 33 -12 67 -17 104h-2c-12 -28 -33 -65 -51 -98z" />
    <glyph glyph-name="four.OT" horiz-adv-x="524" 
d="M219 -195l41 195h-260l-12 60l393 426h69l-87 -413h88l-15 -73h-89l-37 -174zM277 73l33 157c11 47 22 90 30 117h-2l-249 -275c29 0 64 1 96 1h92z" />
    <glyph glyph-name="three.OT" horiz-adv-x="524" 
d="M-17 -172l25 69c30 -12 71 -20 110 -20c130 0 200 72 200 147c0 62 -40 96 -146 96h-85l9 68c153 2 247 51 247 147c0 59 -41 87 -99 87c-54 0 -106 -20 -149 -41l-22 64c49 26 117 49 182 49c107 0 177 -58 177 -147c0 -95 -65 -154 -134 -179v-2
c62 -15 108 -58 108 -135c0 -131 -111 -226 -289 -226c-54 0 -103 11 -134 23z" />
    <glyph glyph-name="two.OT" horiz-adv-x="524" 
d="M23 0c37 247 312 253 312 359c0 35 -30 63 -86 63c-50 0 -105 -18 -141 -35l-18 66c38 19 107 41 173 41c100 0 161 -55 161 -128c0 -143 -231 -163 -282 -296h249l-15 -70h-353z" />
    <glyph glyph-name="one.OT" horiz-adv-x="524" 
d="M203 0l81 381c-40 -23 -124 -53 -177 -63v72c60 14 162 59 215 96h71l-104 -486h-86z" />
    <glyph glyph-name="zero.OT" horiz-adv-x="524" 
d="M210 -10c-115 0 -183 78 -183 196c0 186 117 308 254 308c114 0 183 -78 183 -196c0 -186 -117 -308 -254 -308zM218 62c89 0 157 106 157 230c0 77 -33 129 -102 129c-89 0 -157 -105 -157 -229c0 -77 33 -130 102 -130z" />
    <glyph glyph-name="yen.OP" horiz-adv-x="524" 
d="M154 0l18 86h-125l12 60h125l13 61h-127l12 61h96l-85 242h84l73 -222h2l152 222h92l-172 -242h96l-12 -61h-127l-13 -61h128l-12 -60h-129l-18 -86h-83z" />
    <glyph glyph-name="sterling.OP" horiz-adv-x="524" 
d="M45 0l7 56c64 24 83 111 92 172h-56l10 64h55l9 60c17 109 89 167 189 167c40 0 76 -8 101 -21l-27 -67c-19 10 -41 16 -69 16c-59 0 -97 -39 -107 -102l-8 -53h157l-21 -64h-146c-10 -65 -28 -126 -61 -161l1 -2c22 2 44 2 67 2h154l-9 -67h-338z" />
    <glyph glyph-name="dollar.OP" horiz-adv-x="524" 
d="M150 -64l17 78c-51 4 -93 19 -120 33l28 65c29 -15 75 -29 122 -29c67 0 111 24 111 72c0 91 -192 75 -192 211c0 69 49 126 152 136l15 71h67l-14 -72c35 -5 73 -14 99 -26l-14 -70c-35 17 -79 28 -124 28c-58 0 -95 -20 -95 -58c0 -86 193 -75 193 -214
c0 -83 -60 -136 -162 -146l-15 -79h-68z" />
    <glyph glyph-name="Euro.OP" horiz-adv-x="524" 
d="M38 159l8 57h54c0 26 3 52 8 77h-57l9 57h65c39 100 123 169 234 169c49 0 87 -12 121 -30l-17 -70c-31 17 -59 29 -102 29c-61 0 -115 -35 -146 -98h190l-19 -57h-193c-5 -24 -8 -49 -8 -77h191l-20 -57h-166c11 -62 49 -98 114 -98c38 0 72 10 111 34l18 -67
c-49 -29 -92 -38 -137 -38c-106 0 -175 62 -192 169h-66z" />
    <glyph glyph-name="nine.OP" horiz-adv-x="531" 
d="M19 -199l-9 72c153 19 283 104 338 234l-2 1c-47 -28 -93 -39 -135 -39c-106 0 -176 74 -176 188c0 143 96 237 223 237c137 0 206 -105 206 -232c0 -204 -127 -419 -445 -461zM235 141c37 0 84 11 131 44c6 20 9 49 9 79c0 74 -32 157 -118 157
c-81 0 -134 -64 -134 -155c0 -69 30 -125 112 -125z" />
    <glyph glyph-name="eight.OP" horiz-adv-x="552" 
d="M238 -10c-128 0 -214 64 -214 169c0 97 71 154 155 182v2c-44 26 -87 69 -87 141c0 102 89 181 222 181c123 0 200 -64 200 -157c0 -87 -73 -144 -145 -171v-2c67 -26 113 -74 113 -150c0 -125 -118 -195 -244 -195zM242 61c81 0 147 43 147 120c0 63 -57 98 -141 123
c-76 -24 -130 -73 -130 -139c0 -75 65 -104 124 -104zM288 370c74 22 134 61 134 131c0 62 -49 93 -113 93c-63 0 -124 -37 -124 -108c0 -51 39 -96 103 -116z" />
    <glyph glyph-name="seven.OP" horiz-adv-x="472" 
d="M31 -200c64 242 184 464 308 615h-295l-11 71h427v-33c-139 -161 -275 -409 -329 -633z" />
    <glyph glyph-name="six.OP" horiz-adv-x="531" 
d="M231 -10c-112 0 -196 79 -196 231c0 199 127 417 425 459l10 -73c-152 -20 -292 -118 -335 -265h2c32 36 90 69 156 69c98 0 171 -66 171 -180c0 -129 -89 -241 -233 -241zM237 62c74 0 139 61 139 159c0 66 -40 117 -105 117c-52 0 -105 -30 -130 -81
c-11 -20 -16 -44 -16 -70c0 -66 38 -125 112 -125z" />
    <glyph glyph-name="five.OP" horiz-adv-x="472" 
d="M-41 -173l26 69c26 -11 64 -19 107 -19c114 0 202 59 202 164c0 92 -77 108 -168 108h-71l68 337h338l-25 -71h-243l-40 -199h22c120 0 208 -50 208 -172c0 -128 -97 -239 -294 -239c-51 0 -99 9 -130 22z" />
    <glyph glyph-name="four.OP" horiz-adv-x="524" 
d="M214 -195l42 195h-261l-12 60l393 426h69l-87 -413h88l-15 -73h-89l-36 -174zM272 73l33 157c11 47 22 90 30 117h-2l-249 -275c30 0 65 1 96 1h92z" />
    <glyph glyph-name="three.OP" horiz-adv-x="494" 
d="M-33 -172l24 69c31 -12 71 -20 111 -20c129 0 199 72 199 147c0 62 -39 96 -146 96h-84l9 68c153 2 247 51 247 147c0 59 -41 87 -99 87c-54 0 -106 -20 -150 -41l-21 64c48 26 117 49 182 49c106 0 176 -58 176 -147c0 -95 -64 -154 -134 -179v-2
c62 -15 109 -58 109 -135c0 -131 -112 -226 -289 -226c-55 0 -104 11 -134 23z" />
    <glyph glyph-name="two.OP" horiz-adv-x="498" 
d="M12 0c36 247 312 253 312 359c0 35 -30 63 -87 63c-49 0 -104 -18 -141 -35l-17 66c37 19 106 41 173 41c100 0 161 -55 161 -128c0 -143 -232 -163 -282 -296h249l-15 -70h-353z" />
    <glyph glyph-name="one.OP" horiz-adv-x="382" 
d="M123 0l82 381c-41 -23 -102 -47 -153 -59v73c57 15 138 54 191 91h71l-104 -486h-87z" />
    <glyph glyph-name="zero.OP" horiz-adv-x="524" 
d="M211 -10c-115 0 -181 78 -181 196c0 186 114 308 250 308c115 0 181 -78 181 -196c0 -186 -114 -308 -250 -308zM218 62c89 0 154 106 154 230c0 75 -31 129 -99 129c-89 0 -155 -105 -155 -229c0 -75 32 -130 100 -130z" />
    <glyph glyph-name="yen.LT" horiz-adv-x="529" 
d="M152 0l25 120h-156l12 61h158l17 81h-161l13 61h131l-100 336h90l82 -309h2l189 309h96l-218 -336h132l-13 -61h-158l-17 -81h161l-13 -61h-161l-26 -120h-85z" />
    <glyph glyph-name="sterling.LT" horiz-adv-x="529" 
d="M27 0l9 60c90 34 113 172 124 240h-75l11 73h74l12 79c7 51 18 84 34 112c41 74 111 101 181 101c40 0 79 -9 112 -24l-30 -69c-22 11 -46 18 -77 18c-41 0 -86 -18 -112 -70c-9 -18 -16 -40 -21 -77l-10 -70h178l-24 -73h-164c-15 -95 -39 -191 -99 -231v-2
c33 4 63 6 108 6h173l-11 -73h-393z" />
    <glyph glyph-name="five.OT" horiz-adv-x="524" 
d="M-22 -173l25 69c26 -11 64 -19 107 -19c114 0 202 59 202 164c0 92 -77 108 -168 108h-71l68 337h339l-26 -71h-243l-40 -199h22c120 0 208 -50 208 -172c0 -128 -97 -239 -294 -239c-51 0 -99 9 -129 22z" />
    <glyph glyph-name="six.OT" horiz-adv-x="524" 
d="M228 -10c-112 0 -196 79 -196 231c0 199 127 417 425 459l10 -73c-153 -20 -292 -118 -336 -265h2c32 36 90 69 157 69c97 0 171 -66 171 -180c0 -129 -89 -241 -233 -241zM234 62c73 0 138 61 138 159c0 66 -40 117 -104 117c-53 0 -106 -30 -131 -81
c-10 -20 -16 -44 -16 -70c0 -66 39 -125 113 -125z" />
    <glyph glyph-name="seven.OT" horiz-adv-x="524" 
d="M69 -200c64 242 183 464 308 615h-295l-11 71h427v-33c-139 -161 -275 -409 -329 -633z" />
    <glyph glyph-name="eight.OT" horiz-adv-x="524" 
d="M225 -10c-128 0 -214 64 -214 169c0 97 70 154 155 182v2c-44 26 -87 69 -87 141c0 102 89 181 222 181c123 0 200 -64 200 -157c0 -87 -73 -144 -145 -171v-2c67 -26 113 -74 113 -150c0 -125 -118 -195 -244 -195zM228 61c82 0 148 43 148 120c0 63 -57 98 -142 123
c-75 -24 -130 -73 -130 -139c0 -75 66 -104 124 -104zM275 370c74 22 134 61 134 131c0 62 -49 93 -113 93c-63 0 -124 -37 -124 -108c0 -51 39 -96 103 -116z" />
    <glyph glyph-name="nine.OT" horiz-adv-x="524" 
d="M16 -199l-10 72c153 19 284 104 338 234l-2 1c-46 -28 -92 -39 -134 -39c-106 0 -177 74 -177 188c0 143 96 237 224 237c136 0 206 -105 206 -232c0 -204 -127 -419 -445 -461zM231 141c38 0 85 11 131 44c6 20 9 49 9 79c0 74 -31 157 -118 157
c-81 0 -133 -64 -133 -155c0 -69 29 -125 111 -125z" />
    <glyph glyph-name="Euro.OT" horiz-adv-x="524" 
d="M38 159l8 57h54c0 26 3 52 8 77h-57l9 57h65c39 100 123 169 234 169c49 0 87 -12 121 -30l-17 -70c-31 17 -59 29 -102 29c-61 0 -115 -35 -146 -98h190l-19 -57h-193c-5 -24 -8 -49 -8 -77h191l-20 -57h-166c11 -62 49 -98 114 -98c38 0 72 10 111 34l18 -67
c-49 -29 -92 -38 -137 -38c-106 0 -175 62 -192 169h-66z" />
    <glyph glyph-name="dollar.OT" horiz-adv-x="524" 
d="M150 -64l17 78c-51 4 -93 19 -120 33l28 65c29 -15 75 -29 122 -29c67 0 111 24 111 72c0 91 -192 75 -192 211c0 69 49 126 152 136l15 71h67l-14 -72c35 -5 73 -14 99 -26l-14 -70c-35 17 -79 28 -124 28c-58 0 -95 -20 -95 -58c0 -86 193 -75 193 -214
c0 -83 -60 -136 -162 -146l-15 -79h-68z" />
    <glyph glyph-name="sterling.OT" horiz-adv-x="524" 
d="M45 0l7 56c64 24 83 111 92 172h-56l10 64h55l9 60c17 109 89 167 189 167c40 0 76 -8 101 -21l-27 -67c-19 10 -41 16 -69 16c-59 0 -97 -39 -107 -102l-8 -53h157l-21 -64h-146c-10 -65 -28 -126 -61 -161l1 -2c22 2 44 2 67 2h154l-9 -67h-338z" />
    <glyph glyph-name="yen.OT" horiz-adv-x="524" 
d="M154 0l18 86h-125l12 60h125l13 61h-127l12 61h96l-85 242h84l73 -222h2l152 222h92l-172 -242h96l-12 -61h-127l-13 -61h128l-12 -60h-129l-18 -86h-83z" />
    <glyph glyph-name="zero.small" horiz-adv-x="461" 
d="M180 -10c-96 0 -156 66 -156 186c0 154 78 364 243 364c97 0 156 -67 156 -186c0 -154 -78 -364 -243 -364zM184 62c85 0 150 156 150 291c0 72 -20 115 -71 115c-84 0 -149 -157 -149 -291c0 -72 20 -115 70 -115z" />
    <glyph glyph-name="one.small" horiz-adv-x="354" 
d="M105 0l93 435c-38 -19 -97 -39 -139 -48v73c50 13 132 45 176 74h71l-114 -534h-87z" />
    <glyph glyph-name="two.small" horiz-adv-x="445" 
d="M1 0c44 293 309 275 309 402c0 42 -31 66 -80 66c-45 0 -97 -17 -136 -36l-17 69c45 21 105 39 165 39c87 0 158 -48 158 -134c0 -158 -234 -165 -290 -337h256l-15 -69h-350z" />
    <glyph glyph-name="three.small" horiz-adv-x="447" 
d="M-5 30l33 64c39 -21 81 -32 123 -32c83 0 131 43 131 101c0 53 -47 71 -124 71h-72l9 70h42c29 0 57 1 84 7c48 13 85 44 85 92c0 43 -38 65 -86 65c-45 0 -93 -15 -128 -31l-16 67c40 18 95 36 156 36c102 0 164 -53 164 -132c0 -64 -48 -112 -111 -136v-2
c45 -13 86 -42 86 -105c0 -97 -85 -175 -218 -175c-60 0 -115 15 -158 40z" />
    <glyph glyph-name="four.small" horiz-adv-x="493" 
d="M223 0l28 131h-216l-8 60l330 343h67l-71 -333h79l-15 -70h-79l-28 -131h-87zM269 201l21 98c9 43 16 68 27 109l-195 -208c19 1 37 1 57 1h90z" />
    <glyph glyph-name="five.small" horiz-adv-x="444" 
d="M-7 30l35 64c33 -21 74 -31 115 -31c78 0 133 43 133 109c0 56 -43 81 -131 81h-75l59 277h297l-23 -69h-207l-29 -140h15c121 0 184 -60 184 -144c0 -105 -86 -187 -221 -187c-58 0 -109 14 -152 40z" />
    <glyph glyph-name="six.small" horiz-adv-x="480" 
d="M216 -10c-109 0 -174 78 -174 194c0 212 138 356 307 356c27 0 63 -5 90 -15l-25 -66c-22 7 -45 10 -66 10c-112 0 -189 -91 -214 -184h2c28 29 72 51 120 51c93 0 153 -62 153 -156c0 -108 -85 -190 -193 -190zM217 61c56 0 105 48 105 114c0 49 -28 91 -86 91
c-57 0 -105 -42 -105 -110c0 -51 29 -95 86 -95z" />
    <glyph glyph-name="seven.small" horiz-adv-x="405" 
d="M48 0c49 193 145 346 244 458h-233l-8 72h359v-35c-117 -132 -226 -303 -273 -495h-89z" />
    <glyph glyph-name="eight.small" horiz-adv-x="482" 
d="M203 -10c-110 0 -180 54 -180 139c0 75 53 124 124 150v2c-37 21 -67 57 -67 110c0 80 69 149 184 149c107 0 170 -56 170 -133c0 -67 -58 -114 -117 -137v-2c52 -21 89 -59 89 -116c0 -102 -95 -162 -203 -162zM205 59c61 0 114 32 114 90c0 43 -38 74 -106 94
c-49 -15 -103 -49 -103 -107c0 -56 50 -77 95 -77zM244 304c53 13 102 44 102 98c0 45 -36 69 -85 69s-94 -28 -94 -80c0 -38 26 -72 77 -87z" />
    <glyph glyph-name="nine.small" horiz-adv-x="488" 
d="M36 14l24 66c26 -12 57 -19 91 -19c98 0 159 71 180 167h-2c-32 -20 -74 -34 -114 -34c-85 0 -157 49 -157 150c0 114 80 196 188 196c105 0 183 -69 183 -209c0 -162 -78 -341 -276 -341c-40 0 -81 7 -117 24zM232 264c38 0 77 14 108 34c1 10 2 28 2 42
c0 81 -36 129 -97 129c-58 0 -99 -54 -99 -119c0 -51 29 -86 86 -86z" />
    <glyph glyph-name="Euro.small" horiz-adv-x="453" 
d="M5 167l8 57h53c0 28 3 54 8 79h-56l9 58h64c43 111 134 179 239 179c50 0 89 -12 123 -31l-18 -72c-30 19 -58 31 -102 31c-62 0 -117 -39 -150 -107h194l-19 -58h-197c-5 -24 -9 -51 -10 -79h192l-20 -57h-166c10 -65 46 -105 114 -105c37 0 71 10 111 34l19 -67
c-51 -30 -93 -39 -139 -39c-108 0 -176 67 -192 177h-65z" />
    <glyph glyph-name="dollar.small" horiz-adv-x="453" 
d="M112 -67l17 82c-40 6 -77 19 -103 34l29 64c28 -16 68 -30 113 -30c68 0 99 31 99 77c0 94 -175 95 -175 225c0 72 57 127 145 135l16 76h71l-17 -77c33 -4 62 -14 85 -23l-13 -72c-33 17 -74 28 -112 28c-45 0 -86 -18 -86 -61c0 -85 175 -82 175 -224
c0 -82 -60 -142 -157 -152l-17 -82h-70z" />
    <glyph glyph-name="sterling.small" horiz-adv-x="453" 
d="M8 0l9 60c70 24 94 119 102 175h-63l12 70h60l10 61c6 39 17 69 31 92c36 60 97 82 152 82c41 0 76 -9 104 -23l-27 -67c-20 11 -44 18 -72 18c-30 0 -64 -11 -85 -50c-7 -12 -15 -33 -20 -64l-8 -49h154l-24 -70h-140c-11 -68 -29 -130 -68 -165v-2c23 1 52 1 82 1h145
l-12 -69h-342z" />
    <glyph glyph-name="yen.small" horiz-adv-x="453" 
d="M14 91l12 59h130l12 58h-132l12 59h106l-81 263h85l65 -239h2l150 239h95l-178 -263h105l-13 -59h-132l-12 -58h134l-12 -59h-134l-19 -91h-85l19 91h-129z" />
    <glyph glyph-name="six.LT" horiz-adv-x="529" 
d="M243 -10c-118 0 -201 71 -201 236c0 248 148 439 366 439c27 0 64 -5 96 -16l-27 -69c-21 8 -46 11 -70 11c-149 0 -247 -126 -276 -268h2c33 49 98 82 162 82c109 0 178 -70 178 -184c0 -133 -104 -231 -230 -231zM245 64c73 0 135 60 135 151c0 65 -34 116 -107 116
c-74 0 -138 -58 -138 -149c0 -66 37 -118 110 -118z" />
    <glyph glyph-name="seven.LT" horiz-adv-x="529" 
d="M96 0c62 250 181 437 307 584h-295l-8 75h422v-36c-142 -166 -275 -382 -333 -623h-93z" />
    <glyph glyph-name="eight.LT" horiz-adv-x="529" 
d="M228 -10c-128 0 -213 64 -213 169c0 97 70 154 154 182v2c-44 26 -87 69 -87 141c0 102 89 181 222 181c123 0 201 -64 201 -157c0 -87 -73 -144 -146 -171v-2c67 -26 113 -74 113 -150c0 -125 -118 -195 -244 -195zM232 61c81 0 147 43 147 120c0 63 -57 98 -141 123
c-76 -24 -130 -73 -130 -139c0 -75 65 -104 124 -104zM278 370c74 22 134 61 134 131c0 62 -49 93 -113 93c-63 0 -124 -37 -124 -108c0 -51 39 -96 103 -116z" />
    <glyph glyph-name="nine.LT" horiz-adv-x="529" 
d="M27 15l25 70c26 -13 67 -21 97 -21c132 0 206 80 236 227h-2c-43 -31 -100 -49 -155 -49c-96 0 -178 60 -178 184c0 146 100 239 224 239s213 -83 213 -246c0 -275 -131 -429 -333 -429c-52 0 -95 10 -127 25zM252 315c56 0 102 24 141 52c3 17 5 39 5 59
c0 103 -46 166 -125 166c-76 0 -130 -72 -130 -161c0 -67 36 -116 109 -116z" />
    <glyph glyph-name="Euro.LT" horiz-adv-x="529" 
d="M20 213l8 61h64v6c0 34 3 68 10 100h-67l9 61h74c48 137 156 224 289 224c52 0 98 -11 135 -35l-15 -77c-40 25 -75 35 -115 35c-94 0 -161 -60 -197 -147h242l-21 -61h-241c-7 -29 -10 -59 -10 -92v-14h234l-21 -61h-208c14 -108 67 -146 139 -146c42 0 78 9 125 38
l18 -71c-46 -30 -99 -44 -154 -44c-129 0 -206 77 -223 223h-75z" />
    <glyph glyph-name="dollar.LT" horiz-adv-x="529" 
d="M141 -82l21 100c-52 5 -91 22 -119 39l31 68c30 -19 75 -36 122 -36c62 0 130 23 130 105c0 131 -201 124 -201 286c0 93 70 158 169 168l19 93h70l-20 -94c40 -5 73 -15 101 -29l-16 -72c-34 18 -79 31 -124 31c-55 0 -109 -25 -109 -86c0 -117 201 -109 201 -287
c0 -112 -81 -175 -184 -186l-21 -100h-70z" />
    <glyph glyph-name="plussuperior" unicode="&#x207a;" horiz-adv-x="408" 
d="M220 434v132h-123v60h123v128h63v-128h123v-60h-123v-132h-63z" />
    <glyph glyph-name="minussuperior" unicode="&#x207b;" horiz-adv-x="408" 
d="M97 566v60h309v-60h-309z" />
    <glyph glyph-name="equalsuperior" unicode="&#x207c;" horiz-adv-x="408" 
d="M97 502v59h309v-59h-309zM97 631v59h309v-59h-309z" />
    <glyph glyph-name="plusinferior" horiz-adv-x="408" 
d="M114 -150v132h-123v60h123v128h63v-128h123v-60h-123v-132h-63z" />
    <glyph glyph-name="minusinferior" horiz-adv-x="408" 
d="M-9 -18v60h309v-60h-309z" />
    <glyph glyph-name="equalinferior" horiz-adv-x="408" 
d="M-9 -82v59h309v-59h-309zM-9 47v59h309v-59h-309z" />
    <glyph glyph-name="five.LT" horiz-adv-x="529" 
d="M3 29l37 70c34 -21 79 -33 126 -33c89 0 181 45 181 148c0 90 -84 110 -169 110h-83l69 335h347l-25 -75h-250l-39 -188h30c147 0 213 -77 213 -173c0 -138 -110 -233 -272 -233c-72 0 -131 18 -165 39z" />
    <glyph glyph-name="four.LT" horiz-adv-x="529" 
d="M255 0l36 171h-263l-10 67l391 426h73l-89 -420h96l-16 -73h-96l-36 -171h-86zM307 244l28 128c12 54 24 102 39 154l-257 -283c28 0 57 1 89 1h101z" />
    <glyph glyph-name="three.LT" horiz-adv-x="531" 
d="M2 29l37 70c35 -20 85 -33 137 -33c75 0 173 31 173 133c0 75 -58 98 -156 98h-77l9 72h44c35 0 68 2 99 11c62 17 110 57 110 123c0 61 -48 86 -109 86c-56 0 -109 -17 -150 -35l-16 69c44 20 108 42 182 42c116 0 186 -59 186 -153c0 -88 -57 -144 -141 -172v-2
c59 -13 112 -50 112 -134c0 -122 -104 -214 -265 -214c-75 0 -134 16 -175 39z" />
    <glyph glyph-name="two.LT" horiz-adv-x="529" 
d="M8 0c49 346 376 341 376 504c0 59 -41 85 -103 85c-55 0 -113 -19 -159 -41l-17 71c48 22 117 46 190 46c108 0 181 -57 181 -154c0 -201 -296 -217 -351 -436h306l-17 -75h-406z" />
    <glyph glyph-name="Amacron.small" horiz-adv-x="513" 
d="M167 607l14 69h260l-15 -69h-259zM-44 0l301 534h66l115 -534h-88l-23 122h-214l-66 -122h-91zM152 191h162l-23 119c-6 33 -12 67 -17 104h-2c-12 -28 -33 -65 -51 -98z" />
    <glyph glyph-name="Ccircumflex.small" horiz-adv-x="503" 
d="M267 -10c-139 0 -229 88 -229 225c0 179 124 325 302 325c55 0 101 -12 138 -30l-19 -69c-31 15 -69 27 -115 27c-113 0 -217 -93 -217 -248c0 -102 56 -158 148 -158c46 0 93 13 134 35l18 -68c-50 -26 -108 -39 -160 -39zM186 566l119 147h74l82 -147h-71l-52 94
l-77 -94h-75z" />
    <glyph glyph-name="Abreve.small" horiz-adv-x="513" 
d="M293 578c-77 0 -120 49 -113 127h62c-1 -41 15 -68 57 -68c43 0 69 29 81 68h65c-17 -80 -75 -127 -152 -127zM-44 0l301 534h66l115 -534h-88l-23 122h-214l-66 -122h-91zM152 191h162l-23 119c-6 33 -12 67 -17 104h-2c-12 -28 -33 -65 -51 -98z" />
    <glyph glyph-name="Ccaron.small" horiz-adv-x="503" 
d="M292 567l-81 147h71l52 -95l77 95h75l-119 -147h-75zM267 -10c-139 0 -229 88 -229 225c0 179 124 325 302 325c55 0 101 -12 138 -30l-19 -69c-31 15 -69 27 -115 27c-113 0 -217 -93 -217 -248c0 -102 56 -158 148 -158c46 0 93 13 134 35l18 -68
c-50 -26 -108 -39 -160 -39z" />
    <glyph glyph-name="Cdotaccent.small" horiz-adv-x="503" 
d="M267 -10c-139 0 -229 88 -229 225c0 179 124 325 302 325c55 0 101 -12 138 -30l-19 -69c-31 15 -69 27 -115 27c-113 0 -217 -93 -217 -248c0 -102 56 -158 148 -158c46 0 93 13 134 35l18 -68c-50 -26 -108 -39 -160 -39zM338 599c-32 0 -52 21 -52 49
c0 39 31 63 63 63s52 -21 52 -49c0 -38 -31 -63 -63 -63z" />
    <glyph glyph-name="Ccedilla.small" horiz-adv-x="503" 
d="M104 -198l21 45c13 -7 32 -10 47 -10c34 0 60 13 60 41c0 27 -33 34 -78 32l42 88c-98 26 -158 105 -158 217c0 179 124 325 302 325c55 0 101 -12 138 -30l-19 -69c-31 15 -69 27 -115 27c-113 0 -217 -93 -217 -248c0 -102 56 -158 148 -158c46 0 93 13 134 35l18 -68
c-51 -26 -115 -41 -169 -38l-20 -44c44 -3 71 -27 71 -65c0 -63 -58 -94 -131 -94c-27 0 -51 4 -74 14z" />
    <glyph glyph-name="Dcaron.small" horiz-adv-x="558" 
d="M265 567l-81 147h71l52 -95l77 95h75l-119 -147h-75zM14 0l113 530h122c153 0 258 -80 258 -223c0 -172 -122 -307 -337 -307h-156zM116 72h66c142 0 237 96 237 236c0 93 -65 150 -174 150h-48z" />
    <glyph glyph-name="Dcroat.small" horiz-adv-x="558" 
d="M14 0l49 233h-67l15 69h67l49 228h122c153 0 258 -80 258 -223c0 -172 -122 -307 -337 -307h-156zM116 72h66c142 0 237 96 237 236c0 93 -65 150 -174 150h-48l-33 -156h131l-15 -69h-130z" />
    <glyph glyph-name="Egrave.small" horiz-adv-x="441" 
d="M242 566l-81 147h100l49 -147h-68zM14 0l113 530h287l-27 -69h-189l-33 -158h186l-16 -70h-185l-34 -164h211l-15 -69h-298z" />
    <glyph glyph-name="Eacute.small" horiz-adv-x="441" 
d="M232 566l76 147h100l-109 -147h-67zM14 0l113 530h287l-27 -69h-189l-33 -158h186l-16 -70h-185l-34 -164h211l-15 -69h-298z" />
    <glyph glyph-name="Ecircumflex.small" horiz-adv-x="441" 
d="M14 0l113 530h287l-27 -69h-189l-33 -158h186l-16 -70h-185l-34 -164h211l-15 -69h-298zM139 566l119 147h74l82 -147h-71l-52 94l-77 -94h-75z" />
    <glyph glyph-name="Ecaron.small" horiz-adv-x="441" 
d="M233 567l-81 147h71l52 -95l77 95h75l-119 -147h-75zM14 0l113 530h287l-27 -69h-189l-33 -158h186l-16 -70h-185l-34 -164h211l-15 -69h-298z" />
    <glyph glyph-name="Edieresis.small" horiz-adv-x="441" 
d="M14 0l113 530h287l-27 -69h-189l-33 -158h186l-16 -70h-185l-34 -164h211l-15 -69h-298zM189 583c-26 0 -42 17 -42 42c0 33 23 57 52 57c26 0 42 -17 42 -42c0 -33 -23 -57 -52 -57zM369 583c-26 0 -42 17 -42 42c0 33 23 57 52 57c26 0 43 -17 43 -42
c0 -33 -24 -57 -53 -57z" />
    <glyph glyph-name="Emacron.small" horiz-adv-x="441" 
d="M150 607l14 69h260l-15 -69h-259zM14 0l113 530h287l-27 -69h-189l-33 -158h186l-16 -70h-185l-34 -164h211l-15 -69h-298z" />
    <glyph glyph-name="Aring.small" horiz-adv-x="513" 
d="M-44 0l301 533c-37 9 -63 38 -63 79c0 66 52 108 117 108c58 0 98 -33 98 -84c0 -56 -37 -93 -86 -103l115 -533h-88l-23 122h-214l-66 -122h-91zM152 191h162l-23 119c-6 33 -12 67 -17 104h-2c-12 -28 -33 -65 -51 -98zM295 572c32 0 53 27 53 61c0 26 -15 43 -40 43
c-32 0 -53 -27 -53 -62c0 -25 15 -42 40 -42z" />
    <glyph glyph-name="Ebreve.small" horiz-adv-x="441" 
d="M272 578c-77 0 -120 49 -113 127h62c-1 -41 15 -68 57 -68c43 0 69 29 81 68h65c-17 -80 -75 -127 -152 -127zM14 0l113 530h287l-27 -69h-189l-33 -158h186l-16 -70h-185l-34 -164h211l-15 -69h-298z" />
    <glyph glyph-name="Aringacute.small" horiz-adv-x="513" 
d="M-44 0l301 533c-37 9 -63 38 -63 79c0 63 48 104 108 107l63 125h100l-101 -136c28 -13 45 -38 45 -72c0 -56 -37 -93 -86 -103l115 -533h-88l-23 122h-214l-66 -122h-91zM152 191h162l-23 119c-6 33 -12 67 -17 104h-2c-12 -28 -33 -65 -51 -98zM295 572
c32 0 53 27 53 61c0 26 -15 43 -40 43c-32 0 -53 -27 -53 -62c0 -25 15 -42 40 -42z" />
    <glyph glyph-name="Aogonek.small" horiz-adv-x="513" 
d="M-44 0l302 534h65l115 -534c-69 -26 -143 -74 -143 -125c0 -20 12 -32 34 -32c11 0 24 3 38 8l7 -53c-24 -7 -48 -11 -69 -11c-60 0 -85 32 -85 71c0 74 68 123 127 151l-20 113h-214l-66 -122h-91zM152 191h162l-23 119c-6 33 -12 67 -17 104h-2
c-12 -28 -33 -65 -51 -98z" />
    <glyph glyph-name="Edotaccent.small" horiz-adv-x="441" 
d="M14 0l113 530h287l-27 -69h-189l-33 -158h186l-16 -70h-185l-34 -164h211l-15 -69h-298zM275 599c-32 0 -52 21 -52 49c0 39 31 63 63 63s52 -21 52 -49c0 -38 -31 -63 -63 -63z" />
    <glyph glyph-name="Eogonek.small" horiz-adv-x="441" 
d="M14 0l113 530h287l-27 -69h-189l-33 -158h186l-16 -70h-185l-34 -164h211l-15 -69h-14c-67 -31 -134 -74 -134 -125c0 -20 11 -32 34 -32c11 0 23 3 38 8l6 -53c-24 -7 -47 -11 -69 -11c-60 0 -84 32 -84 71c0 67 56 112 110 142h-185z" />
    <glyph glyph-name="Gcircumflex.small" horiz-adv-x="562" 
d="M275 -10c-149 0 -237 92 -237 230c0 177 129 320 304 320c62 0 118 -14 161 -33l-19 -70c-36 19 -79 31 -133 31c-116 0 -224 -93 -224 -245c0 -100 54 -162 154 -162c29 0 60 7 82 16l37 175h87l-49 -228c-52 -22 -115 -34 -163 -34zM199 566l119 147h74l82 -147h-71
l-52 94l-77 -94h-75z" />
    <glyph glyph-name="Gbreve.small" horiz-adv-x="562" 
d="M338 578c-77 0 -120 49 -113 127h62c-1 -41 15 -68 57 -68c43 0 69 29 81 68h65c-17 -80 -75 -127 -152 -127zM275 -10c-149 0 -237 92 -237 230c0 177 129 320 304 320c62 0 118 -14 161 -33l-19 -70c-36 19 -79 31 -133 31c-116 0 -224 -93 -224 -245
c0 -100 54 -162 154 -162c29 0 60 7 82 16l37 175h87l-49 -228c-52 -22 -115 -34 -163 -34z" />
    <glyph glyph-name="Gdotaccent.small" horiz-adv-x="562" 
d="M275 -10c-149 0 -237 92 -237 230c0 177 129 320 304 320c62 0 118 -14 161 -33l-19 -70c-36 19 -79 31 -133 31c-116 0 -224 -93 -224 -245c0 -100 54 -162 154 -162c29 0 60 7 82 16l37 175h87l-49 -228c-52 -22 -115 -34 -163 -34zM348 599c-32 0 -52 21 -52 49
c0 39 31 63 63 63s52 -21 52 -49c0 -38 -31 -63 -63 -63z" />
    <glyph glyph-name="Gcommaaccent.small" horiz-adv-x="562" 
d="M275 -10c-149 0 -237 92 -237 230c0 177 129 320 304 320c62 0 118 -14 161 -33l-19 -70c-36 19 -79 31 -133 31c-116 0 -224 -93 -224 -245c0 -100 54 -162 154 -162c29 0 60 7 82 16l37 175h87l-49 -228c-52 -22 -115 -34 -163 -34zM159 -237l-20 58c61 15 87 41 87 79
c0 15 -5 31 -12 48h80c7 -14 12 -36 12 -55c0 -64 -46 -112 -147 -130z" />
    <glyph glyph-name="Hcircumflex.small" horiz-adv-x="595" 
d="M14 0l113 530h86l-48 -225h262l49 225h86l-113 -530h-87l50 233h-262l-50 -233h-86zM211 566l119 147h74l82 -147h-71l-52 94l-77 -94h-75z" />
    <glyph glyph-name="Hbar.small" horiz-adv-x="595" 
d="M14 0l82 387h-53l13 61h53l18 82h86l-17 -82h262l18 82h86l-17 -82h53l-13 -61h-54l-82 -387h-87l50 233h-262l-50 -233h-86zM165 305h262l17 82h-262z" />
    <glyph glyph-name="Igrave.small" horiz-adv-x="246" 
d="M150 566l-81 147h100l49 -147h-68zM14 0l113 530h86l-113 -530h-86z" />
    <glyph glyph-name="Iacute.small" horiz-adv-x="246" 
d="M135 566l76 147h100l-109 -147h-67zM14 0l113 530h86l-113 -530h-86z" />
    <glyph glyph-name="Icircumflex.small" horiz-adv-x="246" 
d="M14 0l113 530h86l-113 -530h-86zM36 566l119 147h74l82 -147h-71l-52 94l-77 -94h-75z" />
    <glyph glyph-name="Itilde.small" horiz-adv-x="246" 
d="M30 587c6 74 45 106 89 106c55 0 86 -47 121 -47c20 0 30 15 34 41h62c-6 -74 -45 -106 -88 -106c-55 0 -87 47 -122 47c-20 0 -29 -16 -33 -41h-63zM14 0l113 530h86l-113 -530h-86z" />
    <glyph glyph-name="AE.small" horiz-adv-x="689" 
d="M-54 0l395 530h316l-17 -69h-200l-19 -158h190l-9 -70h-191l-21 -164h216l-9 -69h-297l16 122h-183l-91 -122h-96zM184 191h142l33 235h-3z" />
    <glyph glyph-name="Idieresis.small" horiz-adv-x="246" 
d="M14 0l113 530h86l-113 -530h-86zM90 583c-26 0 -42 17 -42 42c0 33 23 57 52 57c26 0 42 -17 42 -42c0 -33 -23 -57 -52 -57zM270 583c-26 0 -42 17 -42 42c0 33 23 57 52 57c26 0 43 -17 43 -42c0 -33 -24 -57 -53 -57z" />
    <glyph glyph-name="Imacron.small" horiz-adv-x="246" 
d="M50 607l14 69h260l-15 -69h-259zM14 0l113 530h86l-113 -530h-86z" />
    <glyph glyph-name="AEacute.small" horiz-adv-x="689" 
d="M424 566l76 147h100l-109 -147h-67zM-54 0l395 530h316l-17 -69h-200l-19 -158h190l-9 -70h-191l-21 -164h216l-9 -69h-297l16 122h-183l-91 -122h-96zM184 191h142l33 235h-3z" />
    <glyph glyph-name="Ibreve.small" horiz-adv-x="246" 
d="M176 578c-77 0 -120 49 -113 127h62c-1 -41 15 -68 57 -68c43 0 69 29 81 68h65c-17 -80 -75 -127 -152 -127zM14 0l113 530h86l-113 -530h-86z" />
    <glyph glyph-name="Iogonek.small" horiz-adv-x="246" 
d="M16 9l111 521h86l-113 -530c-50 -35 -96 -83 -96 -125c0 -20 11 -32 34 -32c11 0 23 3 38 8l6 -53c-24 -7 -47 -11 -69 -11c-60 0 -84 32 -84 73c0 60 46 111 87 149z" />
    <glyph glyph-name="IJ.small" horiz-adv-x="512" 
d="M14 0l113 530h86l-113 -530h-86zM128 -122l24 67c17 -7 32 -9 49 -9c53 0 73 36 84 88l108 506h86l-111 -523c-18 -86 -61 -144 -160 -144c-28 0 -57 5 -80 15z" />
    <glyph glyph-name="Jcircumflex.small" horiz-adv-x="266" 
d="M-118 -122l24 67c17 -7 32 -9 49 -9c53 0 73 36 84 88l108 506h86l-111 -523c-18 -86 -61 -144 -160 -144c-28 0 -57 5 -80 15zM56 566l119 147h74l82 -147h-71l-52 94l-77 -94h-75z" />
    <glyph glyph-name="Kcommaaccent.small" horiz-adv-x="487" 
d="M14 0l113 530h86l-52 -246h2l234 246h98l-265 -278l186 -252h-97l-167 230h-3l-49 -230h-86zM92 -237l-20 58c61 15 87 41 87 79c0 15 -5 31 -12 48h80c7 -14 12 -36 12 -55c0 -64 -46 -112 -147 -130z" />
    <glyph glyph-name="Lacute.small" horiz-adv-x="383" 
d="M136 566l76 147h100l-109 -147h-67zM14 0l113 530h86l-97 -458h202l-17 -72h-287z" />
    <glyph glyph-name="Lcaron.small" horiz-adv-x="383" 
d="M14 0l113 530h86l-97 -458h202l-17 -72h-287zM257 378l61 195h88l-82 -195h-67z" />
    <glyph glyph-name="Lcommaaccent.small" horiz-adv-x="383" 
d="M14 0l113 530h86l-97 -458h202l-17 -72h-287zM50 -237l-20 58c61 15 87 41 87 79c0 15 -5 31 -12 48h80c7 -14 12 -36 12 -55c0 -64 -46 -112 -147 -130z" />
    <glyph glyph-name="Lslash.small" horiz-adv-x="383" 
d="M14 0l41 194l-57 -29l20 84l55 28l54 253h86l-43 -204l134 70l-19 -83l-133 -70l-36 -171h202l-17 -72h-287z" />
    <glyph glyph-name="Ldot.small" horiz-adv-x="383" 
d="M301 234c-29 0 -48 23 -48 50c0 35 25 61 58 61c29 0 48 -24 48 -51c0 -34 -25 -60 -58 -60zM14 0l113 530h86l-97 -458h202l-17 -72h-287z" />
    <glyph glyph-name="Nacute.small" horiz-adv-x="615" 
d="M314 566l76 147h100l-109 -147h-67zM14 0l113 530h77l153 -289c20 -38 42 -82 54 -109h2c5 32 15 82 24 123l58 275h87l-113 -530h-72l-155 293c-21 37 -44 84 -55 113h-3c-5 -36 -17 -91 -24 -123l-60 -283h-86z" />
    <glyph glyph-name="Ncaron.small" horiz-adv-x="615" 
d="M314 567l-81 147h71l52 -95l77 95h75l-119 -147h-75zM14 0l113 530h77l153 -289c20 -38 42 -82 54 -109h2c5 32 15 82 24 123l58 275h87l-113 -530h-72l-155 293c-21 37 -44 84 -55 113h-3c-5 -36 -17 -91 -24 -123l-60 -283h-86z" />
    <glyph glyph-name="Cacute.small" horiz-adv-x="503" 
d="M290 566l76 147h100l-109 -147h-67zM267 -10c-139 0 -229 88 -229 225c0 179 124 325 302 325c55 0 101 -12 138 -30l-19 -69c-31 15 -69 27 -115 27c-113 0 -217 -93 -217 -248c0 -102 56 -158 148 -158c46 0 93 13 134 35l18 -68c-50 -26 -108 -39 -160 -39z" />
    <glyph glyph-name="Ntilde.small" horiz-adv-x="615" 
d="M215 587c6 74 45 106 89 106c55 0 86 -47 121 -47c20 0 30 15 34 41h62c-6 -74 -45 -106 -88 -106c-55 0 -87 47 -122 47c-20 0 -29 -16 -33 -41h-63zM14 0l113 530h77l153 -289c20 -38 42 -82 54 -109h2c5 32 15 82 24 123l58 275h87l-113 -530h-72l-155 293
c-21 37 -44 84 -55 113h-3c-5 -36 -17 -91 -24 -123l-60 -283h-86z" />
    <glyph glyph-name="Ncommaaccent.small" horiz-adv-x="615" 
d="M14 0l113 530h77l153 -289c20 -38 42 -82 54 -109h2c5 32 15 82 24 123l58 275h87l-113 -530h-72l-155 293c-21 37 -44 84 -55 113h-3c-5 -36 -17 -91 -24 -123l-60 -283h-86zM142 -237l-20 58c61 15 87 41 87 79c0 15 -5 31 -12 48h80c7 -14 12 -36 12 -55
c0 -64 -46 -112 -147 -130z" />
    <glyph glyph-name="Ograve.small" horiz-adv-x="610" 
d="M323 566l-81 147h100l49 -147h-68zM258 -10c-128 0 -220 85 -220 218c0 185 129 332 301 332c128 0 220 -85 220 -218c0 -185 -129 -332 -301 -332zM265 62c113 0 205 114 205 256c0 87 -47 150 -138 150c-113 0 -205 -114 -205 -256c0 -87 47 -150 138 -150z" />
    <glyph glyph-name="Oacute.small" horiz-adv-x="610" 
d="M310 566l76 147h100l-109 -147h-67zM258 -10c-128 0 -220 85 -220 218c0 185 129 332 301 332c128 0 220 -85 220 -218c0 -185 -129 -332 -301 -332zM265 62c113 0 205 114 205 256c0 87 -47 150 -138 150c-113 0 -205 -114 -205 -256c0 -87 47 -150 138 -150z" />
    <glyph glyph-name="Ocircumflex.small" horiz-adv-x="610" 
d="M258 -10c-128 0 -220 85 -220 218c0 185 129 332 301 332c128 0 220 -85 220 -218c0 -185 -129 -332 -301 -332zM265 62c113 0 205 114 205 256c0 87 -47 150 -138 150c-113 0 -205 -114 -205 -256c0 -87 47 -150 138 -150zM210 566l119 147h74l82 -147h-71l-52 94
l-77 -94h-75z" />
    <glyph glyph-name="Otilde.small" horiz-adv-x="610" 
d="M204 587c6 74 45 106 89 106c55 0 86 -47 121 -47c20 0 30 15 34 41h62c-6 -74 -45 -106 -88 -106c-55 0 -87 47 -122 47c-20 0 -29 -16 -33 -41h-63zM258 -10c-128 0 -220 85 -220 218c0 185 129 332 301 332c128 0 220 -85 220 -218c0 -185 -129 -332 -301 -332z
M265 62c113 0 205 114 205 256c0 87 -47 150 -138 150c-113 0 -205 -114 -205 -256c0 -87 47 -150 138 -150z" />
    <glyph glyph-name="Odieresis.small" horiz-adv-x="610" 
d="M258 -10c-128 0 -220 85 -220 218c0 185 129 332 301 332c128 0 220 -85 220 -218c0 -185 -129 -332 -301 -332zM265 62c113 0 205 114 205 256c0 87 -47 150 -138 150c-113 0 -205 -114 -205 -256c0 -87 47 -150 138 -150zM262 583c-26 0 -42 17 -42 42
c0 33 23 57 52 57c26 0 42 -17 42 -42c0 -33 -23 -57 -52 -57zM442 583c-26 0 -42 17 -42 42c0 33 23 57 52 57c26 0 43 -17 43 -42c0 -33 -24 -57 -53 -57z" />
    <glyph glyph-name="Omacron.small" horiz-adv-x="610" 
d="M225 607l14 69h260l-15 -69h-259zM258 -10c-128 0 -220 85 -220 218c0 185 129 332 301 332c128 0 220 -85 220 -218c0 -185 -129 -332 -301 -332zM265 62c113 0 205 114 205 256c0 87 -47 150 -138 150c-113 0 -205 -114 -205 -256c0 -87 47 -150 138 -150z" />
    <glyph glyph-name="Obreve.small" horiz-adv-x="610" 
d="M348 578c-77 0 -120 49 -113 127h62c-1 -41 15 -68 57 -68c43 0 69 29 81 68h65c-17 -80 -75 -127 -152 -127zM258 -10c-128 0 -220 85 -220 218c0 185 129 332 301 332c128 0 220 -85 220 -218c0 -185 -129 -332 -301 -332zM265 62c113 0 205 114 205 256
c0 87 -47 150 -138 150c-113 0 -205 -114 -205 -256c0 -87 47 -150 138 -150z" />
    <glyph glyph-name="Ohungarumlaut.small" horiz-adv-x="610" 
d="M258 -10c-128 0 -220 85 -220 218c0 185 129 332 301 332c128 0 220 -85 220 -218c0 -185 -129 -332 -301 -332zM265 62c113 0 205 114 205 256c0 87 -47 150 -138 150c-113 0 -205 -114 -205 -256c0 -87 47 -150 138 -150zM232 566l76 147h100l-108 -147h-68zM398 566
l77 147h100l-109 -147h-68z" />
    <glyph glyph-name="Oslash.small" horiz-adv-x="610" 
d="M72 -18l-43 39l49 52c-26 36 -40 82 -40 135c0 186 131 332 303 332c54 0 99 -16 134 -42l47 50l43 -39l-48 -50c27 -36 42 -83 42 -137c0 -186 -130 -332 -304 -332c-54 0 -100 16 -135 43zM263 62c115 0 208 114 208 256c0 27 -5 53 -15 74l-282 -299
c22 -20 52 -31 89 -31zM126 212c0 -27 5 -52 14 -72l280 298c-21 19 -50 30 -86 30c-115 0 -208 -114 -208 -256z" />
    <glyph glyph-name="Oslashacute.small" horiz-adv-x="610" 
d="M310 566l76 147h100l-109 -147h-67zM72 -18l-43 39l49 52c-26 36 -40 82 -40 135c0 186 131 332 303 332c54 0 99 -16 134 -42l47 50l43 -39l-48 -50c27 -36 42 -83 42 -137c0 -186 -130 -332 -304 -332c-54 0 -100 16 -135 43zM263 62c115 0 208 114 208 256
c0 27 -5 53 -15 74l-282 -299c22 -20 52 -31 89 -31zM126 212c0 -27 5 -52 14 -72l280 298c-21 19 -50 30 -86 30c-115 0 -208 -114 -208 -256z" />
    <glyph glyph-name="OE.small" horiz-adv-x="765" 
d="M263 -7c-137 0 -225 84 -225 214c0 187 130 330 314 330c52 0 104 -7 178 -7h206l-26 -69h-189l-32 -158h185l-15 -70h-186l-34 -164h212l-15 -69h-222c-63 0 -103 -7 -151 -7zM274 64c24 0 51 2 78 6l84 389c-24 4 -56 7 -82 7c-133 0 -228 -111 -228 -254
c0 -86 47 -148 148 -148z" />
    <glyph glyph-name="Racute.small" horiz-adv-x="484" 
d="M228 566l76 147h100l-109 -147h-67zM14 0l113 530h123c107 0 181 -48 181 -139c0 -78 -56 -144 -147 -165v-2c17 -18 37 -52 59 -97l60 -127h-91l-53 114c-20 44 -41 78 -53 91h-62l-44 -205h-86zM159 274h52c78 0 133 41 133 109c0 45 -32 78 -97 78h-49z" />
    <glyph glyph-name="Rcaron.small" horiz-adv-x="484" 
d="M236 567l-81 147h71l52 -95l77 95h75l-119 -147h-75zM14 0l113 530h123c107 0 181 -48 181 -139c0 -78 -56 -144 -147 -165v-2c17 -18 37 -52 59 -97l60 -127h-91l-53 114c-20 44 -41 78 -53 91h-62l-44 -205h-86zM159 274h52c78 0 133 41 133 109c0 45 -32 78 -97 78
h-49z" />
    <glyph glyph-name="Rcommaaccent.small" horiz-adv-x="484" 
d="M14 0l113 530h123c107 0 181 -48 181 -139c0 -78 -56 -144 -147 -165v-2c17 -18 37 -52 59 -97l60 -127h-91l-53 114c-20 44 -41 78 -53 91h-62l-44 -205h-86zM159 274h52c78 0 133 41 133 109c0 45 -32 78 -97 78h-49zM96 -237l-20 58c61 15 87 41 87 79
c0 15 -5 31 -12 48h80c7 -14 12 -36 12 -55c0 -64 -46 -112 -147 -130z" />
    <glyph glyph-name="Sacute.small" horiz-adv-x="435" 
d="M213 566l76 147h100l-109 -147h-67zM-3 30l29 67c41 -23 87 -36 131 -36c80 0 108 42 108 83c0 104 -197 94 -197 248c0 90 73 148 175 148c49 0 95 -8 143 -29l-17 -69c-38 19 -82 28 -121 28c-54 0 -91 -27 -91 -74c0 -100 197 -97 197 -246c0 -91 -64 -160 -197 -160
c-55 0 -110 13 -160 40z" />
    <glyph glyph-name="Scircumflex.small" horiz-adv-x="435" 
d="M-3 30l29 67c41 -23 87 -36 131 -36c80 0 108 42 108 83c0 104 -197 94 -197 248c0 90 73 148 175 148c49 0 95 -8 143 -29l-17 -69c-38 19 -82 28 -121 28c-54 0 -91 -27 -91 -74c0 -100 197 -97 197 -246c0 -91 -64 -160 -197 -160c-55 0 -110 13 -160 40zM115 566
l119 147h74l82 -147h-71l-52 94l-77 -94h-75z" />
    <glyph glyph-name="Scaron.small" horiz-adv-x="435" 
d="M217 567l-81 147h71l52 -95l77 95h75l-119 -147h-75zM-3 30l29 67c41 -23 87 -36 131 -36c80 0 108 42 108 83c0 104 -197 94 -197 248c0 90 73 148 175 148c49 0 95 -8 143 -29l-17 -69c-38 19 -82 28 -121 28c-54 0 -91 -27 -91 -74c0 -100 197 -97 197 -246
c0 -91 -64 -160 -197 -160c-55 0 -110 13 -160 40z" />
    <glyph glyph-name="Scedilla.small" horiz-adv-x="430" 
d="M21 -198l21 45c13 -7 31 -10 47 -10c33 0 59 13 59 41c0 27 -33 34 -78 32l39 84c-39 4 -77 17 -112 36l29 67c41 -23 87 -36 131 -36c80 0 108 42 108 83c0 104 -197 94 -197 248c0 90 73 148 175 148c49 0 95 -8 143 -29l-17 -69c-38 19 -82 28 -121 28
c-54 0 -91 -27 -91 -74c0 -100 197 -97 197 -246c0 -87 -58 -154 -180 -159l-20 -44c43 -4 71 -27 71 -65c0 -63 -58 -94 -130 -94c-26 0 -51 4 -74 14z" />
    <glyph glyph-name="Scommaaccent.small" horiz-adv-x="435" 
d="M-3 30l29 67c41 -23 87 -36 131 -36c80 0 108 42 108 83c0 104 -197 94 -197 248c0 90 73 148 175 148c49 0 95 -8 143 -29l-17 -69c-38 19 -82 28 -121 28c-54 0 -91 -27 -91 -74c0 -100 197 -97 197 -246c0 -91 -64 -160 -197 -160c-55 0 -110 13 -160 40zM58 -237
l-20 58c61 15 87 41 87 79c0 15 -5 31 -12 48h80c7 -14 12 -36 12 -55c0 -64 -46 -112 -147 -130z" />
    <glyph glyph-name="Tcaron.small" horiz-adv-x="440" 
d="M237 567l-81 147h71l52 -95l77 95h75l-119 -147h-75zM114 0l97 458h-168l17 72h422l-29 -72h-155l-97 -458h-87z" />
    <glyph glyph-name="Tcommaaccent.small" horiz-adv-x="440" 
d="M114 0l97 458h-168l17 72h422l-29 -72h-155l-97 -458h-87zM53 -237l-20 58c61 15 87 41 87 79c0 15 -5 31 -12 48h80c7 -14 12 -36 12 -55c0 -64 -46 -112 -147 -130z" />
    <glyph glyph-name="Tbar.small" horiz-adv-x="440" 
d="M71 221l16 69h89l35 168h-168l17 72h422l-29 -72h-155l-36 -168h97l-21 -69h-91l-46 -221h-87l46 221h-89z" />
    <glyph glyph-name="Ugrave.small" horiz-adv-x="583" 
d="M308 566l-81 147h100l49 -147h-68zM239 -11c-98 0 -194 44 -194 157c0 24 3 50 11 88l63 296h87l-68 -318c-5 -26 -7 -40 -7 -54c0 -64 44 -97 112 -97c55 0 98 20 124 60c14 20 25 46 35 93l67 316h87l-69 -323c-12 -54 -27 -99 -49 -129c-42 -60 -109 -89 -199 -89z
" />
    <glyph glyph-name="Uacute.small" horiz-adv-x="583" 
d="M301 566l76 147h100l-109 -147h-67zM239 -11c-98 0 -194 44 -194 157c0 24 3 50 11 88l63 296h87l-68 -318c-5 -26 -7 -40 -7 -54c0 -64 44 -97 112 -97c55 0 98 20 124 60c14 20 25 46 35 93l67 316h87l-69 -323c-12 -54 -27 -99 -49 -129c-42 -60 -109 -89 -199 -89z
" />
    <glyph glyph-name="Ucircumflex.small" horiz-adv-x="583" 
d="M239 -11c-98 0 -194 44 -194 157c0 24 3 50 11 88l63 296h87l-68 -318c-5 -26 -7 -40 -7 -54c0 -64 44 -97 112 -97c55 0 98 20 124 60c14 20 25 46 35 93l67 316h87l-69 -323c-12 -54 -27 -99 -49 -129c-42 -60 -109 -89 -199 -89zM204 566l119 147h74l82 -147h-71
l-52 94l-77 -94h-75z" />
    <glyph glyph-name="Utilde.small" horiz-adv-x="583" 
d="M202 587c6 74 45 106 89 106c55 0 86 -47 121 -47c20 0 30 15 34 41h62c-6 -74 -45 -106 -88 -106c-55 0 -87 47 -122 47c-20 0 -29 -16 -33 -41h-63zM239 -11c-98 0 -194 44 -194 157c0 24 3 50 11 88l63 296h87l-68 -318c-5 -26 -7 -40 -7 -54c0 -64 44 -97 112 -97
c55 0 98 20 124 60c14 20 25 46 35 93l67 316h87l-69 -323c-12 -54 -27 -99 -49 -129c-42 -60 -109 -89 -199 -89z" />
    <glyph glyph-name="Udieresis.small" horiz-adv-x="583" 
d="M239 -11c-98 0 -194 44 -194 157c0 24 3 50 11 88l63 296h87l-68 -318c-5 -26 -7 -40 -7 -54c0 -64 44 -97 112 -97c55 0 98 20 124 60c14 20 25 46 35 93l67 316h87l-69 -323c-12 -54 -27 -99 -49 -129c-42 -60 -109 -89 -199 -89zM255 583c-26 0 -42 17 -42 42
c0 33 23 57 52 57c26 0 42 -17 42 -42c0 -33 -23 -57 -52 -57zM435 583c-26 0 -42 17 -42 42c0 33 23 57 52 57c26 0 43 -17 43 -42c0 -33 -24 -57 -53 -57z" />
    <glyph glyph-name="Umacron.small" horiz-adv-x="583" 
d="M217 607l14 69h260l-15 -69h-259zM239 -11c-98 0 -194 44 -194 157c0 24 3 50 11 88l63 296h87l-68 -318c-5 -26 -7 -40 -7 -54c0 -64 44 -97 112 -97c55 0 98 20 124 60c14 20 25 46 35 93l67 316h87l-69 -323c-12 -54 -27 -99 -49 -129c-42 -60 -109 -89 -199 -89z" />
    <glyph glyph-name="Ubreve.small" horiz-adv-x="583" 
d="M341 578c-77 0 -120 49 -113 127h62c-1 -41 15 -68 57 -68c43 0 69 29 81 68h65c-17 -80 -75 -127 -152 -127zM239 -11c-98 0 -194 44 -194 157c0 24 3 50 11 88l63 296h87l-68 -318c-5 -26 -7 -40 -7 -54c0 -64 44 -97 112 -97c55 0 98 20 124 60c14 20 25 46 35 93
l67 316h87l-69 -323c-12 -54 -27 -99 -49 -129c-42 -60 -109 -89 -199 -89z" />
    <glyph glyph-name="Uring.small" horiz-adv-x="583" 
d="M341 558c-58 0 -97 32 -97 84c0 66 52 107 117 107c58 0 98 -32 98 -83c0 -67 -53 -108 -118 -108zM345 602c32 0 53 27 53 61c0 26 -16 42 -41 42c-31 0 -53 -27 -53 -61c0 -26 16 -42 41 -42zM239 -11c-98 0 -194 44 -194 157c0 24 3 50 11 88l63 296h87l-68 -318
c-5 -26 -7 -40 -7 -54c0 -64 44 -97 112 -97c55 0 98 20 124 60c14 20 25 46 35 93l67 316h87l-69 -323c-12 -54 -27 -99 -49 -129c-42 -60 -109 -89 -199 -89z" />
    <glyph glyph-name="Uhungarumlaut.small" horiz-adv-x="583" 
d="M239 -11c-98 0 -194 44 -194 157c0 24 3 50 11 88l63 296h87l-68 -318c-5 -26 -7 -40 -7 -54c0 -64 44 -97 112 -97c55 0 98 20 124 60c14 20 25 46 35 93l67 316h87l-69 -323c-12 -54 -27 -99 -49 -129c-42 -60 -109 -89 -199 -89zM220 566l76 147h100l-108 -147h-68z
M386 566l77 147h100l-109 -147h-68z" />
    <glyph glyph-name="Uogonek.small" horiz-adv-x="583" 
d="M196 -213c-60 0 -85 32 -85 71c0 60 44 104 94 132v2c-83 9 -160 53 -160 154c0 24 3 50 11 88l63 296h87l-68 -318c-5 -26 -7 -40 -7 -54c0 -64 44 -97 112 -97c55 0 98 20 124 60c14 20 25 46 35 93l67 316h87l-69 -323c-12 -54 -27 -99 -49 -129
c-19 -26 -48 -51 -98 -70c-53 -20 -154 -69 -154 -133c0 -20 12 -32 34 -32c11 0 24 3 39 8l6 -53c-24 -7 -47 -11 -69 -11z" />
    <glyph glyph-name="Wgrave.small" horiz-adv-x="744" 
d="M371 566l-81 147h100l49 -147h-68zM150 -2l-94 532h85l46 -277c6 -37 13 -89 16 -129h2c18 39 43 90 59 120l95 183l-18 103h79l51 -277c7 -43 14 -93 18 -130h2c18 40 42 91 61 130l135 277h89l-272 -532h-64l-42 227c-6 34 -11 63 -15 92h-2c-13 -28 -30 -60 -46 -91
l-120 -228h-65z" />
    <glyph glyph-name="Wacute.small" horiz-adv-x="744" 
d="M363 566l76 147h100l-109 -147h-67zM150 -2l-94 532h85l46 -277c6 -37 13 -89 16 -129h2c18 39 43 90 59 120l95 183l-18 103h79l51 -277c7 -43 14 -93 18 -130h2c18 40 42 91 61 130l135 277h89l-272 -532h-64l-42 227c-6 34 -11 63 -15 92h-2c-13 -28 -30 -60 -46 -91
l-120 -228h-65z" />
    <glyph glyph-name="Wcircumflex.small" horiz-adv-x="744" 
d="M150 -2l-94 532h85l46 -277c6 -37 13 -89 16 -129h2c18 39 43 90 59 120l95 183l-18 103h79l51 -277c7 -43 14 -93 18 -130h2c18 40 42 91 61 130l135 277h89l-272 -532h-64l-42 227c-6 34 -11 63 -15 92h-2c-13 -28 -30 -60 -46 -91l-120 -228h-65zM274 566l119 147h74
l82 -147h-71l-52 94l-77 -94h-75z" />
    <glyph glyph-name="Wdieresis.small" horiz-adv-x="744" 
d="M150 -2l-94 532h85l46 -277c6 -37 13 -89 16 -129h2c18 39 43 90 59 120l95 183l-18 103h79l51 -277c7 -43 14 -93 18 -130h2c18 40 42 91 61 130l135 277h89l-272 -532h-64l-42 227c-6 34 -11 63 -15 92h-2c-13 -28 -30 -60 -46 -91l-120 -228h-65zM324 583
c-26 0 -42 17 -42 42c0 33 23 57 52 57c26 0 42 -17 42 -42c0 -33 -23 -57 -52 -57zM504 583c-26 0 -42 17 -42 42c0 33 23 57 52 57c26 0 43 -17 43 -42c0 -33 -24 -57 -53 -57z" />
    <glyph glyph-name="Ygrave.small" horiz-adv-x="454" 
d="M239 566l-81 147h100l49 -147h-68zM125 0l45 211l-110 319h84l78 -246h2l170 246h92l-230 -323l-45 -207h-86z" />
    <glyph glyph-name="Yacute.small" horiz-adv-x="454" 
d="M236 566l76 147h100l-109 -147h-67zM125 0l45 211l-110 319h84l78 -246h2l170 246h92l-230 -323l-45 -207h-86z" />
    <glyph glyph-name="Ycircumflex.small" horiz-adv-x="454" 
d="M125 0l45 211l-110 319h84l78 -246h2l170 246h92l-230 -323l-45 -207h-86zM137 566l119 147h74l82 -147h-71l-52 94l-77 -94h-75z" />
    <glyph glyph-name="Ydieresis.small" horiz-adv-x="454" 
d="M125 0l45 211l-110 319h84l78 -246h2l170 246h92l-230 -323l-45 -207h-86zM188 583c-26 0 -42 17 -42 42c0 33 23 57 52 57c26 0 42 -17 42 -42c0 -33 -23 -57 -52 -57zM368 583c-26 0 -42 17 -42 42c0 33 23 57 52 57c26 0 43 -17 43 -42c0 -33 -24 -57 -53 -57z" />
    <glyph glyph-name="Zacute.small" horiz-adv-x="465" 
d="M221 566l76 147h100l-109 -147h-67zM-20 0l333 458h-235l-11 72h394l-333 -458h264l-15 -72h-397z" />
    <glyph glyph-name="Zcaron.small" horiz-adv-x="465" 
d="M227 567l-81 147h71l52 -95l77 95h75l-119 -147h-75zM-20 0l333 458h-235l-11 72h394l-333 -458h264l-15 -72h-397z" />
    <glyph glyph-name="Zdotaccent.small" horiz-adv-x="465" 
d="M-20 0l333 458h-235l-11 72h394l-333 -458h264l-15 -72h-397zM267 599c-32 0 -52 21 -52 49c0 39 31 63 63 63s52 -21 52 -49c0 -38 -31 -63 -63 -63z" />
    <glyph glyph-name="Eng.small" horiz-adv-x="615" 
d="M14 0l113 530h77l153 -289c20 -38 42 -82 54 -109h2c5 32 15 82 24 123l58 275h87l-128 -600c-20 -96 -79 -133 -162 -133c-26 0 -56 5 -78 15l24 69c15 -7 31 -11 50 -11c52 0 73 28 88 100l11 49l-145 274c-21 37 -44 84 -55 113h-3c-5 -36 -17 -91 -24 -123l-60 -283
h-86z" />
    <glyph glyph-name="Eth.small" horiz-adv-x="558" 
d="M14 0l49 233h-67l15 69h67l49 228h122c153 0 258 -80 258 -223c0 -172 -122 -307 -337 -307h-156zM116 72h66c142 0 237 96 237 236c0 93 -65 150 -174 150h-48l-33 -156h131l-15 -69h-130z" />
    <glyph glyph-name="Thorn.small" horiz-adv-x="458" 
d="M14 0l113 530h86l-18 -85h29c124 0 182 -67 182 -153c0 -112 -80 -193 -237 -193h-48l-21 -99h-86zM137 169h46c85 0 137 44 137 124c0 44 -29 82 -97 82h-43z" />
    <glyph glyph-name="a.superior" horiz-adv-x="333" 
d="M122 263c-55 0 -90 36 -90 91c0 92 78 126 175 126h42c2 9 3 18 3 28c0 29 -18 44 -56 44c-33 0 -67 -10 -100 -24l-12 55c34 16 79 28 122 28c66 0 116 -30 116 -99c0 -26 -7 -54 -12 -76l-8 -31c-8 -34 -12 -61 -12 -83c0 -15 3 -29 6 -44l-59 -13c-4 12 -8 31 -9 49
h-1c-27 -29 -65 -51 -105 -51zM140 322c39 0 83 37 95 88l3 16h-27c-86 0 -110 -30 -110 -63c0 -25 13 -41 39 -41z" />
    <glyph glyph-name="b.superior" horiz-adv-x="353" 
d="M126 263c-34 0 -74 8 -94 16l103 484h71l-34 -156c-3 -16 -7 -29 -11 -43h1c24 28 59 47 94 47c51 0 97 -38 97 -115c0 -136 -95 -233 -227 -233zM143 324c84 0 141 76 141 162c0 31 -12 64 -48 64c-40 0 -86 -40 -101 -112l-23 -111c9 -2 22 -3 31 -3z" />
    <glyph glyph-name="c.superior" horiz-adv-x="306" 
d="M183 263c-82 0 -138 54 -138 143c0 112 79 205 190 205c35 0 65 -8 89 -19l-14 -59c-23 10 -46 17 -73 17c-71 0 -122 -63 -122 -139c0 -52 24 -87 76 -87c32 0 62 11 86 25l20 -55c-30 -20 -75 -31 -114 -31z" />
    <glyph glyph-name="d.superior" horiz-adv-x="351" 
d="M195 263c-87 0 -148 53 -148 142c0 124 88 206 192 206c22 0 45 -3 62 -9l35 161h71l-102 -477c-30 -14 -71 -23 -110 -23zM198 324c15 0 34 3 46 7l45 211c-8 4 -27 8 -46 8c-72 0 -127 -56 -127 -141c0 -55 31 -85 82 -85z" />
    <glyph glyph-name="e.superior" horiz-adv-x="329" 
d="M183 263c-83 0 -138 53 -138 142c0 116 75 206 175 206c76 0 113 -47 113 -111c0 -24 -7 -54 -16 -80l-204 -3v-14c0 -51 30 -80 76 -80c35 0 62 10 93 26l20 -54c-36 -21 -82 -32 -119 -32zM124 472l137 3c3 9 4 20 4 28c0 23 -11 50 -51 50c-45 0 -78 -37 -90 -81z" />
    <glyph glyph-name="f.superior" horiz-adv-x="218" 
d="M10 114l-46 47c90 81 114 183 143 383h-51l8 58h51l6 37c13 84 67 124 130 124c24 0 49 -6 69 -18l-25 -54c-10 5 -25 10 -40 10c-33 0 -57 -21 -64 -68l-5 -31h78l-24 -58h-63c-29 -202 -55 -335 -167 -430z" />
    <glyph glyph-name="g.superior" horiz-adv-x="358" 
d="M122 109c-34 0 -74 9 -107 28l23 58c28 -16 54 -24 85 -24c62 0 92 33 107 100l8 36h-1c-28 -31 -64 -44 -96 -44c-50 0 -94 34 -94 114c0 119 69 234 208 234c40 0 87 -10 113 -20l-70 -325c-21 -96 -63 -157 -176 -157zM160 324c31 0 85 28 108 133l19 88
c-10 3 -26 5 -39 5c-88 0 -132 -83 -132 -163c0 -39 15 -63 44 -63z" />
    <glyph glyph-name="h.superior" horiz-adv-x="350" 
d="M27 270l106 493h71l-35 -161c-3 -18 -10 -39 -17 -56h2c30 40 69 65 114 65c44 0 80 -26 80 -84c0 -17 -2 -36 -8 -66l-41 -191h-70l42 200c3 17 5 31 5 43c0 25 -13 34 -32 34c-33 0 -95 -35 -116 -134l-30 -143h-71z" />
    <glyph glyph-name="i.superior" horiz-adv-x="156" 
d="M27 270l71 332h71l-71 -332h-71zM148 659c-23 0 -39 16 -39 38c0 31 24 49 49 49c24 0 39 -16 39 -38c0 -31 -23 -49 -49 -49z" />
    <glyph glyph-name="j.superior" horiz-adv-x="175" 
d="M-16 109c-23 0 -45 5 -60 13l21 57c14 -6 25 -8 35 -8c37 0 49 27 56 58l80 373h70l-83 -390c-17 -80 -64 -103 -119 -103zM166 659c-23 0 -39 16 -39 38c0 31 24 49 49 49c24 0 39 -16 39 -38c0 -31 -23 -49 -49 -49z" />
    <glyph glyph-name="k.superior" horiz-adv-x="311" 
d="M27 270l106 493h70l-59 -278h2l126 117h88l-164 -149l107 -183h-79l-90 161h-2l-34 -161h-71z" />
    <glyph glyph-name="l.superior" horiz-adv-x="186" 
d="M110 266c-44 0 -66 23 -66 61c0 8 1 21 5 39l86 397h71l-86 -392c-2 -10 -3 -19 -3 -25c0 -11 6 -18 21 -18c7 0 16 1 23 4v-59c-12 -4 -33 -7 -51 -7z" />
    <glyph glyph-name="m.superior" horiz-adv-x="536" 
d="M29 270l71 332h58l-6 -55h1c24 34 65 64 109 64c40 0 72 -20 77 -69c29 39 68 69 116 69c45 0 80 -26 80 -83c0 -15 -2 -34 -7 -59l-42 -199h-71l42 200c4 17 6 34 6 43c0 25 -13 34 -30 34c-40 0 -89 -43 -109 -130l-31 -147h-71l42 200c4 17 6 34 6 43
c0 25 -13 34 -30 34c-40 0 -91 -43 -110 -130l-31 -147h-70z" />
    <glyph glyph-name="n.superior" unicode="&#x207f;" horiz-adv-x="350" 
d="M27 270l71 332h59l-8 -58h2c30 41 73 67 116 67c46 0 81 -26 81 -84c0 -17 -2 -36 -8 -66l-41 -191h-70l42 200c3 17 5 31 5 43c0 25 -13 34 -32 34c-33 0 -95 -35 -116 -134l-30 -143h-71z" />
    <glyph glyph-name="o.superior" horiz-adv-x="357" 
d="M175 263c-83 0 -130 55 -130 129c0 127 82 219 182 219c83 0 130 -55 130 -131c0 -125 -81 -217 -182 -217zM178 324c68 0 110 77 110 151c0 44 -18 75 -63 75c-68 0 -110 -77 -110 -150c0 -45 17 -76 63 -76z" />
    <glyph glyph-name="p.superior" horiz-adv-x="354" 
d="M-7 109l104 487c23 7 67 15 103 15c103 0 155 -59 155 -142c0 -133 -99 -206 -195 -206c-24 0 -43 3 -62 8l-34 -162h-71zM155 324c77 0 130 60 130 144c0 56 -35 82 -87 82c-15 0 -32 -2 -41 -5l-46 -214c13 -5 33 -7 44 -7z" />
    <glyph glyph-name="q.superior" horiz-adv-x="358" 
d="M141 263c-50 0 -94 34 -94 114c0 119 69 234 208 234c40 0 87 -10 113 -20l-104 -482h-70l30 143c4 21 10 41 14 57h-1c-28 -31 -64 -46 -96 -46zM160 324c31 0 85 28 108 133l19 88c-11 3 -26 5 -39 5c-88 0 -132 -83 -132 -163c0 -39 15 -63 44 -63z" />
    <glyph glyph-name="r.superior" horiz-adv-x="230" 
d="M27 270l71 332h58l-5 -47h1c21 34 51 56 84 56c20 0 36 -7 47 -16l-30 -60c-9 5 -19 8 -30 8c-36 0 -75 -36 -96 -136l-29 -137h-71z" />
    <glyph glyph-name="s.superior" horiz-adv-x="252" 
d="M8 293l26 54c22 -14 50 -25 81 -25c28 0 55 11 55 40c0 48 -107 60 -107 149c0 54 39 100 115 100c32 0 63 -6 89 -15l-12 -60c-20 9 -47 16 -72 16c-28 0 -49 -11 -49 -37c0 -52 106 -61 106 -152c0 -63 -54 -100 -124 -100c-42 0 -79 11 -108 30z" />
    <glyph glyph-name="t.superior" horiz-adv-x="239" 
d="M138 263c-50 0 -76 29 -76 67c0 10 2 25 4 36l38 178h-53l13 58h53l15 72l75 21l-20 -93h89l-23 -58h-78l-36 -167c-3 -14 -5 -23 -5 -30c0 -14 7 -22 24 -22s36 8 52 19l22 -54c-28 -16 -62 -27 -94 -27z" />
    <glyph glyph-name="u.superior" horiz-adv-x="357" 
d="M132 263c-42 0 -84 23 -84 87c0 19 4 41 9 64l40 188h71l-42 -195c-4 -19 -6 -36 -6 -44c0 -23 12 -37 34 -37c46 0 92 47 106 115c11 47 24 115 35 161h70l-42 -197c-8 -35 -12 -62 -12 -83c0 -17 3 -30 7 -44l-60 -13c-7 15 -11 34 -11 55h-2c-28 -33 -67 -57 -113 -57
z" />
    <glyph glyph-name="v.superior" horiz-adv-x="309" 
d="M117 268l-64 334h70l37 -241h2l123 241h77l-186 -334h-59z" />
    <glyph glyph-name="w.superior" horiz-adv-x="472" 
d="M106 268l-51 334h68l30 -230h2l105 230h56l27 -229h2l103 229h75l-162 -334h-60l-27 227h-3l-106 -227h-59z" />
    <glyph glyph-name="x.superior" horiz-adv-x="314" 
d="M-16 270l156 174l-88 158h72l62 -113l99 113h82l-150 -167l92 -165h-72l-66 121l-106 -121h-81z" />
    <glyph glyph-name="y.superior" horiz-adv-x="316" 
d="M-59 124l26 58c13 -7 26 -10 42 -10c43 0 78 29 116 103l-75 327h72l50 -246h2l116 246h80l-176 -344c-56 -110 -111 -149 -187 -149c-24 0 -49 6 -66 15z" />
    <glyph glyph-name="z.superior" horiz-adv-x="271" 
d="M0 270l187 274h-125l-4 58h246l-187 -274h143l-12 -58h-248z" />
    <glyph glyph-name="zero.LT" horiz-adv-x="529" 
d="M206 -10c-117 0 -179 79 -179 224c0 213 101 451 288 451c117 0 179 -79 179 -225c0 -212 -101 -450 -288 -450zM211 66c106 0 190 186 190 384c0 92 -29 139 -91 139c-106 0 -190 -187 -190 -385c0 -91 29 -138 91 -138z" />
    <glyph glyph-name="one.LT" horiz-adv-x="529" 
d="M195 0l120 560c-41 -23 -146 -58 -199 -70v74c59 15 180 64 233 100h75l-142 -664h-87z" />
    <glyph glyph-name="sigmafinal" unicode="&#x3c2;" horiz-adv-x="416" 
d="M159 -138c28 30 63 63 63 98c0 95 -198 79 -198 261c0 149 107 265 251 264c48 0 94 -10 124 -24l-16 -73c-30 15 -65 24 -105 24c-107 0 -165 -91 -165 -186c0 -145 199 -120 199 -253c0 -59 -42 -109 -92 -156z" />
    <glyph glyph-name="parenright.dnom" horiz-adv-x="236" 
d="M5 -48l-39 43c73 69 122 149 122 254c0 51 -13 112 -37 148l50 35c37 -45 58 -115 58 -179c0 -112 -52 -217 -154 -301z" />
    <glyph glyph-name="parenleft.dnom" horiz-adv-x="236" 
d="M78 -48c-37 44 -58 115 -58 179c0 112 52 217 154 301l39 -44c-73 -68 -122 -148 -122 -254c0 -50 13 -111 37 -148z" />
    <glyph glyph-name="equal.dnom" horiz-adv-x="408" 
d="M23 98v59h309v-59h-309zM23 227v59h309v-59h-309z" />
    <glyph glyph-name="minus.dnom" horiz-adv-x="408" 
d="M23 162v60h309v-60h-309z" />
    <glyph glyph-name="plus.dnom" horiz-adv-x="408" 
d="M146 30v132h-123v60h123v128h63v-128h123v-60h-123v-132h-63z" />
    <glyph glyph-name="nine.dnom" horiz-adv-x="359" 
d="M-5 8l21 58c15 -8 38 -13 61 -13c67 0 111 37 130 106l-2 1c-21 -15 -51 -23 -78 -23c-62 0 -112 38 -112 112c0 88 61 141 139 141c84 0 137 -55 137 -149c0 -151 -80 -248 -212 -248c-31 0 -63 6 -84 15zM144 196c29 0 50 12 69 26c2 9 2 19 2 28c0 55 -29 81 -62 81
c-37 0 -65 -29 -65 -75c0 -38 20 -60 56 -60z" />
    <glyph glyph-name="eight.dnom" horiz-adv-x="374" 
d="M142 -7c-79 0 -133 36 -133 101c0 54 37 89 84 106v1c-27 18 -46 43 -46 80c0 68 60 109 138 109c80 0 127 -39 127 -98c0 -47 -29 -78 -75 -95v-1c37 -15 59 -45 59 -86c0 -76 -69 -117 -154 -117zM146 53c34 0 76 16 76 59c0 32 -31 48 -69 59c-39 -11 -69 -34 -69 -66
c0 -37 29 -52 62 -52zM172 223c35 10 65 29 65 64c0 29 -23 44 -54 44c-32 0 -61 -17 -61 -51c0 -28 22 -48 50 -57z" />
    <glyph glyph-name="seven.dnom" horiz-adv-x="306" 
d="M12 0c38 145 112 249 176 320h-166l-9 62h268v-38c-85 -95 -153 -204 -189 -344h-80z" />
    <glyph glyph-name="six.dnom" horiz-adv-x="357" 
d="M140 -7c-74 0 -131 46 -131 143c0 141 90 254 216 254c30 0 59 -6 80 -16l-21 -57c-18 8 -36 13 -60 13c-67 0 -114 -56 -132 -114h2c17 14 43 26 77 26c63 0 111 -42 111 -110c0 -82 -59 -139 -142 -139zM141 52c40 0 68 29 68 71c0 33 -19 59 -56 59
c-40 0 -69 -25 -69 -67c0 -33 18 -63 57 -63z" />
    <glyph glyph-name="five.dnom" horiz-adv-x="342" 
d="M-21 14l23 57c26 -11 55 -18 88 -18c52 0 94 21 94 69c0 21 -9 38 -31 48c-13 5 -30 8 -54 8h-64l42 204h225l-17 -62h-149l-19 -88h10c30 0 50 -3 66 -9c41 -17 66 -50 66 -95c0 -86 -68 -135 -171 -135c-38 0 -77 7 -109 21z" />
    <glyph glyph-name="four.dnom" horiz-adv-x="374" 
d="M155 0l17 86h-162l-11 50l238 253h72l-53 -247h54l-11 -56h-55l-18 -86h-71zM185 142l8 38c8 32 15 66 27 110l-139 -149z" />
    <glyph glyph-name="three.dnom" horiz-adv-x="343" 
d="M-14 15l24 56c28 -12 58 -18 89 -18c55 0 90 22 90 63c0 35 -30 51 -85 51h-50l9 56h40c66 2 101 27 101 64c0 26 -17 42 -57 42c-31 0 -61 -8 -89 -20l-18 55c32 14 74 26 122 26c77 0 118 -39 118 -91c0 -53 -38 -87 -83 -101v-2c38 -7 68 -34 68 -79
c0 -74 -60 -124 -167 -124c-41 0 -83 8 -112 22z" />
    <glyph glyph-name="two.dnom" horiz-adv-x="335" 
d="M-22 0c28 201 229 202 229 287c0 24 -18 41 -54 41c-34 0 -70 -13 -101 -29l-19 57c40 20 85 34 131 34c77 0 118 -41 118 -96c0 -121 -176 -139 -204 -231h176l-10 -63h-266z" />
    <glyph glyph-name="one.dnom" horiz-adv-x="307" 
d="M80 0l65 308c-35 -18 -79 -31 -117 -39v63c45 10 110 38 144 57h63l-83 -389h-72z" />
    <glyph glyph-name="zero.dnom" horiz-adv-x="374" 
d="M136 -7c-82 0 -123 61 -123 149c0 140 68 248 172 248c83 0 123 -61 123 -149c0 -140 -68 -248 -172 -248zM139 53c57 0 95 101 95 188c0 52 -11 89 -52 89c-56 0 -94 -101 -94 -188c0 -52 11 -89 51 -89z" />
    <glyph glyph-name="parenright.numr" horiz-adv-x="236" 
d="M55 221l-39 43c73 69 122 149 122 254c0 51 -13 112 -37 148l50 35c37 -45 58 -115 58 -179c0 -112 -52 -217 -154 -301z" />
    <glyph glyph-name="parenleft.numr" horiz-adv-x="236" 
d="M131 221c-37 44 -58 115 -58 179c0 112 52 217 154 301l39 -44c-73 -68 -122 -148 -122 -254c0 -50 13 -111 37 -148z" />
    <glyph glyph-name="equal.numr" horiz-adv-x="408" 
d="M72 367v59h309v-59h-309zM72 496v59h309v-59h-309z" />
    <glyph glyph-name="minus.numr" horiz-adv-x="408" 
d="M72 431v60h309v-60h-309z" />
    <glyph glyph-name="plus.numr" horiz-adv-x="408" 
d="M195 299v132h-123v60h123v128h63v-128h123v-60h-123v-132h-63z" />
    <glyph glyph-name="nine.numr" horiz-adv-x="359" 
d="M44 278l21 58c15 -8 38 -13 61 -13c67 0 111 37 130 106l-2 1c-21 -15 -51 -23 -78 -23c-62 0 -112 38 -112 112c0 88 61 141 139 141c84 0 137 -55 137 -149c0 -151 -80 -248 -212 -248c-31 0 -63 6 -84 15zM193 466c29 0 50 12 69 26c2 9 2 19 2 28c0 55 -29 81 -62 81
c-37 0 -65 -29 -65 -75c0 -38 20 -60 56 -60z" />
    <glyph glyph-name="eight.numr" horiz-adv-x="374" 
d="M193 263c-79 0 -133 36 -133 101c0 54 37 89 84 106v1c-27 18 -46 43 -46 80c0 68 60 109 138 109c80 0 127 -39 127 -98c0 -47 -29 -78 -75 -95v-1c37 -15 59 -45 59 -86c0 -76 -69 -117 -154 -117zM197 323c34 0 76 16 76 59c0 32 -31 48 -69 59
c-39 -11 -69 -34 -69 -66c0 -37 29 -52 62 -52zM223 493c35 10 65 29 65 64c0 29 -23 44 -54 44c-32 0 -61 -17 -61 -51c0 -28 22 -48 50 -57z" />
    <glyph glyph-name="seven.numr" horiz-adv-x="306" 
d="M61 270c38 145 112 249 176 320h-166l-9 62h268v-38c-85 -95 -153 -204 -189 -344h-80z" />
    <glyph glyph-name="six.numr" horiz-adv-x="357" 
d="M192 263c-74 0 -131 46 -131 143c0 141 90 254 216 254c30 0 59 -6 80 -16l-21 -57c-18 8 -36 13 -60 13c-67 0 -114 -56 -132 -114h2c17 14 43 26 77 26c63 0 111 -42 111 -110c0 -82 -59 -139 -142 -139zM193 322c40 0 68 29 68 71c0 33 -19 59 -56 59
c-40 0 -69 -25 -69 -67c0 -33 18 -63 57 -63z" />
    <glyph glyph-name="five.numr" horiz-adv-x="342" 
d="M33 284l23 57c26 -11 55 -18 88 -18c52 0 94 21 94 69c0 21 -9 38 -31 48c-13 5 -30 8 -54 8h-64l42 204h225l-17 -62h-149l-19 -88h10c30 0 50 -3 66 -9c41 -17 66 -50 66 -95c0 -86 -68 -135 -171 -135c-38 0 -77 7 -109 21z" />
    <glyph glyph-name="four.numr" horiz-adv-x="374" 
d="M206 270l17 86h-162l-11 50l238 253h72l-53 -247h54l-11 -56h-55l-18 -86h-71zM236 412l8 38c8 32 15 66 27 110l-139 -149z" />
    <glyph glyph-name="three.numr" horiz-adv-x="343" 
d="M38 285l24 56c28 -12 58 -18 89 -18c55 0 90 22 90 63c0 35 -30 51 -85 51h-50l9 56h40c66 2 101 27 101 64c0 26 -17 42 -57 42c-31 0 -61 -8 -89 -20l-18 55c32 14 74 26 122 26c77 0 118 -39 118 -91c0 -53 -38 -87 -83 -101v-2c38 -7 68 -34 68 -79
c0 -74 -60 -124 -167 -124c-41 0 -83 8 -112 22z" />
    <glyph glyph-name="two.numr" horiz-adv-x="335" 
d="M30 270c28 201 229 202 229 287c0 24 -18 41 -54 41c-34 0 -70 -13 -101 -29l-19 57c40 20 85 34 131 34c77 0 118 -41 118 -96c0 -121 -176 -139 -204 -231h176l-10 -63h-266z" />
    <glyph glyph-name="one.numr" horiz-adv-x="307" 
d="M125 270l65 308c-35 -18 -79 -31 -117 -39v63c45 10 110 38 144 57h63l-83 -389h-72z" />
    <glyph glyph-name="sigma" unicode="&#x3c3;" horiz-adv-x="549" 
d="M207 -10c-108 0 -183 70 -183 187c0 179 120 296 277 296h276l-29 -73h-66c-22 0 -52 2 -72 4v-2c25 -39 41 -85 41 -144c0 -130 -88 -268 -244 -268zM214 63c96 0 149 106 149 212c0 51 -18 97 -38 125h-11c-131 0 -201 -101 -201 -219c0 -76 36 -118 101 -118z" />
    <glyph glyph-name="macron.cap" 
d="M50 713l14 69h260l-15 -69h-259z" />
    <glyph glyph-name="breve.cap" 
d="M183 700c-77 0 -120 49 -114 128h62c-1 -42 16 -69 58 -69c43 0 68 29 81 69h64c-17 -81 -74 -128 -151 -128z" />
    <glyph glyph-name="ring.cap" 
d="M178 653c-58 0 -98 32 -98 84c0 66 52 107 118 107c57 0 97 -32 97 -83c0 -67 -52 -108 -117 -108zM181 697c32 0 53 27 53 61c0 26 -15 42 -40 42c-32 0 -53 -27 -53 -61c0 -25 16 -42 40 -42z" />
    <glyph glyph-name="hungarumlaut.cap" 
d="M66 696l76 147h100l-108 -147h-68zM232 696l77 147h100l-109 -147h-68z" />
    <glyph glyph-name="dotaccent.cap" 
d="M185 714c-32 0 -51 21 -51 49c0 39 31 63 63 63s51 -20 51 -48c0 -39 -30 -64 -63 -64z" />
    <glyph glyph-name="uni0326" unicode="&#x326;" 
d="M120 -237l-20 58c61 15 87 41 87 79c0 15 -5 31 -12 48h80c7 -14 12 -36 12 -55c0 -64 -46 -112 -147 -130z" />
    <glyph glyph-name="Alpha" unicode="&#x391;" horiz-adv-x="585" 
d="M-41 0l350 661h70l120 -661h-92l-30 173h-232l-88 -173h-98zM185 246h180l-30 195c-4 27 -8 54 -13 87h-2c-14 -32 -25 -59 -41 -92z" />
    <glyph glyph-name="Beta" unicode="&#x392;" horiz-adv-x="538" 
d="M13 0l140 659h148c132 0 181 -73 181 -150c0 -79 -43 -134 -112 -164v-2c50 -12 101 -56 101 -128c0 -110 -91 -215 -284 -215h-174zM180 373h82c92 0 131 70 131 125c0 47 -27 87 -101 87h-67zM117 73h87c113 0 177 57 177 135c0 59 -44 92 -112 92h-105z" />
    <glyph glyph-name="Gamma" unicode="&#x393;" horiz-adv-x="449" 
d="M12 0l141 659h327l-32 -75h-223l-124 -584h-89z" />
    <glyph glyph-name="Epsilon" unicode="&#x395;" horiz-adv-x="454" 
d="M13 0l140 659h319l-30 -75h-217l-44 -210h213l-16 -75h-214l-47 -224h243l-16 -75h-331z" />
    <glyph glyph-name="Zeta" unicode="&#x396;" horiz-adv-x="523" 
d="M-25 0l416 584h-283l-8 75h441l-413 -584h319l-17 -75h-455z" />
    <glyph glyph-name="Eta" unicode="&#x397;" horiz-adv-x="671" 
d="M13 0l140 659h88l-61 -286h330l61 286h88l-140 -659h-88l63 297h-330l-63 -297h-88z" />
    <glyph glyph-name="Theta" unicode="&#x398;" horiz-adv-x="726" 
d="M316 -10c-161 0 -268 97 -268 276c0 208 141 399 362 399c160 0 268 -96 268 -275c0 -208 -141 -400 -362 -400zM322 66c165 0 263 167 263 323c0 126 -63 200 -180 200c-166 0 -264 -166 -264 -322c0 -125 61 -201 181 -201zM210 298l16 73h287l-16 -73h-287z" />
    <glyph glyph-name="Iota" unicode="&#x399;" horiz-adv-x="253" 
d="M13 0l140 659h88l-140 -659h-88z" />
    <glyph glyph-name="Kappa" unicode="&#x39a;" horiz-adv-x="536" 
d="M13 0l140 659h88l-64 -303h3l287 303h107l-328 -343l220 -316h-106l-196 288h-2l-61 -288h-88z" />
    <glyph glyph-name="Lambda" unicode="&#x39b;" horiz-adv-x="586" 
d="M-42 0l348 662h73l121 -662h-93l-70 430c-6 38 -10 65 -14 98h-2c-14 -32 -26 -59 -48 -103l-216 -425h-99z" />
    <glyph glyph-name="Mu" unicode="&#x39c;" horiz-adv-x="791" 
d="M13 0l140 659h84l102 -280c17 -49 34 -93 44 -125h2c20 29 47 68 73 102l228 303h93l-140 -659h-88l73 342c13 62 25 115 39 166h-3c-20 -29 -51 -72 -80 -108l-191 -253h-48l-92 248c-14 39 -28 76 -39 113h-2c-9 -45 -24 -117 -35 -168l-72 -340h-88z" />
    <glyph glyph-name="Nu" unicode="&#x39d;" horiz-adv-x="706" 
d="M13 0l140 659h83l217 -425c15 -29 31 -63 44 -93h2c6 35 14 73 19 101l88 417h89l-141 -659h-73l-224 439c-15 30 -32 62 -44 92h-2c-5 -36 -12 -70 -17 -95l-93 -436h-88z" />
    <glyph glyph-name="Xi" unicode="&#x39e;" horiz-adv-x="529" 
d="M-21 0l17 75h435l-16 -75h-436zM100 300l17 75h316l-17 -75h-316zM114 584l17 75h414l-32 -75h-399z" />
    <glyph glyph-name="Omicron" unicode="&#x39f;" horiz-adv-x="723" 
d="M315 -10c-161 0 -267 97 -267 276c0 208 140 399 361 399c160 0 267 -96 267 -275c0 -208 -140 -400 -361 -400zM321 66c165 0 261 167 261 323c0 126 -61 200 -178 200c-166 0 -263 -166 -263 -322c0 -125 61 -201 180 -201z" />
    <glyph glyph-name="Pi" unicode="&#x3a0;" horiz-adv-x="653" 
d="M13 0l141 659h486l-141 -659h-88l124 584h-310l-124 -584h-88z" />
    <glyph glyph-name="Rho" unicode="&#x3a1;" horiz-adv-x="504" 
d="M13 0l140 659h101c46 0 79 -5 108 -16c74 -26 119 -87 119 -169c0 -103 -61 -188 -168 -219c-33 -10 -73 -17 -125 -17h-37l-50 -238h-88zM167 311h34c35 0 63 5 85 14c69 22 105 77 105 147c0 45 -20 85 -69 103c-18 7 -41 11 -70 11h-27z" />
    <glyph glyph-name="Sigma" unicode="&#x3a3;" horiz-adv-x="506" 
d="M-37 0l264 356l-120 303h410l-32 -75h-258l93 -238l-204 -271h301l-16 -75h-438z" />
    <glyph glyph-name="Tau" unicode="&#x3a4;" horiz-adv-x="497" 
d="M134 0l124 584h-194l16 75h479l-32 -75h-181l-124 -584h-88z" />
    <glyph glyph-name="Upsilon" unicode="&#x3a5;" horiz-adv-x="572" 
d="M171 0l38 178c8 33 11 65 11 88c0 102 -44 229 -129 393h93c47 -95 91 -201 101 -306h2c47 108 149 226 226 306h108c-164 -169 -289 -313 -323 -477l-39 -182h-88z" />
    <glyph glyph-name="Phi" unicode="&#x3a6;" horiz-adv-x="760" 
d="M258 -20l13 62c-133 13 -228 96 -228 231c0 195 142 338 350 342l13 59h87l-13 -60c132 -13 228 -96 228 -231c0 -194 -143 -337 -351 -342l-12 -61h-87zM288 120l89 419c-149 -8 -243 -121 -243 -261c0 -93 53 -148 154 -158zM374 118c148 7 243 120 243 260
c0 93 -54 148 -154 158z" />
    <glyph glyph-name="Chi" unicode="&#x3a7;" horiz-adv-x="588" 
d="M-40 0l279 338l-150 321h95l117 -254l208 254h106l-275 -333l153 -326h-94l-121 258l-213 -258h-105z" />
    <glyph glyph-name="Psi" unicode="&#x3a8;" horiz-adv-x="716" 
d="M238 0l46 216c-121 12 -192 69 -192 208c0 66 14 142 41 235h86c-23 -87 -40 -167 -40 -228c0 -94 39 -133 122 -137l78 365h88l-78 -365c143 5 201 107 240 365h87c-40 -319 -138 -438 -344 -445l-45 -214h-89z" />
    <glyph glyph-name="Alphatonos" unicode="&#x386;" horiz-adv-x="606" 
d="M41 473l72 186h91l-90 -186h-73zM-21 0l350 661h70l121 -661h-92l-30 173h-232l-89 -173h-98zM206 246h180l-30 195c-4 27 -9 54 -13 87h-2c-14 -32 -25 -59 -42 -92z" />
    <glyph glyph-name="Epsilontonos" unicode="&#x388;" horiz-adv-x="530" 
d="M15 473l72 186h90l-89 -186h-73zM89 0l140 659h319l-30 -75h-217l-45 -210h214l-17 -75h-213l-47 -224h243l-16 -75h-331z" />
    <glyph glyph-name="Etatonos" unicode="&#x389;" horiz-adv-x="748" 
d="M15 473l72 186h90l-89 -186h-73zM89 0l140 659h88l-61 -286h330l61 286h88l-140 -659h-88l63 297h-330l-63 -297h-88z" />
    <glyph glyph-name="Iotatonos" unicode="&#x38a;" horiz-adv-x="329" 
d="M15 473l72 186h90l-89 -186h-73zM89 0l140 659h88l-140 -659h-88z" />
    <glyph glyph-name="Iotadieresis" unicode="&#x3aa;" horiz-adv-x="253" 
d="M13 0l140 659h88l-140 -659h-88zM116 704c-26 0 -43 17 -43 42c0 33 24 56 53 56c26 0 42 -16 42 -41c0 -33 -23 -57 -52 -57zM296 704c-26 0 -42 17 -42 42c0 33 23 56 52 56c26 0 42 -16 42 -41c0 -33 -23 -57 -52 -57z" />
    <glyph glyph-name="Omicrontonos" unicode="&#x38c;" horiz-adv-x="797" 
d="M15 473l72 186h90l-89 -186h-73zM388 -10c-160 0 -267 99 -267 278c0 211 140 397 361 397c161 0 267 -98 267 -277c0 -211 -140 -398 -361 -398zM394 66c166 0 262 164 262 320c0 126 -62 203 -179 203c-166 0 -263 -163 -263 -318c0 -126 61 -205 180 -205z" />
    <glyph glyph-name="Upsilontonos" unicode="&#x38e;" horiz-adv-x="687" 
d="M15 473l72 186h90l-89 -186h-73zM287 0l37 178c8 33 11 65 11 88c0 102 -43 229 -129 393h93c47 -95 91 -201 101 -306h2c47 108 149 226 226 306h108c-164 -169 -289 -313 -323 -477l-39 -182h-87z" />
    <glyph glyph-name="Upsilondieresis" unicode="&#x3ab;" horiz-adv-x="572" 
d="M171 0l38 178c8 33 11 65 11 88c0 102 -44 229 -129 393h93c47 -95 91 -201 101 -306h2c47 108 149 226 226 306h108c-164 -169 -289 -313 -323 -477l-39 -182h-88zM265 704c-26 0 -43 17 -43 42c0 33 24 56 53 56c26 0 42 -16 42 -41c0 -33 -23 -57 -52 -57zM445 704
c-26 0 -42 17 -42 42c0 33 23 56 52 56c26 0 42 -16 42 -41c0 -33 -23 -57 -52 -57z" />
    <glyph glyph-name="Omegatonos" unicode="&#x38f;" horiz-adv-x="792" 
d="M15 473l72 186h90l-89 -186h-73zM68 0l15 75h65c20 0 52 -3 76 -7v2c-49 46 -96 128 -96 226c0 199 139 369 350 369c175 0 267 -114 267 -255c0 -154 -92 -265 -205 -341v-2c24 5 53 8 79 8h58l-15 -75h-244l12 60c133 82 222 198 222 342c0 102 -59 187 -179 187
c-143 0 -254 -124 -254 -307c0 -84 35 -167 102 -222l-12 -60h-241z" />
    <glyph glyph-name="alpha" unicode="&#x3b1;" horiz-adv-x="564" 
d="M161 -10c-86 0 -137 69 -137 177c0 152 94 318 230 318c84 0 123 -58 132 -146h2c22 47 46 94 72 140l65 -39c-44 -73 -84 -143 -119 -207c0 -100 7 -160 59 -160c10 0 19 2 25 4v-76c-10 -4 -26 -6 -38 -6c-73 0 -101 53 -104 144h-2c-36 -76 -99 -149 -185 -149z
M179 64c71 0 124 106 155 184c-7 85 -16 163 -78 163c-81 0 -143 -139 -143 -244c0 -67 23 -103 66 -103z" />
    <glyph glyph-name="beta" unicode="&#x3b2;" horiz-adv-x="513" 
d="M220 -10c-117 0 -182 69 -182 221c0 191 113 497 324 497c84 0 138 -50 138 -129c0 -90 -61 -160 -145 -205v-2c66 -11 97 -65 97 -135c0 -123 -87 -247 -232 -247zM227 62c79 0 136 77 136 170c0 53 -27 92 -78 92c-35 0 -105 -26 -153 -43c-4 -24 -5 -48 -5 -70
c0 -97 28 -149 100 -149zM146 358c147 40 265 107 265 216c0 32 -16 61 -57 62c-88 1 -173 -133 -208 -278z" />
    <glyph glyph-name="beta.alt" horiz-adv-x="522" 
d="M-48 -237l162 765c27 121 98 180 202 180c109 0 181 -67 181 -163c0 -95 -57 -163 -128 -183v-2c59 -19 90 -65 90 -139c0 -133 -98 -231 -233 -231c-54 0 -102 17 -130 37h-2l-56 -264h-86zM222 64c88 0 148 59 148 158c0 65 -39 103 -120 103c-6 0 -17 0 -27 -1l16 73
c10 -1 20 -1 24 -1c80 0 145 55 145 146c0 59 -39 92 -91 92c-68 0 -104 -49 -121 -132l-85 -400c26 -26 69 -38 111 -38z" />
    <glyph glyph-name="gamma" unicode="&#x3b3;" horiz-adv-x="514" 
d="M69 -237c8 39 23 104 40 167c19 97 35 198 35 282c0 65 -8 198 -93 198c-12 0 -23 -2 -31 -4v74c17 3 35 5 49 5c119 0 151 -131 151 -225c0 -50 -6 -110 -15 -153h2c68 159 144 280 242 377l57 -61c-93 -95 -193 -234 -273 -404c-24 -51 -40 -104 -54 -169l-19 -87h-91z
" />
    <glyph glyph-name="delta" unicode="&#x3b4;" horiz-adv-x="527" 
d="M221 -10c-125 1 -197 76 -197 188c0 127 82 224 210 258v2c-40 35 -79 78 -79 137c0 81 68 133 165 133c77 0 161 -30 201 -51l-29 -70c-40 21 -108 47 -163 48s-85 -23 -85 -63c0 -96 222 -146 222 -339c0 -131 -99 -244 -245 -243zM223 63c90 -1 154 77 154 173
c0 70 -36 111 -82 149c-110 -26 -182 -103 -182 -206c0 -75 41 -115 110 -116z" />
    <glyph glyph-name="epsilon" unicode="&#x3b5;" horiz-adv-x="443" 
d="M184 -10c-112 0 -176 56 -176 131c0 67 47 112 113 126v2c-43 16 -64 48 -64 91c0 87 83 145 196 145c60 0 110 -12 147 -27l-15 -71c-38 18 -85 28 -130 28c-61 0 -110 -26 -110 -75c0 -34 25 -63 108 -63c17 0 43 0 62 1l-15 -67c-23 1 -50 2 -64 2
c-80 0 -139 -26 -139 -82c0 -50 45 -71 99 -71c63 0 110 14 161 39l17 -63c-45 -24 -111 -46 -190 -46z" />
    <glyph glyph-name="zeta" unicode="&#x3b6;" horiz-adv-x="438" 
d="M268 -183l-62 44c27 25 66 68 66 100c0 84 -239 50 -239 239c0 197 173 359 332 436v3c-68 -16 -139 -27 -216 -29l-7 73c87 0 238 10 332 24v-59c-183 -105 -351 -254 -351 -433c0 -155 241 -106 241 -235c0 -61 -50 -121 -96 -163z" />
    <glyph glyph-name="eta" unicode="&#x3b7;" horiz-adv-x="527" 
d="M24 0l75 352c3 12 5 23 5 31c0 18 -9 24 -24 24c-8 0 -20 -2 -30 -6v71c22 9 45 13 63 13c44 0 75 -23 75 -75c0 -8 -1 -18 -4 -29h2c42 59 106 104 176 104c63 0 109 -35 109 -116c0 -19 -2 -45 -12 -92l-109 -514h-86l108 511c7 35 10 62 10 73c0 43 -22 60 -53 60
c-35 0 -83 -22 -121 -73c-24 -31 -41 -69 -55 -133l-43 -201h-86z" />
    <glyph glyph-name="theta" unicode="&#x3b8;" horiz-adv-x="529" 
d="M184 -10c-100 0 -158 53 -158 130c0 64 39 113 39 177c0 18 -4 33 -8 47h84c5 -14 8 -29 8 -47c0 -63 -36 -111 -36 -167c0 -45 29 -67 79 -67c112 0 170 131 194 260c-146 23 -265 77 -265 207c0 101 70 178 175 178c129 0 192 -100 192 -262c0 -177 -79 -456 -304 -456
zM208 536c0 -93 91 -125 187 -140c3 23 5 47 5 65c0 97 -32 174 -103 174c-51 0 -89 -37 -89 -99z" />
    <glyph glyph-name="theta.alt" horiz-adv-x="527" 
d="M211 -10c-115 0 -173 79 -173 218c0 186 78 500 290 500c115 0 173 -79 173 -218c0 -186 -78 -500 -290 -500zM215 64c92 0 152 127 178 258h-257c-7 -43 -10 -85 -10 -118c0 -92 24 -140 89 -140zM149 393h256c5 37 8 72 8 103c0 90 -25 138 -89 138
c-89 0 -148 -117 -175 -241z" />
    <glyph glyph-name="iota" unicode="&#x3b9;" horiz-adv-x="260" 
d="M126 -6c-60 0 -99 32 -99 87c0 11 1 24 5 44l75 348h86l-74 -345c-3 -15 -3 -21 -3 -27c0 -22 13 -30 33 -30c15 0 27 3 39 7v-74c-19 -7 -40 -10 -62 -10z" />
    <glyph glyph-name="kappa" unicode="&#x3ba;" horiz-adv-x="502" 
d="M2 0l102 473h86l-34 -160c-4 -19 -9 -42 -16 -66l2 -1c87 115 249 200 330 236l35 -71c-59 -26 -160 -78 -240 -142l150 -269h-99l-118 217c-47 -42 -84 -88 -94 -135l-17 -82h-87z" />
    <glyph glyph-name="lambda" unicode="&#x3bb;" horiz-adv-x="490" 
d="M-34 0l273 484c-16 126 -45 150 -89 150c-17 0 -34 -3 -53 -10l-16 67c24 10 53 17 82 17c97 0 142 -62 162 -252c19 -180 44 -332 110 -456h-95c-40 80 -70 218 -83 361h-2l-192 -361h-97z" />
    <glyph glyph-name="uni03BC" unicode="&#x3bc;" horiz-adv-x="544" 
d="M-47 -237l153 710h86l-58 -274c-7 -29 -9 -53 -9 -64c0 -50 29 -69 64 -69c63 0 130 52 153 165l53 242h86l-70 -328c-6 -30 -6 -40 -6 -45c0 -19 9 -28 30 -28c9 0 22 2 32 6v-74c-16 -6 -37 -10 -56 -10c-44 0 -74 22 -77 69c0 6 0 17 1 23h-2
c-41 -63 -97 -96 -155 -96c-32 0 -65 12 -82 44h-2c-6 -45 -14 -88 -22 -126l-32 -145h-87z" />
    <glyph glyph-name="nu" unicode="&#x3bd;" horiz-adv-x="471" 
d="M115 -3l-81 476h87l59 -376h2c99 94 161 192 161 319c0 19 -1 38 -4 57h90c3 -17 4 -34 4 -51c0 -173 -100 -293 -257 -425h-61z" />
    <glyph glyph-name="xi" unicode="&#x3be;" horiz-adv-x="432" 
d="M198 -139c26 24 66 63 66 95c0 82 -235 47 -235 215c0 87 66 154 153 175v2c-37 14 -68 44 -68 94c0 81 75 145 200 191v3c-58 -11 -127 -21 -184 -22l-6 72c85 0 241 8 338 19v-54c-156 -56 -256 -115 -256 -199c0 -56 51 -73 117 -73c14 0 33 1 51 2l-13 -70
c-17 2 -36 2 -46 2c-94 0 -196 -36 -196 -125c0 -128 237 -79 237 -210c0 -64 -52 -122 -96 -161z" />
    <glyph glyph-name="omicron" unicode="&#x3bf;" horiz-adv-x="514" 
d="M209 -10c-124 0 -185 82 -185 186c0 182 117 309 257 309c123 0 184 -82 184 -186c0 -182 -116 -309 -256 -309zM212 63c99 0 164 112 164 231c0 73 -30 118 -98 118c-99 0 -165 -112 -165 -231c0 -73 31 -118 99 -118z" />
    <glyph glyph-name="rho" unicode="&#x3c1;" horiz-adv-x="521" 
d="M-48 -237l106 505c32 148 103 217 223 217c110 0 190 -69 190 -198c0 -155 -99 -297 -254 -297c-49 0 -94 15 -121 36h-2l-56 -263h-86zM213 64c108 0 169 108 169 226c0 84 -43 121 -103 121c-82 0 -117 -65 -138 -165l-31 -146c29 -25 64 -36 103 -36z" />
    <glyph glyph-name="onefifth" horiz-adv-x="886" 
d="M130 0l491 659h77l-490 -659h-78zM147 270l65 308c-35 -18 -79 -31 -117 -39v63c45 10 110 38 144 57h63l-83 -389h-72zM495 13l23 57c26 -11 55 -18 88 -18c52 0 94 21 94 69c0 21 -9 38 -31 48c-13 5 -30 8 -54 8h-64l42 204h225l-17 -62h-149l-19 -88h10
c30 0 50 -3 66 -9c41 -17 66 -50 66 -95c0 -86 -68 -135 -171 -135c-38 0 -77 7 -109 21z" />
    <glyph glyph-name="twofifths" horiz-adv-x="886" 
d="M186 0l491 659h77l-490 -659h-78zM50 270c28 201 229 202 229 287c0 24 -18 41 -54 41c-34 0 -70 -13 -101 -29l-19 57c40 20 85 34 131 34c77 0 118 -41 118 -96c0 -121 -176 -139 -204 -231h176l-10 -63h-266zM535 13l23 57c26 -11 55 -18 88 -18c52 0 94 21 94 69
c0 21 -9 38 -31 48c-13 5 -30 8 -54 8h-64l42 204h225l-17 -62h-149l-19 -88h10c30 0 50 -3 66 -9c41 -17 66 -50 66 -95c0 -86 -68 -135 -171 -135c-38 0 -77 7 -109 21z" />
    <glyph glyph-name="onehalf.afrc" horiz-adv-x="377" 
d="M177 434l65 308c-35 -18 -79 -31 -117 -39v63c45 10 110 38 144 57h63l-83 -389h-72zM-12 -181c28 201 229 202 229 287c0 24 -18 41 -54 41c-34 0 -70 -13 -101 -29l-19 57c40 20 85 34 131 34c77 0 118 -41 118 -96c0 -121 -176 -139 -204 -231h176l-10 -63h-266z
M-7 287l13 60h378l-13 -60h-378z" />
    <glyph glyph-name="onethird.afrc" horiz-adv-x="377" 
d="M177 434l65 308c-35 -18 -79 -31 -117 -39v63c45 10 110 38 144 57h63l-83 -389h-72zM-7 287l13 60h378l-13 -60h-378zM-4 -166l24 56c28 -12 58 -18 89 -18c55 0 90 22 90 63c0 35 -30 51 -85 51h-50l9 56h40c66 2 101 27 101 64c0 26 -17 42 -57 42
c-31 0 -61 -8 -89 -20l-18 55c32 14 74 26 122 26c77 0 118 -39 118 -91c0 -53 -38 -87 -83 -101v-2c38 -7 68 -34 68 -79c0 -74 -60 -124 -167 -124c-41 0 -83 8 -112 22z" />
    <glyph glyph-name="twothirds.afrc" horiz-adv-x="377" 
d="M75 434c28 201 229 202 229 287c0 24 -18 41 -54 41c-34 0 -70 -13 -101 -29l-19 57c40 20 85 34 131 34c77 0 118 -41 118 -96c0 -121 -176 -139 -204 -231h176l-10 -63h-266zM-7 287l13 60h378l-13 -60h-378zM-4 -166l24 56c28 -12 58 -18 89 -18c55 0 90 22 90 63
c0 35 -30 51 -85 51h-50l9 56h40c66 2 101 27 101 64c0 26 -17 42 -57 42c-31 0 -61 -8 -89 -20l-18 55c32 14 74 26 122 26c77 0 118 -39 118 -91c0 -53 -38 -87 -83 -101v-2c38 -7 68 -34 68 -79c0 -74 -60 -124 -167 -124c-41 0 -83 8 -112 22z" />
    <glyph glyph-name="onequarter.afrc" horiz-adv-x="377" 
d="M177 434l65 308c-35 -18 -79 -31 -117 -39v63c45 10 110 38 144 57h63l-83 -389h-72zM141 -181l17 86h-162l-11 50l238 253h72l-53 -247h54l-11 -56h-55l-18 -86h-71zM171 -39l8 38c8 32 15 66 27 110l-139 -149zM-7 287l13 60h378l-13 -60h-378z" />
    </font>
</defs>
</svg>
