<?xml version="1.0" standalone="no"?>
<!DOCTYPE svg PUBLIC "-//W3C//DTD SVG 1.1//EN" "http://www.w3.org/Graphics/SVG/1.1/DTD/svg11.dtd" >
<svg xmlns="http://www.w3.org/2000/svg" xmlns:xlink="http://www.w3.org/1999/xlink" version="1.1">
<metadata>
Created by FontForge 20161116 at Thu Dec  7 00:08:42 2006
 By Jimmy Wärting
Copyright (c) JT Types Ltd, 2006. All rights reserved.
</metadata>
<defs>
<font id="BlissPro-ExtraLightItalic" horiz-adv-x="505" >
  <font-face 
    font-family="Bliss Pro ExtraLight"
    font-weight="200"
    font-style="italic"
    font-stretch="normal"
    units-per-em="1000"
    panose-1="2 0 5 6 4 0 0 9 0 4"
    ascent="800"
    descent="-200"
    x-height="473"
    cap-height="659"
    bbox="-216 -241 1059 953"
    underline-thickness="50"
    underline-position="-100"
    slope="-12"
    stemh="46"
    stemv="56"
    unicode-range="U+0020-FB02"
  />
<missing-glyph horiz-adv-x="550" 
d="M50 0v659h450v-659h-450zM101 48h348v563h-348v-563zM231 222c-20 20 -29 38 -29 60c0 76 130 98 130 172c0 29 -23 47 -55 47c-31 0 -58 -15 -85 -39l-27 35c29 30 70 51 117 51c65 0 106 -38 106 -91c0 -91 -132 -129 -132 -172c0 -16 9 -26 17 -35zM255 107
c-22 0 -38 17 -38 39c0 23 16 40 38 40c21 0 37 -17 37 -40c0 -22 -16 -39 -37 -39z" />
    <glyph glyph-name="fi" unicode="fi" horiz-adv-x="504" 
d="M-84 -193c117 111 160 261 211 620h-65l6 46h66l12 71c6 36 15 64 27 86c34 60 86 78 134 78c26 0 53 -5 72 -16l-17 -43c-12 6 -33 12 -55 12c-59 0 -94 -37 -107 -111l-13 -77h106l-19 -46h-94c-48 -321 -89 -530 -232 -658zM311 0l99 473h52l-99 -473h-52zM463 593
c-22 0 -34 13 -34 33c0 28 22 47 45 47c22 0 34 -13 34 -33c0 -28 -22 -47 -45 -47z" />
    <glyph glyph-name="fl" unicode="fl" horiz-adv-x="516" 
d="M-84 -193c117 111 160 261 211 620h-65l6 46h66l12 71c6 36 15 64 27 86c34 60 86 78 134 78c26 0 53 -5 72 -16l-17 -43c-12 6 -33 12 -55 12c-59 0 -94 -37 -107 -111l-13 -77h106l-19 -46h-94c-48 -321 -89 -530 -232 -658zM378 -5c-42 0 -67 20 -67 63c0 9 2 24 6 43
l127 607h52l-127 -610c-3 -12 -4 -24 -4 -29c0 -18 9 -26 27 -26c11 0 24 3 39 9v-46c-16 -8 -41 -11 -53 -11z" />
    <glyph glyph-name=".notdef" horiz-adv-x="550" 
d="M50 0v659h450v-659h-450zM101 48h348v563h-348v-563zM231 222c-20 20 -29 38 -29 60c0 76 130 98 130 172c0 29 -23 47 -55 47c-31 0 -58 -15 -85 -39l-27 35c29 30 70 51 117 51c65 0 106 -38 106 -91c0 -91 -132 -129 -132 -172c0 -16 9 -26 17 -35zM255 107
c-22 0 -38 17 -38 39c0 23 16 40 38 40c21 0 37 -17 37 -40c0 -22 -16 -39 -37 -39z" />
    <glyph glyph-name="space" unicode=" " horiz-adv-x="190" 
 />
    <glyph glyph-name="breve" unicode="&#x2d8;" horiz-adv-x="350" 
d="M174 546c-70 0 -105 45 -100 114h42c0 -43 16 -71 62 -71c48 0 73 31 87 71h43c-15 -69 -64 -114 -134 -114z" />
    <glyph glyph-name="dotaccent" unicode="&#x2d9;" horiz-adv-x="350" 
d="M185 593c-22 0 -34 13 -34 33c0 28 22 47 45 47c22 0 34 -13 34 -33c0 -28 -22 -47 -45 -47z" />
    <glyph glyph-name="ring" unicode="&#x2da;" horiz-adv-x="350" 
d="M180 524c-53 0 -90 34 -90 86c0 64 48 102 104 102c53 0 90 -34 90 -86c0 -64 -48 -102 -104 -102zM181 560c35 0 59 27 59 66c0 30 -18 50 -47 50c-35 0 -59 -27 -59 -66c0 -30 18 -50 47 -50z" />
    <glyph glyph-name="hungarumlaut" unicode="&#x2dd;" horiz-adv-x="350" 
d="M69 531l77 147h67l-100 -147h-44zM224 531l77 147h67l-100 -147h-44z" />
    <glyph glyph-name="ogonek" unicode="&#x2db;" horiz-adv-x="350" 
d="M151 -212c-54 0 -72 33 -72 67c0 80 79 130 136 158l55 -13c-68 -32 -141 -79 -141 -135c0 -21 10 -35 35 -35c11 0 24 3 39 8l6 -40c-23 -7 -42 -10 -58 -10z" />
    <glyph glyph-name="caron" unicode="&#x2c7;" horiz-adv-x="350" 
d="M146 532l-78 147h50l59 -109l91 109h53l-118 -147h-57z" />
    <glyph glyph-name="dotlessi" unicode="&#x131;" horiz-adv-x="203" 
d="M11 0l99 473h52l-99 -473h-52z" />
    <glyph glyph-name="fraction" unicode="&#x2044;" horiz-adv-x="102" 
d="M-216 0l486 659h53l-486 -659h-53z" />
    <glyph glyph-name="Lslash" unicode="&#x141;" horiz-adv-x="414" 
d="M15 0l54 257l-63 -34l12 54l63 34l72 348h52l-66 -319l174 93l-12 -54l-173 -92l-51 -241h248l-10 -46h-300z" />
    <glyph glyph-name="lslash" unicode="&#x142;" horiz-adv-x="235" 
d="M97 -5c-42 0 -67 20 -67 63c0 9 2 24 6 43l40 194l-62 -32l12 56l62 32l75 357h52l-68 -327l73 38l-12 -56l-73 -39l-47 -226c-3 -12 -4 -24 -4 -29c0 -18 9 -26 27 -26c11 0 24 3 39 9v-46c-16 -8 -41 -11 -53 -11z" />
    <glyph glyph-name="Zcaron" unicode="&#x17d;" 
d="M-20 0l436 613h-306l-7 46h405l-435 -613h341l-10 -46h-424zM267 697l-78 147h50l59 -109l91 109h53l-118 -147h-57z" />
    <glyph glyph-name="zcaron" unicode="&#x17e;" horiz-adv-x="354" 
d="M-23 0l281 427h-199l-7 46h295l-282 -427h220l-9 -46h-299zM180 532l-78 147h50l59 -109l91 109h53l-118 -147h-57z" />
    <glyph glyph-name="exclam" unicode="!" horiz-adv-x="267" 
d="M75 -7c-22 0 -36 19 -36 38c0 26 18 44 42 44c22 0 36 -19 36 -38c0 -26 -18 -44 -42 -44zM87 167c11 127 25 190 77 439l11 53h52l-11 -52c-53 -249 -64 -313 -105 -440h-24z" />
    <glyph glyph-name="quotedbl" unicode="&#x22;" horiz-adv-x="428" 
d="M180 496l-34 6l48 210l55 -12zM326 496l-34 6l48 210l55 -12z" />
    <glyph glyph-name="numbersign" unicode="#" horiz-adv-x="653" 
d="M101 0l58 185h-131l5 48h141l61 192h-129l5 48h139l58 185h52l-58 -185h139l58 185h52l-58 -185h131l-5 -48h-141l-61 -192h129l-5 -48h-139l-58 -185h-52l58 185h-139l-58 -185h-52zM226 233h139l61 192h-139z" />
    <glyph glyph-name="dollar" unicode="$" horiz-adv-x="513" 
d="M142 -78l21 96c-49 5 -87 21 -111 37l19 45c24 -16 67 -35 118 -35c69 0 140 29 140 128c0 148 -196 143 -196 298c0 93 69 152 164 158l18 89h50l-19 -91c34 -4 63 -13 89 -26l-10 -48c-30 16 -70 28 -115 28c-61 0 -123 -29 -123 -101c0 -131 196 -123 196 -304
c0 -117 -81 -170 -171 -178l-20 -96h-50z" />
    <glyph glyph-name="percent" unicode="%" horiz-adv-x="850" 
d="M153 0l486 659h53l-486 -659h-53zM228 320c-68 0 -115 43 -115 129c0 123 68 215 166 215c68 0 115 -43 115 -129c0 -123 -68 -215 -166 -215zM232 363c67 0 113 76 113 166c0 66 -26 92 -70 92c-67 0 -113 -76 -113 -166c0 -66 26 -92 70 -92zM561 -10
c-68 0 -115 43 -115 129c0 123 68 215 166 215c68 0 115 -43 115 -129c0 -123 -68 -215 -166 -215zM565 33c67 0 113 76 113 166c0 66 -26 92 -70 92c-67 0 -113 -76 -113 -166c0 -66 26 -92 70 -92z" />
    <glyph glyph-name="ampersand" unicode="&#x26;" horiz-adv-x="757" 
d="M246 -10c-120 0 -207 70 -207 177c0 113 79 187 209 210v2c-58 27 -87 78 -87 131c0 98 84 154 189 154c68 0 124 -18 157 -34l-16 -47c-38 19 -85 33 -140 33c-66 0 -134 -25 -134 -103c0 -67 53 -108 118 -127l-10 -44c-135 0 -230 -65 -230 -162
c0 -85 53 -142 154 -142c138 0 266 93 308 292h-85l10 46h241l-19 -46h-95c-52 -248 -216 -340 -363 -340z" />
    <glyph glyph-name="quotesingle" unicode="'" horiz-adv-x="282" 
d="M180 496l-34 6l48 210l55 -12z" />
    <glyph glyph-name="parenleft" unicode="(" horiz-adv-x="320" 
d="M173 -232c-67 99 -92 228 -92 367c0 195 70 442 244 634l35 -32c-145 -163 -225 -389 -225 -597c0 -170 28 -255 79 -348z" />
    <glyph glyph-name="parenright" unicode=")" horiz-adv-x="320" 
d="M-5 -232l-35 32c145 163 225 389 225 597c0 170 -28 255 -79 348l41 24c67 -99 92 -228 92 -367c0 -195 -70 -442 -244 -634z" />
    <glyph glyph-name="asterisk" unicode="*" horiz-adv-x="480" 
d="M221 346l-44 18c19 46 49 99 72 144c-50 -10 -108 -24 -158 -30l-6 46c50 5 109 7 160 10c-33 38 -74 81 -104 122l37 29c30 -40 61 -94 89 -136c17 49 34 107 54 153l43 -19c-19 -46 -49 -98 -73 -143c50 9 109 23 159 29l5 -47c-49 -6 -109 -6 -160 -9
c33 -39 74 -82 104 -122l-39 -28c-30 41 -60 92 -87 135c-16 -48 -32 -105 -52 -152z" />
    <glyph glyph-name="plus" unicode="+" horiz-adv-x="511" 
d="M217 0v231h-212v47h212v225h51v-225h212v-47h-212v-231h-51z" />
    <glyph glyph-name="comma" unicode="," horiz-adv-x="206" 
d="M-37 -118l-19 21c62 65 81 126 82 202h59c-3 -93 -30 -162 -122 -223z" />
    <glyph glyph-name="hyphen" unicode="-" horiz-adv-x="351" 
d="M30 222l11 50h243l-11 -50h-243z" />
    <glyph glyph-name="period" unicode="." horiz-adv-x="206" 
d="M44 -7c-22 0 -36 19 -36 38c0 26 18 44 42 44c22 0 36 -19 36 -38c0 -26 -18 -44 -42 -44z" />
    <glyph glyph-name="slash" unicode="/" horiz-adv-x="379" 
d="M1 -32l326 728h53l-326 -728h-53z" />
    <glyph glyph-name="zero" unicode="0" horiz-adv-x="515" 
d="M198 -10c-103 0 -164 70 -164 216c0 233 115 458 280 458c103 0 164 -70 164 -216c0 -233 -115 -458 -280 -458zM201 38c119 0 221 192 221 420c0 109 -38 158 -111 158c-119 0 -221 -192 -221 -420c0 -109 38 -158 111 -158z" />
    <glyph glyph-name="one" unicode="1" horiz-adv-x="398" 
d="M133 0l124 592c-41 -26 -116 -54 -167 -67v47c48 14 138 54 191 92h43l-139 -664h-52z" />
    <glyph glyph-name="two" unicode="2" 
d="M14 0c53 358 378 338 378 517c0 66 -44 99 -112 99c-57 0 -111 -20 -154 -40l-14 44c37 19 103 44 172 44c94 0 164 -52 164 -144c0 -206 -306 -193 -368 -474h318l-10 -46h-374z" />
    <glyph glyph-name="three" unicode="3" horiz-adv-x="513" 
d="M8 29l27 43c33 -20 81 -34 132 -34c79 0 193 37 193 156c0 89 -72 116 -178 116h-65l4 48h41c29 0 60 1 93 10c69 19 131 67 131 148c0 70 -53 100 -121 100c-57 0 -108 -18 -146 -37l-14 43c41 21 98 42 166 42c105 0 171 -58 171 -150c0 -89 -61 -145 -145 -175v-2
c61 -13 119 -51 119 -141c0 -120 -101 -206 -247 -206c-69 0 -118 15 -161 39z" />
    <glyph glyph-name="four" unicode="4" horiz-adv-x="560" 
d="M287 0l37 181h-272l-7 48l390 435h42l-91 -437h98l-10 -46h-98l-37 -181h-52zM335 227l36 169c12 54 24 106 42 176l-308 -345h93h137z" />
    <glyph glyph-name="five" unicode="5" 
d="M8 29l27 43c34 -22 78 -34 129 -34c96 0 192 57 192 171c0 95 -73 129 -172 129h-84l63 321h310l-13 -46h-252l-46 -228h33c146 0 217 -74 217 -173c0 -134 -105 -222 -253 -222c-71 0 -122 20 -151 39z" />
    <glyph glyph-name="six" unicode="6" horiz-adv-x="550" 
d="M257 -10c-109 0 -185 69 -185 232c0 252 148 442 357 442c16 0 44 -2 69 -8l-16 -45c-15 3 -33 5 -51 5c-177 0 -283 -158 -304 -309h2c31 53 101 90 167 90c104 0 174 -68 174 -185c0 -118 -90 -222 -213 -222zM257 38c84 0 157 71 157 176c0 74 -38 135 -123 135
c-81 0 -161 -64 -161 -172c0 -74 43 -139 127 -139z" />
    <glyph glyph-name="seven" unicode="7" horiz-adv-x="451" 
d="M63 0c72 265 191 451 328 613h-311l-7 46h396v-26c-146 -163 -285 -386 -347 -633h-59z" />
    <glyph glyph-name="eight" unicode="8" horiz-adv-x="550" 
d="M245 -10c-118 0 -201 62 -201 167c0 97 73 155 157 184v2c-47 26 -90 73 -90 145c0 103 89 176 208 176c107 0 187 -58 187 -154c0 -90 -81 -150 -155 -174v-2c78 -28 123 -81 123 -154c0 -120 -114 -190 -229 -190zM244 38c98 0 174 54 174 142c0 69 -62 115 -160 137
c-96 -25 -158 -82 -158 -157c0 -92 80 -122 144 -122zM284 358c86 21 166 65 166 151c0 76 -63 108 -134 108c-70 0 -149 -38 -149 -127c0 -57 44 -113 117 -132z" />
    <glyph glyph-name="nine" unicode="9" horiz-adv-x="565" 
d="M61 10l13 47c21 -10 60 -19 88 -19c152 0 231 99 262 268h-2c-48 -37 -113 -56 -168 -56c-93 0 -172 59 -172 182c0 142 94 232 205 232c128 0 202 -94 202 -241c0 -302 -140 -433 -321 -433c-48 0 -85 10 -107 20zM263 298c64 0 122 30 167 66c3 19 5 40 5 61
c0 113 -54 191 -148 191c-81 0 -149 -74 -149 -183c0 -82 44 -135 125 -135z" />
    <glyph glyph-name="colon" unicode=":" horiz-adv-x="206" 
d="M44 -7c-22 0 -36 19 -36 38c0 26 18 44 42 44c22 0 36 -19 36 -38c0 -26 -18 -44 -42 -44zM120 355c-22 0 -36 19 -36 38c0 26 18 44 42 44c22 0 36 -19 36 -38c0 -26 -18 -44 -42 -44z" />
    <glyph glyph-name="semicolon" unicode=";" horiz-adv-x="206" 
d="M-37 -118l-19 21c62 65 81 126 82 202h59c-3 -93 -30 -162 -122 -223zM102 355c-22 0 -36 19 -36 38c0 26 18 44 42 44c22 0 36 -19 36 -38c0 -26 -18 -44 -42 -44z" />
    <glyph glyph-name="less" unicode="&#x3c;" horiz-adv-x="614" 
d="M80 234v52l414 193v-51l-360 -167v-2l360 -167v-51z" />
    <glyph glyph-name="equal" unicode="=" horiz-adv-x="511" 
d="M13 154v47h475v-47h-475zM13 309v47h475v-47h-475z" />
    <glyph glyph-name="greater" unicode="&#x3e;" horiz-adv-x="614" 
d="M120 41v51l360 167v2l-360 167v51l414 -193v-52z" />
    <glyph glyph-name="question" unicode="?" horiz-adv-x="452" 
d="M132 -7c-22 0 -36 19 -36 38c0 26 18 44 42 44c22 0 36 -19 36 -38c0 -26 -18 -44 -42 -44zM135 167c11 214 231 242 231 369c0 56 -41 81 -90 81c-50 0 -95 -18 -140 -50l-20 39c62 45 113 58 166 58c68 0 139 -37 139 -121c0 -33 -10 -62 -26 -86
c-59 -88 -197 -140 -227 -290h-33z" />
    <glyph glyph-name="at" unicode="@" horiz-adv-x="764" 
d="M342 -140c-176 0 -302 129 -302 330c0 233 163 380 353 380c189 0 331 -126 331 -311c0 -154 -76 -229 -166 -229c-51 0 -88 31 -94 85h-2c-19 -39 -68 -83 -134 -83c-58 0 -118 38 -118 153c0 133 86 224 194 224c49 0 92 -16 128 -39l-22 -167c-2 -18 -4 -34 -4 -50
c0 -44 13 -76 57 -76c64 0 109 72 109 180c0 135 -96 268 -281 268c-162 0 -298 -125 -298 -333c0 -184 113 -287 257 -287c39 0 88 8 122 23l14 -42c-46 -19 -100 -26 -144 -26zM337 79c46 0 112 29 130 175l11 88c-24 17 -52 22 -74 22c-79 0 -140 -74 -140 -177
c0 -70 28 -108 73 -108z" />
    <glyph glyph-name="A" unicode="A" horiz-adv-x="537" 
d="M-33 0l333 661h36l115 -661h-55l-31 182h-250l-90 -182h-58zM139 228h217l-37 232c-5 33 -10 65 -16 105h-2c-18 -40 -30 -69 -52 -113z" />
    <glyph glyph-name="B" unicode="B" horiz-adv-x="517" 
d="M14 0l138 659h123c127 0 172 -78 172 -150c0 -82 -45 -139 -118 -167v-2c53 -13 105 -60 105 -132c0 -106 -86 -208 -278 -208h-142zM142 361h98c115 0 152 91 152 146c0 57 -31 106 -119 106h-79zM76 46h98c132 0 204 70 204 159c0 69 -48 110 -129 110h-117z" />
    <glyph glyph-name="C" unicode="C" horiz-adv-x="575" 
d="M302 -10c-138 0 -257 81 -257 265c0 227 151 409 368 409c66 0 118 -16 160 -37l-12 -48c-35 20 -90 37 -145 37c-186 0 -315 -157 -315 -356c0 -131 71 -222 199 -222c65 0 120 16 176 46l12 -45c-51 -29 -119 -49 -186 -49z" />
    <glyph glyph-name="D" unicode="D" horiz-adv-x="604" 
d="M14 0l138 659h85c72 0 129 -9 177 -30c90 -39 145 -116 145 -238c0 -157 -72 -296 -222 -357c-54 -22 -120 -34 -201 -34h-122zM76 46h72c67 0 124 11 169 30c125 53 186 178 186 316c0 97 -38 163 -119 197c-38 16 -84 24 -151 24h-39z" />
    <glyph glyph-name="E" unicode="E" horiz-adv-x="441" 
d="M14 0l138 659h284l-19 -46h-223l-52 -252h217l-10 -46h-217l-56 -269h248l-10 -46h-300z" />
    <glyph glyph-name="F" unicode="F" horiz-adv-x="421" 
d="M14 0l138 659h284l-19 -46h-223l-52 -252h217l-10 -46h-217l-65 -315h-53z" />
    <glyph glyph-name="G" unicode="G" horiz-adv-x="631" 
d="M301 -10c-128 0 -256 81 -256 268c0 219 152 406 375 406c66 0 125 -16 171 -37l-12 -48c-39 20 -100 38 -155 38c-182 0 -323 -147 -323 -350c0 -162 93 -229 204 -229c58 0 114 11 150 32l50 238h52l-56 -266c-35 -25 -114 -52 -200 -52z" />
    <glyph glyph-name="H" unicode="H" horiz-adv-x="621" 
d="M14 0l138 659h52l-63 -301h351l63 301h52l-138 -659h-52l65 312h-351l-65 -312h-52z" />
    <glyph glyph-name="I" unicode="I" horiz-adv-x="218" 
d="M14 0l138 659h52l-138 -659h-52z" />
    <glyph glyph-name="J" unicode="J" horiz-adv-x="260" 
d="M-140 -167l18 45c17 -7 38 -11 63 -11c42 0 69 15 87 48c12 22 21 51 28 85l138 659h52l-136 -649c-10 -48 -21 -88 -38 -119c-25 -45 -66 -72 -138 -72c-24 0 -52 5 -74 14z" />
    <glyph glyph-name="K" unicode="K" horiz-adv-x="507" 
d="M14 0l138 659h52l-66 -317h3l302 317h64l-327 -341l230 -318h-65l-214 300h-2l-63 -300h-52z" />
    <glyph glyph-name="L" unicode="L" horiz-adv-x="414" 
d="M14 0l138 659h52l-128 -613h248l-10 -46h-300z" />
    <glyph glyph-name="M" unicode="M" horiz-adv-x="756" 
d="M14 0l138 659h53l107 -312c17 -50 34 -98 46 -136h2c21 31 51 74 74 106l251 342h57l-138 -659h-52l75 358c15 73 30 137 48 206h-2c-24 -34 -59 -84 -91 -127l-216 -291h-36l-100 285c-16 45 -32 91 -44 133h-2c-11 -51 -25 -119 -37 -176l-81 -388h-52z" />
    <glyph glyph-name="N" unicode="N" horiz-adv-x="659" 
d="M14 0l138 659h48l230 -471c15 -31 32 -67 45 -98h2c7 41 14 78 21 111l95 458h52l-138 -659h-39l-237 485c-15 31 -32 65 -44 96h-2c-6 -44 -14 -81 -19 -105l-100 -476h-52z" />
    <glyph glyph-name="O" unicode="O" horiz-adv-x="698" 
d="M304 -10c-154 0 -259 93 -259 278c0 198 132 396 349 396c154 0 259 -91 259 -276c0 -198 -132 -398 -349 -398zM307 38c188 0 290 185 290 352c0 141 -68 226 -204 226c-190 0 -292 -183 -292 -349c0 -141 67 -229 206 -229z" />
    <glyph glyph-name="P" unicode="P" horiz-adv-x="477" 
d="M14 0l138 659h69c42 0 71 -4 97 -12c78 -25 123 -87 123 -171c0 -104 -68 -190 -179 -216c-26 -6 -58 -10 -101 -10h-43l-52 -250h-52zM128 296h40c35 0 63 3 85 9c87 23 133 90 133 174c0 55 -25 103 -87 124c-21 7 -46 10 -78 10h-27z" />
    <glyph glyph-name="Q" unicode="Q" horiz-adv-x="698" 
d="M45 268c0 198 132 396 349 396c154 0 259 -91 259 -276c0 -198 -132 -398 -349 -398c-13 0 -28 1 -43 4v-2c42 -29 104 -104 206 -104c34 0 67 6 94 15l12 -43c-38 -14 -77 -19 -114 -19c-114 0 -209 81 -259 141c-34 41 -88 77 -118 132c-27 49 -37 98 -37 154zM307 38
c188 0 290 185 290 352c0 141 -68 226 -204 226c-190 0 -292 -183 -292 -349c0 -141 67 -229 206 -229z" />
    <glyph glyph-name="R" unicode="R" horiz-adv-x="504" 
d="M14 0l138 659h105c136 0 193 -81 193 -160c0 -114 -68 -176 -184 -197v-2c9 -16 25 -46 47 -94l94 -206h-59l-73 164c-24 53 -46 98 -62 129h-86l-61 -293h-52zM137 339h65c121 0 193 53 193 155c0 64 -37 119 -143 119h-58z" />
    <glyph glyph-name="S" unicode="S" horiz-adv-x="453" 
d="M8 30l21 44c25 -17 71 -36 125 -36c74 0 151 34 151 134c0 160 -209 161 -209 327c0 101 80 165 189 165c52 0 96 -12 132 -30l-11 -47c-32 17 -74 30 -122 30c-66 0 -133 -35 -133 -112c0 -137 209 -142 209 -328c0 -133 -101 -187 -208 -187c-64 0 -114 21 -144 40z
" />
    <glyph glyph-name="T" unicode="T" horiz-adv-x="454" 
d="M131 0l128 613h-193l10 46h440l-19 -46h-186l-128 -613h-52z" />
    <glyph glyph-name="U" unicode="U" horiz-adv-x="614" 
d="M252 -10c-121 0 -194 66 -194 182c0 27 5 56 11 85l84 402h52l-83 -397c-6 -30 -11 -59 -11 -86c0 -93 57 -139 147 -139c65 0 110 18 142 51c30 31 48 76 60 132l92 439h52l-94 -451c-14 -69 -38 -119 -73 -154c-45 -45 -105 -64 -185 -64z" />
    <glyph glyph-name="V" unicode="V" horiz-adv-x="524" 
d="M198 -3l-128 662h57l80 -433c9 -51 14 -82 22 -139h2c19 44 37 79 63 128l230 444h60l-350 -662h-36z" />
    <glyph glyph-name="W" unicode="W" horiz-adv-x="784" 
d="M157 -3l-87 662h58l49 -421c6 -49 10 -86 16 -155h2c22 56 40 99 62 145l155 321l-14 110h56l49 -421c6 -49 10 -93 15 -155h2c20 56 39 99 61 145l203 431h60l-321 -662h-41l-41 324c-7 55 -12 94 -16 143h-2c-25 -58 -43 -96 -69 -150l-153 -317h-44z" />
    <glyph glyph-name="X" unicode="X" horiz-adv-x="562" 
d="M-29 0l272 336l-149 323h59l129 -283l230 283h65l-270 -335l149 -324h-57l-132 285l-231 -285h-65z" />
    <glyph glyph-name="Y" unicode="Y" horiz-adv-x="469" 
d="M157 0l52 253l-139 406h57l114 -346h2l226 346h60l-267 -406l-53 -253h-52z" />
    <glyph glyph-name="Z" unicode="Z" 
d="M-20 0l436 613h-306l-7 46h405l-435 -613h341l-10 -46h-424z" />
    <glyph glyph-name="bracketleft" unicode="[" horiz-adv-x="300" 
d="M-10 -232l210 1002h145l-9 -43h-95l-192 -916h94l-8 -43h-145z" />
    <glyph glyph-name="backslash" unicode="\" horiz-adv-x="379" 
d="M259 -32l-195 728h49l195 -728h-49z" />
    <glyph glyph-name="bracketright" unicode="]" horiz-adv-x="300" 
d="M-85 -232l9 43h95l192 916h-94l8 43h145l-210 -1002h-145z" />
    <glyph glyph-name="asciicircum" unicode="^" horiz-adv-x="614" 
d="M117 287l164 372h52l164 -372h-51l-138 318h-2l-138 -318h-51z" />
    <glyph glyph-name="underscore" unicode="_" horiz-adv-x="438" 
d="M-84 -110l10 44h450l-10 -44h-450z" />
    <glyph glyph-name="grave" unicode="`" horiz-adv-x="350" 
d="M158 531l-73 147h67l50 -147h-44z" />
    <glyph glyph-name="a" unicode="a" horiz-adv-x="449" 
d="M131 -10c-74 0 -121 51 -121 122c0 56 22 99 60 128c42 32 102 45 174 46l82 1c5 21 8 46 8 69c0 53 -29 81 -92 81c-49 0 -101 -17 -144 -39l-8 47c49 25 107 40 156 40c73 0 140 -33 140 -128c0 -39 -10 -82 -18 -119l-7 -34c-13 -62 -19 -105 -19 -140
c0 -22 3 -41 7 -58l-45 -10c-5 19 -11 49 -11 83c-40 -50 -98 -89 -162 -89zM141 38c69 0 148 66 165 157l10 45h-45c-74 0 -128 -8 -162 -33c-28 -20 -43 -51 -43 -88c0 -53 25 -81 75 -81z" />
    <glyph glyph-name="b" unicode="b" horiz-adv-x="479" 
d="M15 9l146 699h52l-48 -229c-5 -25 -13 -56 -22 -88h2c31 49 90 94 153 94c76 0 137 -53 137 -163c0 -186 -125 -332 -303 -332c-48 0 -96 12 -117 19zM75 47c23 -7 48 -9 67 -9c130 0 237 111 237 283c0 52 -21 115 -88 115c-32 0 -73 -18 -107 -54
c-31 -33 -57 -81 -72 -154z" />
    <glyph glyph-name="c" unicode="c" horiz-adv-x="430" 
d="M214 -10c-102 0 -182 68 -182 193c0 175 121 302 263 302c42 0 80 -9 109 -22l-10 -48c-28 13 -61 22 -100 22c-114 0 -206 -109 -206 -246c0 -88 42 -153 130 -153c50 0 95 19 128 39l13 -41c-38 -27 -95 -46 -145 -46z" />
    <glyph glyph-name="d" unicode="d" horiz-adv-x="474" 
d="M224 -10c-105 0 -192 68 -192 201c0 185 131 294 269 294c38 0 75 -7 102 -17l50 240h52l-144 -688c-33 -16 -93 -30 -137 -30zM232 38c29 0 62 7 84 17l76 365c-26 10 -58 17 -88 17c-115 0 -216 -92 -216 -241c0 -93 46 -158 144 -158z" />
    <glyph glyph-name="e" unicode="e" horiz-adv-x="451" 
d="M213 -10c-98 0 -181 66 -181 200c0 170 102 295 234 295c100 0 145 -65 145 -151c0 -33 -9 -76 -20 -101l-303 -3c-1 -11 -2 -23 -2 -33c0 -99 51 -159 131 -159c50 0 95 19 128 39l16 -42c-40 -27 -97 -45 -148 -45zM96 276l251 3c6 20 9 43 9 59c0 44 -16 99 -95 99
c-81 0 -148 -74 -165 -161z" />
    <glyph glyph-name="f" unicode="f" horiz-adv-x="281" 
d="M-84 -193c117 111 160 261 211 620h-65l6 46h66l12 71c6 36 15 64 27 86c34 60 86 78 134 78c26 0 53 -5 72 -16l-17 -43c-12 6 -33 12 -55 12c-59 0 -94 -37 -107 -111l-13 -77h106l-19 -46h-94c-48 -321 -89 -530 -232 -658z" />
    <glyph glyph-name="g" unicode="g" horiz-adv-x="488" 
d="M-9 -201l21 45c39 -24 79 -34 118 -34c102 0 145 59 171 179l19 87h-2c-51 -65 -110 -85 -154 -85c-83 0 -132 56 -132 156c0 167 94 338 287 338c47 0 102 -10 133 -22l-104 -500c-22 -106 -70 -200 -221 -200c-42 0 -94 12 -136 36zM170 38c54 0 151 50 188 224l35 165
c-13 4 -41 10 -77 10c-145 0 -228 -137 -228 -280c0 -65 21 -119 82 -119z" />
    <glyph glyph-name="h" unicode="h" horiz-adv-x="468" 
d="M10 0l148 708h52l-50 -240c-6 -31 -15 -64 -24 -91h2c41 64 113 108 177 108c57 0 103 -33 103 -112c0 -18 -2 -43 -11 -88l-59 -285h-52l59 286c7 32 10 65 10 79c0 52 -27 71 -62 71c-43 0 -100 -30 -142 -86c-25 -33 -40 -68 -53 -129l-46 -221h-52z" />
    <glyph glyph-name="i" unicode="i" horiz-adv-x="203" 
d="M10 0l99 473h52l-99 -473h-52zM162 593c-22 0 -34 13 -34 33c0 28 22 47 45 47c22 0 34 -13 34 -33c0 -28 -22 -47 -45 -47z" />
    <glyph glyph-name="j" unicode="j" horiz-adv-x="222" 
d="M-141 -226l15 46c11 -5 25 -9 44 -9c53 0 77 28 94 110l116 552h52l-125 -593c-19 -89 -77 -117 -139 -117c-18 0 -41 4 -57 11zM181 593c-22 0 -34 13 -34 33c0 28 22 47 45 47c22 0 34 -13 34 -33c0 -28 -22 -47 -45 -47z" />
    <glyph glyph-name="k" unicode="k" horiz-adv-x="404" 
d="M10 0l148 708h52l-88 -421h2l216 186h68l-241 -206l180 -267h-63l-167 252h-2l-53 -252h-52z" />
    <glyph glyph-name="l" unicode="l" horiz-adv-x="235" 
d="M97 -5c-42 0 -67 20 -67 63c0 9 2 24 6 43l127 607h52l-127 -610c-3 -12 -4 -24 -4 -29c0 -18 9 -26 27 -26c11 0 24 3 39 9v-46c-16 -8 -41 -11 -53 -11z" />
    <glyph glyph-name="m" unicode="m" horiz-adv-x="730" 
d="M10 0l99 473h45l-18 -96h2c41 64 101 108 165 108c57 0 103 -33 101 -115h2c41 65 103 115 171 115c57 0 103 -33 103 -112c0 -18 -2 -43 -11 -88l-59 -285h-52l59 286c7 32 10 65 10 79c0 52 -27 71 -62 71c-43 0 -88 -30 -130 -86c-25 -33 -40 -68 -53 -129l-46 -221
h-52l59 286c7 32 10 65 10 79c0 52 -27 71 -62 71c-43 0 -88 -30 -130 -86c-25 -33 -40 -68 -53 -129l-46 -221h-52z" />
    <glyph glyph-name="n" unicode="n" horiz-adv-x="468" 
d="M10 0l99 473h45l-18 -96h2c41 64 113 108 177 108c57 0 103 -33 103 -112c0 -18 -2 -43 -11 -88l-59 -285h-52l59 286c7 32 10 65 10 79c0 52 -27 71 -62 71c-43 0 -100 -30 -142 -86c-25 -33 -40 -68 -53 -129l-46 -221h-52z" />
    <glyph glyph-name="o" unicode="o" horiz-adv-x="488" 
d="M197 -10c-116 0 -165 80 -165 172c0 195 118 323 247 323c116 0 165 -80 165 -172c0 -195 -118 -323 -247 -323zM199 38c120 0 189 138 189 269c0 77 -30 130 -111 130c-120 0 -189 -138 -189 -269c0 -77 30 -130 111 -130z" />
    <glyph glyph-name="p" unicode="p" horiz-adv-x="482" 
d="M-39 -237l147 703c36 10 81 19 128 19c140 0 202 -90 202 -193c0 -197 -142 -302 -278 -302c-43 0 -68 5 -97 13l-50 -240h-52zM74 52c25 -11 63 -14 82 -14c137 0 226 109 226 250c0 95 -52 149 -151 149c-29 0 -57 -5 -79 -11z" />
    <glyph glyph-name="q" unicode="q" horiz-adv-x="491" 
d="M257 -237l47 226c6 29 13 58 19 87h-2c-54 -65 -113 -86 -157 -86c-83 0 -132 57 -132 156c0 172 99 339 295 339c39 0 94 -10 128 -22l-146 -700h-52zM171 38c53 0 153 50 190 224l35 165c-16 4 -44 10 -80 10c-145 0 -228 -137 -228 -282c0 -64 21 -117 83 -117z" />
    <glyph glyph-name="r" unicode="r" horiz-adv-x="293" 
d="M10 0l99 473h45l-18 -96h2c32 72 87 108 139 108c20 0 35 -4 46 -10l-22 -51c-10 5 -23 7 -36 7c-61 0 -129 -75 -160 -224l-43 -207h-52z" />
    <glyph glyph-name="s" unicode="s" horiz-adv-x="338" 
d="M-18 22l20 44c25 -15 59 -28 102 -28c56 0 108 28 108 85c0 99 -148 108 -148 231c0 73 50 131 148 131c29 0 66 -4 98 -16l-8 -46c-21 7 -56 15 -87 15c-54 0 -97 -24 -97 -80c0 -96 148 -102 148 -233c0 -84 -71 -135 -163 -135c-51 0 -91 13 -121 32z" />
    <glyph glyph-name="t" unicode="t" horiz-adv-x="310" 
d="M143 -10c-62 0 -91 34 -91 82c0 16 3 34 6 50l64 305h-75l10 46h75l23 106l56 19l-27 -125h130l-19 -46h-120l-65 -308c-3 -14 -4 -25 -4 -36c0 -28 13 -45 46 -45c32 0 62 16 79 27l15 -42c-31 -22 -70 -33 -103 -33z" />
    <glyph glyph-name="u" unicode="u" horiz-adv-x="475" 
d="M143 -10c-61 0 -108 31 -108 110c0 18 2 43 11 88l59 285h52l-59 -286c-7 -32 -10 -65 -10 -79c0 -52 28 -70 62 -70c99 0 169 104 187 190l51 245h52l-56 -269c-12 -60 -18 -103 -18 -137c0 -23 3 -43 7 -61l-45 -10c-5 19 -12 55 -9 100h-2
c-42 -64 -114 -106 -174 -106z" />
    <glyph glyph-name="v" unicode="v" horiz-adv-x="415" 
d="M129 -3l-88 476h52l48 -272c5 -29 15 -90 20 -128h2c19 39 48 95 65 127l143 273h59l-260 -476h-41z" />
    <glyph glyph-name="w" unicode="w" horiz-adv-x="640" 
d="M111 -3l-70 476h51l38 -262c7 -49 11 -82 16 -134h2c14 36 29 69 50 114l133 282h46l30 -261c6 -56 9 -87 13 -135h2c10 24 32 75 49 113l126 283h58l-224 -476h-47l-29 263c-6 53 -9 84 -13 128h-2c-15 -36 -33 -77 -58 -130l-125 -261h-46z" />
    <glyph glyph-name="x" unicode="x" horiz-adv-x="410" 
d="M-36 0l199 241l-116 232h55l98 -194l159 194h59l-194 -235l121 -238h-57l-101 201l-166 -201h-57z" />
    <glyph glyph-name="y" unicode="y" horiz-adv-x="414" 
d="M-127 -224l18 46c15 -7 33 -11 52 -11c70 0 127 38 196 183l-103 479h56l57 -276c11 -52 18 -87 27 -132h2c16 38 31 71 55 122l137 286h60l-245 -497c-84 -171 -153 -213 -249 -213c-24 0 -49 5 -63 13z" />
    <glyph glyph-name="z" unicode="z" horiz-adv-x="354" 
d="M-23 0l281 427h-199l-7 46h295l-282 -427h220l-9 -46h-299z" />
    <glyph glyph-name="braceleft" unicode="{" horiz-adv-x="328" 
d="M153 -220c-80 18 -111 57 -111 120c0 17 3 35 9 62l43 208c2 9 3 20 3 26c0 27 -13 49 -56 51l11 52c34 2 56 14 69 31c9 12 13 27 16 41l49 233c9 41 20 75 41 100c28 34 70 53 134 62v-49c-45 -7 -73 -21 -94 -46c-15 -18 -23 -44 -30 -79l-47 -222
c-6 -26 -12 -46 -21 -60c-17 -25 -39 -34 -63 -40v-2c21 -5 44 -22 44 -61c0 -21 -3 -43 -8 -65l-39 -190c-3 -16 -5 -31 -5 -44c0 -42 19 -68 75 -81z" />
    <glyph glyph-name="bar" unicode="|" horiz-adv-x="226" 
d="M89 -237v1017h49v-1017h-49z" />
    <glyph glyph-name="braceright" unicode="}" horiz-adv-x="328" 
d="M-67 -220v49c45 7 73 21 94 46c15 18 23 44 30 79l47 222c6 26 12 46 21 60c17 25 39 34 63 40v2c-21 5 -44 22 -44 63c0 16 3 41 8 63l39 190c3 16 5 31 5 44c0 42 -19 68 -75 81l20 47c80 -18 111 -57 111 -120c0 -17 -3 -35 -9 -62l-43 -208c-2 -9 -3 -20 -3 -26
c0 -27 13 -49 56 -51l-11 -52c-34 -2 -56 -14 -69 -31c-9 -12 -13 -27 -16 -41l-49 -233c-9 -41 -20 -75 -41 -100c-28 -34 -70 -53 -134 -62z" />
    <glyph glyph-name="asciitilde" unicode="~" horiz-adv-x="511" 
d="M53 217l-33 30c41 43 76 62 118 62c66 0 164 -63 218 -63c33 0 53 16 84 45l33 -30c-41 -43 -76 -62 -118 -62c-62 0 -168 63 -218 63c-33 0 -53 -16 -84 -45z" />
    <glyph glyph-name="Euro" unicode="&#x20ac;" horiz-adv-x="513" 
d="M14 218l8 46h68v7c0 41 4 81 13 119h-73l8 46h77c45 135 146 228 281 228c50 0 93 -11 129 -37l-11 -48c-37 25 -72 37 -116 37c-110 0 -188 -75 -226 -180h266l-18 -46h-262c-8 -35 -12 -71 -12 -109v-17h252l-18 -46h-231c15 -141 82 -180 157 -180c50 0 89 12 137 45
l14 -45c-50 -33 -98 -48 -155 -48c-125 0 -197 77 -210 228h-78z" />
    <glyph glyph-name="quotesinglbase" unicode="&#x201a;" horiz-adv-x="226" 
d="M-14 -113c31 49 43 97 43 143c0 23 -2 47 -7 72l56 14c5 -25 7 -48 7 -71c0 -64 -20 -116 -76 -174z" />
    <glyph glyph-name="florin" unicode="&#x192;" 
d="M-75 -149l19 44c15 -9 44 -17 74 -17c61 0 100 35 124 141l69 310h-99l7 46h102l35 156c28 126 86 177 179 177c33 0 67 -8 92 -21l-19 -44c-15 9 -44 17 -74 17c-61 0 -100 -35 -124 -141l-32 -144h126l-17 -46h-120l-71 -322c-28 -126 -86 -177 -179 -177
c-33 0 -67 8 -92 21z" />
    <glyph glyph-name="quotedblbase" unicode="&#x201e;" horiz-adv-x="380" 
d="M163 -129l-23 16c31 49 43 97 43 143c0 23 -2 47 -7 72l56 14c5 -25 7 -48 7 -71c0 -64 -20 -116 -76 -174zM9 -129l-23 16c31 49 43 97 43 143c0 23 -2 47 -7 72l56 14c5 -25 7 -48 7 -71c0 -64 -20 -116 -76 -174z" />
    <glyph glyph-name="ellipsis" unicode="&#x2026;" horiz-adv-x="890" 
d="M98 -7c-22 0 -36 19 -36 38c0 26 18 44 42 44c22 0 36 -19 36 -38c0 -26 -18 -44 -42 -44zM384 -7c-22 0 -36 19 -36 38c0 26 18 44 42 44c22 0 36 -19 36 -38c0 -26 -18 -44 -42 -44zM670 -7c-22 0 -36 19 -36 38c0 26 18 44 42 44c22 0 36 -19 36 -38
c0 -26 -18 -44 -42 -44z" />
    <glyph glyph-name="dagger" unicode="&#x2020;" horiz-adv-x="476" 
d="M134 -44l30 146c41 197 65 275 75 324c-41 -1 -112 -10 -156 -10l11 53c44 -1 110 -10 151 -12c10 47 16 112 26 162h52c-10 -50 -32 -115 -42 -162c43 2 113 11 157 12l-11 -53c-44 0 -111 9 -152 10c-10 -49 -20 -127 -61 -324l-30 -146h-50z" />
    <glyph glyph-name="daggerdbl" unicode="&#x2021;" horiz-adv-x="476" 
d="M133 -44c10 50 32 115 42 162c-43 -2 -113 -11 -157 -12l11 53c44 0 111 -9 152 -10c6 30 9 73 25 147c14 64 27 102 33 130c-41 -1 -112 -10 -156 -10l11 53c44 -1 110 -10 151 -12c10 47 16 112 26 162h52c-10 -50 -32 -115 -42 -162c43 2 113 11 157 12l-11 -53
c-44 0 -111 9 -152 10c-6 -30 -10 -71 -24 -142c-13 -67 -28 -106 -34 -135c41 1 112 10 156 10l-11 -53c-44 1 -110 10 -151 12c-10 -47 -16 -112 -26 -162h-52z" />
    <glyph glyph-name="circumflex" unicode="&#x2c6;" horiz-adv-x="350" 
d="M48 531l118 147h57l78 -147h-50l-59 109l-91 -109h-53z" />
    <glyph glyph-name="perthousand" unicode="&#x2030;" horiz-adv-x="1155" 
d="M153 0l486 659h53l-486 -659h-53zM228 320c-68 0 -115 43 -115 129c0 123 68 215 166 215c68 0 115 -43 115 -129c0 -123 -68 -215 -166 -215zM232 363c67 0 113 76 113 166c0 66 -26 92 -70 92c-67 0 -113 -76 -113 -166c0 -66 26 -92 70 -92zM561 -10
c-68 0 -115 43 -115 129c0 123 68 215 166 215c68 0 115 -43 115 -129c0 -123 -68 -215 -166 -215zM565 33c67 0 113 76 113 166c0 66 -26 92 -70 92c-67 0 -113 -76 -113 -166c0 -66 26 -92 70 -92zM893 -10c-68 0 -115 43 -115 129c0 123 68 215 166 215
c68 0 115 -43 115 -129c0 -123 -68 -215 -166 -215zM897 33c67 0 113 76 113 166c0 66 -26 92 -70 92c-67 0 -113 -76 -113 -166c0 -66 26 -92 70 -92z" />
    <glyph glyph-name="Scaron" unicode="&#x160;" horiz-adv-x="453" 
d="M8 30l21 44c25 -17 71 -36 125 -36c74 0 151 34 151 134c0 160 -209 161 -209 327c0 101 80 165 189 165c52 0 96 -12 132 -30l-11 -47c-32 17 -74 30 -122 30c-66 0 -133 -35 -133 -112c0 -137 209 -142 209 -328c0 -133 -101 -187 -208 -187c-64 0 -114 21 -144 40z
M253 697l-78 147h50l59 -109l91 109h53l-118 -147h-57z" />
    <glyph glyph-name="guilsinglleft" unicode="&#x2039;" horiz-adv-x="308" 
d="M254 416l-167 -179l111 -177l-39 -26l-134 207l195 207z" />
    <glyph glyph-name="OE" unicode="&#x152;" horiz-adv-x="823" 
d="M45 264c0 209 134 400 386 400c56 0 118 -5 189 -5h198l-19 -46h-223l-52 -252h217l-10 -46h-217l-56 -269h248l-10 -46h-212c-56 0 -123 -9 -173 -9c-160 0 -266 95 -266 273zM101 271c0 -140 67 -233 220 -233c24 0 64 3 84 5l119 571c-17 1 -67 3 -95 3
c-227 0 -328 -179 -328 -346z" />
    <glyph glyph-name="quoteleft" unicode="&#x2018;" horiz-adv-x="217" 
d="M130 462c-5 25 -7 48 -7 71c0 64 20 116 76 174l23 -16c-31 -49 -43 -97 -43 -143c0 -23 2 -47 7 -72z" />
    <glyph glyph-name="quoteright" unicode="&#x2019;" horiz-adv-x="226" 
d="M101 478c31 49 43 97 43 143c0 23 -2 47 -7 72l56 14c5 -25 7 -48 7 -71c0 -64 -20 -116 -76 -174z" />
    <glyph glyph-name="quotedblleft" unicode="&#x201c;" horiz-adv-x="371" 
d="M130 462c-5 25 -7 48 -7 71c0 64 20 116 76 174l23 -16c-31 -49 -43 -97 -43 -143c0 -23 2 -47 7 -72zM284 462c-5 25 -7 48 -7 71c0 64 20 116 76 174l23 -16c-31 -49 -43 -97 -43 -143c0 -23 2 -47 7 -72z" />
    <glyph glyph-name="quotedblright" unicode="&#x201d;" horiz-adv-x="380" 
d="M278 462l-23 16c31 49 43 97 43 143c0 23 -2 47 -7 72l56 14c5 -25 7 -48 7 -71c0 -64 -20 -116 -76 -174zM124 462l-23 16c31 49 43 97 43 143c0 23 -2 47 -7 72l56 14c5 -25 7 -48 7 -71c0 -64 -20 -116 -76 -174z" />
    <glyph glyph-name="bullet" unicode="&#x2022;" horiz-adv-x="285" 
d="M137 222c-53 0 -93 43 -93 96c0 54 40 97 93 97c54 0 94 -43 94 -97c0 -53 -40 -96 -94 -96z" />
    <glyph glyph-name="endash" unicode="&#x2013;" horiz-adv-x="450" 
d="M0 231v47h450v-47h-450z" />
    <glyph glyph-name="emdash" unicode="&#x2014;" horiz-adv-x="800" 
d="M0 231v47h800v-47h-800z" />
    <glyph glyph-name="tilde" unicode="&#x2dc;" horiz-adv-x="350" 
d="M38 557c5 62 39 89 77 89c53 0 85 -50 121 -50c23 0 32 20 36 44h44c-5 -62 -39 -89 -77 -89c-53 0 -85 50 -121 50c-23 0 -32 -20 -36 -44h-44z" />
    <glyph glyph-name="trademark" unicode="&#x2122;" horiz-adv-x="813" 
d="M193 264v358h-108v37h265l-11 -37h-104v-358h-42zM394 264v395h39l106 -161c20 -30 34 -55 41 -70h2c7 15 21 40 41 70l106 161h39v-395h-42v242c0 42 1 66 4 88h-2c-8 -15 -25 -44 -37 -63l-97 -147h-26l-97 147c-12 19 -29 48 -37 63h-2c3 -22 4 -46 4 -88v-242h-42z
" />
    <glyph glyph-name="scaron" unicode="&#x161;" horiz-adv-x="338" 
d="M-18 22l20 44c25 -15 59 -28 102 -28c56 0 108 28 108 85c0 99 -148 108 -148 231c0 73 50 131 148 131c29 0 66 -4 98 -16l-8 -46c-21 7 -56 15 -87 15c-54 0 -97 -24 -97 -80c0 -96 148 -102 148 -233c0 -84 -71 -135 -163 -135c-51 0 -91 13 -121 32zM188 532l-78 147
h50l59 -109l91 109h53l-118 -147h-57z" />
    <glyph glyph-name="guilsinglright" unicode="&#x203a;" horiz-adv-x="308" 
d="M22 66l167 179l-111 177l39 26l134 -207l-195 -207z" />
    <glyph glyph-name="oe" unicode="&#x153;" horiz-adv-x="799" 
d="M197 -10c-116 0 -165 80 -165 172c0 195 118 323 247 323c84 0 132 -44 150 -111h2c39 71 108 111 183 111c100 0 145 -65 145 -151c0 -33 -9 -76 -20 -101l-303 -3c-1 -10 -2 -24 -2 -34c0 -99 51 -158 131 -158c48 0 95 19 128 39l16 -42c-40 -27 -98 -45 -149 -45
c-77 0 -144 42 -166 126h-2c-44 -80 -119 -126 -195 -126zM199 38c120 0 189 138 189 269c0 77 -30 130 -111 130c-120 0 -189 -138 -189 -269c0 -77 30 -130 111 -130zM444 276l251 3c6 20 9 43 9 59c0 44 -16 99 -98 99c-78 0 -145 -74 -162 -161z" />
    <glyph glyph-name="Ydieresis" unicode="&#x178;" horiz-adv-x="469" 
d="M157 0l52 253l-139 406h57l114 -346h2l226 346h60l-267 -406l-53 -253h-52zM223 708c-20 0 -31 13 -31 31c0 24 18 41 39 41c20 0 31 -13 31 -31c0 -24 -18 -41 -39 -41zM393 708c-20 0 -31 13 -31 31c0 24 18 41 39 41c20 0 31 -13 31 -31c0 -24 -18 -41 -39 -41z" />
    <glyph glyph-name="exclamdown" unicode="&#xa1;" horiz-adv-x="267" 
d="M2 -181l11 52c53 249 64 312 105 439h24c-11 -127 -25 -189 -77 -438l-11 -53h-52zM148 401c-22 0 -36 19 -36 38c0 26 18 44 42 44c22 0 36 -19 36 -38c0 -26 -18 -44 -42 -44z" />
    <glyph glyph-name="cent" unicode="&#xa2;" 
d="M180 0l23 111c-63 21 -116 77 -116 176c0 153 100 259 215 274l20 98h50l-20 -97c31 -2 59 -8 83 -19l-10 -47c-26 12 -56 21 -94 21c-107 0 -190 -100 -190 -230c0 -83 42 -138 121 -138c46 0 88 17 119 36l13 -41c-37 -25 -91 -41 -142 -41l-22 -103h-50z" />
    <glyph glyph-name="sterling" unicode="&#xa3;" horiz-adv-x="513" 
d="M32 0l7 43c87 43 118 189 131 272h-77l8 46h76l13 91c7 52 16 81 28 106c40 82 113 106 172 106c27 0 63 -6 90 -19l-20 -43c-19 9 -40 15 -70 15c-41 0 -94 -18 -124 -83c-8 -18 -15 -40 -21 -84l-13 -89h181l-18 -46h-169c-19 -121 -51 -227 -113 -267v-2h89h199
l-8 -46h-361z" />
    <glyph glyph-name="currency" unicode="&#xa4;" 
d="M53 90l-36 36l63 63c-31 38 -50 87 -50 141c0 53 18 102 49 140l-63 63l36 36l63 -63c39 31 88 50 141 50s102 -19 141 -50l63 63l36 -36l-63 -63c31 -39 49 -87 49 -140s-19 -102 -50 -141l63 -63l-36 -36l-63 63c-38 -31 -87 -49 -140 -49c-52 0 -101 18 -140 49z
M256 155c96 0 170 79 170 175s-74 175 -170 175s-170 -79 -170 -175s74 -175 170 -175z" />
    <glyph glyph-name="yen" unicode="&#xa5;" horiz-adv-x="513" 
d="M162 0l26 128h-160l9 46h161l18 89h-165l9 46h143l-113 350h57l103 -331h2l208 331h60l-223 -350h143l-9 -46h-162l-19 -89h167l-9 -46h-167l-27 -128h-52z" />
    <glyph glyph-name="brokenbar" unicode="&#xa6;" horiz-adv-x="226" 
d="M89 -237v350h49v-350h-49zM89 430v350h49v-350h-49z" />
    <glyph glyph-name="section" unicode="&#xa7;" horiz-adv-x="539" 
d="M183 -166c-76 0 -127 24 -159 47l28 43c27 -19 75 -42 134 -42c75 0 150 34 150 118c0 148 -261 134 -261 308c0 64 44 121 107 152c-27 25 -45 57 -45 102c0 97 80 161 189 161c52 0 96 -12 132 -30l-11 -47c-32 17 -74 30 -122 30c-66 0 -133 -35 -133 -108
c0 -142 262 -118 262 -308c0 -69 -42 -123 -100 -157c22 -23 37 -55 37 -97c0 -118 -101 -172 -208 -172zM130 314c0 -96 120 -122 198 -185c38 27 71 69 71 124c0 101 -109 129 -187 183c-46 -24 -82 -65 -82 -122z" />
    <glyph glyph-name="dieresis" unicode="&#xa8;" horiz-adv-x="350" 
d="M91 568c-20 0 -31 13 -31 31c0 24 18 41 39 41c20 0 31 -13 31 -31c0 -24 -18 -41 -39 -41zM261 568c-20 0 -31 13 -31 31c0 24 18 41 39 41c20 0 31 -13 31 -31c0 -24 -18 -41 -39 -41z" />
    <glyph glyph-name="copyright" unicode="&#xa9;" horiz-adv-x="784" 
d="M387 -10c-190 0 -332 149 -332 337s142 337 332 337s332 -149 332 -337s-142 -337 -332 -337zM387 27c165 0 288 129 288 300s-123 299 -288 299s-288 -128 -288 -299s123 -300 288 -300zM392 128c-114 0 -175 88 -175 194c0 108 65 204 184 204c34 0 67 -9 91 -22v-42
c-24 14 -54 24 -91 24c-85 0 -139 -66 -139 -159c0 -102 52 -160 134 -160c43 0 71 14 94 27l14 -33c-26 -17 -67 -33 -112 -33z" />
    <glyph glyph-name="ordfeminine" unicode="&#xaa;" horiz-adv-x="314" 
d="M-27 143l9 43h280l-9 -43h-280zM119 263c-54 0 -89 36 -89 89c0 92 80 123 165 123h53c3 13 5 27 5 42c0 35 -22 50 -60 50c-35 0 -69 -11 -101 -26l-10 41c32 17 74 29 114 29c70 0 103 -37 103 -93c0 -28 -7 -56 -13 -82l-5 -22c-10 -42 -13 -71 -13 -93
c0 -17 3 -31 7 -46l-40 -9c-4 13 -8 31 -9 50h-1c-28 -30 -65 -53 -106 -53zM126 307c45 0 95 44 108 104l5 22h-35c-98 0 -125 -36 -125 -76c0 -31 15 -50 47 -50z" />
    <glyph glyph-name="guillemotleft" unicode="&#xab;" horiz-adv-x="500" 
d="M254 416l-167 -179l111 -177l-39 -26l-134 207l195 207zM446 416l-167 -179l111 -177l-39 -26l-134 207l195 207z" />
    <glyph glyph-name="logicalnot" unicode="&#xac;" horiz-adv-x="511" 
d="M0 231v47h475v-278h-51v231h-424z" />
    <glyph glyph-name="minus" unicode="&#x2212;" horiz-adv-x="511" 
d="M5 231v47h475v-47h-475z" />
    <glyph glyph-name="registered" unicode="&#xae;" horiz-adv-x="582" 
d="M313 180c-138 0 -238 106 -238 242s100 242 238 242s238 -106 238 -242s-100 -242 -238 -242zM313 213c120 0 202 91 202 209s-82 209 -202 209s-202 -91 -202 -209s82 -209 202 -209zM272 299h-32v257h60c22 0 38 -3 49 -7c29 -11 43 -36 43 -63c0 -35 -20 -59 -62 -67
v-2c19 -15 41 -54 78 -118h-38c-37 65 -59 103 -76 111h-22v-111zM272 437h22c34 0 62 11 62 48c0 18 -9 32 -22 38c-11 5 -23 6 -41 6h-21v-92z" />
    <glyph glyph-name="macron" unicode="&#xaf;" horiz-adv-x="350" 
d="M60 576l10 46h232l-10 -46h-232z" />
    <glyph glyph-name="degree" unicode="&#xb0;" horiz-adv-x="404" 
d="M232 353c-87 0 -153 66 -153 153s66 153 153 153s153 -66 153 -153s-66 -153 -153 -153zM232 397c58 0 104 46 104 109s-46 109 -104 109s-104 -46 -104 -109s46 -109 104 -109z" />
    <glyph glyph-name="plusminus" unicode="&#xb1;" horiz-adv-x="511" 
d="M5 0v47h475v-47h-475zM217 107v168h-212v47h212v168h51v-168h212v-47h-212v-168h-51z" />
    <glyph glyph-name="twosuperior" unicode="&#xb2;" horiz-adv-x="313" 
d="M57 405c23 201 227 194 227 294c0 29 -22 49 -61 49c-35 0 -65 -13 -95 -30l-19 37c37 22 77 36 118 36c69 0 106 -38 106 -90c0 -121 -182 -131 -216 -251h184l-4 -45h-240z" />
    <glyph glyph-name="threesuperior" unicode="&#xb3;" horiz-adv-x="329" 
d="M64 418l18 40c26 -12 56 -18 84 -18c61 0 106 26 106 75c0 43 -38 62 -103 62h-41l5 43h39c69 2 111 33 111 77c0 30 -18 51 -64 51c-34 0 -63 -10 -89 -23l-17 37c30 16 69 29 112 29c67 0 107 -37 107 -90c0 -51 -37 -86 -81 -100v-2c40 -8 70 -37 70 -83
c0 -69 -58 -119 -155 -119c-34 0 -74 7 -102 21z" />
    <glyph glyph-name="acute" unicode="&#xb4;" horiz-adv-x="350" 
d="M135 531l77 147h67l-100 -147h-44z" />
    <glyph glyph-name="mu" unicode="&#xb5;" horiz-adv-x="502" 
d="M-40 -237l149 710h52l-59 -284c-7 -32 -10 -63 -10 -75c0 -56 33 -75 67 -75c77 0 156 65 183 197l50 237h52l-71 -341c-9 -44 -9 -56 -9 -60c0 -21 9 -29 29 -29c10 0 22 2 32 6v-47c-13 -5 -29 -7 -42 -7c-44 0 -65 24 -65 67c0 6 1 20 2 26h-2
c-42 -60 -104 -98 -166 -98c-33 0 -68 12 -84 48h-2c-5 -45 -14 -90 -21 -123l-32 -152h-53z" />
    <glyph glyph-name="paragraph" unicode="&#xb6;" horiz-adv-x="567" 
d="M141 -160l80 387c-91 4 -148 73 -148 172c0 150 109 260 284 260h174l-169 -819h-53l159 770h-115l-159 -770h-53z" />
    <glyph glyph-name="periodcentered" unicode="&#xb7;" horiz-adv-x="206" 
d="M83 214c-22 0 -36 19 -36 38c0 26 18 44 42 44c22 0 36 -19 36 -38c0 -26 -18 -44 -42 -44z" />
    <glyph glyph-name="cedilla" unicode="&#xb8;" horiz-adv-x="350" 
d="M86 -198l17 36c14 -8 33 -11 47 -11c35 0 64 15 64 46s-36 38 -81 36l42 91h47l-26 -56c43 -3 68 -31 68 -66c0 -63 -54 -90 -112 -90c-25 0 -44 4 -66 14z" />
    <glyph glyph-name="onesuperior" unicode="&#xb9;" horiz-adv-x="277" 
d="M138 405l69 329c-37 -21 -79 -33 -114 -42v42c40 10 102 38 133 56h41l-81 -385h-48z" />
    <glyph glyph-name="ordmasculine" unicode="&#xba;" horiz-adv-x="342" 
d="M-11 143l9 43h289l-9 -43h-289zM159 263c-84 0 -118 61 -118 123c0 132 86 225 175 225c84 0 118 -61 118 -125c0 -130 -86 -223 -175 -223zM160 307c76 0 125 89 125 176c0 46 -17 84 -70 84c-75 0 -125 -90 -125 -175c0 -47 17 -85 70 -85z" />
    <glyph glyph-name="guillemotright" unicode="&#xbb;" horiz-adv-x="500" 
d="M214 66l167 179l-111 177l39 26l134 -207l-195 -207zM22 66l167 179l-111 177l39 26l134 -207l-195 -207z" />
    <glyph glyph-name="onequarter" unicode="&#xbc;" horiz-adv-x="825" 
d="M134 0l486 659h53l-486 -659h-53zM160 270l69 329c-37 -21 -79 -33 -114 -42v42c40 10 102 38 133 56h41l-81 -385h-48zM581 0l18 89h-166l-7 36l237 260h47l-54 -254h53l-8 -42h-54l-18 -89h-48zM608 131l10 45c8 37 16 75 30 130l-160 -175h120z" />
    <glyph glyph-name="onehalf" unicode="&#xbd;" horiz-adv-x="825" 
d="M100 0l486 659h53l-486 -659h-53zM149 270l69 329c-37 -21 -79 -33 -114 -42v42c40 10 102 38 133 56h41l-81 -385h-48zM467 0c23 201 227 194 227 294c0 29 -22 49 -61 49c-35 0 -65 -13 -95 -30l-19 37c37 22 77 36 118 36c69 0 106 -38 106 -90
c0 -121 -182 -131 -216 -251h184l-4 -45h-240z" />
    <glyph glyph-name="threequarters" unicode="&#xbe;" horiz-adv-x="825" 
d="M175 0l486 659h53l-486 -659h-53zM618 0l18 89h-166l-7 36l237 260h47l-54 -254h53l-8 -42h-54l-18 -89h-48zM645 131l10 45c8 37 16 75 30 130l-160 -175h120zM66 284l18 40c26 -12 56 -18 84 -18c61 0 106 26 106 75c0 43 -38 62 -103 62h-41l5 43h39
c69 2 111 33 111 77c0 30 -18 51 -64 51c-34 0 -63 -10 -89 -23l-17 37c30 16 69 29 112 29c67 0 107 -37 107 -90c0 -51 -37 -86 -81 -100v-2c40 -8 70 -37 70 -83c0 -69 -58 -119 -155 -119c-34 0 -74 7 -102 21z" />
    <glyph glyph-name="questiondown" unicode="&#xbf;" horiz-adv-x="452" 
d="M146 -187c-68 0 -139 37 -139 121c0 33 10 62 26 86c59 88 197 140 227 290h33c-11 -214 -231 -242 -231 -369c0 -56 41 -81 90 -81c50 0 95 18 140 50l20 -39c-62 -45 -113 -58 -166 -58zM290 402c-22 0 -36 19 -36 38c0 26 18 44 42 44c22 0 36 -19 36 -38
c0 -26 -18 -44 -42 -44z" />
    <glyph glyph-name="Agrave" unicode="&#xc0;" horiz-adv-x="537" 
d="M-33 0l333 661h36l115 -661h-55l-31 182h-250l-90 -182h-58zM139 228h217l-37 232c-5 33 -10 65 -16 105h-2c-18 -40 -30 -69 -52 -113zM301 696l-73 147h67l50 -147h-44z" />
    <glyph glyph-name="Aacute" unicode="&#xc1;" horiz-adv-x="537" 
d="M-33 0l333 661h36l115 -661h-55l-31 182h-250l-90 -182h-58zM139 228h217l-37 232c-5 33 -10 65 -16 105h-2c-18 -40 -30 -69 -52 -113zM300 696l77 147h67l-100 -147h-44z" />
    <glyph glyph-name="Acircumflex" unicode="&#xc2;" horiz-adv-x="537" 
d="M-33 0l333 661h36l115 -661h-55l-31 182h-250l-90 -182h-58zM139 228h217l-37 232c-5 33 -10 65 -16 105h-2c-18 -40 -30 -69 -52 -113zM194 696l118 147h57l78 -147h-50l-59 109l-91 -109h-53z" />
    <glyph glyph-name="Atilde" unicode="&#xc3;" horiz-adv-x="537" 
d="M-33 0l333 661h36l115 -661h-55l-31 182h-250l-90 -182h-58zM139 228h217l-37 232c-5 33 -10 65 -16 105h-2c-18 -40 -30 -69 -52 -113zM190 729c5 62 39 89 77 89c53 0 85 -50 121 -50c23 0 32 20 36 44h44c-5 -62 -39 -89 -77 -89c-53 0 -85 50 -121 50
c-23 0 -32 -20 -36 -44h-44z" />
    <glyph glyph-name="Adieresis" unicode="&#xc4;" horiz-adv-x="537" 
d="M-33 0l333 661h36l115 -661h-55l-31 182h-250l-90 -182h-58zM139 228h217l-37 232c-5 33 -10 65 -16 105h-2c-18 -40 -30 -69 -52 -113zM236 708c-20 0 -31 13 -31 31c0 24 18 41 39 41c20 0 31 -13 31 -31c0 -24 -18 -41 -39 -41zM406 708c-20 0 -31 13 -31 31
c0 24 18 41 39 41c20 0 31 -13 31 -31c0 -24 -18 -41 -39 -41z" />
    <glyph glyph-name="Aring" unicode="&#xc5;" horiz-adv-x="537" 
d="M-33 0l330 656c-39 9 -65 40 -65 83c0 64 48 102 104 102c53 0 90 -34 90 -86c0 -58 -40 -95 -89 -101l114 -654h-55l-31 182h-250l-90 -182h-58zM139 228h217l-37 232c-5 33 -10 65 -16 105h-2c-18 -40 -30 -69 -52 -113zM323 689c35 0 59 27 59 66c0 30 -18 50 -47 50
c-35 0 -59 -27 -59 -66c0 -30 18 -50 47 -50z" />
    <glyph glyph-name="AE" unicode="&#xc6;" horiz-adv-x="723" 
d="M-67 0l452 659h297l-16 -46h-219l-33 -252h214l-7 -46h-213l-35 -269h245l-7 -46h-296l24 182h-222l-123 -182h-61zM148 228h197l49 360h-2c-31 -47 -76 -115 -95 -143z" />
    <glyph glyph-name="Ccedilla" unicode="&#xc7;" horiz-adv-x="575" 
d="M173 -198l17 36c14 -8 33 -11 47 -11c35 0 64 15 64 46s-36 38 -81 36l38 84c-118 16 -213 98 -213 262c0 227 151 409 368 409c66 0 118 -16 160 -37l-12 -48c-35 20 -90 37 -145 37c-186 0 -315 -157 -315 -356c0 -131 71 -222 199 -222c65 0 120 16 176 46l12 -45
c-51 -29 -118 -48 -184 -49l-21 -46c43 -3 68 -31 68 -66c0 -63 -54 -90 -112 -90c-25 0 -44 4 -66 14z" />
    <glyph glyph-name="Egrave" unicode="&#xc8;" horiz-adv-x="441" 
d="M14 0l138 659h284l-19 -46h-223l-52 -252h217l-10 -46h-217l-56 -269h248l-10 -46h-300zM287 696l-73 147h67l50 -147h-44z" />
    <glyph glyph-name="Eacute" unicode="&#xc9;" horiz-adv-x="441" 
d="M14 0l138 659h284l-19 -46h-223l-52 -252h217l-10 -46h-217l-56 -269h248l-10 -46h-300zM263 696l77 147h67l-100 -147h-44z" />
    <glyph glyph-name="Ecircumflex" unicode="&#xca;" horiz-adv-x="441" 
d="M14 0l138 659h284l-19 -46h-223l-52 -252h217l-10 -46h-217l-56 -269h248l-10 -46h-300zM170 696l118 147h57l78 -147h-50l-59 109l-91 -109h-53z" />
    <glyph glyph-name="Edieresis" unicode="&#xcb;" horiz-adv-x="441" 
d="M14 0l138 659h284l-19 -46h-223l-52 -252h217l-10 -46h-217l-56 -269h248l-10 -46h-300zM214 708c-20 0 -31 13 -31 31c0 24 18 41 39 41c20 0 31 -13 31 -31c0 -24 -18 -41 -39 -41zM384 708c-20 0 -31 13 -31 31c0 24 18 41 39 41c20 0 31 -13 31 -31
c0 -24 -18 -41 -39 -41z" />
    <glyph glyph-name="Igrave" unicode="&#xcc;" horiz-adv-x="218" 
d="M14 0l138 659h52l-138 -659h-52zM173 696l-73 147h67l50 -147h-44z" />
    <glyph glyph-name="Iacute" unicode="&#xcd;" horiz-adv-x="218" 
d="M14 0l138 659h52l-138 -659h-52zM156 696l77 147h67l-100 -147h-44z" />
    <glyph glyph-name="Icircumflex" unicode="&#xce;" horiz-adv-x="218" 
d="M14 0l138 659h52l-138 -659h-52zM57 696l118 147h57l78 -147h-50l-59 109l-91 -109h-53z" />
    <glyph glyph-name="Idieresis" unicode="&#xcf;" horiz-adv-x="218" 
d="M14 0l138 659h52l-138 -659h-52zM100 708c-20 0 -31 13 -31 31c0 24 18 41 39 41c20 0 31 -13 31 -31c0 -24 -18 -41 -39 -41zM270 708c-20 0 -31 13 -31 31c0 24 18 41 39 41c20 0 31 -13 31 -31c0 -24 -18 -41 -39 -41z" />
    <glyph glyph-name="Eth" unicode="&#xd0;" horiz-adv-x="604" 
d="M14 0l64 307h-83l10 46h83l64 306h85c72 0 129 -9 177 -30c90 -39 145 -115 145 -243c0 -145 -72 -291 -222 -352c-54 -22 -120 -34 -201 -34h-122zM76 46h72c67 0 124 11 169 30c125 53 186 176 186 313c0 97 -38 166 -119 200c-38 16 -84 24 -151 24h-39l-54 -260h172
l-10 -46h-172z" />
    <glyph glyph-name="Ntilde" unicode="&#xd1;" horiz-adv-x="659" 
d="M14 0l138 659h48l230 -471c15 -31 32 -67 45 -98h2c7 41 14 78 21 111l95 458h52l-138 -659h-39l-237 485c-15 31 -32 65 -44 96h-2c-6 -44 -14 -81 -19 -105l-100 -476h-52zM273 729c5 62 39 89 77 89c53 0 85 -50 121 -50c23 0 32 20 36 44h44c-5 -62 -39 -89 -77 -89
c-53 0 -85 50 -121 50c-23 0 -32 -20 -36 -44h-44z" />
    <glyph glyph-name="Ograve" unicode="&#xd2;" horiz-adv-x="698" 
d="M304 -10c-154 0 -259 93 -259 278c0 198 132 396 349 396c154 0 259 -91 259 -276c0 -198 -132 -398 -349 -398zM307 38c188 0 290 185 290 352c0 141 -68 226 -204 226c-190 0 -292 -183 -292 -349c0 -141 67 -229 206 -229zM397 696l-73 147h67l50 -147h-44z" />
    <glyph glyph-name="Oacute" unicode="&#xd3;" horiz-adv-x="698" 
d="M304 -10c-154 0 -259 93 -259 278c0 198 132 396 349 396c154 0 259 -91 259 -276c0 -198 -132 -398 -349 -398zM307 38c188 0 290 185 290 352c0 141 -68 226 -204 226c-190 0 -292 -183 -292 -349c0 -141 67 -229 206 -229zM373 696l77 147h67l-100 -147h-44z" />
    <glyph glyph-name="Ocircumflex" unicode="&#xd4;" horiz-adv-x="698" 
d="M304 -10c-154 0 -259 93 -259 278c0 198 132 396 349 396c154 0 259 -91 259 -276c0 -198 -132 -398 -349 -398zM307 38c188 0 290 185 290 352c0 141 -68 226 -204 226c-190 0 -292 -183 -292 -349c0 -141 67 -229 206 -229zM286 696l118 147h57l78 -147h-50l-59 109
l-91 -109h-53z" />
    <glyph glyph-name="Otilde" unicode="&#xd5;" horiz-adv-x="698" 
d="M304 -10c-154 0 -259 93 -259 278c0 198 132 396 349 396c154 0 259 -91 259 -276c0 -198 -132 -398 -349 -398zM307 38c188 0 290 185 290 352c0 141 -68 226 -204 226c-190 0 -292 -183 -292 -349c0 -141 67 -229 206 -229zM278 729c5 62 39 89 77 89
c53 0 85 -50 121 -50c23 0 32 20 36 44h44c-5 -62 -39 -89 -77 -89c-53 0 -85 50 -121 50c-23 0 -32 -20 -36 -44h-44z" />
    <glyph glyph-name="Odieresis" unicode="&#xd6;" horiz-adv-x="698" 
d="M304 -10c-154 0 -259 93 -259 278c0 198 132 396 349 396c154 0 259 -91 259 -276c0 -198 -132 -398 -349 -398zM307 38c188 0 290 185 290 352c0 141 -68 226 -204 226c-190 0 -292 -183 -292 -349c0 -141 67 -229 206 -229zM324 708c-20 0 -31 13 -31 31
c0 24 18 41 39 41c20 0 31 -13 31 -31c0 -24 -18 -41 -39 -41zM494 708c-20 0 -31 13 -31 31c0 24 18 41 39 41c20 0 31 -13 31 -31c0 -24 -18 -41 -39 -41z" />
    <glyph glyph-name="multiply" unicode="&#xd7;" horiz-adv-x="511" 
d="M73 33l-36 36l185 186l-185 184l36 36l185 -184l185 185l36 -36l-185 -185l185 -186l-36 -36l-185 186z" />
    <glyph glyph-name="Oslash" unicode="&#xd8;" horiz-adv-x="698" 
d="M304 -10c-75 0 -138 22 -183 65l-58 -62l-34 32l62 66c-29 44 -46 103 -46 177c0 198 132 396 349 396c72 0 134 -20 179 -61l62 65l34 -32l-65 -69c31 -44 49 -104 49 -179c0 -198 -132 -398 -349 -398zM307 38c188 0 290 185 290 352c0 54 -10 101 -31 137l-409 -434
c34 -35 84 -55 150 -55zM101 267c0 -53 9 -99 29 -135l407 433c-34 33 -82 51 -144 51c-190 0 -292 -183 -292 -349z" />
    <glyph glyph-name="Ugrave" unicode="&#xd9;" horiz-adv-x="614" 
d="M252 -10c-121 0 -194 66 -194 182c0 27 5 56 11 85l84 402h52l-83 -397c-6 -30 -11 -59 -11 -86c0 -93 57 -139 147 -139c65 0 110 18 142 51c30 31 48 76 60 132l92 439h52l-94 -451c-14 -69 -38 -119 -73 -154c-45 -45 -105 -64 -185 -64zM362 696l-73 147h67l50 -147
h-44z" />
    <glyph glyph-name="Uacute" unicode="&#xda;" horiz-adv-x="614" 
d="M252 -10c-121 0 -194 66 -194 182c0 27 5 56 11 85l84 402h52l-83 -397c-6 -30 -11 -59 -11 -86c0 -93 57 -139 147 -139c65 0 110 18 142 51c30 31 48 76 60 132l92 439h52l-94 -451c-14 -69 -38 -119 -73 -154c-45 -45 -105 -64 -185 -64zM352 696l77 147h67l-100 -147
h-44z" />
    <glyph glyph-name="Ucircumflex" unicode="&#xdb;" horiz-adv-x="614" 
d="M252 -10c-121 0 -194 66 -194 182c0 27 5 56 11 85l84 402h52l-83 -397c-6 -30 -11 -59 -11 -86c0 -93 57 -139 147 -139c65 0 110 18 142 51c30 31 48 76 60 132l92 439h52l-94 -451c-14 -69 -38 -119 -73 -154c-45 -45 -105 -64 -185 -64zM256 696l118 147h57l78 -147
h-50l-59 109l-91 -109h-53z" />
    <glyph glyph-name="Udieresis" unicode="&#xdc;" horiz-adv-x="614" 
d="M252 -10c-121 0 -194 66 -194 182c0 27 5 56 11 85l84 402h52l-83 -397c-6 -30 -11 -59 -11 -86c0 -93 57 -139 147 -139c65 0 110 18 142 51c30 31 48 76 60 132l92 439h52l-94 -451c-14 -69 -38 -119 -73 -154c-45 -45 -105 -64 -185 -64zM303 708c-20 0 -31 13 -31 31
c0 24 18 41 39 41c20 0 31 -13 31 -31c0 -24 -18 -41 -39 -41zM473 708c-20 0 -31 13 -31 31c0 24 18 41 39 41c20 0 31 -13 31 -31c0 -24 -18 -41 -39 -41z" />
    <glyph glyph-name="Yacute" unicode="&#xdd;" horiz-adv-x="469" 
d="M157 0l52 253l-139 406h57l114 -346h2l226 346h60l-267 -406l-53 -253h-52zM272 696l77 147h67l-100 -147h-44z" />
    <glyph glyph-name="Thorn" unicode="&#xde;" horiz-adv-x="477" 
d="M14 0l138 659h52l-24 -116h17c42 0 71 -4 97 -12c78 -25 123 -87 123 -171c0 -104 -68 -190 -179 -216c-26 -6 -58 -10 -101 -10h-43l-28 -134h-52zM104 180h40c35 0 63 3 85 9c87 23 133 90 133 174c0 55 -25 103 -87 124c-21 7 -46 10 -78 10h-27z" />
    <glyph glyph-name="germandbls" unicode="&#xdf;" horiz-adv-x="549" 
d="M0 -141l140 671c9 45 23 77 41 102c39 54 99 76 155 76c99 0 170 -52 170 -159c0 -18 -2 -38 -5 -58c-118 -2 -174 -47 -174 -109c0 -99 135 -122 135 -250c0 -91 -71 -142 -163 -142c-51 0 -91 13 -121 32l20 44c25 -15 58 -28 101 -28c56 0 109 28 109 91
c0 99 -135 129 -135 247c0 90 68 148 179 156c1 5 1 16 1 22c0 78 -55 107 -113 107c-71 0 -127 -36 -148 -136l-138 -666h-54z" />
    <glyph glyph-name="agrave" unicode="&#xe0;" horiz-adv-x="449" 
d="M131 -10c-74 0 -121 51 -121 122c0 56 22 99 60 128c42 32 102 45 174 46l82 1c5 21 8 46 8 69c0 53 -29 81 -92 81c-49 0 -101 -17 -144 -39l-8 47c49 25 107 40 156 40c73 0 140 -33 140 -128c0 -39 -10 -82 -18 -119l-7 -34c-13 -62 -19 -105 -19 -140
c0 -22 3 -41 7 -58l-45 -10c-5 19 -11 49 -11 83c-40 -50 -98 -89 -162 -89zM141 38c69 0 148 66 165 157l10 45h-45c-74 0 -128 -8 -162 -33c-28 -20 -43 -51 -43 -88c0 -53 25 -81 75 -81zM243 531l-73 147h67l50 -147h-44z" />
    <glyph glyph-name="aacute" unicode="&#xe1;" horiz-adv-x="449" 
d="M131 -10c-74 0 -121 51 -121 122c0 56 22 99 60 128c42 32 102 45 174 46l82 1c5 21 8 46 8 69c0 53 -29 81 -92 81c-49 0 -101 -17 -144 -39l-8 47c49 25 107 40 156 40c73 0 140 -33 140 -128c0 -39 -10 -82 -18 -119l-7 -34c-13 -62 -19 -105 -19 -140
c0 -22 3 -41 7 -58l-45 -10c-5 19 -11 49 -11 83c-40 -50 -98 -89 -162 -89zM141 38c69 0 148 66 165 157l10 45h-45c-74 0 -128 -8 -162 -33c-28 -20 -43 -51 -43 -88c0 -53 25 -81 75 -81zM220 531l77 147h67l-100 -147h-44z" />
    <glyph glyph-name="acircumflex" unicode="&#xe2;" horiz-adv-x="449" 
d="M131 -10c-74 0 -121 51 -121 122c0 56 22 99 60 128c42 32 102 45 174 46l82 1c5 21 8 46 8 69c0 53 -29 81 -92 81c-49 0 -101 -17 -144 -39l-8 47c49 25 107 40 156 40c73 0 140 -33 140 -128c0 -39 -10 -82 -18 -119l-7 -34c-13 -62 -19 -105 -19 -140
c0 -22 3 -41 7 -58l-45 -10c-5 19 -11 49 -11 83c-40 -50 -98 -89 -162 -89zM141 38c69 0 148 66 165 157l10 45h-45c-74 0 -128 -8 -162 -33c-28 -20 -43 -51 -43 -88c0 -53 25 -81 75 -81zM127 531l118 147h57l78 -147h-50l-59 109l-91 -109h-53z" />
    <glyph glyph-name="atilde" unicode="&#xe3;" horiz-adv-x="449" 
d="M131 -10c-74 0 -121 51 -121 122c0 56 22 99 60 128c42 32 102 45 174 46l82 1c5 21 8 46 8 69c0 53 -29 81 -92 81c-49 0 -101 -17 -144 -39l-8 47c49 25 107 40 156 40c73 0 140 -33 140 -128c0 -39 -10 -82 -18 -119l-7 -34c-13 -62 -19 -105 -19 -140
c0 -22 3 -41 7 -58l-45 -10c-5 19 -11 49 -11 83c-40 -50 -98 -89 -162 -89zM141 38c69 0 148 66 165 157l10 45h-45c-74 0 -128 -8 -162 -33c-28 -20 -43 -51 -43 -88c0 -53 25 -81 75 -81zM123 557c5 62 39 89 77 89c53 0 85 -50 121 -50c23 0 32 20 36 44h44
c-5 -62 -39 -89 -77 -89c-53 0 -85 50 -121 50c-23 0 -32 -20 -36 -44h-44z" />
    <glyph glyph-name="adieresis" unicode="&#xe4;" horiz-adv-x="449" 
d="M131 -10c-74 0 -121 51 -121 122c0 56 22 99 60 128c42 32 102 45 174 46l82 1c5 21 8 46 8 69c0 53 -29 81 -92 81c-49 0 -101 -17 -144 -39l-8 47c49 25 107 40 156 40c73 0 140 -33 140 -128c0 -39 -10 -82 -18 -119l-7 -34c-13 -62 -19 -105 -19 -140
c0 -22 3 -41 7 -58l-45 -10c-5 19 -11 49 -11 83c-40 -50 -98 -89 -162 -89zM141 38c69 0 148 66 165 157l10 45h-45c-74 0 -128 -8 -162 -33c-28 -20 -43 -51 -43 -88c0 -53 25 -81 75 -81zM176 568c-20 0 -31 13 -31 31c0 24 18 41 39 41c20 0 31 -13 31 -31
c0 -24 -18 -41 -39 -41zM346 568c-20 0 -31 13 -31 31c0 24 18 41 39 41c20 0 31 -13 31 -31c0 -24 -18 -41 -39 -41z" />
    <glyph glyph-name="aring" unicode="&#xe5;" horiz-adv-x="449" 
d="M131 -10c-74 0 -121 51 -121 122c0 56 22 99 60 128c42 32 102 45 174 46l82 1c5 21 8 46 8 69c0 53 -29 81 -92 81c-49 0 -101 -17 -144 -39l-8 47c49 25 107 40 156 40c73 0 140 -33 140 -128c0 -39 -10 -82 -18 -119l-7 -34c-13 -62 -19 -105 -19 -140
c0 -22 3 -41 7 -58l-45 -10c-5 19 -11 49 -11 83c-40 -50 -98 -89 -162 -89zM141 38c69 0 148 66 165 157l10 45h-45c-74 0 -128 -8 -162 -33c-28 -20 -43 -51 -43 -88c0 -53 25 -81 75 -81zM265 524c-53 0 -90 34 -90 86c0 64 48 102 104 102c53 0 90 -34 90 -86
c0 -64 -48 -102 -104 -102zM266 560c35 0 59 27 59 66c0 30 -18 50 -47 50c-35 0 -59 -27 -59 -66c0 -30 18 -50 47 -50z" />
    <glyph glyph-name="ae" unicode="&#xe6;" horiz-adv-x="730" 
d="M135 -10c-78 0 -125 51 -125 126c0 99 79 161 236 163l77 1c6 29 9 50 9 75c0 58 -29 82 -92 82c-50 0 -99 -17 -142 -39l-8 47c49 25 107 40 153 40c63 0 122 -23 135 -88h2c37 56 98 88 165 88c100 0 145 -65 145 -151c0 -33 -9 -76 -20 -97l-303 -3
c-1 -12 -2 -24 -2 -36c0 -101 51 -160 131 -160c48 0 95 19 128 39l16 -42c-40 -27 -98 -45 -149 -45c-77 0 -144 42 -162 127h-2c-41 -81 -116 -127 -192 -127zM141 38c71 0 148 61 168 168l5 27l-63 -1c-118 -2 -185 -41 -185 -113c0 -50 25 -81 75 -81zM375 281l251 3
c6 15 9 38 9 54c0 44 -16 99 -98 99c-78 0 -145 -74 -162 -156z" />
    <glyph glyph-name="ccedilla" unicode="&#xe7;" horiz-adv-x="430" 
d="M87 -198l17 36c14 -8 33 -11 47 -11c35 0 64 15 64 46s-36 38 -81 36l39 85c-79 15 -141 82 -141 189c0 177 122 302 263 302c42 0 80 -9 109 -22l-10 -48c-28 13 -61 22 -100 22c-113 0 -206 -107 -206 -246c0 -88 42 -153 130 -153c50 0 95 19 128 39l13 -41
c-36 -26 -92 -44 -141 -46l-21 -46c43 -3 68 -31 68 -66c0 -63 -54 -90 -112 -90c-25 0 -44 4 -66 14z" />
    <glyph glyph-name="egrave" unicode="&#xe8;" horiz-adv-x="451" 
d="M213 -10c-98 0 -181 66 -181 200c0 170 102 295 234 295c100 0 145 -65 145 -151c0 -33 -9 -76 -20 -101l-303 -3c-1 -11 -2 -23 -2 -33c0 -99 51 -159 131 -159c50 0 95 19 128 39l16 -42c-40 -27 -97 -45 -148 -45zM96 276l251 3c6 20 9 43 9 59c0 44 -16 99 -95 99
c-81 0 -148 -74 -165 -161zM253 531l-73 147h67l50 -147h-44z" />
    <glyph glyph-name="eacute" unicode="&#xe9;" horiz-adv-x="451" 
d="M213 -10c-98 0 -181 66 -181 200c0 170 102 295 234 295c100 0 145 -65 145 -151c0 -33 -9 -76 -20 -101l-303 -3c-1 -11 -2 -23 -2 -33c0 -99 51 -159 131 -159c50 0 95 19 128 39l16 -42c-40 -27 -97 -45 -148 -45zM96 276l251 3c6 20 9 43 9 59c0 44 -16 99 -95 99
c-81 0 -148 -74 -165 -161zM244 531l77 147h67l-100 -147h-44z" />
    <glyph glyph-name="ecircumflex" unicode="&#xea;" horiz-adv-x="451" 
d="M213 -10c-98 0 -181 66 -181 200c0 170 102 295 234 295c100 0 145 -65 145 -151c0 -33 -9 -76 -20 -101l-303 -3c-1 -11 -2 -23 -2 -33c0 -99 51 -159 131 -159c50 0 95 19 128 39l16 -42c-40 -27 -97 -45 -148 -45zM96 276l251 3c6 20 9 43 9 59c0 44 -16 99 -95 99
c-81 0 -148 -74 -165 -161zM145 531l118 147h57l78 -147h-50l-59 109l-91 -109h-53z" />
    <glyph glyph-name="edieresis" unicode="&#xeb;" horiz-adv-x="451" 
d="M213 -10c-98 0 -181 66 -181 200c0 170 102 295 234 295c100 0 145 -65 145 -151c0 -33 -9 -76 -20 -101l-303 -3c-1 -11 -2 -23 -2 -33c0 -99 51 -159 131 -159c50 0 95 19 128 39l16 -42c-40 -27 -97 -45 -148 -45zM96 276l251 3c6 20 9 43 9 59c0 44 -16 99 -95 99
c-81 0 -148 -74 -165 -161zM186 568c-20 0 -31 13 -31 31c0 24 18 41 39 41c20 0 31 -13 31 -31c0 -24 -18 -41 -39 -41zM356 568c-20 0 -31 13 -31 31c0 24 18 41 39 41c20 0 31 -13 31 -31c0 -24 -18 -41 -39 -41z" />
    <glyph glyph-name="igrave" unicode="&#xec;" horiz-adv-x="203" 
d="M133 531l-73 147h67l50 -147h-44zM11 0l99 473h52l-99 -473h-52z" />
    <glyph glyph-name="iacute" unicode="&#xed;" horiz-adv-x="203" 
d="M115 531l77 147h67l-100 -147h-44zM11 0l99 473h52l-99 -473h-52z" />
    <glyph glyph-name="icircumflex" unicode="&#xee;" horiz-adv-x="203" 
d="M11 0l99 473h52l-99 -473h-52zM18 531l118 147h57l78 -147h-50l-59 109l-91 -109h-53z" />
    <glyph glyph-name="idieresis" unicode="&#xef;" horiz-adv-x="203" 
d="M66 568c-20 0 -31 13 -31 31c0 24 18 41 39 41c20 0 31 -13 31 -31c0 -24 -18 -41 -39 -41zM236 568c-20 0 -31 13 -31 31c0 24 18 41 39 41c20 0 31 -13 31 -31c0 -24 -18 -41 -39 -41zM11 0l99 473h52l-99 -473h-52z" />
    <glyph glyph-name="eth" unicode="&#xf0;" horiz-adv-x="495" 
d="M197 -10c-119 0 -165 89 -165 186c0 188 121 309 242 309c63 0 104 -31 125 -64h2c-9 78 -38 141 -92 183l-124 -60l-18 37l101 48c-38 19 -84 30 -138 34l11 45c75 -6 134 -25 180 -53l110 53l18 -37l-92 -44c68 -62 94 -152 94 -251c0 -256 -120 -386 -254 -386z
M199 38c116 0 186 126 189 259c2 88 -38 140 -111 140c-116 0 -189 -126 -189 -258c0 -83 29 -141 111 -141z" />
    <glyph glyph-name="ntilde" unicode="&#xf1;" horiz-adv-x="468" 
d="M10 0l99 473h45l-18 -96h2c41 64 113 108 177 108c57 0 103 -33 103 -112c0 -18 -2 -43 -11 -88l-59 -285h-52l59 286c7 32 10 65 10 79c0 52 -27 71 -62 71c-43 0 -100 -30 -142 -86c-25 -33 -40 -68 -53 -129l-46 -221h-52zM147 557c5 62 39 89 77 89
c53 0 85 -50 121 -50c23 0 32 20 36 44h44c-5 -62 -39 -89 -77 -89c-53 0 -85 50 -121 50c-23 0 -32 -20 -36 -44h-44z" />
    <glyph glyph-name="ograve" unicode="&#xf2;" horiz-adv-x="488" 
d="M197 -10c-116 0 -165 80 -165 172c0 195 118 323 247 323c116 0 165 -80 165 -172c0 -195 -118 -323 -247 -323zM199 38c120 0 189 138 189 269c0 77 -30 130 -111 130c-120 0 -189 -138 -189 -269c0 -77 30 -130 111 -130zM276 531l-73 147h67l50 -147h-44z" />
    <glyph glyph-name="oacute" unicode="&#xf3;" horiz-adv-x="488" 
d="M197 -10c-116 0 -165 80 -165 172c0 195 118 323 247 323c116 0 165 -80 165 -172c0 -195 -118 -323 -247 -323zM199 38c120 0 189 138 189 269c0 77 -30 130 -111 130c-120 0 -189 -138 -189 -269c0 -77 30 -130 111 -130zM262 531l77 147h67l-100 -147h-44z" />
    <glyph glyph-name="ocircumflex" unicode="&#xf4;" horiz-adv-x="488" 
d="M197 -10c-116 0 -165 80 -165 172c0 195 118 323 247 323c116 0 165 -80 165 -172c0 -195 -118 -323 -247 -323zM199 38c120 0 189 138 189 269c0 77 -30 130 -111 130c-120 0 -189 -138 -189 -269c0 -77 30 -130 111 -130zM175 531l118 147h57l78 -147h-50l-59 109
l-91 -109h-53z" />
    <glyph glyph-name="otilde" unicode="&#xf5;" horiz-adv-x="488" 
d="M197 -10c-116 0 -165 80 -165 172c0 195 118 323 247 323c116 0 165 -80 165 -172c0 -195 -118 -323 -247 -323zM199 38c120 0 189 138 189 269c0 77 -30 130 -111 130c-120 0 -189 -138 -189 -269c0 -77 30 -130 111 -130zM165 557c5 62 39 89 77 89
c53 0 85 -50 121 -50c23 0 32 20 36 44h44c-5 -62 -39 -89 -77 -89c-53 0 -85 50 -121 50c-23 0 -32 -20 -36 -44h-44z" />
    <glyph glyph-name="odieresis" unicode="&#xf6;" horiz-adv-x="488" 
d="M197 -10c-116 0 -165 80 -165 172c0 195 118 323 247 323c116 0 165 -80 165 -172c0 -195 -118 -323 -247 -323zM199 38c120 0 189 138 189 269c0 77 -30 130 -111 130c-120 0 -189 -138 -189 -269c0 -77 30 -130 111 -130zM218 568c-20 0 -31 13 -31 31
c0 24 18 41 39 41c20 0 31 -13 31 -31c0 -24 -18 -41 -39 -41zM388 568c-20 0 -31 13 -31 31c0 24 18 41 39 41c20 0 31 -13 31 -31c0 -24 -18 -41 -39 -41z" />
    <glyph glyph-name="divide" unicode="&#xf7;" horiz-adv-x="511" 
d="M242 44c-22 0 -39 19 -39 41s17 41 39 41s39 -19 39 -41s-17 -41 -39 -41zM5 231v47h475v-47h-475zM242 382c-22 0 -39 19 -39 41s17 41 39 41s39 -19 39 -41s-17 -41 -39 -41z" />
    <glyph glyph-name="oslash" unicode="&#xf8;" horiz-adv-x="488" 
d="M51 -17l-33 29l40 47c-18 29 -26 65 -26 103c0 195 118 323 247 323c45 0 80 -12 106 -33l34 41l33 -29l-37 -45c19 -29 29 -67 29 -106c0 -195 -118 -323 -247 -323c-48 0 -84 13 -111 36zM199 38c120 0 189 138 189 269c0 25 -3 48 -11 67l-257 -308
c17 -18 43 -28 79 -28zM88 168c0 -23 2 -44 8 -62l256 306c-18 16 -42 25 -75 25c-120 0 -189 -138 -189 -269z" />
    <glyph glyph-name="ugrave" unicode="&#xf9;" horiz-adv-x="475" 
d="M143 -10c-61 0 -108 31 -108 110c0 18 2 43 11 88l59 285h52l-59 -286c-7 -32 -10 -65 -10 -79c0 -52 28 -70 62 -70c99 0 169 104 187 190l51 245h52l-56 -269c-12 -60 -18 -103 -18 -137c0 -23 3 -43 7 -61l-45 -10c-5 19 -12 55 -9 100h-2
c-42 -64 -114 -106 -174 -106zM269 531l-73 147h67l50 -147h-44z" />
    <glyph glyph-name="uacute" unicode="&#xfa;" horiz-adv-x="475" 
d="M143 -10c-61 0 -108 31 -108 110c0 18 2 43 11 88l59 285h52l-59 -286c-7 -32 -10 -65 -10 -79c0 -52 28 -70 62 -70c99 0 169 104 187 190l51 245h52l-56 -269c-12 -60 -18 -103 -18 -137c0 -23 3 -43 7 -61l-45 -10c-5 19 -12 55 -9 100h-2
c-42 -64 -114 -106 -174 -106zM258 531l77 147h67l-100 -147h-44z" />
    <glyph glyph-name="ucircumflex" unicode="&#xfb;" horiz-adv-x="475" 
d="M143 -10c-61 0 -108 31 -108 110c0 18 2 43 11 88l59 285h52l-59 -286c-7 -32 -10 -65 -10 -79c0 -52 28 -70 62 -70c99 0 169 104 187 190l51 245h52l-56 -269c-12 -60 -18 -103 -18 -137c0 -23 3 -43 7 -61l-45 -10c-5 19 -12 55 -9 100h-2
c-42 -64 -114 -106 -174 -106zM155 531l118 147h57l78 -147h-50l-59 109l-91 -109h-53z" />
    <glyph glyph-name="udieresis" unicode="&#xfc;" horiz-adv-x="475" 
d="M143 -10c-61 0 -108 31 -108 110c0 18 2 43 11 88l59 285h52l-59 -286c-7 -32 -10 -65 -10 -79c0 -52 28 -70 62 -70c99 0 169 104 187 190l51 245h52l-56 -269c-12 -60 -18 -103 -18 -137c0 -23 3 -43 7 -61l-45 -10c-5 19 -12 55 -9 100h-2
c-42 -64 -114 -106 -174 -106zM201 568c-20 0 -31 13 -31 31c0 24 18 41 39 41c20 0 31 -13 31 -31c0 -24 -18 -41 -39 -41zM371 568c-20 0 -31 13 -31 31c0 24 18 41 39 41c20 0 31 -13 31 -31c0 -24 -18 -41 -39 -41z" />
    <glyph glyph-name="yacute" unicode="&#xfd;" horiz-adv-x="414" 
d="M-127 -224l18 46c15 -7 33 -11 52 -11c70 0 127 38 196 183l-103 479h56l57 -276c11 -52 18 -87 27 -132h2c16 38 31 71 55 122l137 286h60l-245 -497c-84 -171 -153 -213 -249 -213c-24 0 -49 5 -63 13zM209 531l77 147h67l-100 -147h-44z" />
    <glyph glyph-name="thorn" unicode="&#xfe;" horiz-adv-x="482" 
d="M-39 -237l198 945h52l-48 -231c20 5 50 8 73 8c140 0 202 -90 202 -199c0 -206 -154 -296 -278 -296c-43 0 -68 5 -97 13l-50 -240h-52zM74 52c25 -11 63 -14 82 -14c128 0 226 95 226 245c0 100 -52 154 -151 154c-29 0 -57 -5 -79 -11z" />
    <glyph glyph-name="ydieresis" unicode="&#xff;" horiz-adv-x="414" 
d="M-127 -224l18 46c15 -7 33 -11 52 -11c70 0 127 38 196 183l-103 479h56l57 -276c11 -52 18 -87 27 -132h2c16 38 31 71 55 122l137 286h60l-245 -497c-84 -171 -153 -213 -249 -213c-24 0 -49 5 -63 13zM155 568c-20 0 -31 13 -31 31c0 24 18 41 39 41
c20 0 31 -13 31 -31c0 -24 -18 -41 -39 -41zM325 568c-20 0 -31 13 -31 31c0 24 18 41 39 41c20 0 31 -13 31 -31c0 -24 -18 -41 -39 -41z" />
    <glyph glyph-name="parenleftsuperior" unicode="&#x207d;" horiz-adv-x="244" 
d="M158 356c-39 49 -56 120 -56 180c0 112 52 216 154 300l26 -32c-80 -72 -131 -153 -131 -264c0 -55 15 -120 42 -160z" />
    <glyph glyph-name="parenrightsuperior" unicode="&#x207e;" horiz-adv-x="244" 
d="M71 356l-26 32c80 72 131 153 131 264c0 55 -15 120 -42 160l35 24c39 -49 56 -120 56 -180c0 -112 -52 -216 -154 -300z" />
    <glyph glyph-name="parenleftinferior" unicode="&#x208d;" horiz-adv-x="244" 
d="M58 -229c-39 49 -56 120 -56 180c0 112 52 216 154 300l26 -32c-80 -72 -131 -153 -131 -264c0 -55 15 -120 42 -160z" />
    <glyph glyph-name="parenrightinferior" unicode="&#x208e;" horiz-adv-x="244" 
d="M-29 -229l-26 32c80 72 131 153 131 264c0 55 -15 120 -42 160l35 24c39 -49 56 -120 56 -180c0 -112 -52 -216 -154 -300z" />
    <glyph glyph-name="oneeighth" unicode="&#x215b;" horiz-adv-x="825" 
d="M117 0l486 659h53l-486 -659h-53zM125 270l69 329c-37 -21 -79 -33 -114 -42v42c40 10 102 38 133 56h41l-81 -385h-48zM615 -8c-67 0 -119 36 -119 99c0 55 38 90 85 107v1c-30 18 -47 45 -47 80c0 69 58 107 123 107c70 0 115 -35 115 -96c0 -46 -29 -80 -79 -96v-1
c43 -16 64 -47 64 -86c0 -74 -65 -115 -142 -115zM619 35c39 0 89 20 89 71c0 39 -35 57 -80 70c-48 -12 -83 -40 -83 -79c0 -45 36 -62 74 -62zM643 214c43 11 80 34 80 76c0 34 -27 53 -66 53c-38 0 -74 -20 -74 -62c0 -32 27 -56 60 -67z" />
    <glyph glyph-name="threeeighths" unicode="&#x215c;" horiz-adv-x="825" 
d="M145 0l486 659h53l-486 -659h-53zM618 -8c-67 0 -119 36 -119 99c0 55 38 90 85 107v1c-30 18 -47 45 -47 80c0 69 58 107 123 107c70 0 115 -35 115 -96c0 -46 -29 -80 -79 -96v-1c43 -16 64 -47 64 -86c0 -74 -65 -115 -142 -115zM622 35c39 0 89 20 89 71
c0 39 -35 57 -80 70c-48 -12 -83 -40 -83 -79c0 -45 36 -62 74 -62zM646 214c43 11 80 34 80 76c0 34 -27 53 -66 53c-38 0 -74 -20 -74 -62c0 -32 27 -56 60 -67zM52 284l18 40c26 -12 56 -18 84 -18c61 0 106 26 106 75c0 43 -38 62 -103 62h-41l5 43h39
c69 2 111 33 111 77c0 30 -18 51 -64 51c-34 0 -63 -10 -89 -23l-17 37c30 16 69 29 112 29c67 0 107 -37 107 -90c0 -51 -37 -86 -81 -100v-2c40 -8 70 -37 70 -83c0 -69 -58 -119 -155 -119c-34 0 -74 7 -102 21z" />
    <glyph glyph-name="fiveeighths" unicode="&#x215d;" horiz-adv-x="825" 
d="M144 0l486 659h53l-486 -659h-53zM41 284l18 40c23 -11 51 -18 84 -18c56 0 106 24 106 82c0 25 -10 46 -34 57c-14 7 -33 10 -62 10h-58l40 193h198l-10 -42h-148l-23 -110h11c36 0 57 -4 74 -11c39 -17 61 -51 61 -93c0 -84 -66 -129 -158 -129c-38 0 -73 8 -99 21z
M629 -8c-67 0 -119 36 -119 99c0 55 38 90 85 107v1c-30 18 -47 45 -47 80c0 69 58 107 123 107c70 0 115 -35 115 -96c0 -46 -29 -80 -79 -96v-1c43 -16 64 -47 64 -86c0 -74 -65 -115 -142 -115zM633 35c39 0 89 20 89 71c0 39 -35 57 -80 70c-48 -12 -83 -40 -83 -79
c0 -45 36 -62 74 -62zM657 214c43 11 80 34 80 76c0 34 -27 53 -66 53c-38 0 -74 -20 -74 -62c0 -32 27 -56 60 -67z" />
    <glyph glyph-name="seveneighths" unicode="&#x215e;" horiz-adv-x="825" 
d="M115 0l486 659h53l-486 -659h-53zM607 -8c-67 0 -119 36 -119 99c0 55 38 90 85 107v1c-30 18 -47 45 -47 80c0 69 58 107 123 107c70 0 115 -35 115 -96c0 -46 -29 -80 -79 -96v-1c43 -16 64 -47 64 -86c0 -74 -65 -115 -142 -115zM611 35c39 0 89 20 89 71
c0 39 -35 57 -80 70c-48 -12 -83 -40 -83 -79c0 -45 36 -62 74 -62zM635 214c43 11 80 34 80 76c0 34 -27 53 -66 53c-38 0 -74 -20 -74 -62c0 -32 27 -56 60 -67zM133 270c35 149 108 255 178 335h-173l-7 42h242v-26c-85 -96 -155 -208 -190 -351h-50z" />
    <glyph glyph-name="onethird" unicode="&#x2153;" horiz-adv-x="825" 
d="M113 0l486 659h53l-486 -659h-53zM132 270l69 329c-37 -21 -79 -33 -114 -42v42c40 10 102 38 133 56h41l-81 -385h-48zM496 13l18 40c26 -12 56 -18 84 -18c61 0 106 26 106 75c0 43 -38 62 -103 62h-41l5 43h39c69 2 111 33 111 77c0 30 -18 51 -64 51
c-34 0 -63 -10 -89 -23l-17 37c30 16 69 29 112 29c67 0 107 -37 107 -90c0 -51 -37 -86 -81 -100v-2c40 -8 70 -37 70 -83c0 -69 -58 -119 -155 -119c-34 0 -74 7 -102 21z" />
    <glyph glyph-name="twothirds" unicode="&#x2154;" horiz-adv-x="825" 
d="M161 0l486 659h53l-486 -659h-53zM43 270c23 201 227 194 227 294c0 29 -22 49 -61 49c-35 0 -65 -13 -95 -30l-19 37c37 22 77 36 118 36c69 0 106 -38 106 -90c0 -121 -182 -131 -216 -251h184l-4 -45h-240zM535 13l18 40c26 -12 56 -18 84 -18c61 0 106 26 106 75
c0 43 -38 62 -103 62h-41l5 43h39c69 2 111 33 111 77c0 30 -18 51 -64 51c-34 0 -63 -10 -89 -23l-17 37c30 16 69 29 112 29c67 0 107 -37 107 -90c0 -51 -37 -86 -81 -100v-2c40 -8 70 -37 70 -83c0 -69 -58 -119 -155 -119c-34 0 -74 7 -102 21z" />
    <glyph glyph-name="zerosuperior" unicode="&#x2070;" horiz-adv-x="360" 
d="M204 397c-70 0 -110 54 -110 144c0 141 64 250 159 250c70 0 110 -54 110 -144c0 -141 -64 -250 -159 -250zM206 440c58 0 108 87 108 201c0 64 -14 107 -63 107c-58 0 -108 -87 -108 -201c0 -64 14 -107 63 -107z" />
    <glyph glyph-name="foursuperior" unicode="&#x2074;" horiz-adv-x="360" 
d="M234 405l18 89h-166l-7 36l237 260h47l-54 -254h53l-8 -42h-54l-18 -89h-48zM261 536l10 45c8 37 16 75 30 130l-160 -175h120z" />
    <glyph glyph-name="fivesuperior" unicode="&#x2075;" horiz-adv-x="323" 
d="M57 418l18 40c23 -11 51 -18 84 -18c56 0 106 24 106 82c0 25 -10 46 -34 57c-14 7 -33 10 -62 10h-58l40 193h198l-10 -42h-148l-23 -110h11c36 0 57 -4 74 -11c39 -17 61 -51 61 -93c0 -84 -66 -129 -158 -129c-38 0 -73 8 -99 21z" />
    <glyph glyph-name="sixsuperior" unicode="&#x2076;" horiz-adv-x="337" 
d="M204 397c-66 0 -115 45 -115 139c0 138 83 255 203 255c23 0 47 -5 62 -12l-15 -40c-12 5 -29 9 -49 9c-82 0 -131 -75 -147 -143h2c16 17 46 32 81 32c61 0 106 -40 106 -108c0 -72 -51 -132 -128 -132zM204 440c45 0 79 34 79 85c0 38 -21 69 -64 69
c-47 0 -81 -29 -81 -80c0 -38 19 -74 66 -74z" />
    <glyph glyph-name="sevensuperior" unicode="&#x2077;" horiz-adv-x="291" 
d="M96 405c35 149 108 255 178 335h-173l-7 42h242v-26c-85 -96 -155 -208 -190 -351h-50z" />
    <glyph glyph-name="eightsuperior" unicode="&#x2078;" horiz-adv-x="360" 
d="M211 397c-67 0 -119 36 -119 99c0 55 38 90 85 107v1c-30 18 -47 45 -47 80c0 69 58 107 123 107c70 0 115 -35 115 -96c0 -46 -29 -80 -79 -96v-1c43 -16 64 -47 64 -86c0 -74 -65 -115 -142 -115zM215 440c39 0 89 20 89 71c0 39 -35 57 -80 70
c-48 -12 -83 -40 -83 -79c0 -45 36 -62 74 -62zM239 619c43 11 80 34 80 76c0 34 -27 53 -66 53c-38 0 -74 -20 -74 -62c0 -32 27 -56 60 -67z" />
    <glyph glyph-name="ninesuperior" unicode="&#x2079;" horiz-adv-x="341" 
d="M76 409l13 41c14 -6 33 -10 53 -10c78 0 124 47 143 132h-2c-23 -18 -57 -27 -84 -27c-60 0 -105 37 -105 108c0 88 58 138 126 138c82 0 121 -60 121 -141c0 -161 -80 -253 -197 -253c-25 0 -50 5 -68 12zM206 588c36 0 60 15 82 33c2 11 3 23 3 33c0 63 -32 94 -72 94
c-42 0 -76 -34 -76 -90c0 -45 23 -70 63 -70z" />
    <glyph glyph-name="zeroinferior" unicode="&#x2080;" horiz-adv-x="360" 
d="M99 -188c-70 0 -110 54 -110 144c0 141 64 250 159 250c70 0 110 -54 110 -144c0 -141 -64 -250 -159 -250zM101 -145c58 0 108 87 108 201c0 64 -14 107 -63 107c-58 0 -108 -87 -108 -201c0 -64 14 -107 63 -107z" />
    <glyph glyph-name="oneinferior" unicode="&#x2081;" horiz-adv-x="277" 
d="M40 -180l69 329c-37 -21 -79 -33 -114 -42v42c40 10 102 38 133 56h41l-81 -385h-48z" />
    <glyph glyph-name="twoinferior" unicode="&#x2082;" horiz-adv-x="313" 
d="M-39 -180c23 201 227 194 227 294c0 29 -22 49 -61 49c-35 0 -65 -13 -95 -30l-19 37c37 22 77 36 118 36c69 0 106 -38 106 -90c0 -121 -182 -131 -216 -251h184l-4 -45h-240z" />
    <glyph glyph-name="threeinferior" unicode="&#x2083;" horiz-adv-x="329" 
d="M-43 -167l18 40c26 -12 56 -18 84 -18c61 0 106 26 106 75c0 43 -38 62 -103 62h-41l5 43h39c69 2 111 33 111 77c0 30 -18 51 -64 51c-34 0 -63 -10 -89 -23l-17 37c30 16 69 29 112 29c67 0 107 -37 107 -90c0 -51 -37 -86 -81 -100v-2c40 -8 70 -37 70 -83
c0 -69 -58 -119 -155 -119c-34 0 -74 7 -102 21z" />
    <glyph glyph-name="fourinferior" unicode="&#x2084;" horiz-adv-x="360" 
d="M129 -180l18 89h-166l-7 36l237 260h47l-54 -254h53l-8 -42h-54l-18 -89h-48zM156 -49l10 45c8 37 16 75 30 130l-160 -175h120z" />
    <glyph glyph-name="fiveinferior" unicode="&#x2085;" horiz-adv-x="323" 
d="M-46 -167l18 40c23 -11 51 -18 84 -18c56 0 106 24 106 82c0 25 -10 46 -34 57c-14 7 -33 10 -62 10h-58l40 193h198l-10 -42h-148l-23 -110h11c36 0 57 -4 74 -11c39 -17 61 -51 61 -93c0 -84 -66 -129 -158 -129c-38 0 -73 8 -99 21z" />
    <glyph glyph-name="sixinferior" unicode="&#x2086;" horiz-adv-x="337" 
d="M96 -188c-66 0 -115 45 -115 139c0 138 83 255 203 255c23 0 47 -5 62 -12l-15 -40c-12 5 -29 9 -49 9c-82 0 -131 -75 -147 -143h2c16 17 46 32 81 32c61 0 106 -40 106 -108c0 -72 -51 -132 -128 -132zM96 -145c45 0 79 34 79 85c0 38 -21 69 -64 69
c-47 0 -81 -29 -81 -80c0 -38 19 -74 66 -74z" />
    <glyph glyph-name="seveninferior" unicode="&#x2087;" horiz-adv-x="291" 
d="M-8 -180c35 149 108 255 178 335h-173l-7 42h242v-26c-85 -96 -155 -208 -190 -351h-50z" />
    <glyph glyph-name="eightinferior" unicode="&#x2088;" horiz-adv-x="360" 
d="M106 -188c-67 0 -119 36 -119 99c0 55 38 90 85 107v1c-30 18 -47 45 -47 80c0 69 58 107 123 107c70 0 115 -35 115 -96c0 -46 -29 -80 -79 -96v-1c43 -16 64 -47 64 -86c0 -74 -65 -115 -142 -115zM110 -145c39 0 89 20 89 71c0 39 -35 57 -80 70
c-48 -12 -83 -40 -83 -79c0 -45 36 -62 74 -62zM134 34c43 11 80 34 80 76c0 34 -27 53 -66 53c-38 0 -74 -20 -74 -62c0 -32 27 -56 60 -67z" />
    <glyph glyph-name="nineinferior" unicode="&#x2089;" horiz-adv-x="341" 
d="M-29 -176l13 41c14 -6 33 -10 53 -10c78 0 124 47 143 132h-2c-23 -18 -57 -27 -84 -27c-60 0 -105 37 -105 108c0 88 58 138 126 138c82 0 121 -60 121 -141c0 -161 -80 -253 -197 -253c-25 0 -50 5 -68 12zM101 3c36 0 60 15 82 33c2 11 3 23 3 33c0 63 -32 94 -72 94
c-42 0 -76 -34 -76 -90c0 -45 23 -70 63 -70z" />
    <glyph glyph-name="Lacute" unicode="&#x139;" horiz-adv-x="414" 
d="M14 0l138 659h52l-128 -613h248l-10 -46h-300zM167 696l77 147h67l-100 -147h-44z" />
    <glyph glyph-name="Kcommaaccent" unicode="&#x136;" horiz-adv-x="507" 
d="M14 0l138 659h52l-66 -317h3l302 317h64l-327 -341l230 -318h-65l-214 300h-2l-63 -300h-52zM100 -237l-15 39c62 19 89 48 89 91c0 17 -5 36 -13 55h50c8 -12 14 -37 14 -58c0 -57 -41 -104 -125 -127z" />
    <glyph glyph-name="Jcircumflex" unicode="&#x134;" horiz-adv-x="260" 
d="M-140 -167l18 45c17 -7 38 -11 63 -11c42 0 69 15 87 48c12 22 21 51 28 85l138 659h52l-136 -649c-10 -48 -21 -88 -38 -119c-25 -45 -66 -72 -138 -72c-24 0 -52 5 -74 14zM94 696l118 147h57l78 -147h-50l-59 109l-91 -109h-53z" />
    <glyph glyph-name="IJ" unicode="&#x132;" horiz-adv-x="472" 
d="M14 0l138 659h52l-138 -659h-52zM72 -167l18 45c17 -7 38 -11 63 -11c42 0 69 15 87 48c12 22 21 51 28 85l138 659h52l-136 -649c-10 -48 -21 -88 -38 -119c-25 -45 -66 -72 -138 -72c-24 0 -52 5 -74 14z" />
    <glyph glyph-name="Iogonek" unicode="&#x12e;" horiz-adv-x="218" 
d="M17 14l135 645h52l-138 -659c-41 -38 -92 -92 -92 -135c0 -21 10 -35 35 -35c11 0 24 3 39 8l6 -40c-23 -7 -42 -10 -58 -10c-54 0 -72 33 -72 69c0 61 55 118 93 157z" />
    <glyph glyph-name="Idotaccent" unicode="&#x130;" horiz-adv-x="218" 
d="M14 0l138 659h52l-138 -659h-52zM192 723c-22 0 -34 13 -34 33c0 28 22 47 45 47c22 0 34 -13 34 -33c0 -28 -22 -47 -45 -47z" />
    <glyph glyph-name="Ibreve" unicode="&#x12c;" horiz-adv-x="218" 
d="M14 0l138 659h52l-138 -659h-52zM188 708c-70 0 -105 45 -100 114h42c0 -43 16 -71 62 -71c48 0 73 31 87 71h43c-15 -69 -64 -114 -134 -114z" />
    <glyph glyph-name="Imacron" horiz-adv-x="218" 
d="M14 0l138 659h52l-138 -659h-52zM70 722l10 46h232l-10 -46h-232z" />
    <glyph glyph-name="Itilde" unicode="&#x128;" horiz-adv-x="218" 
d="M14 0l138 659h52l-138 -659h-52zM54 729c5 62 39 89 77 89c53 0 85 -50 121 -50c23 0 32 20 36 44h44c-5 -62 -39 -89 -77 -89c-53 0 -85 50 -121 50c-23 0 -32 -20 -36 -44h-44z" />
    <glyph glyph-name="Hbar" unicode="&#x126;" horiz-adv-x="621" 
d="M14 0l100 478h-74l10 46h73l29 135h52l-29 -135h351l29 135h52l-29 -135h76l-10 -46h-75l-100 -478h-52l65 312h-351l-65 -312h-52zM141 358h351l25 120h-351z" />
    <glyph glyph-name="Hcircumflex" unicode="&#x124;" horiz-adv-x="621" 
d="M14 0l138 659h52l-63 -301h351l63 301h52l-138 -659h-52l65 312h-351l-65 -312h-52zM258 696l118 147h57l78 -147h-50l-59 109l-91 -109h-53z" />
    <glyph glyph-name="Gcommaaccent" unicode="&#x122;" horiz-adv-x="631" 
d="M301 -10c-128 0 -256 81 -256 268c0 219 152 406 375 406c66 0 125 -16 171 -37l-12 -48c-39 20 -100 38 -155 38c-182 0 -323 -147 -323 -350c0 -162 93 -229 204 -229c58 0 114 11 150 32l50 238h52l-56 -266c-35 -25 -114 -52 -200 -52zM191 -237l-15 39
c62 19 89 48 89 91c0 17 -5 36 -13 55h50c8 -12 14 -37 14 -58c0 -57 -41 -104 -125 -127z" />
    <glyph glyph-name="Gdotaccent" unicode="&#x120;" horiz-adv-x="631" 
d="M301 -10c-128 0 -256 81 -256 268c0 219 152 406 375 406c66 0 125 -16 171 -37l-12 -48c-39 20 -100 38 -155 38c-182 0 -323 -147 -323 -350c0 -162 93 -229 204 -229c58 0 114 11 150 32l50 238h52l-56 -266c-35 -25 -114 -52 -200 -52zM401 723c-22 0 -34 13 -34 33
c0 28 22 47 45 47c22 0 34 -13 34 -33c0 -28 -22 -47 -45 -47z" />
    <glyph glyph-name="Gbreve" unicode="&#x11e;" horiz-adv-x="631" 
d="M301 -10c-128 0 -256 81 -256 268c0 219 152 406 375 406c66 0 125 -16 171 -37l-12 -48c-39 20 -100 38 -155 38c-182 0 -323 -147 -323 -350c0 -162 93 -229 204 -229c58 0 114 11 150 32l50 238h52l-56 -266c-35 -25 -114 -52 -200 -52zM399 708
c-70 0 -105 45 -100 114h42c0 -43 16 -71 62 -71c48 0 73 31 87 71h43c-15 -69 -64 -114 -134 -114z" />
    <glyph glyph-name="Gcircumflex" unicode="&#x11c;" horiz-adv-x="631" 
d="M301 -10c-128 0 -256 81 -256 268c0 219 152 406 375 406c66 0 125 -16 171 -37l-12 -48c-39 20 -100 38 -155 38c-182 0 -323 -147 -323 -350c0 -162 93 -229 204 -229c58 0 114 11 150 32l50 238h52l-56 -266c-35 -25 -114 -52 -200 -52zM273 696l118 147h57l78 -147
h-50l-59 109l-91 -109h-53z" />
    <glyph glyph-name="Eogonek" unicode="&#x118;" horiz-adv-x="441" 
d="M14 0l138 659h284l-19 -46h-223l-52 -252h217l-10 -46h-217l-56 -269h248l-10 -46h-16c-68 -32 -141 -79 -141 -135c0 -21 10 -35 35 -35c11 0 24 3 39 8l6 -40c-23 -7 -42 -10 -58 -10c-54 0 -72 33 -72 67c0 69 63 116 115 145h-208z" />
    <glyph glyph-name="Edotaccent" unicode="&#x116;" horiz-adv-x="441" 
d="M14 0l138 659h284l-19 -46h-223l-52 -252h217l-10 -46h-217l-56 -269h248l-10 -46h-300zM304 723c-22 0 -34 13 -34 33c0 28 22 47 45 47c22 0 34 -13 34 -33c0 -28 -22 -47 -45 -47z" />
    <glyph glyph-name="Ebreve" unicode="&#x114;" horiz-adv-x="441" 
d="M14 0l138 659h284l-19 -46h-223l-52 -252h217l-10 -46h-217l-56 -269h248l-10 -46h-300zM302 708c-70 0 -105 45 -100 114h42c0 -43 16 -71 62 -71c48 0 73 31 87 71h43c-15 -69 -64 -114 -134 -114z" />
    <glyph glyph-name="Emacron" unicode="&#x112;" horiz-adv-x="441" 
d="M14 0l138 659h284l-19 -46h-223l-52 -252h217l-10 -46h-217l-56 -269h248l-10 -46h-300zM184 722l10 46h232l-10 -46h-232z" />
    <glyph glyph-name="Ecaron" unicode="&#x11a;" horiz-adv-x="448" 
d="M14 0l138 659h284l-19 -46h-223l-52 -252h217l-10 -46h-217l-56 -269h248l-10 -46h-300zM268 697l-78 147h50l59 -109l91 109h53l-118 -147h-57z" />
    <glyph glyph-name="Dcroat" unicode="&#x110;" horiz-adv-x="604" 
d="M14 0l64 307h-83l10 46h83l64 306h85c72 0 129 -9 177 -30c90 -39 145 -115 145 -243c0 -145 -72 -291 -222 -352c-54 -22 -120 -34 -201 -34h-122zM76 46h72c67 0 124 11 169 30c125 53 186 176 186 313c0 97 -38 166 -119 200c-38 16 -84 24 -151 24h-39l-54 -260h172
l-10 -46h-172z" />
    <glyph glyph-name="Dcaron" unicode="&#x10e;" horiz-adv-x="604" 
d="M14 0l138 659h85c72 0 129 -9 177 -30c90 -39 145 -116 145 -238c0 -157 -72 -296 -222 -357c-54 -22 -120 -34 -201 -34h-122zM76 46h72c67 0 124 11 169 30c125 53 186 178 186 316c0 97 -38 163 -119 197c-38 16 -84 24 -151 24h-39zM298 697l-78 147h50l59 -109
l91 109h53l-118 -147h-57z" />
    <glyph glyph-name="Cdotaccent" unicode="&#x10a;" horiz-adv-x="575" 
d="M302 -10c-138 0 -257 81 -257 265c0 227 151 409 368 409c66 0 118 -16 160 -37l-12 -48c-35 20 -90 37 -145 37c-186 0 -315 -157 -315 -356c0 -131 71 -222 199 -222c65 0 120 16 176 46l12 -45c-51 -29 -119 -49 -186 -49zM391 723c-22 0 -34 13 -34 33
c0 28 22 47 45 47c22 0 34 -13 34 -33c0 -28 -22 -47 -45 -47z" />
    <glyph glyph-name="Ccaron" unicode="&#x10c;" horiz-adv-x="575" 
d="M302 -10c-138 0 -257 81 -257 265c0 227 151 409 368 409c66 0 118 -16 160 -37l-12 -48c-35 20 -90 37 -145 37c-186 0 -315 -157 -315 -356c0 -131 71 -222 199 -222c65 0 120 16 176 46l12 -45c-51 -29 -119 -49 -186 -49zM361 697l-78 147h50l59 -109l91 109h53
l-118 -147h-57z" />
    <glyph glyph-name="Ccircumflex" unicode="&#x108;" horiz-adv-x="575" 
d="M302 -10c-138 0 -257 81 -257 265c0 227 151 409 368 409c66 0 118 -16 160 -37l-12 -48c-35 20 -90 37 -145 37c-186 0 -315 -157 -315 -356c0 -131 71 -222 199 -222c65 0 120 16 176 46l12 -45c-51 -29 -119 -49 -186 -49zM263 696l118 147h57l78 -147h-50l-59 109
l-91 -109h-53z" />
    <glyph glyph-name="Cacute" unicode="&#x106;" horiz-adv-x="575" 
d="M302 -10c-138 0 -257 81 -257 265c0 227 151 409 368 409c66 0 118 -16 160 -37l-12 -48c-35 20 -90 37 -145 37c-186 0 -315 -157 -315 -356c0 -131 71 -222 199 -222c65 0 120 16 176 46l12 -45c-51 -29 -119 -49 -186 -49zM350 696l77 147h67l-100 -147h-44z" />
    <glyph glyph-name="AEacute" unicode="&#x1fc;" horiz-adv-x="723" 
d="M-67 0l452 659h297l-16 -46h-219l-33 -252h214l-7 -46h-213l-35 -269h245l-7 -46h-296l24 182h-222l-123 -182h-61zM148 228h197l49 360h-2c-31 -47 -76 -115 -95 -143zM462 696l77 147h67l-100 -147h-44z" />
    <glyph glyph-name="Aogonek" unicode="&#x104;" horiz-adv-x="537" 
d="M-33 0l333 662h36l114 -662c-64 -27 -139 -79 -139 -135c0 -21 10 -35 35 -35c11 0 24 3 39 8l6 -40c-18 -7 -42 -10 -58 -10c-54 0 -72 33 -72 67c0 80 79 133 133 158l-29 169h-250l-90 -182h-58zM139 228h217l-37 232c-5 33 -10 65 -16 105h-2
c-18 -40 -30 -69 -52 -113z" />
    <glyph glyph-name="Aringacute" unicode="&#x1fa;" horiz-adv-x="537" 
d="M-33 0l330 656c-39 9 -65 40 -65 83c0 63 47 101 102 102l57 112h67l-83 -119c31 -13 51 -41 51 -79c0 -58 -40 -95 -89 -101l114 -654h-55l-31 182h-250l-90 -182h-58zM139 228h217l-37 232c-5 33 -10 65 -16 105h-2c-18 -40 -30 -69 -52 -113zM323 689
c35 0 59 27 59 66c0 30 -18 50 -47 50c-35 0 -59 -27 -59 -66c0 -30 18 -50 47 -50z" />
    <glyph glyph-name="Abreve" unicode="&#x102;" horiz-adv-x="537" 
d="M-33 0l333 661h36l115 -661h-55l-31 182h-250l-90 -182h-58zM139 228h217l-37 232c-5 33 -10 65 -16 105h-2c-18 -40 -30 -69 -52 -113zM324 708c-70 0 -105 45 -100 114h42c0 -43 16 -71 62 -71c48 0 73 31 87 71h43c-15 -69 -64 -114 -134 -114z" />
    <glyph glyph-name="Amacron" unicode="&#x100;" horiz-adv-x="537" 
d="M-33 0l333 661h36l115 -661h-55l-31 182h-250l-90 -182h-58zM139 228h217l-37 232c-5 33 -10 65 -16 105h-2c-18 -40 -30 -69 -52 -113zM206 722l10 46h232l-10 -46h-232z" />
    <glyph glyph-name="wcircumflex" unicode="&#x175;" horiz-adv-x="640" 
d="M111 -3l-70 476h51l38 -262c7 -49 11 -82 16 -134h2c14 36 29 69 50 114l133 282h46l30 -261c6 -56 9 -87 13 -135h2c10 24 32 75 49 113l126 283h58l-224 -476h-47l-29 263c-6 53 -9 84 -13 128h-2c-15 -36 -33 -77 -58 -130l-125 -261h-46zM233 531l118 147h57l78 -147
h-50l-59 109l-91 -109h-53z" />
    <glyph glyph-name="wacute" unicode="&#x1e83;" horiz-adv-x="640" 
d="M111 -3l-70 476h51l38 -262c7 -49 11 -82 16 -134h2c14 36 29 69 50 114l133 282h46l30 -261c6 -56 9 -87 13 -135h2c10 24 32 75 49 113l126 283h58l-224 -476h-47l-29 263c-6 53 -9 84 -13 128h-2c-15 -36 -33 -77 -58 -130l-125 -261h-46zM327 531l77 147h67
l-100 -147h-44z" />
    <glyph glyph-name="wgrave" unicode="&#x1e81;" horiz-adv-x="640" 
d="M111 -3l-70 476h51l38 -262c7 -49 11 -82 16 -134h2c14 36 29 69 50 114l133 282h46l30 -261c6 -56 9 -87 13 -135h2c10 24 32 75 49 113l126 283h58l-224 -476h-47l-29 263c-6 53 -9 84 -13 128h-2c-15 -36 -33 -77 -58 -130l-125 -261h-46zM350 531l-73 147h67l50 -147
h-44z" />
    <glyph glyph-name="uogonek" unicode="&#x173;" horiz-adv-x="475" 
d="M252 -212c-54 0 -72 33 -72 67c0 79 81 135 142 169c-3 20 -6 42 -4 72h-2c-42 -64 -113 -106 -173 -106c-61 0 -108 31 -108 110c0 18 2 43 11 88l59 285h52l-59 -286c-7 -32 -10 -65 -10 -79c0 -52 28 -70 62 -70c99 0 169 104 187 190l51 245h52l-56 -269
c-12 -60 -18 -103 -18 -137c0 -23 3 -43 7 -61c-70 -33 -143 -84 -143 -141c0 -21 10 -35 35 -35c11 0 24 3 39 8l6 -40c-18 -7 -42 -10 -58 -10z" />
    <glyph glyph-name="uhungarumlaut" unicode="&#x171;" horiz-adv-x="475" 
d="M143 -10c-61 0 -108 31 -108 110c0 18 2 43 11 88l59 285h52l-59 -286c-7 -32 -10 -65 -10 -79c0 -52 28 -70 62 -70c99 0 169 104 187 190l51 245h52l-56 -269c-12 -60 -18 -103 -18 -137c0 -23 3 -43 7 -61l-45 -10c-5 19 -12 55 -9 100h-2
c-42 -64 -114 -106 -174 -106zM180 531l77 147h67l-100 -147h-44zM335 531l77 147h67l-100 -147h-44z" />
    <glyph glyph-name="uring" unicode="&#x16f;" horiz-adv-x="475" 
d="M143 -10c-61 0 -108 31 -108 110c0 18 2 43 11 88l59 285h52l-59 -286c-7 -32 -10 -65 -10 -79c0 -52 28 -70 62 -70c99 0 169 104 187 190l51 245h52l-56 -269c-12 -60 -18 -103 -18 -137c0 -23 3 -43 7 -61l-45 -10c-5 19 -12 55 -9 100h-2
c-42 -64 -114 -106 -174 -106zM282 524c-53 0 -90 34 -90 86c0 64 48 102 104 102c53 0 90 -34 90 -86c0 -64 -48 -102 -104 -102zM283 560c35 0 59 27 59 66c0 30 -18 50 -47 50c-35 0 -59 -27 -59 -66c0 -30 18 -50 47 -50z" />
    <glyph glyph-name="ubreve" unicode="&#x16d;" horiz-adv-x="475" 
d="M143 -10c-61 0 -108 31 -108 110c0 18 2 43 11 88l59 285h52l-59 -286c-7 -32 -10 -65 -10 -79c0 -52 28 -70 62 -70c99 0 169 104 187 190l51 245h52l-56 -269c-12 -60 -18 -103 -18 -137c0 -23 3 -43 7 -61l-45 -10c-5 19 -12 55 -9 100h-2
c-42 -64 -114 -106 -174 -106zM284 546c-70 0 -105 45 -100 114h42c0 -43 16 -71 62 -71c48 0 73 31 87 71h43c-15 -69 -64 -114 -134 -114z" />
    <glyph glyph-name="umacron" unicode="&#x16b;" horiz-adv-x="475" 
d="M143 -10c-61 0 -108 31 -108 110c0 18 2 43 11 88l59 285h52l-59 -286c-7 -32 -10 -65 -10 -79c0 -52 28 -70 62 -70c99 0 169 104 187 190l51 245h52l-56 -269c-12 -60 -18 -103 -18 -137c0 -23 3 -43 7 -61l-45 -10c-5 19 -12 55 -9 100h-2
c-42 -64 -114 -106 -174 -106zM174 576l10 46h232l-10 -46h-232z" />
    <glyph glyph-name="utilde" unicode="&#x169;" horiz-adv-x="475" 
d="M143 -10c-61 0 -108 31 -108 110c0 18 2 43 11 88l59 285h52l-59 -286c-7 -32 -10 -65 -10 -79c0 -52 28 -70 62 -70c99 0 169 104 187 190l51 245h52l-56 -269c-12 -60 -18 -103 -18 -137c0 -23 3 -43 7 -61l-45 -10c-5 19 -12 55 -9 100h-2
c-42 -64 -114 -106 -174 -106zM159 557c5 62 39 89 77 89c53 0 85 -50 121 -50c23 0 32 20 36 44h44c-5 -62 -39 -89 -77 -89c-53 0 -85 50 -121 50c-23 0 -32 -20 -36 -44h-44z" />
    <glyph glyph-name="tbar" unicode="&#x167;" horiz-adv-x="310" 
d="M143 -10c-62 0 -91 34 -91 82c0 16 3 34 6 50l27 129h-71l10 46h70l28 130h-75l10 46h75l23 108l55 13l-26 -121h130l-19 -46h-120l-28 -130h94l-10 -46h-93l-28 -132c-3 -14 -4 -25 -4 -36c0 -28 13 -45 46 -45c32 0 62 16 79 27l15 -42c-31 -22 -70 -33 -103 -33z" />
    <glyph glyph-name="tcommaaccent" unicode="&#x163;" horiz-adv-x="310" 
d="M143 -10c-62 0 -91 34 -91 82c0 16 3 34 6 50l64 305h-75l10 46h75l23 106l56 19l-27 -125h130l-19 -46h-120l-65 -308c-3 -14 -4 -25 -4 -36c0 -28 13 -45 46 -45c32 0 62 16 79 27l15 -42c-31 -22 -70 -33 -103 -33zM19 -237l-15 39c62 19 89 48 89 91
c0 17 -5 36 -13 55h50c8 -12 14 -37 14 -58c0 -57 -41 -104 -125 -127z" />
    <glyph glyph-name="wdieresis" unicode="&#x1e85;" horiz-adv-x="640" 
d="M111 -3l-70 476h51l38 -262c7 -49 11 -82 16 -134h2c14 36 29 69 50 114l133 282h46l30 -261c6 -56 9 -87 13 -135h2c10 24 32 75 49 113l126 283h58l-224 -476h-47l-29 263c-6 53 -9 84 -13 128h-2c-15 -36 -33 -77 -58 -130l-125 -261h-46zM283 568
c-20 0 -31 13 -31 31c0 24 18 41 39 41c20 0 31 -13 31 -31c0 -24 -18 -41 -39 -41zM453 568c-20 0 -31 13 -31 31c0 24 18 41 39 41c20 0 31 -13 31 -31c0 -24 -18 -41 -39 -41z" />
    <glyph glyph-name="ygrave" unicode="&#x1ef3;" horiz-adv-x="414" 
d="M-127 -224l18 46c15 -7 33 -11 52 -11c70 0 127 38 196 183l-103 479h56l57 -276c11 -52 18 -87 27 -132h2c16 38 31 71 55 122l137 286h60l-245 -497c-84 -171 -153 -213 -249 -213c-24 0 -49 5 -63 13zM215 531l-73 147h67l50 -147h-44z" />
    <glyph glyph-name="ycircumflex" unicode="&#x177;" horiz-adv-x="414" 
d="M-127 -224l18 46c15 -7 33 -11 52 -11c70 0 127 38 196 183l-103 479h56l57 -276c11 -52 18 -87 27 -132h2c16 38 31 71 55 122l137 286h60l-245 -497c-84 -171 -153 -213 -249 -213c-24 0 -49 5 -63 13zM112 531l118 147h57l78 -147h-50l-59 109l-91 -109h-53z" />
    <glyph glyph-name="zacute" unicode="&#x17a;" horiz-adv-x="354" 
d="M-23 0l281 427h-199l-7 46h295l-282 -427h220l-9 -46h-299zM169 531l77 147h67l-100 -147h-44z" />
    <glyph glyph-name="zdotaccent" unicode="&#x17c;" horiz-adv-x="354" 
d="M-23 0l281 427h-199l-7 46h295l-282 -427h220l-9 -46h-299zM222 593c-22 0 -34 13 -34 33c0 28 22 47 45 47c22 0 34 -13 34 -33c0 -28 -22 -47 -45 -47z" />
    <glyph glyph-name="eng" unicode="&#x14b;" horiz-adv-x="468" 
d="M10 0l99 473h45l-18 -96h2c41 64 113 108 177 108c57 0 103 -33 103 -112c0 -18 -2 -43 -11 -88l-76 -363c-19 -89 -77 -117 -139 -117c-18 0 -41 4 -57 11l15 46c11 -5 25 -9 44 -9c53 0 77 28 94 110l67 323c7 32 10 65 10 79c0 52 -27 71 -62 71
c-43 0 -100 -30 -142 -86c-25 -33 -40 -68 -53 -129l-46 -221h-52z" />
    <glyph glyph-name="tcaron" unicode="&#x165;" horiz-adv-x="310" 
d="M143 -10c-62 0 -91 34 -91 82c0 16 3 34 6 50l64 305h-75l10 46h75l23 106l56 19l-27 -125h130l-19 -46h-120l-65 -308c-3 -14 -4 -25 -4 -36c0 -28 13 -45 46 -45c32 0 62 16 79 27l15 -42c-31 -22 -70 -33 -103 -33zM239 513l61 195h57l-76 -195h-42z" />
    <glyph glyph-name="scommaaccent" unicode="&#x219;" horiz-adv-x="338" 
d="M-18 22l20 44c25 -15 59 -28 102 -28c56 0 108 28 108 85c0 99 -148 108 -148 231c0 73 50 131 148 131c29 0 66 -4 98 -16l-8 -46c-21 7 -56 15 -87 15c-54 0 -97 -24 -97 -80c0 -96 148 -102 148 -233c0 -84 -71 -135 -163 -135c-51 0 -91 13 -121 32zM4 -237l-15 39
c62 19 89 48 89 91c0 17 -5 36 -13 55h50c8 -12 14 -37 14 -58c0 -57 -41 -104 -125 -127z" />
    <glyph glyph-name="scedilla" unicode="&#x15f;" horiz-adv-x="338" 
d="M-14 -198l17 36c14 -8 33 -11 47 -11c35 0 64 15 64 46s-36 38 -81 36l38 83c-36 4 -66 15 -89 30l20 44c25 -15 59 -28 102 -28c56 0 108 28 108 85c0 97 -148 108 -148 231c0 73 50 131 148 131c29 0 66 -4 98 -16l-8 -46c-21 7 -56 15 -87 15c-54 0 -97 -24 -97 -80
c0 -94 148 -102 148 -233c0 -80 -64 -129 -149 -134l-21 -47c43 -3 68 -31 68 -66c0 -63 -54 -90 -112 -90c-25 0 -44 4 -66 14z" />
    <glyph glyph-name="scircumflex" unicode="&#x15d;" horiz-adv-x="338" 
d="M-18 22l20 44c25 -15 59 -28 102 -28c56 0 108 28 108 85c0 99 -148 108 -148 231c0 73 50 131 148 131c29 0 66 -4 98 -16l-8 -46c-21 7 -56 15 -87 15c-54 0 -97 -24 -97 -80c0 -96 148 -102 148 -233c0 -84 -71 -135 -163 -135c-51 0 -91 13 -121 32zM90 531l118 147
h57l78 -147h-50l-59 109l-91 -109h-53z" />
    <glyph glyph-name="sacute" unicode="&#x15b;" horiz-adv-x="338" 
d="M-18 22l20 44c25 -15 59 -28 102 -28c56 0 108 28 108 85c0 99 -148 108 -148 231c0 73 50 131 148 131c29 0 66 -4 98 -16l-8 -46c-21 7 -56 15 -87 15c-54 0 -97 -24 -97 -80c0 -96 148 -102 148 -233c0 -84 -71 -135 -163 -135c-51 0 -91 13 -121 32zM186 531l77 147
h67l-100 -147h-44z" />
    <glyph glyph-name="oslashacute" unicode="&#x1ff;" horiz-adv-x="488" 
d="M262 531l77 147h67l-100 -147h-44zM51 -17l-33 29l40 47c-18 29 -26 65 -26 103c0 195 118 323 247 323c45 0 80 -12 106 -33l34 41l33 -29l-37 -45c19 -29 29 -67 29 -106c0 -195 -118 -323 -247 -323c-48 0 -84 13 -111 36zM199 38c120 0 189 138 189 269
c0 25 -3 48 -11 67l-257 -308c17 -18 43 -28 79 -28zM88 168c0 -23 2 -44 8 -62l256 306c-18 16 -42 25 -75 25c-120 0 -189 -138 -189 -269z" />
    <glyph glyph-name="racute" unicode="&#x155;" horiz-adv-x="293" 
d="M10 0l99 473h45l-18 -96h2c32 72 87 108 139 108c20 0 35 -4 46 -10l-22 -51c-10 5 -23 7 -36 7c-61 0 -129 -75 -160 -224l-43 -207h-52zM187 531l77 147h67l-100 -147h-44z" />
    <glyph glyph-name="rcaron" unicode="&#x159;" horiz-adv-x="293" 
d="M10 0l99 473h45l-18 -96h2c32 72 87 108 139 108c20 0 35 -4 46 -10l-22 -51c-10 5 -23 7 -36 7c-61 0 -129 -75 -160 -224l-43 -207h-52zM181 532l-78 147h50l59 -109l91 109h53l-118 -147h-57z" />
    <glyph glyph-name="rcommaaccent" unicode="&#x157;" horiz-adv-x="293" 
d="M10 0l99 473h45l-18 -96h2c32 72 87 108 139 108c20 0 35 -4 46 -10l-22 -51c-10 5 -23 7 -36 7c-61 0 -129 -75 -160 -224l-43 -207h-52zM-54 -237l-15 39c62 19 89 48 89 91c0 17 -5 36 -13 55h50c8 -12 14 -37 14 -58c0 -57 -41 -104 -125 -127z" />
    <glyph glyph-name="ohungarumlaut" unicode="&#x151;" horiz-adv-x="488" 
d="M197 -10c-116 0 -165 80 -165 172c0 195 118 323 247 323c116 0 165 -80 165 -172c0 -195 -118 -323 -247 -323zM199 38c120 0 189 138 189 269c0 77 -30 130 -111 130c-120 0 -189 -138 -189 -269c0 -77 30 -130 111 -130zM196 531l77 147h67l-100 -147h-44zM351 531
l77 147h67l-100 -147h-44z" />
    <glyph glyph-name="obreve" unicode="&#x14f;" horiz-adv-x="488" 
d="M197 -10c-116 0 -165 80 -165 172c0 195 118 323 247 323c116 0 165 -80 165 -172c0 -195 -118 -323 -247 -323zM199 38c120 0 189 138 189 269c0 77 -30 130 -111 130c-120 0 -189 -138 -189 -269c0 -77 30 -130 111 -130zM297 546c-70 0 -105 45 -100 114h42
c0 -43 16 -71 62 -71c48 0 73 31 87 71h43c-15 -69 -64 -114 -134 -114z" />
    <glyph glyph-name="omacron" unicode="&#x14d;" horiz-adv-x="488" 
d="M197 -10c-116 0 -165 80 -165 172c0 195 118 323 247 323c116 0 165 -80 165 -172c0 -195 -118 -323 -247 -323zM199 38c120 0 189 138 189 269c0 77 -30 130 -111 130c-120 0 -189 -138 -189 -269c0 -77 30 -130 111 -130zM187 576l10 46h232l-10 -46h-232z" />
    <glyph glyph-name="Lcaron" unicode="&#x13d;" horiz-adv-x="414" 
d="M14 0l138 659h52l-128 -613h248l-10 -46h-300zM276 513l61 195h57l-76 -195h-42z" />
    <glyph glyph-name="Obreve" unicode="&#x14e;" horiz-adv-x="698" 
d="M304 -10c-154 0 -259 93 -259 278c0 198 132 396 349 396c154 0 259 -91 259 -276c0 -198 -132 -398 -349 -398zM307 38c188 0 290 185 290 352c0 141 -68 226 -204 226c-190 0 -292 -183 -292 -349c0 -141 67 -229 206 -229zM412 708c-70 0 -105 45 -100 114h42
c0 -43 16 -71 62 -71c48 0 73 31 87 71h43c-15 -69 -64 -114 -134 -114z" />
    <glyph glyph-name="Lcommaaccent" unicode="&#x13b;" horiz-adv-x="414" 
d="M14 0l138 659h52l-128 -613h248l-10 -46h-300zM66 -237l-15 39c62 19 89 48 89 91c0 17 -5 36 -13 55h50c8 -12 14 -37 14 -58c0 -57 -41 -104 -125 -127z" />
    <glyph glyph-name="Ohungarumlaut" unicode="&#x150;" horiz-adv-x="698" 
d="M304 -10c-154 0 -259 93 -259 278c0 198 132 396 349 396c154 0 259 -91 259 -276c0 -198 -132 -398 -349 -398zM307 38c188 0 290 185 290 352c0 141 -68 226 -204 226c-190 0 -292 -183 -292 -349c0 -141 67 -229 206 -229zM307 696l77 147h67l-100 -147h-44zM462 696
l77 147h67l-100 -147h-44z" />
    <glyph glyph-name="Oslashacute" unicode="&#x1fe;" horiz-adv-x="698" 
d="M304 -10c-75 0 -138 22 -183 65l-58 -62l-34 32l62 66c-29 44 -46 103 -46 177c0 198 132 396 349 396c72 0 134 -20 179 -61l62 65l34 -32l-65 -69c31 -44 49 -104 49 -179c0 -198 -132 -398 -349 -398zM307 38c188 0 290 185 290 352c0 54 -10 101 -31 137l-409 -434
c34 -35 84 -55 150 -55zM101 267c0 -53 9 -99 29 -135l407 433c-34 33 -82 51 -144 51c-190 0 -292 -183 -292 -349zM373 696l77 147h67l-100 -147h-44z" />
    <glyph glyph-name="Racute" unicode="&#x154;" horiz-adv-x="504" 
d="M14 0l138 659h105c136 0 193 -81 193 -160c0 -114 -68 -176 -184 -197v-2c9 -16 25 -46 47 -94l94 -206h-59l-73 164c-24 53 -46 98 -62 129h-86l-61 -293h-52zM137 339h65c121 0 193 53 193 155c0 64 -37 119 -143 119h-58zM251 696l77 147h67l-100 -147h-44z" />
    <glyph glyph-name="Rcaron" unicode="&#x158;" horiz-adv-x="504" 
d="M14 0l138 659h105c136 0 193 -81 193 -160c0 -114 -68 -176 -184 -197v-2c9 -16 25 -46 47 -94l94 -206h-59l-73 164c-24 53 -46 98 -62 129h-86l-61 -293h-52zM137 339h65c121 0 193 53 193 155c0 64 -37 119 -143 119h-58zM262 697l-78 147h50l59 -109l91 109h53
l-118 -147h-57z" />
    <glyph glyph-name="Rcommaaccent" unicode="&#x156;" horiz-adv-x="504" 
d="M14 0l138 659h105c136 0 193 -81 193 -160c0 -114 -68 -176 -184 -197v-2c9 -16 25 -46 47 -94l94 -206h-59l-73 164c-24 53 -46 98 -62 129h-86l-61 -293h-52zM137 339h65c121 0 193 53 193 155c0 64 -37 119 -143 119h-58zM97 -237l-15 39c62 19 89 48 89 91
c0 17 -5 36 -13 55h50c8 -12 14 -37 14 -58c0 -57 -41 -104 -125 -127z" />
    <glyph glyph-name="Sacute" unicode="&#x15a;" horiz-adv-x="453" 
d="M8 30l21 44c25 -17 71 -36 125 -36c74 0 151 34 151 134c0 160 -209 161 -209 327c0 101 80 165 189 165c52 0 96 -12 132 -30l-11 -47c-32 17 -74 30 -122 30c-66 0 -133 -35 -133 -112c0 -137 209 -142 209 -328c0 -133 -101 -187 -208 -187c-64 0 -114 21 -144 40z
M256 696l77 147h67l-100 -147h-44z" />
    <glyph glyph-name="Scircumflex" unicode="&#x15c;" horiz-adv-x="453" 
d="M8 30l21 44c25 -17 71 -36 125 -36c74 0 151 34 151 134c0 160 -209 161 -209 327c0 101 80 165 189 165c52 0 96 -12 132 -30l-11 -47c-32 17 -74 30 -122 30c-66 0 -133 -35 -133 -112c0 -137 209 -142 209 -328c0 -133 -101 -187 -208 -187c-64 0 -114 21 -144 40z
M155 696l118 147h57l78 -147h-50l-59 109l-91 -109h-53z" />
    <glyph glyph-name="Scedilla" unicode="&#x15e;" horiz-adv-x="453" 
d="M38 -198l17 36c14 -8 33 -11 47 -11c35 0 64 15 64 46s-36 38 -81 36l38 83c-50 5 -90 22 -115 38l21 44c25 -17 71 -36 125 -36c74 0 151 34 151 134c0 160 -209 161 -209 327c0 101 80 165 189 165c52 0 96 -12 132 -30l-11 -47c-32 17 -74 30 -122 30
c-66 0 -133 -35 -133 -112c0 -137 209 -142 209 -328c0 -126 -90 -181 -191 -186l-21 -47c43 -3 68 -31 68 -66c0 -63 -54 -90 -112 -90c-25 0 -44 4 -66 14z" />
    <glyph glyph-name="Scommaaccent" unicode="&#x218;" horiz-adv-x="453" 
d="M8 30l21 44c25 -17 71 -36 125 -36c74 0 151 34 151 134c0 160 -209 161 -209 327c0 101 80 165 189 165c52 0 96 -12 132 -30l-11 -47c-32 17 -74 30 -122 30c-66 0 -133 -35 -133 -112c0 -137 209 -142 209 -328c0 -133 -101 -187 -208 -187c-64 0 -114 21 -144 40z
M53 -237l-15 39c62 19 89 48 89 91c0 17 -5 36 -13 55h50c8 -12 14 -37 14 -58c0 -57 -41 -104 -125 -127z" />
    <glyph glyph-name="Tcaron" unicode="&#x164;" horiz-adv-x="454" 
d="M131 0l128 613h-193l10 46h440l-19 -46h-186l-128 -613h-52zM278 697l-78 147h50l59 -109l91 109h53l-118 -147h-57z" />
    <glyph glyph-name="Ldot" unicode="&#x13f;" horiz-adv-x="414" 
d="M14 0l138 659h52l-128 -613h248l-10 -46h-300zM308 301c-22 0 -36 19 -36 38c0 26 18 44 42 44c22 0 36 -19 36 -38c0 -26 -18 -44 -42 -44z" />
    <glyph glyph-name="Nacute" unicode="&#x143;" horiz-adv-x="659" 
d="M14 0l138 659h48l230 -471c15 -31 32 -67 45 -98h2c7 41 14 78 21 111l95 458h52l-138 -659h-39l-237 485c-15 31 -32 65 -44 96h-2c-6 -44 -14 -81 -19 -105l-100 -476h-52zM368 696l77 147h67l-100 -147h-44z" />
    <glyph glyph-name="Tcommaaccent" unicode="&#x162;" horiz-adv-x="454" 
d="M131 0l128 613h-193l10 46h440l-19 -46h-186l-128 -613h-52zM64 -237l-15 39c62 19 89 48 89 91c0 17 -5 36 -13 55h50c8 -12 14 -37 14 -58c0 -57 -41 -104 -125 -127z" />
    <glyph glyph-name="Tbar" unicode="&#x166;" horiz-adv-x="454" 
d="M131 0l64 309h-114l10 46h114l54 258h-193l10 46h440l-19 -46h-186l-54 -258h116l-10 -46h-116l-64 -309h-52z" />
    <glyph glyph-name="Utilde" unicode="&#x168;" horiz-adv-x="614" 
d="M252 -10c-121 0 -194 66 -194 182c0 27 5 56 11 85l84 402h52l-83 -397c-6 -30 -11 -59 -11 -86c0 -93 57 -139 147 -139c65 0 110 18 142 51c30 31 48 76 60 132l92 439h52l-94 -451c-14 -69 -38 -119 -73 -154c-45 -45 -105 -64 -185 -64zM257 729c5 62 39 89 77 89
c53 0 85 -50 121 -50c23 0 32 20 36 44h44c-5 -62 -39 -89 -77 -89c-53 0 -85 50 -121 50c-23 0 -32 -20 -36 -44h-44z" />
    <glyph glyph-name="Umacron" unicode="&#x16a;" horiz-adv-x="614" 
d="M252 -10c-121 0 -194 66 -194 182c0 27 5 56 11 85l84 402h52l-83 -397c-6 -30 -11 -59 -11 -86c0 -93 57 -139 147 -139c65 0 110 18 142 51c30 31 48 76 60 132l92 439h52l-94 -451c-14 -69 -38 -119 -73 -154c-45 -45 -105 -64 -185 -64zM273 722l10 46h232l-10 -46
h-232z" />
    <glyph glyph-name="Ubreve" unicode="&#x16c;" horiz-adv-x="614" 
d="M252 -10c-121 0 -194 66 -194 182c0 27 5 56 11 85l84 402h52l-83 -397c-6 -30 -11 -59 -11 -86c0 -93 57 -139 147 -139c65 0 110 18 142 51c30 31 48 76 60 132l92 439h52l-94 -451c-14 -69 -38 -119 -73 -154c-45 -45 -105 -64 -185 -64zM388 708
c-70 0 -105 45 -100 114h42c0 -43 16 -71 62 -71c48 0 73 31 87 71h43c-15 -69 -64 -114 -134 -114z" />
    <glyph glyph-name="Uring" unicode="&#x16e;" horiz-adv-x="614" 
d="M252 -10c-121 0 -194 66 -194 182c0 27 5 56 11 85l84 402h52l-83 -397c-6 -30 -11 -59 -11 -86c0 -93 57 -139 147 -139c65 0 110 18 142 51c30 31 48 76 60 132l92 439h52l-94 -451c-14 -69 -38 -119 -73 -154c-45 -45 -105 -64 -185 -64zM378 653c-53 0 -90 34 -90 86
c0 64 48 102 104 102c53 0 90 -34 90 -86c0 -64 -48 -102 -104 -102zM379 689c35 0 59 27 59 66c0 30 -18 50 -47 50c-35 0 -59 -27 -59 -66c0 -30 18 -50 47 -50z" />
    <glyph glyph-name="Uhungarumlaut" unicode="&#x170;" horiz-adv-x="614" 
d="M252 -10c-121 0 -194 66 -194 182c0 27 5 56 11 85l84 402h52l-83 -397c-6 -30 -11 -59 -11 -86c0 -93 57 -139 147 -139c65 0 110 18 142 51c30 31 48 76 60 132l92 439h52l-94 -451c-14 -69 -38 -119 -73 -154c-45 -45 -105 -64 -185 -64zM280 696l77 147h67l-100 -147
h-44zM435 696l77 147h67l-100 -147h-44z" />
    <glyph glyph-name="Uogonek" unicode="&#x172;" horiz-adv-x="614" 
d="M222 -212c-54 0 -72 33 -72 67c0 62 47 104 95 133v2c-116 2 -187 67 -187 182c0 27 5 56 11 85l84 402h52l-83 -397c-6 -30 -11 -59 -11 -86c0 -93 56 -139 146 -139c125 0 179 67 203 183l92 439h52l-94 -451c-25 -122 -80 -178 -149 -202c-79 -27 -161 -85 -161 -141
c0 -21 10 -35 35 -35c11 0 24 3 39 8l6 -40c-23 -7 -42 -10 -58 -10z" />
    <glyph glyph-name="Wgrave" unicode="&#x1e80;" horiz-adv-x="784" 
d="M157 -3l-87 662h58l49 -421c6 -49 10 -86 16 -155h2c22 56 40 99 62 145l155 321l-14 110h56l49 -421c6 -49 10 -93 15 -155h2c20 56 39 99 61 145l203 431h60l-321 -662h-41l-41 324c-7 55 -12 94 -16 143h-2c-25 -58 -43 -96 -69 -150l-153 -317h-44zM430 696l-73 147
h67l50 -147h-44z" />
    <glyph glyph-name="Wacute" unicode="&#x1e82;" horiz-adv-x="784" 
d="M157 -3l-87 662h58l49 -421c6 -49 10 -86 16 -155h2c22 56 40 99 62 145l155 321l-14 110h56l49 -421c6 -49 10 -93 15 -155h2c20 56 39 99 61 145l203 431h60l-321 -662h-41l-41 324c-7 55 -12 94 -16 143h-2c-25 -58 -43 -96 -69 -150l-153 -317h-44zM422 696l77 147
h67l-100 -147h-44z" />
    <glyph glyph-name="Wcircumflex" unicode="&#x174;" horiz-adv-x="784" 
d="M157 -3l-87 662h58l49 -421c6 -49 10 -86 16 -155h2c22 56 40 99 62 145l155 321l-14 110h56l49 -421c6 -49 10 -93 15 -155h2c20 56 39 99 61 145l203 431h60l-321 -662h-41l-41 324c-7 55 -12 94 -16 143h-2c-25 -58 -43 -96 -69 -150l-153 -317h-44zM335 696l118 147
h57l78 -147h-50l-59 109l-91 -109h-53z" />
    <glyph glyph-name="Wdieresis" unicode="&#x1e84;" horiz-adv-x="784" 
d="M157 -3l-87 662h58l49 -421c6 -49 10 -86 16 -155h2c22 56 40 99 62 145l155 321l-14 110h56l49 -421c6 -49 10 -93 15 -155h2c20 56 39 99 61 145l203 431h60l-321 -662h-41l-41 324c-7 55 -12 94 -16 143h-2c-25 -58 -43 -96 -69 -150l-153 -317h-44zM373 708
c-20 0 -31 13 -31 31c0 24 18 41 39 41c20 0 31 -13 31 -31c0 -24 -18 -41 -39 -41zM543 708c-20 0 -31 13 -31 31c0 24 18 41 39 41c20 0 31 -13 31 -31c0 -24 -18 -41 -39 -41z" />
    <glyph glyph-name="Ncaron" unicode="&#x147;" horiz-adv-x="659" 
d="M14 0l138 659h48l230 -471c15 -31 32 -67 45 -98h2c7 41 14 78 21 111l95 458h52l-138 -659h-39l-237 485c-15 31 -32 65 -44 96h-2c-6 -44 -14 -81 -19 -105l-100 -476h-52zM379 697l-78 147h50l59 -109l91 109h53l-118 -147h-57z" />
    <glyph glyph-name="Ygrave" unicode="&#x1ef2;" horiz-adv-x="469" 
d="M157 0l52 253l-139 406h57l114 -346h2l226 346h60l-267 -406l-53 -253h-52zM275 696l-73 147h67l50 -147h-44z" />
    <glyph glyph-name="Ycircumflex" unicode="&#x176;" horiz-adv-x="469" 
d="M157 0l52 253l-139 406h57l114 -346h2l226 346h60l-267 -406l-53 -253h-52zM169 696l118 147h57l78 -147h-50l-59 109l-91 -109h-53z" />
    <glyph glyph-name="Ncommaaccent" unicode="&#x145;" horiz-adv-x="659" 
d="M14 0l138 659h48l230 -471c15 -31 32 -67 45 -98h2c7 41 14 78 21 111l95 458h52l-138 -659h-39l-237 485c-15 31 -32 65 -44 96h-2c-6 -44 -14 -81 -19 -105l-100 -476h-52zM173 -237l-15 39c62 19 89 48 89 91c0 17 -5 36 -13 55h50c8 -12 14 -37 14 -58
c0 -57 -41 -104 -125 -127z" />
    <glyph glyph-name="Zacute" unicode="&#x179;" 
d="M-20 0l436 613h-306l-7 46h405l-435 -613h341l-10 -46h-424zM269 696l77 147h67l-100 -147h-44z" />
    <glyph glyph-name="Zdotaccent" unicode="&#x17b;" 
d="M-20 0l436 613h-306l-7 46h405l-435 -613h341l-10 -46h-424zM297 723c-22 0 -34 13 -34 33c0 28 22 47 45 47c22 0 34 -13 34 -33c0 -28 -22 -47 -45 -47z" />
    <glyph glyph-name="Eng" unicode="&#x14a;" horiz-adv-x="659" 
d="M14 0l138 659h48l230 -471c15 -31 32 -67 45 -98h2c7 41 14 78 21 111l95 458h52l-155 -737c-19 -89 -77 -117 -139 -117c-18 0 -41 4 -57 11l15 46c11 -5 25 -9 44 -9c53 0 76 28 94 110l12 56l-228 466c-15 31 -32 65 -44 96h-2c-6 -44 -14 -81 -19 -105l-100 -476h-52
z" />
    <glyph glyph-name="amacron" unicode="&#x101;" horiz-adv-x="449" 
d="M131 -10c-74 0 -121 51 -121 122c0 56 22 99 60 128c42 32 102 45 174 46l82 1c5 21 8 46 8 69c0 53 -29 81 -92 81c-49 0 -101 -17 -144 -39l-8 47c49 25 107 40 156 40c73 0 140 -33 140 -128c0 -39 -10 -82 -18 -119l-7 -34c-13 -62 -19 -105 -19 -140
c0 -22 3 -41 7 -58l-45 -10c-5 19 -11 49 -11 83c-40 -50 -98 -89 -162 -89zM141 38c69 0 148 66 165 157l10 45h-45c-74 0 -128 -8 -162 -33c-28 -20 -43 -51 -43 -88c0 -53 25 -81 75 -81zM145 576l10 46h232l-10 -46h-232z" />
    <glyph glyph-name="abreve" unicode="&#x103;" horiz-adv-x="449" 
d="M131 -10c-74 0 -121 51 -121 122c0 56 22 99 60 128c42 32 102 45 174 46l82 1c5 21 8 46 8 69c0 53 -29 81 -92 81c-49 0 -101 -17 -144 -39l-8 47c49 25 107 40 156 40c73 0 140 -33 140 -128c0 -39 -10 -82 -18 -119l-7 -34c-13 -62 -19 -105 -19 -140
c0 -22 3 -41 7 -58l-45 -10c-5 19 -11 49 -11 83c-40 -50 -98 -89 -162 -89zM141 38c69 0 148 66 165 157l10 45h-45c-74 0 -128 -8 -162 -33c-28 -20 -43 -51 -43 -88c0 -53 25 -81 75 -81zM259 546c-70 0 -105 45 -100 114h42c0 -43 16 -71 62 -71c48 0 73 31 87 71h43
c-15 -69 -64 -114 -134 -114z" />
    <glyph glyph-name="aringacute" unicode="&#x1fb;" horiz-adv-x="449" 
d="M263 517c-53 0 -90 34 -90 86c0 62 46 100 100 102l71 138h67l-98 -144c33 -12 54 -41 54 -80c0 -64 -48 -102 -104 -102zM264 553c35 0 59 27 59 66c0 30 -18 50 -47 50c-35 0 -59 -27 -59 -66c0 -30 18 -50 47 -50zM131 -10c-74 0 -121 51 -121 122c0 56 22 99 60 128
c42 32 102 45 174 46l82 1c5 21 8 46 8 69c0 53 -29 81 -92 81c-49 0 -101 -17 -144 -39l-8 47c49 25 107 40 156 40c73 0 140 -33 140 -128c0 -39 -10 -82 -18 -119l-7 -34c-13 -62 -19 -105 -19 -140c0 -22 3 -41 7 -58l-45 -10c-5 19 -11 49 -11 83
c-40 -50 -98 -89 -162 -89zM141 38c69 0 148 66 165 157l10 45h-45c-74 0 -128 -8 -162 -33c-28 -20 -43 -51 -43 -88c0 -53 25 -81 75 -81z" />
    <glyph glyph-name="aogonek" unicode="&#x105;" horiz-adv-x="449" 
d="M131 -10c-74 0 -121 51 -121 122c0 56 22 99 60 128c42 32 102 45 174 46l82 1c5 21 8 44 8 69c0 53 -29 81 -92 81c-49 0 -101 -17 -144 -39l-8 47c49 25 107 40 156 40c73 0 140 -33 140 -128c0 -39 -10 -82 -18 -119l-7 -34c-13 -63 -19 -108 -19 -143
c0 -22 3 -40 7 -57c-63 -29 -139 -83 -139 -139c0 -21 10 -35 35 -35c11 0 24 3 39 8l6 -40c-18 -7 -42 -10 -58 -10c-54 0 -72 33 -72 67c0 79 79 132 138 165c-3 17 -5 38 -5 59c-40 -50 -98 -89 -162 -89zM141 38c69 0 148 66 165 157l10 45h-45c-74 0 -128 -8 -162 -33
c-28 -20 -43 -51 -43 -88c0 -53 25 -81 75 -81z" />
    <glyph glyph-name="aeacute" unicode="&#x1fd;" horiz-adv-x="730" 
d="M135 -10c-78 0 -125 51 -125 126c0 99 79 161 236 163l77 1c6 29 9 50 9 75c0 58 -29 82 -92 82c-50 0 -99 -17 -142 -39l-8 47c49 25 107 40 153 40c63 0 122 -23 135 -88h2c37 56 98 88 165 88c100 0 145 -65 145 -151c0 -33 -9 -76 -20 -97l-303 -3
c-1 -12 -2 -24 -2 -36c0 -101 51 -160 131 -160c48 0 95 19 128 39l16 -42c-40 -27 -98 -45 -149 -45c-77 0 -144 42 -162 127h-2c-41 -81 -116 -127 -192 -127zM141 38c71 0 148 61 168 168l5 27l-63 -1c-118 -2 -185 -41 -185 -113c0 -50 25 -81 75 -81zM375 281l251 3
c6 15 9 38 9 54c0 44 -16 99 -98 99c-78 0 -145 -74 -162 -156zM372 531l77 147h67l-100 -147h-44z" />
    <glyph glyph-name="cacute" unicode="&#x107;" horiz-adv-x="430" 
d="M214 -10c-102 0 -182 68 -182 193c0 175 121 302 263 302c42 0 80 -9 109 -22l-10 -48c-28 13 -61 22 -100 22c-114 0 -206 -109 -206 -246c0 -88 42 -153 130 -153c50 0 95 19 128 39l13 -41c-38 -27 -95 -46 -145 -46zM249 531l77 147h67l-100 -147h-44z" />
    <glyph glyph-name="ccircumflex" unicode="&#x109;" horiz-adv-x="430" 
d="M214 -10c-102 0 -182 68 -182 193c0 175 121 302 263 302c42 0 80 -9 109 -22l-10 -48c-28 13 -61 22 -100 22c-114 0 -206 -109 -206 -246c0 -88 42 -153 130 -153c50 0 95 19 128 39l13 -41c-38 -27 -95 -46 -145 -46zM150 531l118 147h57l78 -147h-50l-59 109
l-91 -109h-53z" />
    <glyph glyph-name="Omacron" unicode="&#x14c;" horiz-adv-x="698" 
d="M304 -10c-154 0 -259 93 -259 278c0 198 132 396 349 396c154 0 259 -91 259 -276c0 -198 -132 -398 -349 -398zM307 38c188 0 290 185 290 352c0 141 -68 226 -204 226c-190 0 -292 -183 -292 -349c0 -141 67 -229 206 -229zM289 722l10 46h232l-10 -46h-232z" />
    <glyph glyph-name="ccaron" unicode="&#x10d;" horiz-adv-x="430" 
d="M214 -10c-102 0 -182 68 -182 193c0 175 121 302 263 302c42 0 80 -9 109 -22l-10 -48c-28 13 -61 22 -100 22c-114 0 -206 -109 -206 -246c0 -88 42 -153 130 -153c50 0 95 19 128 39l13 -41c-38 -27 -95 -46 -145 -46zM248 532l-78 147h50l59 -109l91 109h53l-118 -147
h-57z" />
    <glyph glyph-name="cdotaccent" unicode="&#x10b;" horiz-adv-x="430" 
d="M214 -10c-102 0 -182 68 -182 193c0 175 121 302 263 302c42 0 80 -9 109 -22l-10 -48c-28 13 -61 22 -100 22c-114 0 -206 -109 -206 -246c0 -88 42 -153 130 -153c50 0 95 19 128 39l13 -41c-38 -27 -95 -46 -145 -46zM287 593c-22 0 -34 13 -34 33c0 28 22 47 45 47
c22 0 34 -13 34 -33c0 -28 -22 -47 -45 -47z" />
    <glyph glyph-name="dcaron" unicode="&#x10f;" horiz-adv-x="474" 
d="M224 -10c-105 0 -192 68 -192 201c0 185 131 294 269 294c38 0 75 -7 102 -17l50 240h52l-144 -688c-33 -16 -93 -30 -137 -30zM232 38c29 0 62 7 84 17l76 365c-26 10 -58 17 -88 17c-115 0 -216 -92 -216 -241c0 -93 46 -158 144 -158zM515 513l61 195h57l-76 -195h-42
z" />
    <glyph glyph-name="dcroat" unicode="&#x111;" horiz-adv-x="474" 
d="M224 -10c-105 0 -192 68 -192 201c0 185 131 294 269 294c38 0 75 -7 102 -17l21 103h-136l10 46h136l19 91h52l-19 -91h64l-10 -46h-64l-115 -551c-33 -16 -93 -30 -137 -30zM232 38c29 0 62 7 84 17l76 365c-26 10 -58 17 -88 17c-115 0 -216 -92 -216 -241
c0 -93 46 -158 144 -158z" />
    <glyph glyph-name="ecaron" unicode="&#x11b;" horiz-adv-x="451" 
d="M213 -10c-98 0 -181 66 -181 200c0 170 102 295 234 295c100 0 145 -65 145 -151c0 -33 -9 -76 -20 -101l-303 -3c-1 -11 -2 -23 -2 -33c0 -99 51 -159 131 -159c50 0 95 19 128 39l16 -42c-40 -27 -97 -45 -148 -45zM96 276l251 3c6 20 9 43 9 59c0 44 -16 99 -95 99
c-81 0 -148 -74 -165 -161zM243 532l-78 147h50l59 -109l91 109h53l-118 -147h-57z" />
    <glyph glyph-name="emacron" unicode="&#x113;" horiz-adv-x="451" 
d="M213 -10c-98 0 -181 66 -181 200c0 170 102 295 234 295c100 0 145 -65 145 -151c0 -33 -9 -76 -20 -101l-303 -3c-1 -11 -2 -23 -2 -33c0 -99 51 -159 131 -159c50 0 95 19 128 39l16 -42c-40 -27 -97 -45 -148 -45zM96 276l251 3c6 20 9 43 9 59c0 44 -16 99 -95 99
c-81 0 -148 -74 -165 -161zM167 576l10 46h232l-10 -46h-232z" />
    <glyph glyph-name="ebreve" unicode="&#x115;" horiz-adv-x="451" 
d="M213 -10c-98 0 -181 66 -181 200c0 170 102 295 234 295c100 0 145 -65 145 -151c0 -33 -9 -76 -20 -101l-303 -3c-1 -11 -2 -23 -2 -33c0 -99 51 -159 131 -159c50 0 95 19 128 39l16 -42c-40 -27 -97 -45 -148 -45zM96 276l251 3c6 20 9 43 9 59c0 44 -16 99 -95 99
c-81 0 -148 -74 -165 -161zM269 546c-70 0 -105 45 -100 114h42c0 -43 16 -71 62 -71c48 0 73 31 87 71h43c-15 -69 -64 -114 -134 -114z" />
    <glyph glyph-name="edotaccent" unicode="&#x117;" horiz-adv-x="451" 
d="M213 -10c-98 0 -181 66 -181 200c0 170 102 295 234 295c100 0 145 -65 145 -151c0 -33 -9 -76 -20 -101l-303 -3c-1 -11 -2 -23 -2 -33c0 -99 51 -159 131 -159c50 0 95 19 128 39l16 -42c-40 -27 -97 -45 -148 -45zM96 276l251 3c6 20 9 43 9 59c0 44 -16 99 -95 99
c-81 0 -148 -74 -165 -161zM280 593c-22 0 -34 13 -34 33c0 28 22 47 45 47c22 0 34 -13 34 -33c0 -28 -22 -47 -45 -47z" />
    <glyph glyph-name="eogonek" unicode="&#x119;" horiz-adv-x="451" 
d="M227 -212c-54 0 -72 33 -72 67c0 55 35 96 85 135v2c-119 -14 -208 60 -208 196c0 172 102 297 234 297c100 0 145 -65 145 -151c0 -33 -9 -76 -20 -101l-303 -3c-1 -8 -2 -25 -2 -34c0 -99 51 -158 131 -158c48 0 95 19 128 39l15 -41c-60 -35 -155 -113 -155 -171
c0 -21 10 -35 35 -35c11 0 24 3 39 8l6 -40c-18 -7 -42 -10 -58 -10zM96 276l251 3c6 20 9 43 9 59c0 44 -16 99 -95 99c-81 0 -148 -74 -165 -161z" />
    <glyph glyph-name="gcircumflex" unicode="&#x11d;" horiz-adv-x="472" 
d="M-9 -201l21 45c39 -24 79 -34 118 -34c102 0 145 59 171 179l19 87h-2c-51 -65 -110 -85 -154 -85c-83 0 -132 56 -132 156c0 167 94 338 287 338c47 0 102 -10 133 -22l-104 -500c-22 -106 -70 -200 -221 -200c-42 0 -94 12 -136 36zM170 38c54 0 151 50 188 224l35 165
c-13 4 -41 10 -77 10c-145 0 -228 -137 -228 -280c0 -65 21 -119 82 -119zM179 531l118 147h57l78 -147h-50l-59 109l-91 -109h-53z" />
    <glyph glyph-name="gbreve" unicode="&#x11f;" horiz-adv-x="472" 
d="M-9 -201l21 45c39 -24 79 -34 118 -34c102 0 145 59 171 179l19 87h-2c-51 -65 -110 -85 -154 -85c-83 0 -132 56 -132 156c0 167 94 338 287 338c47 0 102 -10 133 -22l-104 -500c-22 -106 -70 -200 -221 -200c-42 0 -94 12 -136 36zM170 38c54 0 151 50 188 224l35 165
c-13 4 -41 10 -77 10c-145 0 -228 -137 -228 -280c0 -65 21 -119 82 -119zM308 546c-70 0 -105 45 -100 114h42c0 -43 16 -71 62 -71c48 0 73 31 87 71h43c-15 -69 -64 -114 -134 -114z" />
    <glyph glyph-name="gdotaccent" unicode="&#x121;" horiz-adv-x="472" 
d="M-9 -201l21 45c39 -24 79 -34 118 -34c102 0 145 59 171 179l19 87h-2c-51 -65 -110 -85 -154 -85c-83 0 -132 56 -132 156c0 167 94 338 287 338c47 0 102 -10 133 -22l-104 -500c-22 -106 -70 -200 -221 -200c-42 0 -94 12 -136 36zM170 38c54 0 151 50 188 224l35 165
c-13 4 -41 10 -77 10c-145 0 -228 -137 -228 -280c0 -65 21 -119 82 -119zM311 593c-22 0 -34 13 -34 33c0 28 22 47 45 47c22 0 34 -13 34 -33c0 -28 -22 -47 -45 -47z" />
    <glyph glyph-name="gcommaaccent" unicode="&#x123;" horiz-adv-x="472" 
d="M273 531c-8 12 -14 31 -14 49c0 66 38 113 130 136l14 -37c-67 -20 -93 -50 -93 -93c0 -17 5 -36 13 -55h-50zM-9 -201l21 45c39 -24 79 -34 118 -34c102 0 145 59 171 179l19 87h-2c-51 -65 -110 -85 -154 -85c-83 0 -132 57 -132 165c0 159 94 329 287 329
c47 0 102 -10 133 -22l-104 -500c-22 -106 -70 -200 -221 -200c-42 0 -94 12 -136 36zM170 38c54 0 151 50 188 224l35 165c-13 4 -41 10 -77 10c-145 0 -228 -136 -228 -270c0 -74 21 -129 82 -129z" />
    <glyph glyph-name="hcircumflex" unicode="&#x125;" horiz-adv-x="468" 
d="M10 0l148 708h52l-50 -240c-6 -31 -15 -64 -24 -91h2c41 64 113 108 177 108c57 0 103 -33 103 -112c0 -18 -2 -43 -11 -88l-59 -285h-52l59 286c7 32 10 65 10 79c0 52 -27 71 -62 71c-43 0 -100 -30 -142 -86c-25 -33 -40 -68 -53 -129l-46 -221h-52zM59 726l118 147
h57l78 -147h-50l-59 109l-91 -109h-53z" />
    <glyph glyph-name="hbar" unicode="&#x127;" horiz-adv-x="468" 
d="M10 0l118 566h-67l10 46h67l20 96h52l-20 -96h123l-10 -46h-123l-20 -98c-6 -31 -15 -64 -24 -91h2c41 64 113 108 177 108c57 0 103 -33 103 -112c0 -18 -2 -43 -11 -88l-59 -285h-52l59 286c7 32 10 65 10 79c0 52 -27 71 -62 71c-43 0 -100 -30 -142 -86
c-25 -33 -40 -68 -53 -129l-46 -221h-52z" />
    <glyph glyph-name="itilde" unicode="&#x129;" horiz-adv-x="203" 
d="M15 557c5 62 39 89 77 89c53 0 85 -50 121 -50c23 0 32 20 36 44h44c-5 -62 -39 -89 -77 -89c-53 0 -85 50 -121 50c-23 0 -32 -20 -36 -44h-44zM11 0l99 473h52l-99 -473h-52z" />
    <glyph glyph-name="imacron" unicode="&#x12b;" horiz-adv-x="203" 
d="M35 576l10 46h232l-10 -46h-232zM11 0l99 473h52l-99 -473h-52z" />
    <glyph glyph-name="ibreve" horiz-adv-x="203" 
d="M147 546c-70 0 -105 45 -100 114h42c0 -43 16 -71 62 -71c48 0 73 31 87 71h43c-15 -69 -64 -114 -134 -114zM11 0l99 473h52l-99 -473h-52z" />
    <glyph glyph-name="iogonek" unicode="&#x12f;" horiz-adv-x="203" 
d="M-8 -212c-54 0 -72 33 -72 69c0 61 55 118 93 157l96 459h52l-99 -473c-41 -38 -92 -92 -92 -135c0 -21 10 -35 35 -35c11 0 24 3 39 8l6 -40c-23 -7 -42 -10 -58 -10zM162 593c-22 0 -34 13 -34 33c0 28 21 47 44 47c24 0 35 -16 35 -35c0 -26 -21 -45 -45 -45z" />
    <glyph glyph-name="ij" unicode="&#x133;" horiz-adv-x="389" 
d="M10 0l99 473h52l-99 -473h-52zM162 593c-22 0 -34 13 -34 33c0 28 22 47 45 47c22 0 34 -13 34 -33c0 -28 -22 -47 -45 -47zM42 -226l15 46c11 -5 25 -9 44 -9c53 0 77 28 94 110l116 552h52l-125 -593c-19 -89 -77 -117 -139 -117c-18 0 -41 4 -57 11zM364 593
c-22 0 -34 13 -34 33c0 28 22 47 45 47c22 0 34 -13 34 -33c0 -28 -22 -47 -45 -47z" />
    <glyph glyph-name="jcircumflex" unicode="&#x135;" horiz-adv-x="222" 
d="M-141 -226l15 46c11 -5 25 -9 44 -9c53 0 77 28 94 110l116 552h52l-125 -593c-19 -89 -77 -117 -139 -117c-18 0 -41 4 -57 11zM31 531l118 147h57l78 -147h-50l-59 109l-91 -109h-53z" />
    <glyph glyph-name="kcommaaccent" unicode="&#x137;" horiz-adv-x="404" 
d="M10 0l148 708h52l-88 -421h2l216 186h68l-241 -206l180 -267h-63l-167 252h-2l-53 -252h-52zM74 -237l-15 39c62 19 89 48 89 91c0 17 -5 36 -13 55h50c8 -12 14 -37 14 -58c0 -57 -41 -104 -125 -127z" />
    <glyph glyph-name="lacute" unicode="&#x13a;" horiz-adv-x="235" 
d="M170 732l65 127h64l-85 -127h-44zM97 -5c-42 0 -67 20 -67 63c0 9 2 24 6 43l127 607h52l-127 -610c-3 -12 -4 -24 -4 -29c0 -18 9 -26 27 -26c11 0 24 3 39 9v-46c-16 -8 -41 -11 -53 -11z" />
    <glyph glyph-name="lcaron" unicode="&#x13e;" horiz-adv-x="235" 
d="M97 -5c-42 0 -67 20 -67 63c0 9 2 24 6 43l127 607h52l-127 -610c-3 -12 -4 -24 -4 -29c0 -18 9 -26 27 -26c11 0 24 3 39 9v-46c-16 -8 -41 -11 -53 -11zM227 513l61 195h57l-76 -195h-42z" />
    <glyph glyph-name="lcommaaccent" unicode="&#x13c;" horiz-adv-x="235" 
d="M97 -5c-42 0 -67 20 -67 63c0 9 2 24 6 43l127 607h52l-127 -610c-3 -12 -4 -24 -4 -29c0 -18 9 -26 27 -26c11 0 24 3 39 9v-46c-16 -8 -41 -11 -53 -11zM-29 -237l-15 39c62 19 89 48 89 91c0 17 -5 36 -13 55h50c8 -12 14 -37 14 -58c0 -57 -41 -104 -125 -127z" />
    <glyph glyph-name="ldot" unicode="&#x140;" horiz-adv-x="249" 
d="M97 -5c-42 0 -67 20 -67 63c0 9 2 24 6 43l127 607h52l-127 -610c-3 -12 -4 -24 -4 -29c0 -18 9 -26 27 -26c11 0 24 3 39 9v-46c-16 -8 -41 -11 -53 -11zM229 295c-22 0 -36 19 -36 38c0 26 18 44 42 44c22 0 36 -19 36 -38c0 -26 -18 -44 -42 -44z" />
    <glyph glyph-name="nacute" unicode="&#x144;" horiz-adv-x="468" 
d="M10 0l99 473h45l-18 -96h2c41 64 113 108 177 108c57 0 103 -33 103 -112c0 -18 -2 -43 -11 -88l-59 -285h-52l59 286c7 32 10 65 10 79c0 52 -27 71 -62 71c-43 0 -100 -30 -142 -86c-25 -33 -40 -68 -53 -129l-46 -221h-52zM250 531l77 147h67l-100 -147h-44z" />
    <glyph glyph-name="ncaron" unicode="&#x148;" horiz-adv-x="468" 
d="M10 0l99 473h45l-18 -96h2c41 64 113 108 177 108c57 0 103 -33 103 -112c0 -18 -2 -43 -11 -88l-59 -285h-52l59 286c7 32 10 65 10 79c0 52 -27 71 -62 71c-43 0 -100 -30 -142 -86c-25 -33 -40 -68 -53 -129l-46 -221h-52zM246 532l-78 147h50l59 -109l91 109h53
l-118 -147h-57z" />
    <glyph glyph-name="ncommaaccent" unicode="&#x146;" horiz-adv-x="468" 
d="M10 0l99 473h45l-18 -96h2c41 64 113 108 177 108c57 0 103 -33 103 -112c0 -18 -2 -43 -11 -88l-59 -285h-52l59 286c7 32 10 65 10 79c0 52 -27 71 -62 71c-43 0 -100 -30 -142 -86c-25 -33 -40 -68 -53 -129l-46 -221h-52zM80 -237l-15 39c62 19 89 48 89 91
c0 17 -5 36 -13 55h50c8 -12 14 -37 14 -58c0 -57 -41 -104 -125 -127z" />
    <glyph glyph-name="zero.numr" horiz-adv-x="360" 
d="M179 263c-70 0 -110 54 -110 144c0 141 64 250 159 250c70 0 110 -54 110 -144c0 -141 -64 -250 -159 -250zM181 306c58 0 108 87 108 201c0 64 -14 107 -63 107c-58 0 -108 -87 -108 -201c0 -64 14 -107 63 -107z" />
    <glyph glyph-name="Adieresis.small" horiz-adv-x="470" 
d="M-35 0l291 534h29l111 -534h-54l-27 138h-221l-74 -138h-55zM119 184h187l-28 143c-6 31 -14 74 -19 115h-2c-14 -30 -37 -73 -59 -113zM189 593c-20 0 -31 13 -31 31c0 24 18 41 39 41c20 0 31 -13 31 -31c0 -24 -18 -41 -39 -41zM359 593c-20 0 -31 13 -31 31
c0 24 18 41 39 41c20 0 31 -13 31 -31c0 -24 -18 -41 -39 -41z" />
    <glyph glyph-name="Atilde.small" horiz-adv-x="470" 
d="M143 592c5 62 39 89 77 89c53 0 85 -50 121 -50c23 0 32 20 36 44h44c-5 -62 -39 -89 -77 -89c-53 0 -85 50 -121 50c-23 0 -32 -20 -36 -44h-44zM-35 0l291 534h29l111 -534h-54l-27 138h-221l-74 -138h-55zM119 184h187l-28 143c-6 31 -14 74 -19 115h-2
c-14 -30 -37 -73 -59 -113z" />
    <glyph glyph-name="Acircumflex.small" horiz-adv-x="470" 
d="M-35 0l291 534h29l111 -534h-54l-27 138h-221l-74 -138h-55zM119 184h187l-28 143c-6 31 -14 74 -19 115h-2c-14 -30 -37 -73 -59 -113zM148 566l118 147h57l78 -147h-50l-59 109l-91 -109h-53z" />
    <glyph glyph-name="Aacute.small" horiz-adv-x="470" 
d="M252 566l77 147h67l-100 -147h-44zM-35 0l291 534h29l111 -534h-54l-27 138h-221l-74 -138h-55zM119 184h187l-28 143c-6 31 -14 74 -19 115h-2c-14 -30 -37 -73 -59 -113z" />
    <glyph glyph-name="Agrave.small" horiz-adv-x="470" 
d="M247 566l-73 147h67l50 -147h-44zM-35 0l291 534h29l111 -534h-54l-27 138h-221l-74 -138h-55zM119 184h187l-28 143c-6 31 -14 74 -19 115h-2c-14 -30 -37 -73 -59 -113z" />
    <glyph glyph-name="Z.small" horiz-adv-x="436" 
d="M-20 0l353 484h-251l-11 46h356l-353 -484h285l-10 -46h-369z" />
    <glyph glyph-name="Y.small" horiz-adv-x="403" 
d="M117 0l46 219l-100 311h52l80 -260h2l184 260h58l-224 -311l-46 -219h-52z" />
    <glyph glyph-name="X.small" horiz-adv-x="489" 
d="M-33 0l244 275l-137 255h58l119 -222l197 222h64l-236 -265l144 -265h-58l-126 233l-205 -233h-64z" />
    <glyph glyph-name="W.small" horiz-adv-x="690" 
d="M158 -2l-100 532h53l55 -304c8 -42 15 -90 20 -131h2c19 42 43 90 61 125l101 196l-22 114h53l61 -313c8 -41 16 -92 20 -122h2c17 37 41 88 58 124l148 311h56l-260 -532h-29l-52 267c-5 25 -11 55 -16 82h-2c-13 -26 -28 -54 -41 -80l-138 -269h-30z" />
    <glyph glyph-name="V.small" horiz-adv-x="470" 
d="M168 -2l-107 532h54l61 -327c6 -31 13 -73 20 -116h2c15 30 39 75 62 114l191 329h56l-309 -532h-30z" />
    <glyph glyph-name="U.small" horiz-adv-x="546" 
d="M222 -11c-90 0 -174 43 -174 147c0 23 2 46 10 83l65 311h52l-69 -329c-6 -29 -6 -43 -6 -56c0 -72 47 -108 124 -108c62 0 111 22 141 70c13 21 25 49 37 107l66 316h52l-68 -325c-11 -53 -25 -96 -42 -123c-40 -63 -104 -93 -188 -93z" />
    <glyph glyph-name="T.small" horiz-adv-x="404" 
d="M116 0l101 484h-169l11 46h390l-19 -46h-161l-101 -484h-52z" />
    <glyph glyph-name="S.small" horiz-adv-x="404" 
d="M0 26l18 46c36 -20 77 -34 124 -34c96 0 126 57 126 100c0 117 -193 107 -193 260c0 81 63 142 161 142c41 0 83 -8 125 -28l-13 -45c-32 16 -72 25 -112 25c-59 0 -107 -32 -107 -91c0 -117 194 -115 194 -258c0 -84 -55 -153 -182 -153c-48 0 -97 12 -141 36z" />
    <glyph glyph-name="R.small" horiz-adv-x="452" 
d="M20 0l111 530h90c92 0 167 -43 167 -134c0 -73 -50 -143 -146 -161v-2c17 -19 40 -59 59 -98l66 -135h-57l-60 126c-20 41 -44 80 -58 96h-74l-46 -222h-52zM128 268h55c88 0 150 45 150 126c0 53 -39 90 -110 90h-50z" />
    <glyph glyph-name="Q.small" horiz-adv-x="593" 
d="M373 -119c-94 0 -148 56 -196 106c-38 39 -135 80 -135 223c0 190 137 330 290 330c128 0 213 -93 213 -220c0 -187 -133 -328 -287 -328c-5 0 -18 1 -23 2v-1c40 -27 68 -65 141 -65c18 0 38 3 51 6l9 -44c-15 -5 -43 -9 -63 -9zM258 38c119 0 231 114 231 280
c0 103 -58 174 -160 174c-119 0 -231 -114 -231 -280c0 -103 58 -174 160 -174z" />
    <glyph glyph-name="P.small" horiz-adv-x="419" 
d="M20 0l111 530h83c127 0 175 -71 175 -148c0 -111 -82 -185 -225 -185h-51l-41 -197h-52zM123 243h53c95 0 159 47 159 143c0 49 -32 98 -115 98h-47z" />
    <glyph glyph-name="O.small" horiz-adv-x="593" 
d="M255 -10c-128 0 -213 93 -213 220c0 190 137 330 290 330c128 0 213 -93 213 -220c0 -190 -137 -330 -290 -330zM258 38c119 0 231 114 231 280c0 103 -58 174 -160 174c-119 0 -231 -114 -231 -280c0 -103 58 -174 160 -174z" />
    <glyph glyph-name="N.small" horiz-adv-x="587" 
d="M20 0l111 530h43l176 -331c21 -40 46 -86 57 -111h2c6 33 18 94 28 141l63 301h52l-111 -530h-37l-181 336c-22 40 -46 86 -57 111h-2c-6 -38 -21 -108 -28 -141l-64 -306h-52z" />
    <glyph glyph-name="M.small" horiz-adv-x="675" 
d="M20 0l111 530h47l92 -242c14 -37 30 -82 40 -113h2c18 26 52 72 85 114l190 241h53l-111 -530h-52l57 273c6 31 23 107 37 164h-3c-22 -30 -54 -72 -79 -104l-169 -215h-36l-72 190c-19 49 -38 99 -48 129h-2c-5 -29 -14 -76 -26 -133l-64 -304h-52z" />
    <glyph glyph-name="L.small" horiz-adv-x="355" 
d="M20 0l111 530h52l-101 -484h205l-10 -46h-257z" />
    <glyph glyph-name="K.small" horiz-adv-x="440" 
d="M20 0l111 530h52l-54 -256h2l247 256h62l-265 -275l187 -255h-59l-178 243h-2l-51 -243h-52z" />
    <glyph glyph-name="J.small" horiz-adv-x="235" 
d="M-103 -109l15 43c14 -5 26 -7 42 -7c56 0 76 40 87 92l107 511h52l-108 -517c-15 -73 -47 -132 -136 -132c-20 0 -41 3 -59 10z" />
    <glyph glyph-name="I.small" horiz-adv-x="218" 
d="M20 0l111 530h52l-111 -530h-52z" />
    <glyph glyph-name="H.small" horiz-adv-x="557" 
d="M20 0l111 530h52l-50 -238h287l50 238h52l-111 -530h-52l51 246h-287l-51 -246h-52z" />
    <glyph glyph-name="G.small" horiz-adv-x="534" 
d="M265 -10c-138 0 -223 92 -223 230c0 170 120 320 292 320c54 0 109 -14 145 -33l-15 -45c-31 17 -71 30 -128 30c-119 0 -238 -99 -238 -270c0 -114 61 -185 169 -185c37 0 76 9 99 21l40 190h52l-47 -222c-49 -24 -106 -36 -146 -36z" />
    <glyph glyph-name="F.small" horiz-adv-x="387" 
d="M20 0l111 530h254l-19 -46h-193l-41 -197h191l-10 -46h-191l-50 -241h-52z" />
    <glyph glyph-name="E.small" horiz-adv-x="412" 
d="M20 0l111 530h254l-19 -46h-194l-39 -192h191l-10 -46h-191l-41 -200h218l-10 -46h-270z" />
    <glyph glyph-name="D.small" horiz-adv-x="523" 
d="M20 0l111 530h98c145 0 246 -85 246 -222c0 -183 -129 -308 -331 -308h-124zM82 46h71c151 0 267 97 267 264c0 103 -70 174 -192 174h-55z" />
    <glyph glyph-name="C.small" horiz-adv-x="493" 
d="M258 -10c-129 0 -216 87 -216 223c0 172 112 327 289 327c52 0 101 -14 137 -33l-15 -45c-31 16 -71 30 -123 30c-117 0 -232 -99 -232 -276c0 -115 64 -178 161 -178c53 0 100 15 142 40l12 -46c-46 -27 -104 -42 -155 -42z" />
    <glyph glyph-name="B.small" horiz-adv-x="445" 
d="M20 0l111 530h108c79 0 146 -39 146 -124c0 -59 -39 -111 -97 -133v-2c45 -11 84 -50 84 -103c0 -86 -69 -168 -218 -168h-134zM82 46h77c103 0 159 53 159 116c0 57 -48 84 -106 84h-88zM133 292h75c64 0 123 43 123 114c0 43 -25 78 -98 78h-60z" />
    <glyph glyph-name="A.small" horiz-adv-x="470" 
d="M-35 0l291 534h29l111 -534h-54l-27 138h-221l-74 -138h-55zM119 184h187l-28 143c-6 31 -14 74 -19 115h-2c-14 -30 -37 -73 -59 -113z" />
    <glyph glyph-name="four.OT" 
d="M234 -195l41 195h-279l-11 37l399 449h44l-91 -440h82l-9 -46h-83l-37 -182zM285 46l45 217c10 47 20 91 29 123h-2l-301 -340h103h126z" />
    <glyph glyph-name="three.OT" 
d="M-11 -177l16 46c29 -11 66 -17 100 -17c151 0 227 89 227 171c0 78 -50 113 -166 113h-74l5 45c135 0 256 49 256 163c0 72 -49 103 -110 103c-58 0 -111 -23 -151 -43l-18 41c43 25 109 49 168 49c101 0 167 -58 167 -145c0 -98 -74 -157 -136 -180v-2
c71 -16 115 -62 115 -139c0 -125 -109 -223 -287 -223c-43 0 -85 8 -112 18z" />
    <glyph glyph-name="two.OT" 
d="M30 0c38 253 324 249 324 370c0 41 -36 77 -104 77c-57 0 -110 -21 -140 -34l-13 44c24 12 89 37 157 37c95 0 156 -52 156 -123c0 -148 -258 -152 -312 -325h270l-10 -46h-328z" />
    <glyph glyph-name="one.OT" 
d="M203 0l87 414c-41 -26 -128 -58 -179 -71v47c48 14 150 58 203 96h43l-102 -486h-52z" />
    <glyph glyph-name="zero.OT" 
d="M203 -10c-108 0 -170 82 -170 197c0 189 116 307 239 307c108 0 170 -82 170 -197c0 -189 -116 -307 -239 -307zM208 38c98 0 178 110 178 257c0 88 -38 151 -119 151c-98 0 -178 -110 -178 -257c0 -88 38 -151 119 -151z" />
    <glyph glyph-name="yen.OP" 
d="M166 0l20 98h-131l8 46h132l13 63h-135l8 46h112l-95 257h55l88 -244h2l169 244h59l-180 -257h112l-8 -46h-135l-13 -63h137l-8 -46h-139l-20 -98h-51z" />
    <glyph glyph-name="sterling.OP" 
d="M46 0l6 42c65 33 88 134 98 197h-58l8 46h56l11 72c16 105 84 162 174 162c34 0 64 -7 84 -18l-20 -43c-16 8 -36 14 -64 14c-64 0 -108 -46 -119 -118l-11 -69h165l-18 -46h-154c-12 -83 -34 -152 -73 -191v-2h61h173l-8 -46h-311z" />
    <glyph glyph-name="dollar.OP" 
d="M152 -59l17 72c-55 4 -95 20 -116 32l20 44c25 -14 69 -28 117 -28c85 0 124 36 124 91c0 112 -190 92 -190 226c0 72 53 119 148 125l14 67h49l-13 -68c34 -4 71 -13 93 -23l-7 -48c-32 14 -73 24 -117 24c-67 0 -111 -26 -111 -72c0 -101 190 -87 190 -229
c0 -83 -63 -131 -152 -140l-15 -73h-51z" />
    <glyph glyph-name="Euro.OP" 
d="M33 165l8 46h59c0 29 4 59 10 87h-63l8 46h68c36 99 113 175 228 175c48 0 82 -13 114 -31l-14 -46c-29 16 -56 29 -101 29c-75 0 -137 -47 -169 -127h212l-18 -46h-209c-6 -27 -10 -56 -10 -87h208l-18 -46h-188c11 -81 55 -127 130 -127c44 0 79 13 118 36l13 -46
c-51 -30 -93 -38 -135 -38c-108 0 -170 64 -182 175h-69z" />
    <glyph glyph-name="nine.OP" 
d="M13 -193l-7 49c173 22 305 122 358 267h-2c-52 -34 -105 -46 -152 -46c-106 0 -174 73 -174 188c0 141 89 229 205 229c134 0 198 -113 198 -233c0 -205 -126 -413 -426 -454zM222 124c38 0 94 11 152 54c6 21 9 53 9 86c0 82 -38 182 -139 182c-90 0 -152 -69 -152 -178
c0 -79 34 -144 130 -144z" />
    <glyph glyph-name="eight.OP" horiz-adv-x="532" 
d="M230 -10c-118 0 -201 62 -201 167c0 97 73 155 157 184v2c-47 26 -90 73 -90 145c0 103 89 176 208 176c107 0 187 -58 187 -154c0 -90 -81 -150 -155 -174v-2c78 -28 123 -81 123 -154c0 -120 -114 -190 -229 -190zM229 38c98 0 174 54 174 142c0 69 -62 115 -160 137
c-96 -25 -158 -82 -158 -157c0 -92 80 -122 144 -122zM269 358c86 21 166 65 166 151c0 76 -63 108 -134 108c-70 0 -149 -38 -149 -127c0 -57 44 -113 117 -132z" />
    <glyph glyph-name="seven.OP" horiz-adv-x="450" 
d="M30 -199c63 245 187 473 326 639h-309l-7 46h396v-26c-146 -155 -287 -415 -342 -647z" />
    <glyph glyph-name="six.OP" 
d="M223 -10c-107 0 -184 83 -184 230c0 186 116 410 397 453l7 -49c-169 -23 -301 -137 -341 -302h2c31 43 95 84 165 84c99 0 171 -67 171 -182c0 -128 -87 -234 -217 -234zM229 38c83 0 155 68 155 184c0 78 -48 137 -118 137c-61 0 -124 -37 -152 -98
c-10 -22 -15 -48 -15 -75c0 -76 44 -148 130 -148z" />
    <glyph glyph-name="five.OP" horiz-adv-x="451" 
d="M-28 -178l17 46c23 -10 61 -16 94 -16c129 0 225 68 225 184c0 111 -97 124 -184 124h-52l63 326h304l-17 -46h-243l-46 -234h23c118 0 208 -46 208 -169s-91 -232 -288 -232c-38 0 -79 7 -104 17z" />
    <glyph glyph-name="four.OP" 
d="M229 -195l41 195h-279l-11 37l399 449h44l-91 -440h82l-9 -46h-83l-37 -182zM280 46l45 217c10 47 20 91 29 123h-2l-301 -340h103h126z" />
    <glyph glyph-name="three.OP" horiz-adv-x="469" 
d="M-27 -177l16 46c29 -11 66 -17 100 -17c151 0 227 89 227 171c0 78 -50 113 -166 113h-74l5 45c135 0 256 49 256 163c0 72 -49 103 -110 103c-58 0 -111 -23 -151 -43l-18 41c43 25 109 49 168 49c101 0 167 -58 167 -145c0 -98 -74 -157 -136 -180v-2
c71 -16 115 -62 115 -139c0 -125 -109 -223 -287 -223c-43 0 -85 8 -112 18z" />
    <glyph glyph-name="two.OP" horiz-adv-x="489" 
d="M21 0c38 253 324 249 324 370c0 41 -36 77 -104 77c-57 0 -110 -21 -140 -34l-13 44c24 12 89 37 157 37c95 0 156 -52 156 -123c0 -148 -258 -152 -312 -325h270l-10 -46h-328z" />
    <glyph glyph-name="one.OP" horiz-adv-x="351" 
d="M124 0l87 414c-41 -26 -110 -54 -161 -67v47c48 14 132 54 185 92h43l-102 -486h-52z" />
    <glyph glyph-name="zero.OP" 
d="M203 -10c-108 0 -170 82 -170 197c0 189 116 307 239 307c108 0 170 -82 170 -197c0 -189 -116 -307 -239 -307zM208 38c98 0 178 110 178 257c0 88 -38 151 -119 151c-98 0 -178 -110 -178 -257c0 -88 38 -151 119 -151z" />
    <glyph glyph-name="yen.LT" horiz-adv-x="513" 
d="M162 0l26 128h-160l9 46h161l18 89h-165l9 46h143l-113 350h57l103 -331h2l208 331h60l-223 -350h143l-9 -46h-162l-19 -89h167l-9 -46h-167l-27 -128h-52z" />
    <glyph glyph-name="sterling.LT" horiz-adv-x="513" 
d="M32 0l7 43c87 43 118 189 131 272h-77l8 46h76l13 91c7 52 16 81 28 106c40 82 113 106 172 106c27 0 63 -6 90 -19l-20 -43c-19 9 -40 15 -70 15c-41 0 -94 -18 -124 -83c-8 -18 -15 -40 -21 -84l-13 -89h181l-18 -46h-169c-19 -121 -51 -227 -113 -267v-2h89h199
l-8 -46h-361z" />
    <glyph glyph-name="five.OT" 
d="M-13 -178l17 46c23 -10 61 -16 94 -16c129 0 225 68 225 184c0 111 -97 124 -184 124h-52l63 326h304l-17 -46h-243l-46 -234h23c118 0 208 -46 208 -169s-91 -232 -288 -232c-38 0 -79 7 -104 17z" />
    <glyph glyph-name="six.OT" 
d="M223 -10c-107 0 -184 83 -184 230c0 186 116 410 397 453l7 -49c-169 -23 -301 -137 -341 -302h2c31 43 95 84 165 84c99 0 171 -67 171 -182c0 -128 -87 -234 -217 -234zM229 38c83 0 155 68 155 184c0 78 -48 137 -118 137c-61 0 -124 -37 -152 -98
c-10 -22 -15 -48 -15 -75c0 -76 44 -148 130 -148z" />
    <glyph glyph-name="seven.OT" 
d="M69 -199c63 245 187 473 326 639h-309l-7 46h396v-26c-146 -155 -287 -415 -342 -647z" />
    <glyph glyph-name="eight.OT" 
d="M220 -10c-118 0 -201 62 -201 167c0 97 73 155 157 184v2c-47 26 -90 73 -90 145c0 103 89 176 208 176c107 0 187 -58 187 -154c0 -90 -81 -150 -155 -174v-2c78 -28 123 -81 123 -154c0 -120 -114 -190 -229 -190zM219 38c98 0 174 54 174 142c0 69 -62 115 -160 137
c-96 -25 -158 -82 -158 -157c0 -92 80 -122 144 -122zM259 358c86 21 166 65 166 151c0 76 -63 108 -134 108c-70 0 -149 -38 -149 -127c0 -57 44 -113 117 -132z" />
    <glyph glyph-name="nine.OT" 
d="M13 -193l-7 49c173 22 305 122 358 267h-2c-52 -34 -105 -46 -152 -46c-106 0 -174 73 -174 188c0 141 89 229 205 229c134 0 198 -113 198 -233c0 -205 -126 -413 -426 -454zM222 124c38 0 94 11 152 54c6 21 9 53 9 86c0 82 -38 182 -139 182c-90 0 -152 -69 -152 -178
c0 -79 34 -144 130 -144z" />
    <glyph glyph-name="Euro.OT" 
d="M33 165l8 46h59c0 29 4 59 10 87h-63l8 46h68c36 99 113 175 228 175c48 0 82 -13 114 -31l-14 -46c-29 16 -56 29 -101 29c-75 0 -137 -47 -169 -127h212l-18 -46h-209c-6 -27 -10 -56 -10 -87h208l-18 -46h-188c11 -81 55 -127 130 -127c44 0 79 13 118 36l13 -46
c-51 -30 -93 -38 -135 -38c-108 0 -170 64 -182 175h-69z" />
    <glyph glyph-name="dollar.OT" 
d="M152 -59l17 72c-55 4 -95 20 -116 32l20 44c25 -14 69 -28 117 -28c85 0 124 36 124 91c0 112 -190 92 -190 226c0 72 53 119 148 125l14 67h49l-13 -68c34 -4 71 -13 93 -23l-7 -48c-32 14 -73 24 -117 24c-67 0 -111 -26 -111 -72c0 -101 190 -87 190 -229
c0 -83 -63 -131 -152 -140l-15 -73h-51z" />
    <glyph glyph-name="sterling.OT" 
d="M46 0l6 42c65 33 88 134 98 197h-58l8 46h56l11 72c16 105 84 162 174 162c34 0 64 -7 84 -18l-20 -43c-16 8 -36 14 -64 14c-64 0 -108 -46 -119 -118l-11 -69h165l-18 -46h-154c-12 -83 -34 -152 -73 -191v-2h61h173l-8 -46h-311z" />
    <glyph glyph-name="yen.OT" 
d="M166 0l20 98h-131l8 46h132l13 63h-135l8 46h112l-95 257h55l88 -244h2l169 244h59l-180 -257h112l-8 -46h-135l-13 -63h137l-8 -46h-139l-20 -98h-51z" />
    <glyph glyph-name="zero.small" horiz-adv-x="429" 
d="M162 -10c-84 0 -138 63 -138 180c0 176 98 370 237 370c84 0 138 -63 138 -180c0 -176 -98 -370 -237 -370zM164 38c99 0 179 163 179 321c0 92 -28 133 -84 133c-99 0 -179 -163 -179 -321c0 -92 28 -133 84 -133z" />
    <glyph glyph-name="one.small" horiz-adv-x="330" 
d="M104 0l97 464c-37 -20 -96 -41 -136 -51v47c42 12 117 42 160 74h43l-112 -534h-52z" />
    <glyph glyph-name="two.small" horiz-adv-x="419" 
d="M8 0c50 304 307 268 307 413c0 49 -33 79 -88 79c-44 0 -90 -16 -126 -34l-14 44c36 20 90 38 143 38c82 0 141 -51 141 -125c0 -167 -248 -152 -298 -369h258l-10 -46h-313z" />
    <glyph glyph-name="three.small" horiz-adv-x="426" 
d="M4 28l24 42c41 -22 79 -32 119 -32c87 0 145 49 145 120c0 66 -59 89 -142 89h-58l4 48h39c24 0 52 0 80 7c53 14 99 52 99 112c0 51 -43 78 -95 78c-45 0 -90 -16 -122 -32l-14 43c36 19 85 37 141 37c88 0 146 -52 146 -128c0 -66 -51 -117 -116 -140v-2
c46 -13 93 -42 93 -112c0 -93 -82 -168 -197 -168c-52 0 -102 12 -146 38z" />
    <glyph glyph-name="four.small" horiz-adv-x="465" 
d="M228 0l30 143h-217l-6 45l320 346h37l-72 -345h77l-10 -46h-77l-30 -143h-52zM268 189l27 128c9 43 15 69 29 123l-231 -251h62h113z" />
    <glyph glyph-name="five.small" horiz-adv-x="419" 
d="M2 28l27 43c31 -23 71 -32 109 -32c79 0 148 46 148 130c0 59 -38 96 -137 96h-72l56 265h260l-13 -46h-205l-36 -172h19c124 0 184 -59 184 -141c0 -102 -83 -181 -203 -181c-47 0 -93 11 -137 38z" />
    <glyph glyph-name="six.small" horiz-adv-x="456" 
d="M205 -10c-103 0 -157 85 -157 190c0 223 150 360 299 360c17 0 43 -2 63 -8l-16 -45c-15 4 -33 5 -49 5c-135 0 -220 -121 -239 -223h2c27 34 73 60 124 60c89 0 149 -62 149 -157s-74 -182 -176 -182zM205 38c65 0 121 57 121 135c0 58 -31 108 -99 108
c-62 0 -122 -46 -122 -128c0 -60 34 -115 100 -115z" />
    <glyph glyph-name="seven.small" horiz-adv-x="374" 
d="M48 0c57 206 153 363 262 484h-243l-7 46h326v-26c-119 -128 -232 -307 -283 -504h-55z" />
    <glyph glyph-name="eight.small" horiz-adv-x="456" 
d="M191 -10c-98 0 -166 52 -166 136c0 75 55 127 127 152v2c-38 20 -70 60 -70 114c0 84 74 146 174 146c90 0 157 -50 157 -129c0 -69 -64 -119 -127 -139v-2c62 -22 97 -66 97 -123c0 -98 -95 -157 -192 -157zM191 38c77 0 137 42 137 109c0 51 -45 89 -120 107
c-60 -15 -128 -55 -128 -125c0 -67 60 -91 111 -91zM227 296c67 15 130 50 130 114c0 57 -49 82 -104 82s-116 -30 -116 -96c0 -45 30 -84 90 -100z" />
    <glyph glyph-name="nine.small" horiz-adv-x="469" 
d="M46 9l13 46c22 -10 51 -17 83 -17c114 0 178 91 201 202h-2c-37 -24 -84 -39 -125 -39c-82 0 -152 49 -152 149c0 112 78 190 171 190c106 0 170 -77 170 -208c0 -153 -73 -342 -261 -342c-33 0 -68 6 -98 19zM221 249c47 0 94 19 128 43c1 10 2 30 2 47
c0 101 -48 153 -116 153c-62 0 -115 -58 -115 -141c0 -62 36 -102 101 -102z" />
    <glyph glyph-name="Euro.small" horiz-adv-x="426" 
d="M2 173l8 46h56c0 31 4 61 10 89h-60l8 46h65c40 112 127 186 231 186c48 0 82 -13 114 -31l-14 -46c-29 16 -56 29 -101 29c-75 0 -138 -54 -172 -138h215l-18 -46h-212c-6 -28 -11 -58 -11 -89h206l-18 -46h-186c9 -85 51 -135 127 -135c44 0 77 13 116 36l14 -45
c-51 -30 -92 -39 -134 -39c-108 0 -167 71 -178 183h-66z" />
    <glyph glyph-name="dollar.small" horiz-adv-x="426" 
d="M113 -62l16 77c-32 4 -67 14 -96 31l20 43c21 -14 61 -28 101 -28c79 0 115 40 115 97c0 110 -169 111 -169 238c0 74 63 121 140 125l15 71h49l-15 -73c26 -3 52 -11 76 -21l-7 -48c-27 14 -65 24 -104 24c-49 0 -99 -21 -99 -76c0 -98 169 -93 169 -238
c0 -85 -63 -137 -146 -145l-16 -77h-49z" />
    <glyph glyph-name="sterling.small" horiz-adv-x="426" 
d="M10 0l6 43c70 32 97 140 107 206h-64l9 46h61l11 69c6 40 16 69 27 90c34 66 96 86 141 86c34 0 65 -8 85 -19l-20 -43c-16 8 -36 15 -64 15c-30 0 -72 -13 -96 -63c-6 -12 -15 -34 -21 -71l-10 -64h154l-19 -46h-142c-14 -89 -38 -163 -85 -201v-2h78h156l-9 -46h-305z
" />
    <glyph glyph-name="yen.small" horiz-adv-x="426" 
d="M24 101l9 46h131l13 61h-135l9 46h115l-89 276h53l81 -259h2l165 259h58l-180 -276h114l-9 -46h-133l-13 -61h136l-9 -46h-136l-21 -101h-52l21 101h-130z" />
    <glyph glyph-name="six.LT" horiz-adv-x="513" 
d="M234 -10c-109 0 -185 69 -185 232c0 252 148 442 357 442c16 0 44 -2 69 -8l-16 -45c-15 3 -33 5 -51 5c-177 0 -283 -163 -304 -309h2c31 53 101 90 167 90c104 0 174 -68 174 -185c0 -118 -90 -222 -213 -222zM234 38c84 0 157 71 157 176c0 74 -38 135 -123 135
c-81 0 -161 -64 -161 -172c0 -74 43 -139 127 -139z" />
    <glyph glyph-name="seven.LT" horiz-adv-x="513" 
d="M91 0c72 265 191 451 328 613h-311l-7 46h396v-26c-146 -163 -285 -386 -347 -633h-59z" />
    <glyph glyph-name="eight.LT" horiz-adv-x="513" 
d="M218 -10c-118 0 -201 62 -201 167c0 97 73 155 157 184v2c-47 26 -90 73 -90 145c0 103 89 176 208 176c107 0 187 -58 187 -154c0 -90 -81 -150 -155 -174v-2c78 -28 123 -81 123 -154c0 -120 -114 -190 -229 -190zM217 38c98 0 174 54 174 142c0 69 -62 115 -160 137
c-96 -25 -158 -82 -158 -157c0 -92 80 -122 144 -122zM257 358c86 21 166 65 166 151c0 76 -63 108 -134 108c-70 0 -149 -38 -149 -127c0 -57 44 -113 117 -132z" />
    <glyph glyph-name="nine.LT" horiz-adv-x="513" 
d="M32 10l13 47c21 -10 60 -19 88 -19c152 0 231 99 262 268h-2c-48 -37 -113 -56 -168 -56c-93 0 -172 59 -172 182c0 142 94 232 205 232c128 0 202 -94 202 -241c0 -302 -140 -433 -321 -433c-48 0 -85 10 -107 20zM234 298c64 0 122 30 167 66c3 19 5 40 5 61
c0 113 -54 192 -148 192c-81 0 -149 -75 -149 -184c0 -82 44 -135 125 -135z" />
    <glyph glyph-name="Euro.LT" horiz-adv-x="513" 
d="M14 218l8 46h68v7c0 41 4 81 13 119h-73l8 46h77c45 135 146 228 281 228c50 0 93 -11 129 -37l-11 -48c-37 25 -72 37 -116 37c-110 0 -188 -75 -226 -180h266l-18 -46h-262c-8 -35 -12 -71 -12 -109v-17h252l-18 -46h-231c15 -141 82 -180 157 -180c50 0 89 12 137 45
l14 -45c-50 -33 -98 -48 -155 -48c-125 0 -197 77 -210 228h-78z" />
    <glyph glyph-name="dollar.LT" horiz-adv-x="513" 
d="M142 -78l21 96c-49 5 -87 21 -111 37l19 45c24 -16 67 -35 118 -35c69 0 140 29 140 128c0 148 -196 143 -196 298c0 93 69 152 164 158l18 89h50l-19 -91c34 -4 63 -13 89 -26l-10 -48c-30 16 -70 28 -115 28c-61 0 -123 -29 -123 -101c0 -131 196 -123 196 -304
c0 -117 -81 -170 -171 -178l-20 -96h-50z" />
    <glyph glyph-name="plussuperior" unicode="&#x207a;" horiz-adv-x="419" 
d="M232 434v140h-132v44h132v136h45v-136h132v-44h-132v-140h-45z" />
    <glyph glyph-name="minussuperior" unicode="&#x207b;" horiz-adv-x="419" 
d="M100 574v44h309v-44h-309z" />
    <glyph glyph-name="equalsuperior" unicode="&#x207c;" horiz-adv-x="419" 
d="M100 513v44h309v-44h-309zM100 635v44h309v-44h-309z" />
    <glyph glyph-name="plusinferior" horiz-adv-x="419" 
d="M132 -151v140h-132v44h132v136h45v-136h132v-44h-132v-140h-45z" />
    <glyph glyph-name="minusinferior" horiz-adv-x="419" 
d="M0 -11v44h309v-44h-309z" />
    <glyph glyph-name="equalinferior" horiz-adv-x="419" 
d="M0 -72v44h309v-44h-309zM0 50v44h309v-44h-309z" />
    <glyph glyph-name="five.LT" horiz-adv-x="513" 
d="M8 29l27 43c34 -22 78 -34 121 -34c104 0 200 57 200 171c0 95 -73 129 -172 129h-84l63 321h310l-13 -46h-252l-46 -228h33c146 0 217 -74 217 -173c0 -134 -105 -222 -253 -222c-71 0 -122 20 -151 39z" />
    <glyph glyph-name="four.LT" horiz-adv-x="513" 
d="M263 0l37 181h-272l-7 48l390 435h42l-91 -437h98l-10 -46h-98l-37 -181h-52zM311 227l36 169c12 54 24 106 42 176l-308 -345h93h137z" />
    <glyph glyph-name="three.LT" horiz-adv-x="515" 
d="M8 29l27 43c33 -20 81 -34 132 -34c79 0 193 37 193 156c0 89 -72 116 -178 116h-65l4 48h41c29 0 60 1 93 10c69 19 131 67 131 148c0 70 -53 100 -121 100c-57 0 -108 -18 -146 -37l-14 43c41 21 98 42 166 42c105 0 171 -58 171 -150c0 -89 -61 -145 -145 -175v-2
c61 -13 119 -51 119 -141c0 -120 -101 -206 -247 -206c-69 0 -118 15 -161 39z" />
    <glyph glyph-name="two.LT" horiz-adv-x="513" 
d="M12 0c53 358 378 338 378 517c0 66 -44 99 -112 99c-57 0 -111 -20 -154 -40l-14 44c37 19 103 44 172 44c94 0 164 -52 164 -144c0 -206 -306 -193 -368 -474h318l-10 -46h-374z" />
    <glyph glyph-name="Amacron.small" horiz-adv-x="470" 
d="M162 611l10 46h232l-10 -46h-232zM-35 0l291 534h29l111 -534h-54l-27 138h-221l-74 -138h-55zM119 184h187l-28 143c-6 31 -14 74 -19 115h-2c-14 -30 -37 -73 -59 -113z" />
    <glyph glyph-name="Ccircumflex.small" horiz-adv-x="493" 
d="M258 -10c-129 0 -216 87 -216 223c0 172 112 327 289 327c52 0 101 -14 137 -33l-15 -45c-31 16 -71 30 -123 30c-117 0 -232 -99 -232 -276c0 -115 64 -178 161 -178c53 0 100 15 142 40l12 -46c-46 -27 -104 -42 -155 -42zM187 566l118 147h57l78 -147h-50l-59 109
l-91 -109h-53z" />
    <glyph glyph-name="Abreve.small" horiz-adv-x="470" 
d="M274 581c-70 0 -105 45 -100 114h42c0 -43 16 -71 62 -71c48 0 73 31 87 71h43c-15 -69 -64 -114 -134 -114zM-35 0l291 534h29l111 -534h-54l-27 138h-221l-74 -138h-55zM119 184h187l-28 143c-6 31 -14 74 -19 115h-2c-14 -30 -37 -73 -59 -113z" />
    <glyph glyph-name="Ccaron.small" horiz-adv-x="493" 
d="M292 567l-78 147h50l59 -109l91 109h53l-118 -147h-57zM258 -10c-129 0 -216 87 -216 223c0 172 112 327 289 327c52 0 101 -14 137 -33l-15 -45c-31 16 -71 30 -123 30c-117 0 -232 -99 -232 -276c0 -115 64 -178 161 -178c53 0 100 15 142 40l12 -46
c-46 -27 -104 -42 -155 -42z" />
    <glyph glyph-name="Cdotaccent.small" horiz-adv-x="493" 
d="M258 -10c-129 0 -216 87 -216 223c0 172 112 327 289 327c52 0 101 -14 137 -33l-15 -45c-31 16 -71 30 -123 30c-117 0 -232 -99 -232 -276c0 -115 64 -178 161 -178c53 0 100 15 142 40l12 -46c-46 -27 -104 -42 -155 -42zM327 618c-22 0 -34 13 -34 33
c0 28 22 47 45 47c22 0 34 -13 34 -33c0 -28 -22 -47 -45 -47z" />
    <glyph glyph-name="Ccedilla.small" horiz-adv-x="493" 
d="M109 -198l17 36c14 -8 33 -11 47 -11c35 0 64 15 64 46s-36 38 -81 36l40 88c-94 24 -154 103 -154 216c0 172 112 327 289 327c52 0 101 -14 137 -33l-15 -45c-31 16 -71 30 -123 30c-117 0 -232 -99 -232 -276c0 -115 64 -178 161 -178c53 0 100 15 142 40l12 -46
c-49 -28 -117 -46 -173 -41l-21 -47c43 -3 68 -31 68 -66c0 -63 -54 -90 -112 -90c-25 0 -44 4 -66 14z" />
    <glyph glyph-name="Dcaron.small" horiz-adv-x="523" 
d="M259 567l-78 147h50l59 -109l91 109h53l-118 -147h-57zM20 0l111 530h98c145 0 246 -85 246 -222c0 -183 -129 -308 -331 -308h-124zM82 46h71c151 0 267 97 267 264c0 103 -70 174 -192 174h-55z" />
    <glyph glyph-name="Dcroat.small" horiz-adv-x="523" 
d="M20 0l51 246h-73l10 46h73l50 238h98c145 0 246 -85 246 -222c0 -183 -129 -308 -331 -308h-124zM82 46h71c151 0 267 97 267 264c0 103 -70 174 -192 174h-55l-40 -192h152l-10 -46h-152z" />
    <glyph glyph-name="Egrave.small" horiz-adv-x="412" 
d="M240 566l-73 147h67l50 -147h-44zM20 0l111 530h254l-19 -46h-194l-39 -192h191l-10 -46h-191l-41 -200h218l-10 -46h-270z" />
    <glyph glyph-name="Eacute.small" horiz-adv-x="412" 
d="M233 566l77 147h67l-100 -147h-44zM20 0l111 530h254l-19 -46h-194l-39 -192h191l-10 -46h-191l-41 -200h218l-10 -46h-270z" />
    <glyph glyph-name="Ecircumflex.small" horiz-adv-x="412" 
d="M20 0l111 530h254l-19 -46h-194l-39 -192h191l-10 -46h-191l-41 -200h218l-10 -46h-270zM137 566l118 147h57l78 -147h-50l-59 109l-91 -109h-53z" />
    <glyph glyph-name="Ecaron.small" horiz-adv-x="412" 
d="M231 567l-78 147h50l59 -109l91 109h53l-118 -147h-57zM20 0l111 530h254l-19 -46h-194l-39 -192h191l-10 -46h-191l-41 -200h218l-10 -46h-270z" />
    <glyph glyph-name="Edieresis.small" horiz-adv-x="412" 
d="M20 0l111 530h254l-19 -46h-194l-39 -192h191l-10 -46h-191l-41 -200h218l-10 -46h-270zM183 593c-20 0 -31 13 -31 31c0 24 18 41 39 41c20 0 31 -13 31 -31c0 -24 -18 -41 -39 -41zM353 593c-20 0 -31 13 -31 31c0 24 18 41 39 41c20 0 31 -13 31 -31
c0 -24 -18 -41 -39 -41z" />
    <glyph glyph-name="Emacron.small" horiz-adv-x="412" 
d="M153 611l10 46h232l-10 -46h-232zM20 0l111 530h254l-19 -46h-194l-39 -192h191l-10 -46h-191l-41 -200h218l-10 -46h-270z" />
    <glyph glyph-name="Aring.small" horiz-adv-x="470" 
d="M-35 0l291 533c-42 7 -72 39 -72 85c0 64 48 102 104 102c53 0 90 -34 90 -86c0 -60 -42 -97 -94 -102l112 -532h-54l-27 138h-221l-74 -138h-55zM119 184h187l-28 143c-6 31 -14 74 -19 115h-2c-14 -30 -37 -73 -59 -113zM275 568c35 0 59 27 59 66c0 30 -18 50 -47 50
c-35 0 -59 -27 -59 -66c0 -30 18 -50 47 -50z" />
    <glyph glyph-name="Ebreve.small" horiz-adv-x="412" 
d="M261 581c-70 0 -105 45 -100 114h42c0 -43 16 -71 62 -71c48 0 73 31 87 71h43c-15 -69 -64 -114 -134 -114zM20 0l111 530h254l-19 -46h-194l-39 -192h191l-10 -46h-191l-41 -200h218l-10 -46h-270z" />
    <glyph glyph-name="Aringacute.small" horiz-adv-x="470" 
d="M-35 0l291 533c-42 7 -72 39 -72 85c0 63 47 101 102 102l62 123h67l-88 -130c31 -13 51 -41 51 -79c0 -60 -42 -97 -94 -102l112 -532h-54l-27 138h-221l-74 -138h-55zM119 184h187l-28 143c-6 31 -14 74 -19 115h-2c-14 -30 -37 -73 -59 -113zM275 568
c35 0 59 27 59 66c0 30 -18 50 -47 50c-35 0 -59 -27 -59 -66c0 -30 18 -50 47 -50z" />
    <glyph glyph-name="Aogonek.small" horiz-adv-x="470" 
d="M-35 0l292 534h27l112 -534c-68 -32 -141 -79 -141 -135c0 -21 10 -35 35 -35c11 0 24 3 39 8l6 -40c-23 -7 -42 -10 -58 -10c-54 0 -72 33 -72 67c0 79 77 129 134 157l-24 126h-221l-74 -138h-55zM119 184h187l-28 143c-6 31 -14 74 -19 115h-2
c-14 -30 -37 -73 -59 -113z" />
    <glyph glyph-name="Edotaccent.small" horiz-adv-x="412" 
d="M20 0l111 530h254l-19 -46h-194l-39 -192h191l-10 -46h-191l-41 -200h218l-10 -46h-270zM266 618c-22 0 -34 13 -34 33c0 28 22 47 45 47c22 0 34 -13 34 -33c0 -28 -22 -47 -45 -47z" />
    <glyph glyph-name="Eogonek.small" horiz-adv-x="412" 
d="M20 0l111 530h254l-19 -46h-194l-39 -192h191l-10 -46h-191l-41 -200h218l-10 -46h-11c-68 -32 -139 -79 -139 -135c0 -21 10 -35 35 -35c11 0 24 3 39 8l6 -40c-23 -7 -42 -10 -58 -10c-54 0 -72 33 -72 67c0 69 63 116 115 145h-185z" />
    <glyph glyph-name="Gcircumflex.small" horiz-adv-x="534" 
d="M265 -10c-138 0 -223 92 -223 230c0 170 120 320 292 320c54 0 109 -14 145 -33l-15 -45c-31 17 -71 30 -128 30c-119 0 -238 -99 -238 -270c0 -114 61 -185 169 -185c37 0 76 9 99 21l40 190h52l-47 -222c-49 -24 -106 -36 -146 -36zM193 566l118 147h57l78 -147h-50
l-59 109l-91 -109h-53z" />
    <glyph glyph-name="Gbreve.small" horiz-adv-x="534" 
d="M326 581c-70 0 -105 45 -100 114h42c0 -43 16 -71 62 -71c48 0 73 31 87 71h43c-15 -69 -64 -114 -134 -114zM265 -10c-138 0 -223 92 -223 230c0 170 120 320 292 320c54 0 109 -14 145 -33l-15 -45c-31 17 -71 30 -128 30c-119 0 -238 -99 -238 -270
c0 -114 61 -185 169 -185c37 0 76 9 99 21l40 190h52l-47 -222c-49 -24 -106 -36 -146 -36z" />
    <glyph glyph-name="Gdotaccent.small" horiz-adv-x="534" 
d="M265 -10c-138 0 -223 92 -223 230c0 170 120 320 292 320c54 0 109 -14 145 -33l-15 -45c-31 17 -71 30 -128 30c-119 0 -238 -99 -238 -270c0 -114 61 -185 169 -185c37 0 76 9 99 21l40 190h52l-47 -222c-49 -24 -106 -36 -146 -36zM337 618c-22 0 -34 13 -34 33
c0 28 22 47 45 47c22 0 34 -13 34 -33c0 -28 -22 -47 -45 -47z" />
    <glyph glyph-name="Gcommaaccent.small" horiz-adv-x="534" 
d="M265 -10c-138 0 -223 92 -223 230c0 170 120 320 292 320c54 0 109 -14 145 -33l-15 -45c-31 17 -71 30 -128 30c-119 0 -238 -99 -238 -270c0 -114 61 -185 169 -185c37 0 76 9 99 21l40 190h52l-47 -222c-49 -24 -106 -36 -146 -36zM157 -237l-15 39c62 19 89 48 89 91
c0 17 -5 36 -13 55h50c8 -12 14 -37 14 -58c0 -57 -41 -104 -125 -127z" />
    <glyph glyph-name="Hcircumflex.small" horiz-adv-x="557" 
d="M20 0l111 530h52l-50 -238h287l50 238h52l-111 -530h-52l51 246h-287l-51 -246h-52zM205 566l118 147h57l78 -147h-50l-59 109l-91 -109h-53z" />
    <glyph glyph-name="Hbar.small" horiz-adv-x="557" 
d="M20 0l80 385h-54l10 46h54l21 99h52l-21 -99h287l21 99h52l-21 -99h54l-10 -46h-54l-80 -385h-52l51 246h-287l-51 -246h-52zM133 292h287l19 93h-287z" />
    <glyph glyph-name="Igrave.small" horiz-adv-x="218" 
d="M143 566l-73 147h67l50 -147h-44zM20 0l111 530h52l-111 -530h-52z" />
    <glyph glyph-name="Iacute.small" horiz-adv-x="218" 
d="M137 566l77 147h67l-100 -147h-44zM20 0l111 530h52l-111 -530h-52z" />
    <glyph glyph-name="Icircumflex.small" horiz-adv-x="218" 
d="M20 0l111 530h52l-111 -530h-52zM34 566l118 147h57l78 -147h-50l-59 109l-91 -109h-53z" />
    <glyph glyph-name="Itilde.small" horiz-adv-x="218" 
d="M31 592c5 62 39 89 77 89c53 0 85 -50 121 -50c23 0 32 20 36 44h44c-5 -62 -39 -89 -77 -89c-53 0 -85 50 -121 50c-23 0 -32 -20 -36 -44h-44zM20 0l111 530h52l-111 -530h-52z" />
    <glyph glyph-name="AE.small" horiz-adv-x="653" 
d="M-46 0l390 530h279l-13 -46h-206l-22 -192h193l-5 -46h-195l-25 -200h221l-5 -46h-273l17 138h-193l-102 -138h-61zM150 184h167l37 277h-3z" />
    <glyph glyph-name="Idieresis.small" horiz-adv-x="218" 
d="M20 0l111 530h52l-111 -530h-52zM83 593c-20 0 -31 13 -31 31c0 24 18 41 39 41c20 0 31 -13 31 -31c0 -24 -18 -41 -39 -41zM253 593c-20 0 -31 13 -31 31c0 24 18 41 39 41c20 0 31 -13 31 -31c0 -24 -18 -41 -39 -41z" />
    <glyph glyph-name="Imacron.small" horiz-adv-x="218" 
d="M52 611l10 46h232l-10 -46h-232zM20 0l111 530h52l-111 -530h-52z" />
    <glyph glyph-name="AEacute.small" horiz-adv-x="653" 
d="M423 566l77 147h67l-100 -147h-44zM-46 0l390 530h279l-13 -46h-206l-22 -192h193l-5 -46h-195l-25 -200h221l-5 -46h-273l17 138h-193l-102 -138h-61zM150 184h167l37 277h-3z" />
    <glyph glyph-name="Ibreve.small" horiz-adv-x="218" 
d="M164 581c-70 0 -105 45 -100 114h42c0 -43 16 -71 62 -71c48 0 73 31 87 71h43c-15 -69 -64 -114 -134 -114zM20 0l111 530h52l-111 -530h-52z" />
    <glyph glyph-name="Iogonek.small" horiz-adv-x="218" 
d="M23 14l108 516h52l-111 -530c-41 -38 -92 -92 -92 -135c0 -21 10 -35 35 -35c11 0 24 3 39 8l6 -40c-23 -7 -42 -10 -58 -10c-54 0 -72 33 -72 69c0 61 55 118 93 157z" />
    <glyph glyph-name="IJ.small" horiz-adv-x="453" 
d="M20 0l111 530h52l-111 -530h-52zM115 -109l15 43c14 -5 26 -7 42 -7c56 0 76 40 87 92l107 511h52l-108 -517c-15 -73 -47 -132 -136 -132c-20 0 -41 3 -59 10z" />
    <glyph glyph-name="Jcircumflex.small" horiz-adv-x="235" 
d="M-103 -109l15 43c14 -5 26 -7 42 -7c56 0 76 40 87 92l107 511h52l-108 -517c-15 -73 -47 -132 -136 -132c-20 0 -41 3 -59 10zM52 566l118 147h57l78 -147h-50l-59 109l-91 -109h-53z" />
    <glyph glyph-name="Kcommaaccent.small" horiz-adv-x="444" 
d="M20 0l111 530h52l-54 -256h2l247 256h62l-265 -275l187 -255h-59l-178 243h-2l-51 -243h-52zM74 -237l-15 39c62 19 89 48 89 91c0 17 -5 36 -13 55h50c8 -12 14 -37 14 -58c0 -57 -41 -104 -125 -127z" />
    <glyph glyph-name="Lacute.small" horiz-adv-x="355" 
d="M138 566l77 147h67l-100 -147h-44zM20 0l111 530h52l-101 -484h205l-10 -46h-257z" />
    <glyph glyph-name="Lcaron.small" horiz-adv-x="355" 
d="M20 0l111 530h52l-101 -484h205l-10 -46h-257zM238 373l61 195h57l-76 -195h-42z" />
    <glyph glyph-name="Lcommaaccent.small" horiz-adv-x="355" 
d="M20 0l111 530h52l-101 -484h205l-10 -46h-257zM52 -237l-15 39c62 19 89 48 89 91c0 17 -5 36 -13 55h50c8 -12 14 -37 14 -58c0 -57 -41 -104 -125 -127z" />
    <glyph glyph-name="Lslash.small" horiz-adv-x="355" 
d="M20 0l45 213l-54 -28l12 54l53 28l55 263h52l-49 -236l135 72l-12 -54l-134 -72l-41 -194h205l-10 -46h-257z" />
    <glyph glyph-name="Ldot.small" horiz-adv-x="355" 
d="M273 238c-22 0 -36 19 -36 38c0 26 18 44 42 44c22 0 36 -19 36 -38c0 -26 -18 -44 -42 -44zM20 0l111 530h52l-101 -484h205l-10 -46h-257z" />
    <glyph glyph-name="Nacute.small" horiz-adv-x="587" 
d="M314 566l77 147h67l-100 -147h-44zM20 0l111 530h43l176 -331c21 -40 46 -86 57 -111h2c6 33 18 94 28 141l63 301h52l-111 -530h-37l-181 336c-22 40 -46 86 -57 111h-2c-6 -38 -21 -108 -28 -141l-64 -306h-52z" />
    <glyph glyph-name="Ncaron.small" horiz-adv-x="587" 
d="M314 567l-78 147h50l59 -109l91 109h53l-118 -147h-57zM20 0l111 530h43l176 -331c21 -40 46 -86 57 -111h2c6 33 18 94 28 141l63 301h52l-111 -530h-37l-181 336c-22 40 -46 86 -57 111h-2c-6 -38 -21 -108 -28 -141l-64 -306h-52z" />
    <glyph glyph-name="Cacute.small" horiz-adv-x="493" 
d="M290 566l77 147h67l-100 -147h-44zM258 -10c-129 0 -216 87 -216 223c0 172 112 327 289 327c52 0 101 -14 137 -33l-15 -45c-31 16 -71 30 -123 30c-117 0 -232 -99 -232 -276c0 -115 64 -178 161 -178c53 0 100 15 142 40l12 -46c-46 -27 -104 -42 -155 -42z" />
    <glyph glyph-name="Ntilde.small" horiz-adv-x="587" 
d="M218 592c5 62 39 89 77 89c53 0 85 -50 121 -50c23 0 32 20 36 44h44c-5 -62 -39 -89 -77 -89c-53 0 -85 50 -121 50c-23 0 -32 -20 -36 -44h-44zM20 0l111 530h43l176 -331c21 -40 46 -86 57 -111h2c6 33 18 94 28 141l63 301h52l-111 -530h-37l-181 336
c-22 40 -46 86 -57 111h-2c-6 -38 -21 -108 -28 -141l-64 -306h-52z" />
    <glyph glyph-name="Ncommaaccent.small" horiz-adv-x="587" 
d="M20 0l111 530h43l176 -331c21 -40 46 -86 57 -111h2c6 33 18 94 28 141l63 301h52l-111 -530h-37l-181 336c-22 40 -46 86 -57 111h-2c-6 -38 -21 -108 -28 -141l-64 -306h-52zM134 -237l-15 39c62 19 89 48 89 91c0 17 -5 36 -13 55h50c8 -12 14 -37 14 -58
c0 -57 -41 -104 -125 -127z" />
    <glyph glyph-name="Ograve.small" horiz-adv-x="593" 
d="M327 566l-73 147h67l50 -147h-44zM255 -10c-128 0 -213 93 -213 220c0 190 137 330 290 330c128 0 213 -93 213 -220c0 -190 -137 -330 -290 -330zM258 38c119 0 231 114 231 280c0 103 -58 174 -160 174c-119 0 -231 -114 -231 -280c0 -103 58 -174 160 -174z" />
    <glyph glyph-name="Oacute.small" horiz-adv-x="593" 
d="M315 566l77 147h67l-100 -147h-44zM255 -10c-128 0 -213 93 -213 220c0 190 137 330 290 330c128 0 213 -93 213 -220c0 -190 -137 -330 -290 -330zM258 38c119 0 231 114 231 280c0 103 -58 174 -160 174c-119 0 -231 -114 -231 -280c0 -103 58 -174 160 -174z" />
    <glyph glyph-name="Ocircumflex.small" horiz-adv-x="593" 
d="M255 -10c-128 0 -213 93 -213 220c0 190 137 330 290 330c128 0 213 -93 213 -220c0 -190 -137 -330 -290 -330zM258 38c119 0 231 114 231 280c0 103 -58 174 -160 174c-119 0 -231 -114 -231 -280c0 -103 58 -174 160 -174zM212 566l118 147h57l78 -147h-50l-59 109
l-91 -109h-53z" />
    <glyph glyph-name="Otilde.small" horiz-adv-x="593" 
d="M209 592c5 62 39 89 77 89c53 0 85 -50 121 -50c23 0 32 20 36 44h44c-5 -62 -39 -89 -77 -89c-53 0 -85 50 -121 50c-23 0 -32 -20 -36 -44h-44zM255 -10c-128 0 -213 93 -213 220c0 190 137 330 290 330c128 0 213 -93 213 -220c0 -190 -137 -330 -290 -330zM258 38
c119 0 231 114 231 280c0 103 -58 174 -160 174c-119 0 -231 -114 -231 -280c0 -103 58 -174 160 -174z" />
    <glyph glyph-name="Odieresis.small" horiz-adv-x="593" 
d="M255 -10c-128 0 -213 93 -213 220c0 190 137 330 290 330c128 0 213 -93 213 -220c0 -190 -137 -330 -290 -330zM258 38c119 0 231 114 231 280c0 103 -58 174 -160 174c-119 0 -231 -114 -231 -280c0 -103 58 -174 160 -174zM257 593c-20 0 -31 13 -31 31
c0 24 18 41 39 41c20 0 31 -13 31 -31c0 -24 -18 -41 -39 -41zM427 593c-20 0 -31 13 -31 31c0 24 18 41 39 41c20 0 31 -13 31 -31c0 -24 -18 -41 -39 -41z" />
    <glyph glyph-name="Omacron.small" horiz-adv-x="593" 
d="M230 611l10 46h232l-10 -46h-232zM255 -10c-128 0 -213 93 -213 220c0 190 137 330 290 330c128 0 213 -93 213 -220c0 -190 -137 -330 -290 -330zM258 38c119 0 231 114 231 280c0 103 -58 174 -160 174c-119 0 -231 -114 -231 -280c0 -103 58 -174 160 -174z" />
    <glyph glyph-name="Obreve.small" horiz-adv-x="593" 
d="M340 581c-70 0 -105 45 -100 114h42c0 -43 16 -71 62 -71c48 0 73 31 87 71h43c-15 -69 -64 -114 -134 -114zM255 -10c-128 0 -213 93 -213 220c0 190 137 330 290 330c128 0 213 -93 213 -220c0 -190 -137 -330 -290 -330zM258 38c119 0 231 114 231 280
c0 103 -58 174 -160 174c-119 0 -231 -114 -231 -280c0 -103 58 -174 160 -174z" />
    <glyph glyph-name="Ohungarumlaut.small" horiz-adv-x="593" 
d="M255 -10c-128 0 -213 93 -213 220c0 190 137 330 290 330c128 0 213 -93 213 -220c0 -190 -137 -330 -290 -330zM258 38c119 0 231 114 231 280c0 103 -58 174 -160 174c-119 0 -231 -114 -231 -280c0 -103 58 -174 160 -174zM242 566l77 147h67l-100 -147h-44zM397 566
l77 147h67l-100 -147h-44z" />
    <glyph glyph-name="Oslash.small" horiz-adv-x="593" 
d="M60 -9l-32 32l52 54c-25 36 -38 82 -38 133c0 190 137 330 290 330c58 0 108 -20 145 -53l50 52l32 -32l-53 -54c25 -36 39 -82 39 -133c0 -190 -137 -330 -290 -330c-59 0 -109 19 -145 53zM258 38c119 0 231 114 231 280c0 36 -7 68 -21 95l-322 -333
c27 -27 64 -42 112 -42zM98 212c0 -37 7 -69 21 -96l322 334c-27 26 -65 42 -112 42c-119 0 -231 -114 -231 -280z" />
    <glyph glyph-name="Oslashacute.small" horiz-adv-x="593" 
d="M315 566l77 147h67l-100 -147h-44zM60 -9l-32 32l52 54c-25 36 -38 82 -38 133c0 190 137 330 290 330c58 0 108 -20 145 -53l50 52l32 -32l-53 -54c25 -36 39 -82 39 -133c0 -190 -137 -330 -290 -330c-59 0 -109 19 -145 53zM258 38c119 0 231 114 231 280
c0 36 -7 68 -21 95l-322 -333c27 -27 64 -42 112 -42zM98 212c0 -37 7 -69 21 -96l322 334c-27 26 -65 42 -112 42c-119 0 -231 -114 -231 -280z" />
    <glyph glyph-name="OE.small" horiz-adv-x="726" 
d="M260 -5c-137 0 -218 93 -218 212c0 193 135 328 306 328c46 0 93 -5 165 -5h186l-19 -46h-194l-39 -192h191l-10 -46h-191l-41 -200h218l-10 -46h-223c-48 0 -79 -5 -121 -5zM267 41c25 0 50 1 76 3l93 441c-21 2 -54 4 -81 4c-142 0 -258 -108 -258 -279
c0 -92 54 -169 170 -169z" />
    <glyph glyph-name="Racute.small" horiz-adv-x="452" 
d="M217 566l77 147h67l-100 -147h-44zM20 0l111 530h90c92 0 167 -43 167 -134c0 -73 -50 -143 -146 -161v-2c17 -19 40 -59 59 -98l66 -135h-57l-60 126c-20 41 -44 80 -58 96h-74l-46 -222h-52zM128 268h55c88 0 150 45 150 126c0 53 -39 90 -110 90h-50z" />
    <glyph glyph-name="Rcaron.small" horiz-adv-x="452" 
d="M225 567l-78 147h50l59 -109l91 109h53l-118 -147h-57zM20 0l111 530h90c92 0 167 -43 167 -134c0 -73 -50 -143 -146 -161v-2c17 -19 40 -59 59 -98l66 -135h-57l-60 126c-20 41 -44 80 -58 96h-74l-46 -222h-52zM128 268h55c88 0 150 45 150 126c0 53 -39 90 -110 90
h-50z" />
    <glyph glyph-name="Rcommaaccent.small" horiz-adv-x="452" 
d="M20 0l111 530h90c92 0 167 -43 167 -134c0 -73 -50 -143 -146 -161v-2c17 -19 40 -59 59 -98l66 -135h-57l-60 126c-20 41 -44 80 -58 96h-74l-46 -222h-52zM128 268h55c88 0 150 45 150 126c0 53 -39 90 -110 90h-50zM88 -237l-15 39c62 19 89 48 89 91
c0 17 -5 36 -13 55h50c8 -12 14 -37 14 -58c0 -57 -41 -104 -125 -127z" />
    <glyph glyph-name="Sacute.small" horiz-adv-x="404" 
d="M213 566l77 147h67l-100 -147h-44zM0 26l18 46c36 -20 77 -34 124 -34c96 0 126 57 126 100c0 117 -193 107 -193 260c0 81 63 142 161 142c41 0 83 -8 125 -28l-13 -45c-32 16 -72 25 -112 25c-59 0 -107 -32 -107 -91c0 -117 194 -115 194 -258
c0 -84 -55 -153 -182 -153c-48 0 -97 12 -141 36z" />
    <glyph glyph-name="Scircumflex.small" horiz-adv-x="404" 
d="M0 26l18 46c36 -20 77 -34 124 -34c96 0 126 57 126 100c0 117 -193 107 -193 260c0 81 63 142 161 142c41 0 83 -8 125 -28l-13 -45c-32 16 -72 25 -112 25c-59 0 -107 -32 -107 -91c0 -117 194 -115 194 -258c0 -84 -55 -153 -182 -153c-48 0 -97 12 -141 36zM113 566
l118 147h57l78 -147h-50l-59 109l-91 -109h-53z" />
    <glyph glyph-name="Scaron.small" horiz-adv-x="404" 
d="M215 567l-78 147h50l59 -109l91 109h53l-118 -147h-57zM0 26l18 46c36 -20 77 -34 124 -34c96 0 126 57 126 100c0 117 -193 107 -193 260c0 81 63 142 161 142c41 0 83 -8 125 -28l-13 -45c-32 16 -72 25 -112 25c-59 0 -107 -32 -107 -91c0 -117 194 -115 194 -258
c0 -84 -55 -153 -182 -153c-48 0 -97 12 -141 36z" />
    <glyph glyph-name="Scedilla.small" horiz-adv-x="404" 
d="M17 -198l17 36c14 -8 33 -11 47 -11c35 0 64 15 64 46s-36 38 -81 36l38 84c-35 4 -70 15 -102 33l18 46c36 -20 77 -34 124 -34c96 0 126 57 126 100c0 117 -193 107 -193 260c0 81 63 142 161 142c41 0 83 -8 125 -28l-13 -45c-32 16 -72 25 -112 25
c-59 0 -107 -32 -107 -91c0 -117 194 -115 194 -258c0 -83 -53 -150 -176 -153l-20 -46c41 -4 68 -31 68 -66c0 -63 -54 -90 -112 -90c-23 0 -44 4 -66 14z" />
    <glyph glyph-name="Scommaaccent.small" horiz-adv-x="404" 
d="M0 26l18 46c36 -20 77 -34 124 -34c96 0 126 57 126 100c0 117 -193 107 -193 260c0 81 63 142 161 142c41 0 83 -8 125 -28l-13 -45c-32 16 -72 25 -112 25c-59 0 -107 -32 -107 -91c0 -117 194 -115 194 -258c0 -84 -55 -153 -182 -153c-48 0 -97 12 -141 36zM52 -237
l-15 39c62 19 89 48 89 91c0 17 -5 36 -13 55h50c8 -12 14 -37 14 -58c0 -57 -41 -104 -125 -127z" />
    <glyph glyph-name="Tcaron.small" horiz-adv-x="404" 
d="M231 567l-78 147h50l59 -109l91 109h53l-118 -147h-57zM116 0l101 484h-169l11 46h390l-19 -46h-161l-101 -484h-52z" />
    <glyph glyph-name="Tcommaaccent.small" horiz-adv-x="404" 
d="M116 0l101 484h-169l11 46h390l-19 -46h-161l-101 -484h-52zM47 -237l-15 39c62 19 89 48 89 91c0 17 -5 36 -13 55h50c8 -12 14 -37 14 -58c0 -57 -41 -104 -125 -127z" />
    <glyph glyph-name="Tbar.small" horiz-adv-x="404" 
d="M76 246l11 46h90l40 192h-169l11 46h390l-19 -46h-161l-40 -192h96l-11 -46h-95l-51 -246h-52l51 246h-91z" />
    <glyph glyph-name="Ugrave.small" horiz-adv-x="546" 
d="M301 566l-73 147h67l50 -147h-44zM222 -11c-90 0 -174 43 -174 147c0 23 2 46 10 83l65 311h52l-69 -329c-6 -29 -6 -43 -6 -56c0 -72 47 -108 124 -108c62 0 111 22 141 70c13 21 25 49 37 107l66 316h52l-68 -325c-11 -53 -25 -96 -42 -123c-40 -63 -104 -93 -188 -93z
" />
    <glyph glyph-name="Uacute.small" horiz-adv-x="546" 
d="M297 566l77 147h67l-100 -147h-44zM222 -11c-90 0 -174 43 -174 147c0 23 2 46 10 83l65 311h52l-69 -329c-6 -29 -6 -43 -6 -56c0 -72 47 -108 124 -108c62 0 111 22 141 70c13 21 25 49 37 107l66 316h52l-68 -325c-11 -53 -25 -96 -42 -123c-40 -63 -104 -93 -188 -93
z" />
    <glyph glyph-name="Ucircumflex.small" horiz-adv-x="546" 
d="M222 -11c-90 0 -174 43 -174 147c0 23 2 46 10 83l65 311h52l-69 -329c-6 -29 -6 -43 -6 -56c0 -72 47 -108 124 -108c62 0 111 22 141 70c13 21 25 49 37 107l66 316h52l-68 -325c-11 -53 -25 -96 -42 -123c-40 -63 -104 -93 -188 -93zM200 566l118 147h57l78 -147h-50
l-59 109l-91 -109h-53z" />
    <glyph glyph-name="Utilde.small" horiz-adv-x="546" 
d="M200 592c5 62 39 89 77 89c53 0 85 -50 121 -50c23 0 32 20 36 44h44c-5 -62 -39 -89 -77 -89c-53 0 -85 50 -121 50c-23 0 -32 -20 -36 -44h-44zM222 -11c-90 0 -174 43 -174 147c0 23 2 46 10 83l65 311h52l-69 -329c-6 -29 -6 -43 -6 -56c0 -72 47 -108 124 -108
c62 0 111 22 141 70c13 21 25 49 37 107l66 316h52l-68 -325c-11 -53 -25 -96 -42 -123c-40 -63 -104 -93 -188 -93z" />
    <glyph glyph-name="Udieresis.small" horiz-adv-x="546" 
d="M222 -11c-90 0 -174 43 -174 147c0 23 2 46 10 83l65 311h52l-69 -329c-6 -29 -6 -43 -6 -56c0 -72 47 -108 124 -108c62 0 111 22 141 70c13 21 25 49 37 107l66 316h52l-68 -325c-11 -53 -25 -96 -42 -123c-40 -63 -104 -93 -188 -93zM245 593c-20 0 -31 13 -31 31
c0 24 18 41 39 41c20 0 31 -13 31 -31c0 -24 -18 -41 -39 -41zM415 593c-20 0 -31 13 -31 31c0 24 18 41 39 41c20 0 31 -13 31 -31c0 -24 -18 -41 -39 -41z" />
    <glyph glyph-name="Umacron.small" horiz-adv-x="546" 
d="M216 611l10 46h232l-10 -46h-232zM222 -11c-90 0 -174 43 -174 147c0 23 2 46 10 83l65 311h52l-69 -329c-6 -29 -6 -43 -6 -56c0 -72 47 -108 124 -108c62 0 111 22 141 70c13 21 25 49 37 107l66 316h52l-68 -325c-11 -53 -25 -96 -42 -123c-40 -63 -104 -93 -188 -93z
" />
    <glyph glyph-name="Ubreve.small" horiz-adv-x="546" 
d="M325 581c-70 0 -105 45 -100 114h42c0 -43 16 -71 62 -71c48 0 73 31 87 71h43c-15 -69 -64 -114 -134 -114zM222 -11c-90 0 -174 43 -174 147c0 23 2 46 10 83l65 311h52l-69 -329c-6 -29 -6 -43 -6 -56c0 -72 47 -108 124 -108c62 0 111 22 141 70c13 21 25 49 37 107
l66 316h52l-68 -325c-11 -53 -25 -96 -42 -123c-40 -63 -104 -93 -188 -93z" />
    <glyph glyph-name="Uring.small" horiz-adv-x="546" 
d="M327 559c-53 0 -90 34 -90 86c0 64 48 102 104 102c53 0 90 -34 90 -86c0 -64 -48 -102 -104 -102zM328 595c35 0 59 27 59 66c0 30 -18 50 -47 50c-35 0 -59 -27 -59 -66c0 -30 18 -50 47 -50zM222 -11c-90 0 -174 43 -174 147c0 23 2 46 10 83l65 311h52l-69 -329
c-6 -29 -6 -43 -6 -56c0 -72 47 -108 124 -108c62 0 111 22 141 70c13 21 25 49 37 107l66 316h52l-68 -325c-11 -53 -25 -96 -42 -123c-40 -63 -104 -93 -188 -93z" />
    <glyph glyph-name="Uhungarumlaut.small" horiz-adv-x="546" 
d="M222 -11c-90 0 -174 43 -174 147c0 23 2 46 10 83l65 311h52l-69 -329c-6 -29 -6 -43 -6 -56c0 -72 47 -108 124 -108c62 0 111 22 141 70c13 21 25 49 37 107l66 316h52l-68 -325c-11 -53 -25 -96 -42 -123c-40 -63 -104 -93 -188 -93zM224 566l77 147h67l-100 -147h-44
zM379 566l77 147h67l-100 -147h-44z" />
    <glyph glyph-name="Uogonek.small" horiz-adv-x="546" 
d="M179 -212c-54 0 -72 33 -72 67c0 61 45 106 95 133v2c-79 5 -154 48 -154 146c0 23 2 46 10 83l65 311h52l-69 -329c-6 -29 -6 -43 -6 -56c0 -72 47 -108 124 -108c62 0 111 22 141 70c13 21 25 49 37 107l66 316h52l-68 -325c-11 -53 -25 -96 -42 -123
c-15 -24 -37 -50 -91 -72c-48 -20 -162 -70 -162 -145c0 -21 10 -35 35 -35c11 0 24 3 39 8l6 -40c-23 -7 -42 -10 -58 -10z" />
    <glyph glyph-name="Wgrave.small" horiz-adv-x="690" 
d="M361 566l-73 147h67l50 -147h-44zM158 -2l-100 532h53l55 -304c8 -42 15 -90 20 -131h2c19 42 43 90 61 125l101 196l-22 114h53l61 -313c8 -41 16 -92 20 -122h2c17 37 41 88 58 124l148 311h56l-260 -532h-29l-52 267c-5 25 -11 55 -16 82h-2c-13 -26 -28 -54 -41 -80
l-138 -269h-30z" />
    <glyph glyph-name="Wacute.small" horiz-adv-x="690" 
d="M350 566l77 147h67l-100 -147h-44zM158 -2l-100 532h53l55 -304c8 -42 15 -90 20 -131h2c19 42 43 90 61 125l101 196l-22 114h53l61 -313c8 -41 16 -92 20 -122h2c17 37 41 88 58 124l148 311h56l-260 -532h-29l-52 267c-5 25 -11 55 -16 82h-2c-13 -26 -28 -54 -41 -80
l-138 -269h-30z" />
    <glyph glyph-name="Wcircumflex.small" horiz-adv-x="690" 
d="M158 -2l-100 532h53l55 -304c8 -42 15 -90 20 -131h2c19 42 43 90 61 125l101 196l-22 114h53l61 -313c8 -41 16 -92 20 -122h2c17 37 41 88 58 124l148 311h56l-260 -532h-29l-52 267c-5 25 -11 55 -16 82h-2c-13 -26 -28 -54 -41 -80l-138 -269h-30zM265 566l118 147
h57l78 -147h-50l-59 109l-91 -109h-53z" />
    <glyph glyph-name="Wdieresis.small" horiz-adv-x="690" 
d="M158 -2l-100 532h53l55 -304c8 -42 15 -90 20 -131h2c19 42 43 90 61 125l101 196l-22 114h53l61 -313c8 -41 16 -92 20 -122h2c17 37 41 88 58 124l148 311h56l-260 -532h-29l-52 267c-5 25 -11 55 -16 82h-2c-13 -26 -28 -54 -41 -80l-138 -269h-30zM306 593
c-20 0 -31 13 -31 31c0 24 18 41 39 41c20 0 31 -13 31 -31c0 -24 -18 -41 -39 -41zM476 593c-20 0 -31 13 -31 31c0 24 18 41 39 41c20 0 31 -13 31 -31c0 -24 -18 -41 -39 -41z" />
    <glyph glyph-name="Ygrave.small" horiz-adv-x="403" 
d="M229 566l-73 147h67l50 -147h-44zM117 0l46 219l-100 311h52l80 -260h2l184 260h58l-224 -311l-46 -219h-52z" />
    <glyph glyph-name="Yacute.small" horiz-adv-x="403" 
d="M226 566l77 147h67l-100 -147h-44zM117 0l46 219l-100 311h52l80 -260h2l184 260h58l-224 -311l-46 -219h-52z" />
    <glyph glyph-name="Ycircumflex.small" horiz-adv-x="403" 
d="M117 0l46 219l-100 311h52l80 -260h2l184 260h58l-224 -311l-46 -219h-52zM130 566l118 147h57l78 -147h-50l-59 109l-91 -109h-53z" />
    <glyph glyph-name="Ydieresis.small" horiz-adv-x="403" 
d="M117 0l46 219l-100 311h52l80 -260h2l184 260h58l-224 -311l-46 -219h-52zM171 593c-20 0 -31 13 -31 31c0 24 18 41 39 41c20 0 31 -13 31 -31c0 -24 -18 -41 -39 -41zM341 593c-20 0 -31 13 -31 31c0 24 18 41 39 41c20 0 31 -13 31 -31c0 -24 -18 -41 -39 -41z" />
    <glyph glyph-name="Zacute.small" horiz-adv-x="436" 
d="M215 566l77 147h67l-100 -147h-44zM-20 0l353 484h-251l-11 46h356l-353 -484h285l-10 -46h-369z" />
    <glyph glyph-name="Zcaron.small" horiz-adv-x="436" 
d="M221 567l-78 147h50l59 -109l91 109h53l-118 -147h-57zM-20 0l353 484h-251l-11 46h356l-353 -484h285l-10 -46h-369z" />
    <glyph glyph-name="Zdotaccent.small" horiz-adv-x="436" 
d="M-20 0l353 484h-251l-11 46h356l-353 -484h285l-10 -46h-369zM252 618c-22 0 -34 13 -34 33c0 28 22 47 45 47c22 0 34 -13 34 -33c0 -28 -22 -47 -45 -47z" />
    <glyph glyph-name="Eng.small" horiz-adv-x="587" 
d="M20 0l111 530h43l176 -331c21 -40 46 -86 57 -111h2c6 33 18 94 28 141l63 301h52l-127 -608c-19 -89 -77 -117 -139 -117c-18 0 -41 4 -57 11l15 46c11 -5 25 -9 44 -9c53 0 77 28 94 110l12 56l-171 317c-22 40 -46 86 -57 111h-2c-6 -38 -21 -108 -28 -141l-64 -306
h-52z" />
    <glyph glyph-name="Eth.small" horiz-adv-x="523" 
d="M20 0l51 246h-73l10 46h73l50 238h98c145 0 246 -85 246 -222c0 -183 -129 -308 -331 -308h-124zM82 46h71c151 0 267 97 267 264c0 103 -70 174 -192 174h-55l-40 -192h152l-10 -46h-152z" />
    <glyph glyph-name="Thorn.small" horiz-adv-x="420" 
d="M20 0l111 530h52l-19 -91h31c127 0 175 -71 175 -148c0 -111 -82 -185 -225 -185h-51l-22 -106h-52zM104 152h53c95 0 159 47 159 143c0 49 -32 98 -115 98h-47z" />
    <glyph glyph-name="a.superior" horiz-adv-x="319" 
d="M123 263c-54 0 -89 36 -89 89c0 92 80 123 165 123h53c3 13 5 27 5 42c0 35 -22 50 -60 50c-35 0 -69 -11 -101 -26l-10 41c32 17 74 29 114 29c70 0 103 -37 103 -93c0 -28 -7 -56 -13 -82l-5 -22c-10 -42 -13 -71 -13 -93c0 -17 3 -31 7 -46l-40 -9c-4 13 -8 31 -9 50
h-1c-28 -30 -65 -53 -106 -53zM130 307c45 0 95 44 108 104l5 22h-35c-98 0 -125 -36 -125 -76c0 -31 15 -50 47 -50z" />
    <glyph glyph-name="b.superior" horiz-adv-x="335" 
d="M123 263c-34 0 -72 9 -86 14l102 486h48l-35 -165c-3 -13 -6 -25 -10 -38h1c22 29 59 51 97 51c50 0 97 -37 97 -117c0 -127 -86 -231 -214 -231zM130 307c98 0 158 88 158 182c0 37 -12 78 -55 78c-50 0 -99 -50 -114 -123l-28 -133c13 -3 29 -4 39 -4z" />
    <glyph glyph-name="c.superior" horiz-adv-x="301" 
d="M181 263c-71 0 -131 48 -131 143c0 119 86 205 184 205c33 0 61 -8 84 -19l-10 -42c-20 9 -44 17 -72 17c-76 0 -137 -70 -137 -158c0 -59 27 -102 85 -102c32 0 65 12 90 28l14 -40c-30 -21 -74 -32 -107 -32z" />
    <glyph glyph-name="d.superior" horiz-adv-x="334" 
d="M188 263c-74 0 -138 50 -138 141c0 128 91 207 191 207c22 0 48 -4 65 -10l35 162h48l-101 -478c-25 -12 -62 -22 -100 -22zM192 307c19 0 40 4 54 9l51 241c-9 4 -32 10 -54 10c-78 0 -144 -60 -144 -161c0 -62 33 -99 93 -99z" />
    <glyph glyph-name="e.superior" horiz-adv-x="316" 
d="M181 263c-73 0 -132 46 -132 141c0 118 74 207 167 207c72 0 105 -47 105 -109c0 -23 -8 -54 -16 -74l-207 -2c-1 -12 -1 -16 -1 -18c0 -63 33 -101 87 -101c35 0 64 12 90 28l14 -40c-30 -21 -74 -32 -107 -32zM106 469l162 3c3 11 5 24 5 33c0 28 -11 62 -61 62
c-52 0 -92 -46 -106 -98z" />
    <glyph glyph-name="f.superior" horiz-adv-x="197" 
d="M-4 112l-31 32c82 75 114 179 148 416h-45l7 42h44l7 44c12 74 53 117 115 117c21 0 42 -5 58 -15l-16 -39c-8 4 -24 10 -40 10c-36 0 -62 -25 -70 -77l-6 -40h74l-18 -42h-62c-34 -225 -63 -359 -165 -448z" />
    <glyph glyph-name="g.superior" horiz-adv-x="347" 
d="M121 109c-34 0 -72 10 -101 28l18 41c25 -16 52 -25 84 -25c68 0 97 38 113 116l9 43h-1c-30 -36 -70 -49 -100 -49c-53 0 -93 37 -93 113c0 114 65 235 203 235c32 0 75 -8 99 -18l-73 -344c-17 -79 -54 -140 -158 -140zM150 307c36 0 100 36 124 147l23 107
c-12 3 -30 6 -46 6c-104 0 -152 -96 -152 -185c0 -46 17 -75 51 -75z" />
    <glyph glyph-name="h.superior" horiz-adv-x="328" 
d="M32 270l104 493h48l-36 -171c-3 -15 -8 -32 -13 -48h1c32 43 73 67 114 67s76 -24 76 -82c0 -18 -2 -36 -9 -72l-39 -187h-48l42 201c4 21 6 38 6 53c0 31 -15 42 -37 42c-40 0 -108 -41 -128 -138l-33 -158h-48z" />
    <glyph glyph-name="i.superior" horiz-adv-x="142" 
d="M31 270l70 332h48l-70 -332h-48zM141 671c-18 0 -28 13 -28 29c0 23 17 37 36 37c18 0 28 -13 28 -29c0 -23 -17 -37 -36 -37z" />
    <glyph glyph-name="j.superior" horiz-adv-x="155" 
d="M-26 109c-19 0 -37 5 -48 11l15 41c11 -6 23 -8 32 -8c41 0 52 30 60 66l81 383h48l-84 -399c-15 -70 -53 -94 -104 -94zM154 671c-18 0 -28 13 -28 29c0 23 17 37 36 37c18 0 28 -13 28 -29c0 -23 -17 -37 -36 -37z" />
    <glyph glyph-name="k.superior" horiz-adv-x="283" 
d="M31 270l104 493h48l-60 -285h2l139 124h63l-166 -146l118 -186h-55l-107 172h-2l-36 -172h-48z" />
    <glyph glyph-name="l.superior" horiz-adv-x="169" 
d="M98 267c-31 0 -52 15 -52 49c0 5 1 18 5 35l88 412h48l-89 -413c-2 -8 -3 -17 -3 -21c0 -13 8 -18 20 -18c8 0 16 2 23 5v-43c-9 -3 -24 -6 -40 -6z" />
    <glyph glyph-name="m.superior" horiz-adv-x="511" 
d="M34 270l70 332h44l-10 -55h1c22 34 65 64 106 64c37 0 69 -20 73 -71c30 42 70 71 117 71c41 0 76 -24 76 -80c0 -14 -2 -33 -8 -62l-41 -199h-48l42 201c4 21 7 43 7 53c0 31 -16 42 -36 42c-50 0 -103 -54 -120 -132l-35 -164h-48l42 201c4 21 7 43 7 53
c0 31 -16 42 -36 42c-50 0 -105 -54 -121 -132l-34 -164h-48z" />
    <glyph glyph-name="n.superior" unicode="&#x207f;" horiz-adv-x="328" 
d="M31 270l70 332h44l-11 -59h1c32 45 76 68 115 68c41 0 76 -24 76 -82c0 -18 -2 -36 -9 -72l-39 -187h-48l42 201c4 21 6 38 6 53c0 31 -15 42 -37 42c-40 0 -109 -41 -129 -138l-33 -158h-48z" />
    <glyph glyph-name="o.superior" horiz-adv-x="342" 
d="M168 263c-84 0 -118 61 -118 123c0 132 86 225 175 225c84 0 118 -61 118 -125c0 -130 -86 -223 -175 -223zM169 307c76 0 125 89 125 176c0 46 -17 84 -70 84c-75 0 -125 -90 -125 -175c0 -47 17 -85 70 -85z" />
    <glyph glyph-name="p.superior" horiz-adv-x="337" 
d="M-3 109l103 488c21 6 62 14 92 14c98 0 147 -59 147 -139c0 -141 -109 -209 -197 -209c-27 0 -44 3 -63 8l-34 -162h-48zM138 307c87 0 152 64 152 167c0 61 -36 93 -99 93c-18 0 -39 -3 -51 -7l-52 -246c15 -5 38 -7 50 -7z" />
    <glyph glyph-name="q.superior" horiz-adv-x="347" 
d="M143 263c-53 0 -93 37 -93 113c0 114 65 235 203 235c32 0 75 -8 99 -18l-102 -484h-48l34 162c3 14 6 29 9 43h-1c-30 -36 -71 -51 -101 -51zM150 307c36 0 100 36 124 147l23 107c-12 3 -30 6 -46 6c-104 0 -152 -96 -152 -185c0 -46 17 -75 51 -75z" />
    <glyph glyph-name="r.superior" horiz-adv-x="205" 
d="M31 270l70 332h43l-8 -45h1c22 35 55 54 84 54c15 0 28 -4 40 -11l-20 -44c-7 4 -16 6 -25 6c-41 0 -85 -48 -106 -146l-31 -146h-48z" />
    <glyph glyph-name="s.superior" horiz-adv-x="237" 
d="M12 288l19 41c19 -12 44 -22 75 -22c33 0 66 15 66 53c0 58 -103 68 -103 155c0 51 38 96 108 96c25 0 51 -4 74 -12l-8 -44c-17 6 -40 12 -63 12c-34 0 -62 -14 -62 -48c0 -61 103 -70 103 -159c0 -61 -52 -97 -117 -97c-38 0 -69 10 -92 25z" />
    <glyph glyph-name="t.superior" horiz-adv-x="217" 
d="M129 263c-42 0 -66 27 -66 59c0 13 3 27 5 37l42 201h-51l9 42h51l15 72l51 16l-18 -88h89l-17 -42h-81l-40 -191c-4 -18 -6 -28 -6 -38c0 -14 7 -24 26 -24c18 0 38 8 55 21l16 -38c-19 -14 -49 -27 -80 -27z" />
    <glyph glyph-name="u.superior" horiz-adv-x="341" 
d="M130 263c-40 0 -80 23 -80 81c0 20 4 42 8 61l42 197h48l-42 -200c-5 -22 -7 -44 -7 -52c0 -26 12 -42 38 -42c59 0 110 61 125 133c10 47 24 115 34 161h48l-40 -188c-9 -42 -13 -71 -13 -94c0 -17 3 -31 7 -45l-40 -9c-6 13 -11 33 -11 59h-1c-30 -38 -74 -62 -116 -62
z" />
    <glyph glyph-name="v.superior" horiz-adv-x="291" 
d="M114 268l-61 334h48l43 -265h2l139 265h55l-185 -334h-41z" />
    <glyph glyph-name="w.superior" horiz-adv-x="448" 
d="M105 268l-50 334h46l35 -254h2l117 254h43l30 -253h2l112 253h53l-156 -334h-44l-29 252h-2l-116 -252h-43z" />
    <glyph glyph-name="x.superior" horiz-adv-x="287" 
d="M-10 270l150 174l-83 158h50l66 -126l108 126h58l-144 -167l87 -165h-50l-70 134l-114 -134h-58z" />
    <glyph glyph-name="y.superior" horiz-adv-x="290" 
d="M-62 121l17 41c9 -4 22 -8 39 -8c42 0 81 27 127 119l-73 329h50l57 -266h1l127 266h56l-173 -346c-59 -118 -111 -147 -175 -147c-18 0 -40 5 -53 12z" />
    <glyph glyph-name="z.superior" horiz-adv-x="248" 
d="M6 270l189 290h-133l-2 42h218l-189 -290h145l-8 -42h-220z" />
    <glyph glyph-name="zero.LT" horiz-adv-x="513" 
d="M193 -10c-103 0 -164 70 -164 216c0 233 115 458 280 458c103 0 164 -70 164 -216c0 -233 -115 -458 -280 -458zM196 38c119 0 221 192 221 420c0 109 -38 158 -111 158c-119 0 -221 -192 -221 -420c0 -109 38 -158 111 -158z" />
    <glyph glyph-name="one.LT" horiz-adv-x="513" 
d="M205 0l124 592c-41 -26 -150 -63 -201 -76v47c48 14 172 63 225 101h43l-139 -664h-52z" />
    <glyph glyph-name="sigmafinal" unicode="&#x3c2;" horiz-adv-x="389" 
d="M175 -145c24 26 61 62 61 100c0 104 -200 85 -200 269c0 129 86 261 232 261c43 0 84 -8 114 -22l-10 -48c-28 13 -61 22 -100 22c-115 0 -180 -104 -180 -212c0 -159 200 -132 200 -263c0 -56 -44 -102 -78 -137z" />
    <glyph glyph-name="parenright.dnom" horiz-adv-x="244" 
d="M5 -49l-26 32c80 72 131 153 131 264c0 55 -15 120 -42 160l35 24c39 -49 56 -120 56 -180c0 -112 -52 -216 -154 -300z" />
    <glyph glyph-name="parenleft.dnom" horiz-adv-x="244" 
d="M92 -49c-39 49 -56 120 -56 180c0 112 52 216 154 300l26 -32c-80 -72 -131 -153 -131 -264c0 -55 15 -120 42 -160z" />
    <glyph glyph-name="equal.dnom" horiz-adv-x="419" 
d="M30 108v44h309v-44h-309zM30 230v44h309v-44h-309z" />
    <glyph glyph-name="minus.dnom" horiz-adv-x="419" 
d="M30 169v44h309v-44h-309z" />
    <glyph glyph-name="plus.dnom" horiz-adv-x="419" 
d="M162 29v140h-132v44h132v136h45v-136h132v-44h-132v-140h-45z" />
    <glyph glyph-name="nine.dnom" horiz-adv-x="341" 
d="M5 4l13 41c14 -6 33 -10 53 -10c78 0 124 47 143 132h-2c-23 -18 -57 -27 -84 -27c-60 0 -105 37 -105 108c0 88 58 138 126 138c82 0 121 -60 121 -141c0 -161 -80 -253 -197 -253c-25 0 -50 5 -68 12zM135 183c36 0 60 15 82 33c2 11 3 23 3 33c0 63 -32 94 -72 94
c-42 0 -76 -34 -76 -90c0 -45 23 -70 63 -70z" />
    <glyph glyph-name="eight.dnom" horiz-adv-x="360" 
d="M138 -8c-67 0 -119 36 -119 99c0 55 38 90 85 107v1c-30 18 -47 45 -47 80c0 69 58 107 123 107c70 0 115 -35 115 -96c0 -46 -29 -80 -79 -96v-1c43 -16 64 -47 64 -86c0 -74 -65 -115 -142 -115zM142 35c39 0 89 20 89 71c0 39 -35 57 -80 70c-48 -12 -83 -40 -83 -79
c0 -45 36 -62 74 -62zM166 214c43 11 80 34 80 76c0 34 -27 53 -66 53c-38 0 -74 -20 -74 -62c0 -32 27 -56 60 -67z" />
    <glyph glyph-name="seven.dnom" horiz-adv-x="291" 
d="M23 0c35 149 108 255 178 335h-173l-7 42h242v-26c-85 -96 -155 -208 -190 -351h-50z" />
    <glyph glyph-name="six.dnom" horiz-adv-x="337" 
d="M133 -8c-66 0 -115 45 -115 139c0 138 83 255 203 255c23 0 47 -5 62 -12l-15 -40c-12 5 -29 9 -49 9c-82 0 -131 -75 -147 -143h2c16 17 46 32 81 32c61 0 106 -40 106 -108c0 -72 -51 -132 -128 -132zM133 35c45 0 79 34 79 85c0 38 -21 69 -64 69
c-47 0 -81 -29 -81 -80c0 -38 19 -74 66 -74z" />
    <glyph glyph-name="five.dnom" horiz-adv-x="323" 
d="M-14 13l18 40c23 -11 51 -18 84 -18c56 0 106 24 106 82c0 25 -10 46 -34 57c-14 7 -33 10 -62 10h-58l40 193h198l-10 -42h-148l-23 -110h11c36 0 57 -4 74 -11c39 -17 61 -51 61 -93c0 -84 -66 -129 -158 -129c-38 0 -73 8 -99 21z" />
    <glyph glyph-name="four.dnom" horiz-adv-x="360" 
d="M161 0l18 89h-166l-7 36l237 260h47l-54 -254h53l-8 -42h-54l-18 -89h-48zM188 131l10 45c8 37 16 75 30 130l-160 -175h120z" />
    <glyph glyph-name="three.dnom" horiz-adv-x="329" 
d="M-7 13l18 40c26 -12 56 -18 84 -18c61 0 106 26 106 75c0 43 -38 62 -103 62h-41l5 43h39c69 2 111 33 111 77c0 30 -18 51 -64 51c-34 0 -63 -10 -89 -23l-17 37c30 16 69 29 112 29c67 0 107 -37 107 -90c0 -51 -37 -86 -81 -100v-2c40 -8 70 -37 70 -83
c0 -69 -58 -119 -155 -119c-34 0 -74 7 -102 21z" />
    <glyph glyph-name="two.dnom" horiz-adv-x="313" 
d="M-15 0c23 201 227 194 227 294c0 29 -22 49 -61 49c-35 0 -65 -13 -95 -30l-19 37c37 22 77 36 118 36c69 0 106 -38 106 -90c0 -121 -182 -131 -216 -251h184l-4 -45h-240z" />
    <glyph glyph-name="one.dnom" horiz-adv-x="277" 
d="M74 0l69 329c-37 -21 -79 -33 -114 -42v42c40 10 102 38 133 56h41l-81 -385h-48z" />
    <glyph glyph-name="zero.dnom" horiz-adv-x="360" 
d="M131 -8c-70 0 -110 54 -110 144c0 141 64 250 159 250c70 0 110 -54 110 -144c0 -141 -64 -250 -159 -250zM133 35c58 0 108 87 108 201c0 64 -14 107 -63 107c-58 0 -108 -87 -108 -201c0 -64 14 -107 63 -107z" />
    <glyph glyph-name="parenright.numr" horiz-adv-x="244" 
d="M51 221l-26 32c80 72 131 153 131 264c0 55 -15 120 -42 160l35 24c39 -49 56 -120 56 -180c0 -112 -52 -216 -154 -300z" />
    <glyph glyph-name="parenleft.numr" horiz-adv-x="244" 
d="M143 221c-39 49 -56 120 -56 180c0 112 52 216 154 300l26 -32c-80 -72 -131 -153 -131 -264c0 -55 15 -120 42 -160z" />
    <glyph glyph-name="equal.numr" horiz-adv-x="419" 
d="M75 378v44h309v-44h-309zM75 500v44h309v-44h-309z" />
    <glyph glyph-name="minus.numr" horiz-adv-x="419" 
d="M75 439v44h309v-44h-309z" />
    <glyph glyph-name="plus.numr" horiz-adv-x="419" 
d="M207 299v140h-132v44h132v136h45v-136h132v-44h-132v-140h-45z" />
    <glyph glyph-name="nine.numr" horiz-adv-x="341" 
d="M49 275l13 41c14 -6 33 -10 53 -10c78 0 124 47 143 132h-2c-23 -18 -57 -27 -84 -27c-60 0 -105 37 -105 108c0 88 58 138 126 138c82 0 121 -60 121 -141c0 -161 -80 -253 -197 -253c-25 0 -50 5 -68 12zM179 454c36 0 60 15 82 33c2 11 3 23 3 33c0 63 -32 94 -72 94
c-42 0 -76 -34 -76 -90c0 -45 23 -70 63 -70z" />
    <glyph glyph-name="eight.numr" horiz-adv-x="360" 
d="M186 263c-67 0 -119 36 -119 99c0 55 38 90 85 107v1c-30 18 -47 45 -47 80c0 69 58 107 123 107c70 0 115 -35 115 -96c0 -46 -29 -80 -79 -96v-1c43 -16 64 -47 64 -86c0 -74 -65 -115 -142 -115zM190 306c39 0 89 20 89 71c0 39 -35 57 -80 70
c-48 -12 -83 -40 -83 -79c0 -45 36 -62 74 -62zM214 485c43 11 80 34 80 76c0 34 -27 53 -66 53c-38 0 -74 -20 -74 -62c0 -32 27 -56 60 -67z" />
    <glyph glyph-name="seven.numr" horiz-adv-x="291" 
d="M68 270c35 149 108 255 178 335h-173l-7 42h242v-26c-85 -96 -155 -208 -190 -351h-50z" />
    <glyph glyph-name="six.numr" horiz-adv-x="337" 
d="M181 263c-66 0 -115 45 -115 139c0 138 83 255 203 255c23 0 47 -5 62 -12l-15 -40c-12 5 -29 9 -49 9c-82 0 -131 -75 -147 -143h2c16 17 46 32 81 32c61 0 106 -40 106 -108c0 -72 -51 -132 -128 -132zM181 306c45 0 79 34 79 85c0 38 -21 69 -64 69
c-47 0 -81 -29 -81 -80c0 -38 19 -74 66 -74z" />
    <glyph glyph-name="five.numr" horiz-adv-x="323" 
d="M37 284l18 40c23 -11 51 -18 84 -18c56 0 106 24 106 82c0 25 -10 46 -34 57c-14 7 -33 10 -62 10h-58l40 193h198l-10 -42h-148l-23 -110h11c36 0 57 -4 74 -11c39 -17 61 -51 61 -93c0 -84 -66 -129 -158 -129c-38 0 -73 8 -99 21z" />
    <glyph glyph-name="four.numr" horiz-adv-x="360" 
d="M209 270l18 89h-166l-7 36l237 260h47l-54 -254h53l-8 -42h-54l-18 -89h-48zM236 401l10 45c8 37 16 75 30 130l-160 -175h120z" />
    <glyph glyph-name="three.numr" horiz-adv-x="329" 
d="M41 284l18 40c26 -12 56 -18 84 -18c61 0 106 26 106 75c0 43 -38 62 -103 62h-41l5 43h39c69 2 111 33 111 77c0 30 -18 51 -64 51c-34 0 -63 -10 -89 -23l-17 37c30 16 69 29 112 29c67 0 107 -37 107 -90c0 -51 -37 -86 -81 -100v-2c40 -8 70 -37 70 -83
c0 -69 -58 -119 -155 -119c-34 0 -74 7 -102 21z" />
    <glyph glyph-name="two.numr" horiz-adv-x="313" 
d="M35 270c23 201 227 194 227 294c0 29 -22 49 -61 49c-35 0 -65 -13 -95 -30l-19 37c37 22 77 36 118 36c69 0 106 -38 106 -90c0 -121 -182 -131 -216 -251h184l-4 -45h-240z" />
    <glyph glyph-name="one.numr" horiz-adv-x="277" 
d="M113 270l69 329c-37 -21 -79 -33 -114 -42v42c40 10 102 38 133 56h41l-81 -385h-48z" />
    <glyph glyph-name="sigma" unicode="&#x3c3;" horiz-adv-x="530" 
d="M205 -10c-98 0 -169 66 -169 180c0 183 121 303 280 303h246l-19 -48h-78c-20 0 -51 2 -71 3v-2c28 -41 48 -90 48 -159c0 -129 -87 -277 -237 -277zM209 38c112 0 177 125 177 239c0 60 -24 115 -51 148h-10c-150 0 -233 -113 -233 -249c0 -89 43 -138 117 -138z" />
    <glyph glyph-name="macron.cap" horiz-adv-x="350" 
d="M56 722l10 46h232l-10 -46h-232z" />
    <glyph glyph-name="breve.cap" horiz-adv-x="350" 
d="M174 708c-70 0 -105 45 -100 114h42c0 -43 16 -71 62 -71c48 0 73 31 87 71h43c-15 -69 -64 -114 -134 -114z" />
    <glyph glyph-name="ring.cap" horiz-adv-x="350" 
d="M172 653c-53 0 -90 34 -90 86c0 64 48 102 104 102c53 0 90 -34 90 -86c0 -64 -48 -102 -104 -102zM173 689c35 0 59 27 59 66c0 30 -18 50 -47 50c-35 0 -59 -27 -59 -66c0 -30 18 -50 47 -50z" />
    <glyph glyph-name="hungarumlaut.cap" horiz-adv-x="350" 
d="M69 696l77 147h67l-100 -147h-44zM224 696l77 147h67l-100 -147h-44z" />
    <glyph glyph-name="dotaccent.cap" horiz-adv-x="350" 
d="M176 723c-22 0 -34 13 -34 33c0 28 22 47 45 47c22 0 34 -13 34 -33c0 -28 -22 -47 -45 -47z" />
    <glyph glyph-name="uni0326" unicode="&#x326;" horiz-adv-x="350" 
d="M120 -237l-15 39c62 19 89 48 89 91c0 17 -5 36 -13 55h50c8 -12 14 -37 14 -58c0 -57 -41 -104 -125 -127z" />
    <glyph glyph-name="Alpha" unicode="&#x391;" horiz-adv-x="545" 
d="M-29 0l333 661h36l115 -661h-55l-31 182h-250l-90 -182h-58zM143 228h217l-37 232c-5 33 -10 65 -16 105h-2c-18 -40 -30 -69 -52 -113z" />
    <glyph glyph-name="Beta" unicode="&#x392;" horiz-adv-x="510" 
d="M18 0l138 659h123c127 0 172 -78 172 -150c0 -82 -45 -139 -118 -167v-2c53 -13 105 -60 105 -132c0 -106 -86 -208 -278 -208h-142zM146 361h98c115 0 152 91 152 146c0 57 -31 106 -119 106h-79zM80 46h98c132 0 204 70 204 159c0 69 -48 110 -129 110h-117z" />
    <glyph glyph-name="Gamma" unicode="&#x393;" horiz-adv-x="436" 
d="M18 0l138 659h290l-19 -46h-229l-128 -613h-52z" />
    <glyph glyph-name="Epsilon" unicode="&#x395;" horiz-adv-x="420" 
d="M18 0l138 659h284l-19 -46h-223l-52 -252h217l-10 -46h-217l-56 -269h248l-10 -46h-300z" />
    <glyph glyph-name="Zeta" unicode="&#x396;" horiz-adv-x="500" 
d="M-16 0l436 613h-306l-7 46h405l-435 -613h341l-10 -46h-424z" />
    <glyph glyph-name="Eta" unicode="&#x397;" horiz-adv-x="629" 
d="M18 0l138 659h52l-63 -301h351l63 301h52l-138 -659h-52l65 312h-351l-65 -312h-52z" />
    <glyph glyph-name="Theta" unicode="&#x398;" horiz-adv-x="706" 
d="M308 -10c-154 0 -259 93 -259 278c0 198 132 396 349 396c154 0 259 -91 259 -276c0 -198 -132 -398 -349 -398zM311 38c188 0 290 185 290 352c0 141 -68 226 -204 226c-190 0 -292 -183 -292 -349c0 -141 67 -229 206 -229zM186 313l11 48h320l-11 -48h-320z" />
    <glyph glyph-name="Iota" unicode="&#x399;" horiz-adv-x="226" 
d="M18 0l138 659h52l-138 -659h-52z" />
    <glyph glyph-name="Kappa" unicode="&#x39a;" horiz-adv-x="490" 
d="M18 0l138 659h52l-66 -317h3l302 317h64l-327 -341l230 -318h-65l-214 300h-2l-63 -300h-52z" />
    <glyph glyph-name="Lambda" unicode="&#x39b;" horiz-adv-x="545" 
d="M-29 0l332 662h36l116 -662h-55l-77 460c-6 34 -10 65 -16 105h-2c-18 -40 -30 -69 -52 -113l-224 -452h-58z" />
    <glyph glyph-name="Mu" unicode="&#x39c;" horiz-adv-x="764" 
d="M18 0l138 659h53l107 -312c17 -50 34 -98 46 -136h2c21 31 51 74 74 106l251 342h57l-138 -659h-52l75 358c15 73 30 137 48 206h-2c-24 -34 -59 -84 -91 -127l-216 -291h-36l-100 285c-16 45 -32 91 -44 133h-2c-11 -51 -25 -119 -37 -176l-81 -388h-52z" />
    <glyph glyph-name="Nu" unicode="&#x39d;" horiz-adv-x="667" 
d="M18 0l138 659h48l230 -471c15 -31 32 -67 45 -98h2c7 41 14 78 21 111l95 458h52l-138 -659h-39l-237 485c-15 31 -32 65 -44 96h-2c-6 -44 -14 -81 -19 -105l-100 -476h-52z" />
    <glyph glyph-name="Xi" unicode="&#x39e;" horiz-adv-x="513" 
d="M-13 0l10 46h410l-10 -46h-410zM109 315l10 46h300l-10 -46h-300zM128 613l10 46h386l-19 -46h-377z" />
    <glyph glyph-name="Omicron" unicode="&#x39f;" horiz-adv-x="706" 
d="M308 -10c-154 0 -259 93 -259 278c0 198 132 396 349 396c154 0 259 -91 259 -276c0 -198 -132 -398 -349 -398zM311 38c188 0 290 185 290 352c0 141 -68 226 -204 226c-190 0 -292 -183 -292 -349c0 -141 67 -229 206 -229z" />
    <glyph glyph-name="Pi" unicode="&#x3a0;" horiz-adv-x="616" 
d="M18 0l138 659h442l-138 -659h-52l128 613h-338l-128 -613h-52z" />
    <glyph glyph-name="Rho" unicode="&#x3a1;" horiz-adv-x="466" 
d="M18 0l138 659h69c42 0 71 -4 97 -12c78 -25 123 -87 123 -171c0 -104 -68 -190 -179 -216c-26 -6 -58 -10 -101 -10h-43l-52 -250h-52zM132 296h40c35 0 63 3 85 9c87 23 133 90 133 174c0 55 -25 103 -87 124c-21 7 -46 10 -78 10h-27z" />
    <glyph glyph-name="Sigma" unicode="&#x3a3;" horiz-adv-x="464" 
d="M-35 0l266 354l-121 305h365l-19 -46h-272l105 -266l-228 -301h311l-10 -46h-397z" />
    <glyph glyph-name="Tau" unicode="&#x3a4;" horiz-adv-x="462" 
d="M135 0l128 613h-193l10 46h440l-19 -46h-186l-128 -613h-52z" />
    <glyph glyph-name="Upsilon" unicode="&#x3a5;" horiz-adv-x="545" 
d="M175 0l41 196c7 31 10 62 10 83c0 95 -38 220 -121 380h57c54 -111 94 -214 106 -320h2c48 110 160 236 239 320h68c-158 -163 -276 -303 -308 -458l-42 -201h-52z" />
    <glyph glyph-name="Phi" unicode="&#x3a6;" horiz-adv-x="726" 
d="M259 -20l13 64c-132 9 -229 89 -229 224c0 198 140 343 349 346l13 60h52l-13 -61c131 -10 228 -90 228 -224c0 -198 -140 -342 -348 -346l-13 -63h-52zM282 92l100 474c-170 -6 -283 -128 -283 -294c0 -109 64 -171 183 -180zM334 91c169 6 282 128 282 294
c0 108 -64 170 -182 179z" />
    <glyph glyph-name="Chi" unicode="&#x3a7;" horiz-adv-x="570" 
d="M-25 0l272 336l-149 323h59l129 -283l230 283h65l-270 -335l149 -324h-57l-132 285l-231 -285h-65z" />
    <glyph glyph-name="Psi" unicode="&#x3a8;" horiz-adv-x="666" 
d="M235 0l47 227c-120 10 -191 61 -191 206c0 59 12 133 38 226h52c-25 -94 -38 -172 -38 -227c0 -114 50 -153 149 -158l81 385h52l-81 -385c155 6 230 93 275 385h53c-44 -333 -158 -428 -338 -433l-47 -226h-52z" />
    <glyph glyph-name="Alphatonos" unicode="&#x386;" horiz-adv-x="545" 
d="M46 473l72 186h60l-83 -186h-49zM-29 0l333 661h36l115 -661h-55l-31 182h-250l-90 -182h-58zM143 228h217l-37 232c-5 33 -10 65 -16 105h-2c-18 -40 -30 -69 -52 -113z" />
    <glyph glyph-name="Epsilontonos" unicode="&#x388;" horiz-adv-x="450" 
d="M4 473l72 186h60l-83 -186h-49zM48 0l138 659h284l-19 -46h-223l-52 -252h217l-10 -46h-217l-56 -269h248l-10 -46h-300z" />
    <glyph glyph-name="Etatonos" unicode="&#x389;" horiz-adv-x="659" 
d="M4 473l72 186h60l-83 -186h-49zM48 0l138 659h52l-63 -301h351l63 301h52l-138 -659h-52l65 312h-351l-65 -312h-52z" />
    <glyph glyph-name="Iotatonos" unicode="&#x38a;" horiz-adv-x="256" 
d="M4 473l72 186h60l-83 -186h-49zM48 0l138 659h52l-138 -659h-52z" />
    <glyph glyph-name="Iotadieresis" unicode="&#x3aa;" horiz-adv-x="226" 
d="M18 0l138 659h52l-138 -659h-52zM104 708c-20 0 -31 13 -31 31c0 24 18 41 39 41c20 0 31 -13 31 -31c0 -24 -18 -41 -39 -41zM274 708c-20 0 -31 13 -31 31c0 24 18 41 39 41c20 0 31 -13 31 -31c0 -24 -18 -41 -39 -41z" />
    <glyph glyph-name="Omicrontonos" unicode="&#x38c;" horiz-adv-x="750" 
d="M4 473l72 186h60l-83 -186h-49zM352 -10c-154 0 -259 96 -259 281c0 202 132 393 349 393c154 0 259 -94 259 -279c0 -202 -132 -395 -349 -395zM355 38c189 0 290 180 290 347c0 141 -68 231 -204 231c-191 0 -292 -178 -292 -344c0 -141 67 -234 206 -234z" />
    <glyph glyph-name="Upsilontonos" unicode="&#x38e;" horiz-adv-x="609" 
d="M4 473l72 186h60l-83 -186h-49zM239 0l41 196c7 31 10 62 10 83c0 95 -38 220 -121 380h57c54 -111 94 -214 106 -320h2c48 110 160 236 239 320h68c-158 -163 -276 -303 -308 -458l-42 -201h-52z" />
    <glyph glyph-name="Upsilondieresis" unicode="&#x3ab;" horiz-adv-x="545" 
d="M175 0l41 196c7 31 10 62 10 83c0 95 -38 220 -121 380h57c54 -111 94 -214 106 -320h2c48 110 160 236 239 320h68c-158 -163 -276 -303 -308 -458l-42 -201h-52zM256 708c-20 0 -31 13 -31 31c0 24 18 41 39 41c20 0 31 -13 31 -31c0 -24 -18 -41 -39 -41zM426 708
c-20 0 -31 13 -31 31c0 24 18 41 39 41c20 0 31 -13 31 -31c0 -24 -18 -41 -39 -41z" />
    <glyph glyph-name="Omegatonos" unicode="&#x38f;" horiz-adv-x="738" 
d="M4 473l72 186h60l-83 -186h-49zM33 0l9 46h72c18 0 56 -1 83 -4v2c-58 50 -103 138 -103 238c0 205 131 382 342 382c167 0 252 -121 252 -255c0 -178 -105 -292 -226 -367v-2c25 4 58 6 83 6h65l-9 -46h-229l8 38c147 81 253 204 253 364c0 111 -62 214 -203 214
c-161 0 -281 -144 -281 -336c0 -95 41 -187 121 -242l-8 -38h-229z" />
    <glyph glyph-name="alpha" unicode="&#x3b1;" horiz-adv-x="545" 
d="M164 -10c-85 0 -128 74 -128 170c0 156 94 325 220 325c85 0 117 -62 127 -159h2c25 51 51 104 76 151l41 -23c-38 -69 -75 -144 -109 -215c-1 -126 0 -195 55 -195c10 0 17 2 23 4v-48c-8 -3 -19 -5 -29 -5c-73 0 -92 58 -91 155h-2c-36 -73 -96 -160 -185 -160zM169 38
c81 0 143 124 175 210c-7 96 -18 189 -88 189c-95 0 -164 -158 -164 -279c0 -78 26 -120 77 -120z" />
    <glyph glyph-name="beta" unicode="&#x3b2;" horiz-adv-x="503" 
d="M223 -10c-103 0 -165 61 -165 212c0 178 102 506 306 506c81 0 121 -51 121 -120c0 -101 -73 -168 -150 -212v-2c68 -11 104 -66 104 -144c0 -112 -79 -240 -216 -240zM227 37c93 0 156 92 156 193c0 64 -36 109 -94 109c-39 0 -121 -30 -168 -47c-5 -30 -7 -61 -7 -89
c0 -111 32 -166 113 -166zM131 345c139 38 298 105 298 242c0 37 -18 73 -67 74c-102 2 -194 -153 -231 -316z" />
    <glyph glyph-name="beta.alt" horiz-adv-x="496" 
d="M-35 -237l160 770c25 117 92 175 185 175c99 0 160 -66 160 -154c0 -100 -65 -167 -130 -189v-2c60 -21 90 -67 90 -143c0 -138 -95 -230 -218 -230c-61 0 -112 22 -137 44h-2l-56 -271h-52zM210 37c97 0 164 67 164 184c0 80 -48 122 -138 122c-6 0 -16 0 -27 -1l10 48
c11 -1 24 -1 29 -1c83 0 166 60 166 166c0 69 -46 106 -103 106c-77 0 -119 -56 -138 -151l-89 -426c29 -33 80 -47 126 -47z" />
    <glyph glyph-name="gamma" unicode="&#x3b3;" horiz-adv-x="476" 
d="M75 -237c5 27 19 92 36 159c19 101 35 202 35 288c0 74 -7 226 -100 226c-8 0 -18 -1 -23 -2v48c10 2 24 3 33 3c120 0 140 -158 140 -244c0 -53 -8 -122 -17 -163h2c71 163 157 298 256 404l38 -34c-95 -104 -195 -253 -276 -432c-22 -48 -36 -99 -49 -161l-20 -92h-55z
" />
    <glyph glyph-name="delta" unicode="&#x3b4;" horiz-adv-x="509" 
d="M212 -10c-111 0 -176 70 -176 180c0 129 83 236 227 269v2c-43 36 -89 80 -89 143c0 77 66 124 155 124c72 0 143 -28 175 -45l-17 -44c-28 15 -92 41 -151 42c-70 1 -107 -30 -107 -79c0 -111 222 -146 222 -342c0 -132 -98 -250 -239 -250zM216 38
c102 0 179 89 179 203c0 79 -39 122 -88 163c-130 -24 -215 -111 -215 -233c0 -89 47 -133 124 -133z" />
    <glyph glyph-name="epsilon" unicode="&#x3b5;" horiz-adv-x="424" 
d="M188 -10c-100 0 -166 55 -166 129c0 72 53 117 122 128v2c-48 15 -72 48 -72 95c0 81 72 141 178 141c55 0 99 -12 130 -27l-10 -48c-30 17 -71 27 -116 27c-66 0 -126 -32 -126 -91c0 -38 25 -77 117 -77c13 0 39 0 56 1l-10 -48c-22 1 -43 1 -52 1
c-88 0 -161 -32 -161 -99c0 -63 57 -86 115 -86c64 0 108 14 155 39l13 -41c-36 -22 -96 -46 -173 -46z" />
    <glyph glyph-name="zeta" unicode="&#x3b6;" horiz-adv-x="424" 
d="M273 -175l-40 28c15 16 61 65 61 101c0 92 -245 44 -245 238c0 216 196 391 337 463v3c-61 -12 -133 -20 -210 -21l-4 47c73 0 209 8 291 22v-45c-180 -103 -357 -263 -357 -466c0 -163 245 -104 245 -230c0 -53 -50 -111 -78 -140z" />
    <glyph glyph-name="eta" unicode="&#x3b7;" horiz-adv-x="496" 
d="M34 0l78 372c4 17 6 30 6 40c0 19 -8 25 -23 25c-10 0 -22 -3 -30 -6v45c14 6 31 9 46 9c38 0 57 -23 57 -62c0 -13 -2 -27 -6 -43h2c43 64 111 105 175 105c57 0 103 -33 103 -112c0 -18 -2 -43 -11 -88l-107 -522h-52l107 523c7 32 10 65 10 79c0 52 -27 71 -62 71
c-43 0 -100 -30 -142 -86c-25 -33 -40 -68 -53 -129l-46 -221h-52z" />
    <glyph glyph-name="theta" unicode="&#x3b8;" horiz-adv-x="501" 
d="M173 -10c-84 0 -138 48 -138 125c0 67 44 124 44 189c0 18 -4 31 -8 43h54c4 -12 8 -26 8 -44c0 -68 -43 -124 -43 -188c0 -52 31 -77 88 -77c123 0 188 150 214 292c-126 21 -259 66 -259 206c0 99 67 172 160 172c113 0 167 -93 167 -254c0 -167 -78 -464 -287 -464z
M189 540c0 -118 121 -146 210 -160c4 32 6 63 6 90c0 99 -28 190 -112 190c-61 0 -104 -46 -104 -120z" />
    <glyph glyph-name="theta.alt" horiz-adv-x="509" 
d="M206 -10c-105 0 -153 76 -153 208c0 160 65 510 271 510c105 0 153 -76 153 -208c0 -160 -65 -510 -271 -510zM207 38c106 0 169 152 197 299h-282c-9 -54 -13 -105 -13 -146c0 -99 28 -153 98 -153zM130 383h281c6 45 10 88 10 124c0 99 -28 153 -98 153
c-101 0 -163 -138 -193 -277z" />
    <glyph glyph-name="iota" unicode="&#x3b9;" horiz-adv-x="228" 
d="M111 -5c-46 0 -76 26 -76 69c0 7 1 18 4 33l79 376h52l-79 -376c-3 -14 -3 -20 -3 -24c0 -22 14 -30 33 -30c14 0 25 3 37 7v-47c-14 -5 -29 -8 -47 -8z" />
    <glyph glyph-name="kappa" unicode="&#x3ba;" horiz-adv-x="457" 
d="M14 0l99 473h52l-35 -167c-4 -19 -10 -45 -17 -70h2c91 118 255 208 328 244l24 -43c-70 -33 -172 -92 -254 -164l161 -273h-61l-137 238c-45 -43 -80 -93 -90 -141l-20 -97h-52z" />
    <glyph glyph-name="lambda" unicode="&#x3bb;" horiz-adv-x="464" 
d="M-20 0l256 477c-20 156 -50 184 -96 184c-16 0 -31 -3 -49 -9l-10 43c21 8 43 13 65 13c85 0 119 -57 143 -242c26 -200 55 -347 122 -466h-62c-45 82 -83 237 -101 391h-2l-206 -391h-60z" />
    <glyph glyph-name="uni03BC" unicode="&#x3bc;" horiz-adv-x="510" 
d="M-36 -237l149 710h52l-59 -284c-7 -32 -10 -63 -10 -75c0 -56 33 -75 67 -75c77 0 156 65 183 197l50 237h52l-71 -341c-9 -44 -9 -56 -9 -60c0 -21 9 -29 29 -29c10 0 22 2 32 6v-47c-13 -5 -29 -7 -42 -7c-44 0 -65 24 -65 67c0 6 1 20 2 26h-2
c-42 -60 -104 -98 -166 -98c-33 0 -68 12 -84 48h-2c-5 -45 -14 -90 -21 -123l-32 -152h-53z" />
    <glyph glyph-name="nu" unicode="&#x3bd;" horiz-adv-x="445" 
d="M133 -3l-88 476h52l74 -408h2c110 110 178 214 178 356c0 17 -1 34 -4 52h56c3 -16 4 -33 4 -49c0 -170 -94 -290 -239 -427h-35z" />
    <glyph glyph-name="xi" unicode="&#x3be;" horiz-adv-x="404" 
d="M212 -147c17 19 62 62 62 99c0 88 -229 53 -229 223c0 94 75 157 156 174v2c-35 15 -65 46 -65 99c0 93 79 157 198 201v3c-56 -9 -121 -17 -183 -17l-4 47c71 0 209 9 295 20v-39c-135 -56 -249 -107 -249 -209c0 -60 40 -86 125 -86c9 0 16 0 34 1l-10 -45
c-12 1 -22 1 -24 1c-102 0 -217 -39 -217 -146c0 -143 230 -97 230 -216c0 -58 -51 -111 -79 -140z" />
    <glyph glyph-name="omicron" unicode="&#x3bf;" horiz-adv-x="496" 
d="M201 -10c-116 0 -165 80 -165 172c0 195 118 323 247 323c116 0 165 -80 165 -172c0 -195 -118 -323 -247 -323zM203 38c120 0 189 138 189 269c0 77 -30 130 -111 130c-120 0 -189 -138 -189 -269c0 -77 30 -130 111 -130z" />
    <glyph glyph-name="rho" unicode="&#x3c1;" horiz-adv-x="498" 
d="M-35 -237l104 503c30 143 92 219 210 219c93 0 171 -63 171 -191c0 -150 -91 -304 -246 -304c-56 0 -102 19 -129 43h-2l-56 -270h-52zM203 38c120 0 191 127 191 263c0 96 -52 136 -117 136c-93 0 -136 -76 -159 -187l-34 -165c33 -32 73 -47 119 -47z" />
    <glyph glyph-name="onefifth" horiz-adv-x="825" 
d="M123 0l486 659h53l-486 -659h-53zM138 270l69 329c-37 -21 -79 -33 -114 -42v42c40 10 102 38 133 56h41l-81 -385h-48zM486 13l18 40c23 -11 51 -18 84 -18c56 0 106 24 106 82c0 25 -10 46 -34 57c-14 7 -33 10 -62 10h-58l40 193h198l-10 -42h-148l-23 -110h11
c36 0 57 -4 74 -11c39 -17 61 -51 61 -93c0 -84 -66 -129 -158 -129c-38 0 -73 8 -99 21z" />
    <glyph glyph-name="twofifths" horiz-adv-x="825" 
d="M180 0l486 659h53l-486 -659h-53zM60 270c23 201 227 194 227 294c0 29 -22 49 -61 49c-35 0 -65 -13 -95 -30l-19 37c37 22 77 36 118 36c69 0 106 -38 106 -90c0 -121 -182 -131 -216 -251h184l-4 -45h-240zM519 13l18 40c23 -11 51 -18 84 -18c56 0 106 24 106 82
c0 25 -10 46 -34 57c-14 7 -33 10 -62 10h-58l40 193h198l-10 -42h-148l-23 -110h11c36 0 57 -4 74 -11c39 -17 61 -51 61 -93c0 -84 -66 -129 -158 -129c-38 0 -73 8 -99 21z" />
    <glyph glyph-name="onehalf.afrc" horiz-adv-x="360" 
d="M173 435l69 329c-37 -21 -79 -33 -114 -42v42c40 10 102 38 133 56h41l-81 -385h-48zM-3 -180c23 201 227 194 227 294c0 29 -22 49 -61 49c-35 0 -65 -13 -95 -30l-19 37c37 22 77 36 118 36c69 0 106 -38 106 -90c0 -121 -182 -131 -216 -251h184l-4 -45h-240zM-5 296
l9 42h360l-9 -42h-360z" />
    <glyph glyph-name="onethird.afrc" horiz-adv-x="360" 
d="M173 435l69 329c-37 -21 -79 -33 -114 -42v42c40 10 102 38 133 56h41l-81 -385h-48zM-5 296l9 42h360l-9 -42h-360zM5 -167l18 40c26 -12 56 -18 84 -18c61 0 106 26 106 75c0 43 -38 62 -103 62h-41l5 43h39c69 2 111 33 111 77c0 30 -18 51 -64 51
c-34 0 -63 -10 -89 -23l-17 37c30 16 69 29 112 29c67 0 107 -37 107 -90c0 -51 -37 -86 -81 -100v-2c40 -8 70 -37 70 -83c0 -69 -58 -119 -155 -119c-34 0 -74 7 -102 21z" />
    <glyph glyph-name="twothirds.afrc" horiz-adv-x="360" 
d="M78 435c23 201 227 194 227 294c0 29 -22 49 -61 49c-35 0 -65 -13 -95 -30l-19 37c37 22 77 36 118 36c69 0 106 -38 106 -90c0 -121 -182 -131 -216 -251h184l-4 -45h-240zM-5 296l9 42h360l-9 -42h-360zM5 -167l18 40c26 -12 56 -18 84 -18c61 0 106 26 106 75
c0 43 -38 62 -103 62h-41l5 43h39c69 2 111 33 111 77c0 30 -18 51 -64 51c-34 0 -63 -10 -89 -23l-17 37c30 16 69 29 112 29c67 0 107 -37 107 -90c0 -51 -37 -86 -81 -100v-2c40 -8 70 -37 70 -83c0 -69 -58 -119 -155 -119c-34 0 -74 7 -102 21z" />
    <glyph glyph-name="onequarter.afrc" horiz-adv-x="360" 
d="M173 435l69 329c-37 -21 -79 -33 -114 -42v42c40 10 102 38 133 56h41l-81 -385h-48zM149 -180l18 89h-166l-7 36l237 260h47l-54 -254h53l-8 -42h-54l-18 -89h-48zM176 -49l10 45c8 37 16 75 30 130l-160 -175h120zM-5 296l9 42h360l-9 -42h-360z" />
    </font>
</defs>
</svg>
